<svg xmlns="http://www.w3.org/2000/svg" xmlns:xlink="http://www.w3.org/1999/xlink" contentStyleType="text/css" height="624px" preserveAspectRatio="none" style="width:637px;height:624px;background:#FEFEFE;" version="1.1" viewBox="0 0 637 624" width="637px" zoomAndPan="magnify"><defs/><g><rect fill="#FEFEFE" height="624" style="stroke:none;stroke-width:1.0;" width="637" x="0" y="0"/><!--cluster frontend--><g id="cluster_frontend"><rect fill="#E8F0FE" height="104" rx="2.5" ry="2.5" style="stroke:#181818;stroke-width:1.0;" width="122" x="264" y="7"/><text fill="#000000" font-family="sans-serif" font-size="14" font-weight="bold" lengthAdjust="spacing" textLength="106.3467" x="271.8267" y="21.9951">F r o n t e n d</text></g><!--cluster gateway_layer--><g id="cluster_gateway_layer"><rect fill="#FFF8E7" height="201" rx="2.5" ry="2.5" style="stroke:#181818;stroke-width:1.0;" width="208" x="221" y="144"/><text fill="#000000" font-family="sans-serif" font-size="14" font-weight="bold" lengthAdjust="spacing" textLength="53.0605" x="298.4697" y="158.9951">&#25509; &#20837; &#23618;</text></g><!--cluster biz_layer--><g id="cluster_biz_layer"><rect fill="#F0FFF0" height="104" rx="2.5" ry="2.5" style="stroke:#181818;stroke-width:1.0;" width="603" x="7" y="378"/><text fill="#000000" font-family="sans-serif" font-size="14" font-weight="bold" lengthAdjust="spacing" textLength="53.0605" x="281.9697" y="392.9951">&#19994; &#21153; &#23618;</text></g><!--cluster data_layer--><g id="cluster_data_layer"><rect fill="#FFF0F0" height="87" rx="2.5" ry="2.5" style="stroke:#181818;stroke-width:1.0;" width="317" x="189" y="531"/><text fill="#000000" font-family="sans-serif" font-size="14" font-weight="bold" lengthAdjust="spacing" textLength="53.0605" x="320.9697" y="545.9951">&#25968; &#25454; &#23618;</text></g><!--entity vue--><g id="elem_vue"><rect fill="#F1F1F1" height="52.5938" rx="2.5" ry="2.5" style="stroke:#181818;stroke-width:0.5;" width="87.3271" x="281.5" y="42"/><text fill="#000000" font-family="sans-serif" font-size="14" lengthAdjust="spacing" textLength="67.3271" x="291.5" y="64.9951">Vue3 SPA</text><text fill="#000000" font-family="sans-serif" font-size="14" lengthAdjust="spacing" textLength="40.3457" x="291.5" y="81.292">:5173</text></g><!--entity nginx--><g id="elem_nginx"><rect fill="#F1F1F1" height="36.2969" rx="2.5" ry="2.5" style="stroke:#181818;stroke-width:0.5;" width="131.7813" x="259" y="179"/><text fill="#000000" font-family="sans-serif" font-size="14" lengthAdjust="spacing" textLength="111.7813" x="269" y="201.9951">Nginx (&#21453;&#21521;&#20195;&#29702;)</text></g><!--entity gateway--><g id="elem_gateway"><rect fill="#F1F1F1" height="52.5938" rx="2.5" ry="2.5" style="stroke:#181818;stroke-width:0.5;" width="175.9141" x="237" y="276"/><text fill="#000000" font-family="sans-serif" font-size="14" lengthAdjust="spacing" textLength="155.9141" x="247" y="298.9951">Spring Cloud Gateway</text><text fill="#000000" font-family="sans-serif" font-size="14" lengthAdjust="spacing" textLength="40.3457" x="247" y="315.292">:8080</text></g><!--entity user--><g id="elem_user"><rect fill="#F1F1F1" height="52.5938" rx="2.5" ry="2.5" style="stroke:#181818;stroke-width:0.5;" width="81.2295" x="284.5" y="413"/><text fill="#000000" font-family="sans-serif" font-size="14" lengthAdjust="spacing" textLength="61.2295" x="294.5" y="435.9951">User Svc</text><text fill="#000000" font-family="sans-serif" font-size="14" lengthAdjust="spacing" textLength="40.3457" x="294.5" y="452.292">:8081</text></g><!--entity product--><g id="elem_product"><rect fill="#F1F1F1" height="52.5938" rx="2.5" ry="2.5" style="stroke:#181818;stroke-width:0.5;" width="103.0293" x="146.5" y="413"/><text fill="#000000" font-family="sans-serif" font-size="14" lengthAdjust="spacing" textLength="83.0293" x="156.5" y="435.9951">Product Svc</text><text fill="#000000" font-family="sans-serif" font-size="14" lengthAdjust="spacing" textLength="40.3457" x="156.5" y="452.292">:8082</text></g><!--entity order--><g id="elem_order"><rect fill="#F1F1F1" height="52.5938" rx="2.5" ry="2.5" style="stroke:#181818;stroke-width:0.5;" width="89.3506" x="22.5" y="413"/><text fill="#000000" font-family="sans-serif" font-size="14" lengthAdjust="spacing" textLength="69.3506" x="32.5" y="435.9951">Order Svc</text><text fill="#000000" font-family="sans-serif" font-size="14" lengthAdjust="spacing" textLength="40.3457" x="32.5" y="452.292">:8083</text></g><!--entity ai--><g id="elem_ai"><rect fill="#F1F1F1" height="52.5938" rx="2.5" ry="2.5" style="stroke:#181818;stroke-width:0.5;" width="63.0254" x="530.5" y="413"/><text fill="#000000" font-family="sans-serif" font-size="14" lengthAdjust="spacing" textLength="43.0254" x="540.5" y="435.9951">AI Svc</text><text fill="#000000" font-family="sans-serif" font-size="14" lengthAdjust="spacing" textLength="40.3457" x="540.5" y="452.292">:8084</text></g><!--entity seckill--><g id="elem_seckill"><rect fill="#F1F1F1" height="52.5938" rx="2.5" ry="2.5" style="stroke:#181818;stroke-width:0.5;" width="94.293" x="401" y="413"/><text fill="#000000" font-family="sans-serif" font-size="14" lengthAdjust="spacing" textLength="74.293" x="411" y="435.9951">Seckill Svc</text><text fill="#000000" font-family="sans-serif" font-size="14" lengthAdjust="spacing" textLength="40.3457" x="411" y="452.292">:8085</text></g><!--entity mysql--><g id="elem_mysql"><rect fill="#F1F1F1" height="36.2969" rx="2.5" ry="2.5" style="stroke:#181818;stroke-width:0.5;" width="68.0703" x="205" y="566"/><text fill="#000000" font-family="sans-serif" font-size="14" lengthAdjust="spacing" textLength="48.0703" x="215" y="588.9951">MySQL</text></g><!--entity redis--><g id="elem_redis"><rect fill="#F1F1F1" height="36.2969" rx="2.5" ry="2.5" style="stroke:#181818;stroke-width:0.5;" width="58.4111" x="308" y="566"/><text fill="#000000" font-family="sans-serif" font-size="14" lengthAdjust="spacing" textLength="38.4111" x="318" y="588.9951">Redis</text></g><!--entity mq--><g id="elem_mq"><rect fill="#F1F1F1" height="36.2969" rx="2.5" ry="2.5" style="stroke:#181818;stroke-width:0.5;" width="88.5576" x="401.5" y="566"/><text fill="#000000" font-family="sans-serif" font-size="14" lengthAdjust="spacing" textLength="68.5576" x="411.5" y="588.9951">RabbitMQ</text></g><!--entity DeepSeek API--><g id="elem_DeepSeek API"><ellipse cx="582" cy="584" fill="#F1F1F1" rx="8" ry="8" style="stroke:#181818;stroke-width:0.5;"/><text fill="#000000" font-family="sans-serif" font-size="14" lengthAdjust="spacing" textLength="97.7129" x="533.1436" y="613.9951">DeepSeek API</text></g><!--link vue to nginx--><g id="link_vue_nginx"><path d="M325,95.1 C325,120.08 325,151.38 325,172.94 " fill="none" id="vue-to-nginx" style="stroke:#181818;stroke-width:1.0;"/><polygon fill="#181818" points="325,178.94,329,169.94,325,173.94,321,169.94,325,178.94" style="stroke:#181818;stroke-width:1.0;"/></g><!--link nginx to gateway--><g id="link_nginx_gateway"><path d="M325,215.09 C325,231.63 325,250.9 325,269.85 " fill="none" id="nginx-to-gateway" style="stroke:#181818;stroke-width:1.0;"/><polygon fill="#181818" points="325,275.85,329,266.85,325,270.85,321,266.85,325,275.85" style="stroke:#181818;stroke-width:1.0;"/></g><!--link gateway to user--><g id="link_gateway_user"><path d="M325,329.21 C325,353.23 325,382.89 325,406.89 " fill="none" id="gateway-to-user" style="stroke:#181818;stroke-width:1.0;"/><polygon fill="#181818" points="325,412.89,329,403.89,325,407.89,321,403.89,325,412.89" style="stroke:#181818;stroke-width:1.0;"/></g><!--link gateway to product--><g id="link_gateway_product"><path d="M300.81,329.21 C278.22,353.23 248.7804,384.5191 226.2104,408.5191 " fill="none" id="gateway-to-product" style="stroke:#181818;stroke-width:1.0;"/><polygon fill="#181818" points="222.1,412.89,231.1795,409.074,225.5254,409.2476,225.3517,403.5934,222.1,412.89" style="stroke:#181818;stroke-width:1.0;"/></g><!--link gateway to order--><g id="link_gateway_order"><path d="M236.74,323.12 C201.39,333.53 161.44,348.7 129,370 C111.84,381.27 100.0417,393.678 88.8317,407.978 " fill="none" id="gateway-to-order" style="stroke:#181818;stroke-width:1.0;"/><polygon fill="#181818" points="85.13,412.7,93.8305,408.0847,88.2147,408.765,87.5345,403.1492,85.13,412.7" style="stroke:#181818;stroke-width:1.0;"/></g><!--link gateway to ai--><g id="link_gateway_ai"><path d="M413.27,322.66 C446.75,332.89 483.81,348.04 513,370 C527.96,381.25 537.1432,393.223 545.6532,407.533 " fill="none" id="gateway-to-ai" style="stroke:#181818;stroke-width:1.0;"/><polygon fill="#181818" points="548.72,412.69,547.5578,402.91,546.1643,408.3925,540.6818,406.999,548.72,412.69" style="stroke:#181818;stroke-width:1.0;"/></g><!--link gateway to seckill--><g id="link_gateway_seckill"><path d="M348.42,329.21 C370.31,353.23 398.7597,384.4542 420.6197,408.4542 " fill="none" id="gateway-to-seckill" style="stroke:#181818;stroke-width:1.0;"/><polygon fill="#181818" points="424.66,412.89,421.5568,403.5428,421.2931,409.1935,415.6424,408.9298,424.66,412.89" style="stroke:#181818;stroke-width:1.0;"/></g><!--link user to mysql--><g id="link_user_mysql"><path d="M293.25,466.05 C279.53,477.66 265.58,490.47 261,498 C248.1,519.23 243.444,541.9351 241.224,559.9451 " fill="none" id="user-to-mysql" style="stroke:#181818;stroke-width:1.0;"/><polygon fill="#181818" points="240.49,565.9,245.561,557.457,241.1017,560.9376,237.6211,556.4782,240.49,565.9" style="stroke:#181818;stroke-width:1.0;"/></g><!--link product to mysql--><g id="link_product_mysql"><path d="M205.42,466.31 C213.73,495.18 225.3012,535.3739 232.4212,560.1239 " fill="none" id="product-to-mysql" style="stroke:#181818;stroke-width:1.0;"/><polygon fill="#181818" points="234.08,565.89,235.4359,556.1349,232.6977,561.0849,227.7477,558.3466,234.08,565.89" style="stroke:#181818;stroke-width:1.0;"/></g><!--link order to mysql--><g id="link_order_mysql"><path d="M98.15,466.31 C133,495.18 183.8605,537.3111 213.7205,562.0611 " fill="none" id="order-to-mysql" style="stroke:#181818;stroke-width:1.0;"/><polygon fill="#181818" points="218.34,565.89,213.9634,557.067,214.4905,562.6992,208.8582,563.2263,218.34,565.89" style="stroke:#181818;stroke-width:1.0;"/></g><!--link seckill to mysql--><g id="link_seckill_mysql"><path d="M418.24,466.21 C407.6,474.56 395.21,483.36 383,490 C344.83,510.74 326.84,498.45 291,523 C274.28,534.45 263.0925,547.637 253.6325,560.967 " fill="none" id="seckill-to-mysql" style="stroke:#181818;stroke-width:1.0;"/><polygon fill="#181818" points="250.16,565.86,258.6308,560.8354,253.0537,561.7825,252.1067,556.2054,250.16,565.86" style="stroke:#181818;stroke-width:1.0;"/></g><!--link user to redis--><g id="link_user_redis"><path d="M333.22,466.27 C335.96,476.09 338.65,487.46 340,498 C343.01,521.43 341.7247,542.8147 339.8647,560.0247 " fill="none" id="user-to-redis" style="stroke:#181818;stroke-width:1.0;"/><polygon fill="#181818" points="339.22,565.99,344.1639,557.4719,339.7573,561.0189,336.2102,556.6123,339.22,565.99" style="stroke:#181818;stroke-width:1.0;"/></g><!--link product to redis--><g id="link_product_redis"><path d="M229.95,466.22 C248.56,481.83 272.03,502.62 291,523 C303.61,536.55 312.7926,548.4876 321.6426,560.8776 " fill="none" id="product-to-redis" style="stroke:#181818;stroke-width:1.0;"/><polygon fill="#181818" points="325.13,565.76,323.1538,556.1114,322.2238,561.6913,316.6439,560.7614,325.13,565.76" style="stroke:#181818;stroke-width:1.0;"/></g><!--link seckill to redis--><g id="link_seckill_redis"><path d="M427.9,466.31 C405.41,495.18 373.2972,536.4067 354.0172,561.1567 " fill="none" id="seckill-to-redis" style="stroke:#181818;stroke-width:1.0;"/><polygon fill="#181818" points="350.33,565.89,359.0164,561.2481,353.4027,561.9456,352.7053,556.3319,350.33,565.89" style="stroke:#181818;stroke-width:1.0;"/></g><!--link seckill to mq--><g id="link_seckill_mq"><path d="M447.64,466.31 C447.23,495.18 446.6748,535.1406 446.3248,559.8906 " fill="none" id="seckill-to-mq" style="stroke:#181818;stroke-width:1.0;"/><polygon fill="#181818" points="446.24,565.89,450.3669,556.9475,446.3107,560.8905,442.3677,556.8343,446.24,565.89" style="stroke:#181818;stroke-width:1.0;"/></g><!--link ai to DeepSeek API--><g id="link_ai_DeepSeek API"><path d="M565.62,466.31 C570.24,499.19 577.1248,548.2984 580.0248,568.9284 " fill="none" id="ai-to-DeepSeek API" style="stroke:#181818;stroke-width:1.0;stroke-dasharray:7.0,7.0;"/><polygon fill="#181818" points="580.86,574.87,583.5682,565.4008,580.164,569.9187,575.6461,566.5144,580.86,574.87" style="stroke:#181818;stroke-width:1.0;"/><text fill="#000000" font-family="sans-serif" font-size="13" lengthAdjust="spacing" textLength="33.4966" x="573" y="511.0669">HTTP</text></g><!--SRC=[PL9DIyD04BtlhnZRYnwK-4MB1w7KH0K_KbCz2RBDhc5ftBIRHAtYHT23KAq7Bzv4l8hU1F-EhN_3PBSVcqZ89lFcpSkRcKmHUimuXJspMg_ih6-PuFeu314AcuotiC0dqC1kqnD1p4ary0C1HSjCBuG4TIFCFPz2mG810N28W2OdAG0EuLW4FAASGD4iMuPbmYK2q6eEOhe8Zbqvv2lBywL5MNCQKtILKHxSlq7_9ha_hoN3mn4zmvqZ7tTewiMoocOfBxtZCNuEq_s7Rh_t-FFz-jkxdP7LF4rakKvBCEv1rGzY0kjAFR5KDig6_i6ShP-lP-ZVlOnjDTZ5s9AHc3BoblR39EUSkafwNXR52PPbsI8WiHjDY0kIs59mbhihY2wf1XYaO9PNsPoGbYG9izm8gDjalZ-XBKjQgE3yGfu-OD1z7tTES8IrRHZ_Mz_kEBKjoJtfX6q_czoZX8KoATAtN18t6YpQhgdYTkea-KDWTdPrk4bvodYqfk5JOdA-EZ2QeuwfYUb8CXuz78q1fN8IKMqCnJH4Icdni5939XggMrr38NgDGh8oROGmWxcvLIYiKTfoA6r2nTuim0firEis-WC0]--></g></svg>