<svg xmlns="http://www.w3.org/2000/svg" xmlns:xlink="http://www.w3.org/1999/xlink" contentStyleType="text/css" height="456px" preserveAspectRatio="none" style="width:6232px;height:456px;background:#FFFFFF;" version="1.1" viewBox="0 0 6232 456" width="6232px" zoomAndPan="magnify"><defs/><g><!--cluster ???? - ??--><g id="cluster_&#35746;&#21333;&#26381;&#21153; - &#31867;&#22270;"><path d="M8.5,6 L111.6836,6 A3.75,3.75 0 0 1 114.1836,8.5 L121.1836,28.2969 L5548.5,28.2969 A2.5,2.5 0 0 1 5551,30.7969 L5551,446.5 A2.5,2.5 0 0 1 5548.5,449 L8.5,449 A2.5,2.5 0 0 1 6,446.5 L6,8.5 A2.5,2.5 0 0 1 8.5,6 " fill="none" style="stroke:#000000;stroke-width:1.5;"/><line style="stroke:#000000;stroke-width:1.5;" x1="6" x2="121.1836" y1="28.2969" y2="28.2969"/><text fill="#000000" font-family="sans-serif" font-size="14" font-weight="bold" lengthAdjust="spacing" textLength="102.1836" x="10" y="20.9951">&#35746;&#21333;&#26381;&#21153; - &#31867;&#22270;</text></g><!--class osvc--><g id="elem_osvc"><rect codeLine="5" fill="#F1F1F1" height="154.0469" id="osvc" rx="2.5" ry="2.5" style="stroke:#181818;stroke-width:0.5;" width="487.9521" x="575" y="53"/><ellipse cx="768.8398" cy="73.1328" fill="#B4A7E5" rx="11" ry="11" style="stroke:#181818;stroke-width:1.0;"/><path d="M764.7617,68.8984 L764.7617,66.7422 L772.1523,66.7422 L772.1523,68.8984 L769.6836,68.8984 L769.6836,76.9766 L772.1523,76.9766 L772.1523,79.1328 L764.7617,79.1328 L764.7617,76.9766 L767.2305,76.9766 L767.2305,68.8984 L764.7617,68.8984 Z " fill="#000000"/><text fill="#000000" font-family="sans-serif" font-size="12" font-style="italic" lengthAdjust="spacing" textLength="68.332" x="801.0601" y="69.1387">&#171;interface&#187;</text><text fill="#000000" font-family="sans-serif" font-size="14" font-style="italic" lengthAdjust="spacing" textLength="91.7725" x="789.3398" y="84.9639">OrderService</text><line style="stroke:#181818;stroke-width:0.5;" x1="576" x2="1061.9521" y1="93.2656" y2="93.2656"/><line style="stroke:#181818;stroke-width:0.5;" x1="576" x2="1061.9521" y1="101.2656" y2="101.2656"/><text fill="#000000" font-family="sans-serif" font-size="14" lengthAdjust="spacing" textLength="475.9521" x="581" y="118.2607">+listUserOrders(userId: Long, page: int, size: int): IPage&lt;OrderVO&gt;</text><text fill="#000000" font-family="sans-serif" font-size="14" lengthAdjust="spacing" textLength="280.2598" x="581" y="134.5576">+getOrderById(orderId: Long): OrderVO</text><text fill="#000000" font-family="sans-serif" font-size="14" lengthAdjust="spacing" textLength="468.5215" x="581" y="150.8545">+listAllOrders(page: int, size: int, status: String): IPage&lt;OrderVO&gt;</text><text fill="#000000" font-family="sans-serif" font-size="14" lengthAdjust="spacing" textLength="336.458" x="581" y="167.1514">+cancelOrder(orderId: Long, userId: Long): void</text><text fill="#000000" font-family="sans-serif" font-size="14" lengthAdjust="spacing" textLength="342.5762" x="581" y="183.4482">+receiveOrder(orderId: Long, userId: Long): void</text><text fill="#000000" font-family="sans-serif" font-size="14" lengthAdjust="spacing" textLength="224.3076" x="581" y="199.7451">+shipOrder(orderId: Long): void</text></g><!--class OrderServiceImpl--><g id="elem_OrderServiceImpl"><rect codeLine="14" fill="#F1F1F1" height="162.0781" id="OrderServiceImpl" rx="2.5" ry="2.5" style="stroke:#181818;stroke-width:0.5;" width="487.9521" x="2204" y="49"/><ellipse cx="2382.5684" cy="65" fill="#ADD1B2" rx="11" ry="11" style="stroke:#181818;stroke-width:1.0;"/><path d="M2385.5371,70.6406 Q2384.959,70.9375 2384.3184,71.0781 Q2383.6777,71.2344 2382.9746,71.2344 Q2380.4746,71.2344 2379.1465,69.5938 Q2377.834,67.9375 2377.834,64.8125 Q2377.834,61.6875 2379.1465,60.0313 Q2380.4746,58.375 2382.9746,58.375 Q2383.6777,58.375 2384.3184,58.5313 Q2384.9746,58.6875 2385.5371,58.9844 L2385.5371,61.7031 Q2384.9121,61.125 2384.3184,60.8594 Q2383.7246,60.5781 2383.0996,60.5781 Q2381.7559,60.5781 2381.0684,61.6563 Q2380.3809,62.7188 2380.3809,64.8125 Q2380.3809,66.9063 2381.0684,67.9844 Q2381.7559,69.0469 2383.0996,69.0469 Q2383.7246,69.0469 2384.3184,68.7813 Q2384.9121,68.5 2385.5371,67.9219 L2385.5371,70.6406 Z " fill="#000000"/><text fill="#000000" font-family="sans-serif" font-size="14" lengthAdjust="spacing" textLength="122.3154" x="2403.0684" y="69.8467">OrderServiceImpl</text><line style="stroke:#181818;stroke-width:0.5;" x1="2205" x2="2690.9521" y1="81" y2="81"/><text fill="#000000" font-family="sans-serif" font-size="14" lengthAdjust="spacing" textLength="197.4287" x="2210" y="97.9951">-orderMapper: OrderMapper</text><line style="stroke:#181818;stroke-width:0.5;" x1="2205" x2="2690.9521" y1="105.2969" y2="105.2969"/><text fill="#000000" font-family="sans-serif" font-size="14" lengthAdjust="spacing" textLength="475.9521" x="2210" y="122.292">+listUserOrders(userId: Long, page: int, size: int): IPage&lt;OrderVO&gt;</text><text fill="#000000" font-family="sans-serif" font-size="14" lengthAdjust="spacing" textLength="280.2598" x="2210" y="138.5889">+getOrderById(orderId: Long): OrderVO</text><text fill="#000000" font-family="sans-serif" font-size="14" lengthAdjust="spacing" textLength="468.5215" x="2210" y="154.8857">+listAllOrders(page: int, size: int, status: String): IPage&lt;OrderVO&gt;</text><text fill="#000000" font-family="sans-serif" font-size="14" lengthAdjust="spacing" textLength="336.458" x="2210" y="171.1826">+cancelOrder(orderId: Long, userId: Long): void</text><text fill="#000000" font-family="sans-serif" font-size="14" lengthAdjust="spacing" textLength="342.5762" x="2210" y="187.4795">+receiveOrder(orderId: Long, userId: Long): void</text><text fill="#000000" font-family="sans-serif" font-size="14" lengthAdjust="spacing" textLength="224.3076" x="2210" y="203.7764">+shipOrder(orderId: Long): void</text></g><!--class ros--><g id="elem_ros"><rect codeLine="24" fill="#F1F1F1" height="72.5625" id="ros" rx="2.5" ry="2.5" style="stroke:#181818;stroke-width:0.5;" width="478.4912" x="1098" y="93.5"/><ellipse cx="1259.9468" cy="113.6328" fill="#B4A7E5" rx="11" ry="11" style="stroke:#181818;stroke-width:1.0;"/><path d="M1255.8687,109.3984 L1255.8687,107.2422 L1263.2593,107.2422 L1263.2593,109.3984 L1260.7905,109.3984 L1260.7905,117.4766 L1263.2593,117.4766 L1263.2593,119.6328 L1255.8687,119.6328 L1255.8687,117.4766 L1258.3374,117.4766 L1258.3374,109.3984 L1255.8687,109.3984 Z " fill="#000000"/><text fill="#000000" font-family="sans-serif" font-size="12" font-style="italic" lengthAdjust="spacing" textLength="68.332" x="1319.3296" y="109.6387">&#171;interface&#187;</text><text fill="#000000" font-family="sans-serif" font-size="14" font-style="italic" lengthAdjust="spacing" textLength="146.0977" x="1280.4468" y="125.4639">RegularOrderService</text><line style="stroke:#181818;stroke-width:0.5;" x1="1099" x2="1575.4912" y1="133.7656" y2="133.7656"/><line style="stroke:#181818;stroke-width:0.5;" x1="1099" x2="1575.4912" y1="141.7656" y2="141.7656"/><text fill="#000000" font-family="sans-serif" font-size="14" lengthAdjust="spacing" textLength="466.4912" x="1104" y="158.7607">+createFromCart(userId: Long, req: CreateOrderReq): List&lt;Long&gt;</text></g><!--class RegularOrderServiceImpl--><g id="elem_RegularOrderServiceImpl"><rect codeLine="28" fill="#F1F1F1" height="129.4844" id="RegularOrderServiceImpl" rx="2.5" ry="2.5" style="stroke:#181818;stroke-width:0.5;" width="478.4912" x="2727" y="65.5"/><ellipse cx="2873.6753" cy="81.5" fill="#ADD1B2" rx="11" ry="11" style="stroke:#181818;stroke-width:1.0;"/><path d="M2876.644,87.1406 Q2876.0659,87.4375 2875.4253,87.5781 Q2874.7847,87.7344 2874.0815,87.7344 Q2871.5815,87.7344 2870.2534,86.0938 Q2868.9409,84.4375 2868.9409,81.3125 Q2868.9409,78.1875 2870.2534,76.5313 Q2871.5815,74.875 2874.0815,74.875 Q2874.7847,74.875 2875.4253,75.0313 Q2876.0815,75.1875 2876.644,75.4844 L2876.644,78.2031 Q2876.019,77.625 2875.4253,77.3594 Q2874.8315,77.0781 2874.2065,77.0781 Q2872.8628,77.0781 2872.1753,78.1563 Q2871.4878,79.2188 2871.4878,81.3125 Q2871.4878,83.4063 2872.1753,84.4844 Q2872.8628,85.5469 2874.2065,85.5469 Q2874.8315,85.5469 2875.4253,85.2813 Q2876.019,85 2876.644,84.4219 L2876.644,87.1406 Z " fill="#000000"/><text fill="#000000" font-family="sans-serif" font-size="14" lengthAdjust="spacing" textLength="176.6406" x="2894.1753" y="86.3467">RegularOrderServiceImpl</text><line style="stroke:#181818;stroke-width:0.5;" x1="2728" x2="3204.4912" y1="97.5" y2="97.5"/><text fill="#000000" font-family="sans-serif" font-size="14" lengthAdjust="spacing" textLength="197.4287" x="2733" y="114.4951">-orderMapper: OrderMapper</text><text fill="#000000" font-family="sans-serif" font-size="14" lengthAdjust="spacing" textLength="176.9414" x="2733" y="130.792">-cartMapper: CartMapper</text><text fill="#000000" font-family="sans-serif" font-size="14" lengthAdjust="spacing" textLength="227.6846" x="2733" y="147.0889">-productMapper: ProductMapper</text><text fill="#000000" font-family="sans-serif" font-size="14" lengthAdjust="spacing" textLength="222.7012" x="2733" y="163.3857">-couponService: CouponService</text><line style="stroke:#181818;stroke-width:0.5;" x1="2728" x2="3204.4912" y1="170.6875" y2="170.6875"/><text fill="#000000" font-family="sans-serif" font-size="14" lengthAdjust="spacing" textLength="466.4912" x="2733" y="187.6826">+createFromCart(userId: Long, req: CreateOrderReq): List&lt;Long&gt;</text></g><!--class csvc--><g id="elem_csvc"><rect codeLine="36" fill="#F1F1F1" height="137.75" id="csvc" rx="2.5" ry="2.5" style="stroke:#181818;stroke-width:0.5;" width="450.3408" x="594" y="287"/><ellipse cx="774.25" cy="307.1328" fill="#B4A7E5" rx="11" ry="11" style="stroke:#181818;stroke-width:1.0;"/><path d="M770.1719,302.8984 L770.1719,300.7422 L777.5625,300.7422 L777.5625,302.8984 L775.0938,302.8984 L775.0938,310.9766 L777.5625,310.9766 L777.5625,313.1328 L770.1719,313.1328 L770.1719,310.9766 L772.6406,310.9766 L772.6406,302.8984 L770.1719,302.8984 Z " fill="#000000"/><text fill="#000000" font-family="sans-serif" font-size="12" font-style="italic" lengthAdjust="spacing" textLength="68.332" x="801.2544" y="303.1387">&#171;interface&#187;</text><text fill="#000000" font-family="sans-serif" font-size="14" font-style="italic" lengthAdjust="spacing" textLength="81.3408" x="794.75" y="318.9639">CartService</text><line style="stroke:#181818;stroke-width:0.5;" x1="595" x2="1043.3408" y1="327.2656" y2="327.2656"/><line style="stroke:#181818;stroke-width:0.5;" x1="595" x2="1043.3408" y1="335.2656" y2="335.2656"/><text fill="#000000" font-family="sans-serif" font-size="14" lengthAdjust="spacing" textLength="266.957" x="600" y="352.2607">+listCart(userId: Long): List&lt;CartVO&gt;</text><text fill="#000000" font-family="sans-serif" font-size="14" lengthAdjust="spacing" textLength="350.3145" x="600" y="368.5576">+addCart(userId: Long, req: AddCartReq): CartVO</text><text fill="#000000" font-family="sans-serif" font-size="14" lengthAdjust="spacing" textLength="438.3408" x="600" y="384.8545">+updateQuantity(id: Long, quantity: int, userId: Long): CartVO</text><text fill="#000000" font-family="sans-serif" font-size="14" lengthAdjust="spacing" textLength="286.9658" x="600" y="401.1514">+deleteCart(id: Long, userId: Long): void</text><text fill="#000000" font-family="sans-serif" font-size="14" lengthAdjust="spacing" textLength="329.6084" x="600" y="417.4482">+listCartByIds(ids: List&lt;Long&gt;): List&lt;CartVO&gt;</text></g><!--class CartServiceImpl--><g id="elem_CartServiceImpl"><rect codeLine="44" fill="#F1F1F1" height="145.7813" id="CartServiceImpl" rx="2.5" ry="2.5" style="stroke:#181818;stroke-width:0.5;" width="450.3408" x="3861" y="57"/><ellipse cx="4025.9785" cy="73" fill="#ADD1B2" rx="11" ry="11" style="stroke:#181818;stroke-width:1.0;"/><path d="M4028.9473,78.6406 Q4028.3691,78.9375 4027.7285,79.0781 Q4027.0879,79.2344 4026.3848,79.2344 Q4023.8848,79.2344 4022.5566,77.5938 Q4021.2441,75.9375 4021.2441,72.8125 Q4021.2441,69.6875 4022.5566,68.0313 Q4023.8848,66.375 4026.3848,66.375 Q4027.0879,66.375 4027.7285,66.5313 Q4028.3848,66.6875 4028.9473,66.9844 L4028.9473,69.7031 Q4028.3223,69.125 4027.7285,68.8594 Q4027.1348,68.5781 4026.5098,68.5781 Q4025.166,68.5781 4024.4785,69.6563 Q4023.791,70.7188 4023.791,72.8125 Q4023.791,74.9063 4024.4785,75.9844 Q4025.166,77.0469 4026.5098,77.0469 Q4027.1348,77.0469 4027.7285,76.7813 Q4028.3223,76.5 4028.9473,75.9219 L4028.9473,78.6406 Z " fill="#000000"/><text fill="#000000" font-family="sans-serif" font-size="14" lengthAdjust="spacing" textLength="111.8838" x="4046.4785" y="77.8467">CartServiceImpl</text><line style="stroke:#181818;stroke-width:0.5;" x1="3862" x2="4310.3408" y1="89" y2="89"/><text fill="#000000" font-family="sans-serif" font-size="14" lengthAdjust="spacing" textLength="176.9414" x="3867" y="105.9951">-cartMapper: CartMapper</text><line style="stroke:#181818;stroke-width:0.5;" x1="3862" x2="4310.3408" y1="113.2969" y2="113.2969"/><text fill="#000000" font-family="sans-serif" font-size="14" lengthAdjust="spacing" textLength="350.3145" x="3867" y="130.292">+addCart(userId: Long, req: AddCartReq): CartVO</text><text fill="#000000" font-family="sans-serif" font-size="14" lengthAdjust="spacing" textLength="438.3408" x="3867" y="146.5889">+updateQuantity(id: Long, quantity: int, userId: Long): CartVO</text><text fill="#000000" font-family="sans-serif" font-size="14" lengthAdjust="spacing" textLength="286.9658" x="3867" y="162.8857">+deleteCart(id: Long, userId: Long): void</text><text fill="#000000" font-family="sans-serif" font-size="14" lengthAdjust="spacing" textLength="329.6084" x="3867" y="179.1826">+listCartByIds(ids: List&lt;Long&gt;): List&lt;CartVO&gt;</text><text fill="#000000" font-family="sans-serif" font-size="14" lengthAdjust="spacing" textLength="266.957" x="3867" y="195.4795">+listCart(userId: Long): List&lt;CartVO&gt;</text></g><!--class cousvc--><g id="elem_cousvc"><rect codeLine="53" fill="#F1F1F1" height="154.0469" id="cousvc" rx="2.5" ry="2.5" style="stroke:#181818;stroke-width:0.5;" width="517.7568" x="1079" y="279"/><ellipse cx="1280.9883" cy="299.1328" fill="#B4A7E5" rx="11" ry="11" style="stroke:#181818;stroke-width:1.0;"/><path d="M1276.9102,294.8984 L1276.9102,292.7422 L1284.3008,292.7422 L1284.3008,294.8984 L1281.832,294.8984 L1281.832,302.9766 L1284.3008,302.9766 L1284.3008,305.1328 L1276.9102,305.1328 L1276.9102,302.9766 L1279.3789,302.9766 L1279.3789,294.8984 L1276.9102,294.8984 Z " fill="#000000"/><text fill="#000000" font-family="sans-serif" font-size="12" font-style="italic" lengthAdjust="spacing" textLength="68.332" x="1319.9624" y="295.1387">&#171;interface&#187;</text><text fill="#000000" font-family="sans-serif" font-size="14" font-style="italic" lengthAdjust="spacing" textLength="105.2803" x="1301.4883" y="310.9639">CouponService</text><line style="stroke:#181818;stroke-width:0.5;" x1="1080" x2="1595.7568" y1="319.2656" y2="319.2656"/><line style="stroke:#181818;stroke-width:0.5;" x1="1080" x2="1595.7568" y1="327.2656" y2="327.2656"/><text fill="#000000" font-family="sans-serif" font-size="14" lengthAdjust="spacing" textLength="432.6123" x="1085" y="344.2607">+claimCoupon(userId: Long, couponId: Long): UserCouponVO</text><text fill="#000000" font-family="sans-serif" font-size="14" lengthAdjust="spacing" textLength="504.3281" x="1085" y="360.5576">+myCoupons(userId: Long, page: int, size: int): IPage&lt;UserCouponVO&gt;</text><text fill="#000000" font-family="sans-serif" font-size="14" lengthAdjust="spacing" textLength="505.7568" x="1085" y="376.8545">+calcDiscount(userId: Long, req: CalcDiscountReq): Map&lt;String, Long&gt;</text><text fill="#000000" font-family="sans-serif" font-size="14" lengthAdjust="spacing" textLength="375.3135" x="1085" y="393.1514">+listCoupons(page: int, size: int): IPage&lt;CouponVO&gt;</text><text fill="#000000" font-family="sans-serif" font-size="14" lengthAdjust="spacing" textLength="319.751" x="1085" y="409.4482">+createCoupon(req: CouponCreateReq): void</text><text fill="#000000" font-family="sans-serif" font-size="14" lengthAdjust="spacing" textLength="221.0947" x="1085" y="425.7451">+disableCoupon(id: Long): void</text></g><!--class CouponServiceImpl--><g id="elem_CouponServiceImpl"><rect codeLine="62" fill="#F1F1F1" height="178.375" id="CouponServiceImpl" rx="2.5" ry="2.5" style="stroke:#181818;stroke-width:0.5;" width="517.7568" x="22" y="41"/><ellipse cx="208.7168" cy="57" fill="#ADD1B2" rx="11" ry="11" style="stroke:#181818;stroke-width:1.0;"/><path d="M211.6855,62.6406 Q211.1074,62.9375 210.4668,63.0781 Q209.8262,63.2344 209.123,63.2344 Q206.623,63.2344 205.2949,61.5938 Q203.9824,59.9375 203.9824,56.8125 Q203.9824,53.6875 205.2949,52.0313 Q206.623,50.375 209.123,50.375 Q209.8262,50.375 210.4668,50.5313 Q211.123,50.6875 211.6855,50.9844 L211.6855,53.7031 Q211.0605,53.125 210.4668,52.8594 Q209.873,52.5781 209.248,52.5781 Q207.9043,52.5781 207.2168,53.6563 Q206.5293,54.7188 206.5293,56.8125 Q206.5293,58.9063 207.2168,59.9844 Q207.9043,61.0469 209.248,61.0469 Q209.873,61.0469 210.4668,60.7813 Q211.0605,60.5 211.6855,59.9219 L211.6855,62.6406 Z " fill="#000000"/><text fill="#000000" font-family="sans-serif" font-size="14" lengthAdjust="spacing" textLength="135.8232" x="229.2168" y="61.8467">CouponServiceImpl</text><line style="stroke:#181818;stroke-width:0.5;" x1="23" x2="538.7568" y1="73" y2="73"/><text fill="#000000" font-family="sans-serif" font-size="14" lengthAdjust="spacing" textLength="224.8203" x="28" y="89.9951">-couponMapper: CouponMapper</text><text fill="#000000" font-family="sans-serif" font-size="14" lengthAdjust="spacing" textLength="289.3447" x="28" y="106.292">-userCouponMapper: UserCouponMapper</text><line style="stroke:#181818;stroke-width:0.5;" x1="23" x2="538.7568" y1="113.5938" y2="113.5938"/><text fill="#000000" font-family="sans-serif" font-size="14" lengthAdjust="spacing" textLength="432.6123" x="28" y="130.5889">+claimCoupon(userId: Long, couponId: Long): UserCouponVO</text><text fill="#000000" font-family="sans-serif" font-size="14" lengthAdjust="spacing" textLength="504.3281" x="28" y="146.8857">+myCoupons(userId: Long, page: int, size: int): IPage&lt;UserCouponVO&gt;</text><text fill="#000000" font-family="sans-serif" font-size="14" lengthAdjust="spacing" textLength="505.7568" x="28" y="163.1826">+calcDiscount(userId: Long, req: CalcDiscountReq): Map&lt;String, Long&gt;</text><text fill="#000000" font-family="sans-serif" font-size="14" lengthAdjust="spacing" textLength="375.3135" x="28" y="179.4795">+listCoupons(page: int, size: int): IPage&lt;CouponVO&gt;</text><text fill="#000000" font-family="sans-serif" font-size="14" lengthAdjust="spacing" textLength="319.751" x="28" y="195.7764">+createCoupon(req: CouponCreateReq): void</text><text fill="#000000" font-family="sans-serif" font-size="14" lengthAdjust="spacing" textLength="221.0947" x="28" y="212.0732">+disableCoupon(id: Long): void</text></g><!--class OrderController--><g id="elem_OrderController"><rect codeLine="73" fill="#F1F1F1" height="162.0781" id="OrderController" rx="2.5" ry="2.5" style="stroke:#181818;stroke-width:0.5;" width="634.542" x="4346.5" y="49"/><ellipse cx="4604.9189" cy="65" fill="#ADD1B2" rx="11" ry="11" style="stroke:#181818;stroke-width:1.0;"/><path d="M4607.8877,70.6406 Q4607.3096,70.9375 4606.6689,71.0781 Q4606.0283,71.2344 4605.3252,71.2344 Q4602.8252,71.2344 4601.4971,69.5938 Q4600.1846,67.9375 4600.1846,64.8125 Q4600.1846,61.6875 4601.4971,60.0313 Q4602.8252,58.375 4605.3252,58.375 Q4606.0283,58.375 4606.6689,58.5313 Q4607.3252,58.6875 4607.8877,58.9844 L4607.8877,61.7031 Q4607.2627,61.125 4606.6689,60.8594 Q4606.0752,60.5781 4605.4502,60.5781 Q4604.1064,60.5781 4603.4189,61.6563 Q4602.7314,62.7188 4602.7314,64.8125 Q4602.7314,66.9063 4603.4189,67.9844 Q4604.1064,69.0469 4605.4502,69.0469 Q4606.0752,69.0469 4606.6689,68.7813 Q4607.2627,68.5 4607.8877,67.9219 L4607.8877,70.6406 Z " fill="#000000"/><text fill="#000000" font-family="sans-serif" font-size="14" lengthAdjust="spacing" textLength="109.2041" x="4625.4189" y="69.8467">OrderController</text><line style="stroke:#181818;stroke-width:0.5;" x1="4347.5" x2="4980.042" y1="81" y2="81"/><line style="stroke:#181818;stroke-width:0.5;" x1="4347.5" x2="4980.042" y1="89" y2="89"/><text fill="#000000" font-family="sans-serif" font-size="14" lengthAdjust="spacing" textLength="531.7539" x="4352.5" y="105.9951">+listMyOrders(userId: Long, page: int, size: int): Result&lt;IPage&lt;OrderVO&gt;&gt;</text><text fill="#000000" font-family="sans-serif" font-size="14" lengthAdjust="spacing" textLength="412.4463" x="4352.5" y="122.292">+getOrder(orderId: Long, userId: Long): Result&lt;OrderVO&gt;</text><text fill="#000000" font-family="sans-serif" font-size="14" lengthAdjust="spacing" textLength="622.542" x="4352.5" y="138.5889">+listAllOrders(role: String, page: int, size: int, status: String): Result&lt;IPage&lt;OrderVO&gt;&gt;</text><text fill="#000000" font-family="sans-serif" font-size="14" lengthAdjust="spacing" textLength="508.2588" x="4352.5" y="154.8857">+createOrder(userId: Long, req: CreateOrderReq): Result&lt;List&lt;Long&gt;&gt;</text><text fill="#000000" font-family="sans-serif" font-size="14" lengthAdjust="spacing" textLength="367.2813" x="4352.5" y="171.1826">+cancelOrder(id: Long, userId: Long): Result&lt;Void&gt;</text><text fill="#000000" font-family="sans-serif" font-size="14" lengthAdjust="spacing" textLength="373.3994" x="4352.5" y="187.4795">+receiveOrder(id: Long, userId: Long): Result&lt;Void&gt;</text><text fill="#000000" font-family="sans-serif" font-size="14" lengthAdjust="spacing" textLength="341.8037" x="4352.5" y="203.7764">+shipOrder(id: Long, role: String): Result&lt;Void&gt;</text></g><!--class CartController--><g id="elem_CartController"><rect codeLine="83" fill="#F1F1F1" height="145.7813" id="CartController" rx="2.5" ry="2.5" style="stroke:#181818;stroke-width:0.5;" width="517.6885" x="5017" y="57"/><ellipse cx="5222.208" cy="73" fill="#ADD1B2" rx="11" ry="11" style="stroke:#181818;stroke-width:1.0;"/><path d="M5225.1768,78.6406 Q5224.5986,78.9375 5223.958,79.0781 Q5223.3174,79.2344 5222.6143,79.2344 Q5220.1143,79.2344 5218.7861,77.5938 Q5217.4736,75.9375 5217.4736,72.8125 Q5217.4736,69.6875 5218.7861,68.0313 Q5220.1143,66.375 5222.6143,66.375 Q5223.3174,66.375 5223.958,66.5313 Q5224.6143,66.6875 5225.1768,66.9844 L5225.1768,69.7031 Q5224.5518,69.125 5223.958,68.8594 Q5223.3643,68.5781 5222.7393,68.5781 Q5221.3955,68.5781 5220.708,69.6563 Q5220.0205,70.7188 5220.0205,72.8125 Q5220.0205,74.9063 5220.708,75.9844 Q5221.3955,77.0469 5222.7393,77.0469 Q5223.3643,77.0469 5223.958,76.7813 Q5224.5518,76.5 5225.1768,75.9219 L5225.1768,78.6406 Z " fill="#000000"/><text fill="#000000" font-family="sans-serif" font-size="14" lengthAdjust="spacing" textLength="98.7725" x="5242.708" y="77.8467">CartController</text><line style="stroke:#181818;stroke-width:0.5;" x1="5018" x2="5533.6885" y1="89" y2="89"/><line style="stroke:#181818;stroke-width:0.5;" x1="5018" x2="5533.6885" y1="97" y2="97"/><text fill="#000000" font-family="sans-serif" font-size="14" lengthAdjust="spacing" textLength="452.4229" x="5023" y="113.9951">+listCartByIds(ids: String, userId: Long): Result&lt;List&lt;CartVO&gt;&gt;</text><text fill="#000000" font-family="sans-serif" font-size="14" lengthAdjust="spacing" textLength="334.3047" x="5023" y="130.292">+listCart(userId: Long): Result&lt;List&lt;CartVO&gt;&gt;</text><text fill="#000000" font-family="sans-serif" font-size="14" lengthAdjust="spacing" textLength="417.6621" x="5023" y="146.5889">+addCart(userId: Long, req: AddCartReq): Result&lt;CartVO&gt;</text><text fill="#000000" font-family="sans-serif" font-size="14" lengthAdjust="spacing" textLength="505.6885" x="5023" y="162.8857">+updateQuantity(id: Long, quantity: int, userId: Long): Result&lt;CartVO&gt;</text><text fill="#000000" font-family="sans-serif" font-size="14" lengthAdjust="spacing" textLength="355.6055" x="5023" y="179.1826">+deleteCart(id: Long, userId: Long): Result&lt;Void&gt;</text><text fill="#000000" font-family="sans-serif" font-size="14" lengthAdjust="spacing" textLength="281.0664" x="5023" y="195.4795">+clearCart(userId: Long): Result&lt;Void&gt;</text></g><!--class CouponController--><g id="elem_CouponController"><rect codeLine="92" fill="#F1F1F1" height="178.375" id="CouponController" rx="2.5" ry="2.5" style="stroke:#181818;stroke-width:0.5;" width="585.1045" x="3240.5" y="41"/><ellipse cx="3467.4463" cy="57" fill="#ADD1B2" rx="11" ry="11" style="stroke:#181818;stroke-width:1.0;"/><path d="M3470.415,62.6406 Q3469.8369,62.9375 3469.1963,63.0781 Q3468.5557,63.2344 3467.8525,63.2344 Q3465.3525,63.2344 3464.0244,61.5938 Q3462.7119,59.9375 3462.7119,56.8125 Q3462.7119,53.6875 3464.0244,52.0313 Q3465.3525,50.375 3467.8525,50.375 Q3468.5557,50.375 3469.1963,50.5313 Q3469.8525,50.6875 3470.415,50.9844 L3470.415,53.7031 Q3469.79,53.125 3469.1963,52.8594 Q3468.6025,52.5781 3467.9775,52.5781 Q3466.6338,52.5781 3465.9463,53.6563 Q3465.2588,54.7188 3465.2588,56.8125 Q3465.2588,58.9063 3465.9463,59.9844 Q3466.6338,61.0469 3467.9775,61.0469 Q3468.6025,61.0469 3469.1963,60.7813 Q3469.79,60.5 3470.415,59.9219 L3470.415,62.6406 Z " fill="#000000"/><text fill="#000000" font-family="sans-serif" font-size="14" lengthAdjust="spacing" textLength="122.7119" x="3487.9463" y="61.8467">CouponController</text><line style="stroke:#181818;stroke-width:0.5;" x1="3241.5" x2="3824.6045" y1="73" y2="73"/><line style="stroke:#181818;stroke-width:0.5;" x1="3241.5" x2="3824.6045" y1="81" y2="81"/><text fill="#000000" font-family="sans-serif" font-size="14" lengthAdjust="spacing" textLength="529.334" x="3246.5" y="97.9951">+listCoupons(role: String, page: int, size: int): Result&lt;IPage&lt;CouponVO&gt;&gt;</text><text fill="#000000" font-family="sans-serif" font-size="14" lengthAdjust="spacing" textLength="392.5742" x="3246.5" y="114.292">+getCoupon(role: String, id: Long): Result&lt;CouponVO&gt;</text><text fill="#000000" font-family="sans-serif" font-size="14" lengthAdjust="spacing" textLength="475.0635" x="3246.5" y="130.5889">+createCoupon(role: String, req: CouponCreateReq): Result&lt;Void&gt;</text><text fill="#000000" font-family="sans-serif" font-size="14" lengthAdjust="spacing" textLength="544.6123" x="3246.5" y="146.8857">+updateCoupon(role: String, id: Long, req: CouponCreateReq): Result&lt;Void&gt;</text><text fill="#000000" font-family="sans-serif" font-size="14" lengthAdjust="spacing" textLength="376.4072" x="3246.5" y="163.1826">+disableCoupon(role: String, id: Long): Result&lt;Void&gt;</text><text fill="#000000" font-family="sans-serif" font-size="14" lengthAdjust="spacing" textLength="499.96" x="3246.5" y="179.4795">+claimCoupon(userId: Long, couponId: Long): Result&lt;UserCouponVO&gt;</text><text fill="#000000" font-family="sans-serif" font-size="14" lengthAdjust="spacing" textLength="571.6758" x="3246.5" y="195.7764">+myCoupons(userId: Long, page: int, size: int): Result&lt;IPage&lt;UserCouponVO&gt;&gt;</text><text fill="#000000" font-family="sans-serif" font-size="14" lengthAdjust="spacing" textLength="573.1045" x="3246.5" y="212.0732">+calcDiscount(userId: Long, req: CalcDiscountReq): Result&lt;Map&lt;String, Long&gt;&gt;</text></g><!--class StatisticsController--><g id="elem_StatisticsController"><rect codeLine="103" fill="#F1F1F1" height="96.8906" id="StatisticsController" rx="2.5" ry="2.5" style="stroke:#181818;stroke-width:0.5;" width="557.6104" x="1611" y="81.5"/><ellipse cx="1818.9697" cy="97.5" fill="#ADD1B2" rx="11" ry="11" style="stroke:#181818;stroke-width:1.0;"/><path d="M1821.9385,103.1406 Q1821.3604,103.4375 1820.7197,103.5781 Q1820.0791,103.7344 1819.376,103.7344 Q1816.876,103.7344 1815.5479,102.0938 Q1814.2354,100.4375 1814.2354,97.3125 Q1814.2354,94.1875 1815.5479,92.5313 Q1816.876,90.875 1819.376,90.875 Q1820.0791,90.875 1820.7197,91.0313 Q1821.376,91.1875 1821.9385,91.4844 L1821.9385,94.2031 Q1821.3135,93.625 1820.7197,93.3594 Q1820.126,93.0781 1819.501,93.0781 Q1818.1572,93.0781 1817.4697,94.1563 Q1816.7822,95.2188 1816.7822,97.3125 Q1816.7822,99.4063 1817.4697,100.4844 Q1818.1572,101.5469 1819.501,101.5469 Q1820.126,101.5469 1820.7197,101.2813 Q1821.3135,101 1821.9385,100.4219 L1821.9385,103.1406 Z " fill="#000000"/><text fill="#000000" font-family="sans-serif" font-size="14" lengthAdjust="spacing" textLength="133.1709" x="1839.4697" y="102.3467">StatisticsController</text><line style="stroke:#181818;stroke-width:0.5;" x1="1612" x2="2167.6104" y1="113.5" y2="113.5"/><line style="stroke:#181818;stroke-width:0.5;" x1="1612" x2="2167.6104" y1="121.5" y2="121.5"/><text fill="#000000" font-family="sans-serif" font-size="14" lengthAdjust="spacing" textLength="395.2539" x="1617" y="138.4951">+summary(role: String): Result&lt;StatisticsSummaryVO&gt;</text><text fill="#000000" font-family="sans-serif" font-size="14" lengthAdjust="spacing" textLength="473.8057" x="1617" y="154.792">+orderTrend(role: String, days: int): Result&lt;List&lt;OrderTrendVO&gt;&gt;</text><text fill="#000000" font-family="sans-serif" font-size="14" lengthAdjust="spacing" textLength="545.6104" x="1617" y="171.0889">+topProducts(role: String, days: int, limit: int): Result&lt;List&lt;TopProductVO&gt;&gt;</text></g><!--class OrderMapper--><g id="elem_OrderMapper"><rect codeLine="109" fill="#F1F1F1" height="48" id="OrderMapper" rx="2.5" ry="2.5" style="stroke:#181818;stroke-width:0.5;" width="124.832" x="2385.5" y="332"/><ellipse cx="2400.5" cy="348" fill="#ADD1B2" rx="11" ry="11" style="stroke:#181818;stroke-width:1.0;"/><path d="M2403.4688,353.6406 Q2402.8906,353.9375 2402.25,354.0781 Q2401.6094,354.2344 2400.9063,354.2344 Q2398.4063,354.2344 2397.0781,352.5938 Q2395.7656,350.9375 2395.7656,347.8125 Q2395.7656,344.6875 2397.0781,343.0313 Q2398.4063,341.375 2400.9063,341.375 Q2401.6094,341.375 2402.25,341.5313 Q2402.9063,341.6875 2403.4688,341.9844 L2403.4688,344.7031 Q2402.8438,344.125 2402.25,343.8594 Q2401.6563,343.5781 2401.0313,343.5781 Q2399.6875,343.5781 2399,344.6563 Q2398.3125,345.7188 2398.3125,347.8125 Q2398.3125,349.9063 2399,350.9844 Q2399.6875,352.0469 2401.0313,352.0469 Q2401.6563,352.0469 2402.25,351.7813 Q2402.8438,351.5 2403.4688,350.9219 L2403.4688,353.6406 Z " fill="#000000"/><text fill="#000000" font-family="sans-serif" font-size="14" lengthAdjust="spacing" textLength="92.832" x="2414.5" y="352.8467">OrderMapper</text><line style="stroke:#181818;stroke-width:0.5;" x1="2386.5" x2="2509.332" y1="364" y2="364"/><line style="stroke:#181818;stroke-width:0.5;" x1="2386.5" x2="2509.332" y1="372" y2="372"/></g><!--class CartMapper--><g id="elem_CartMapper"><rect codeLine="110" fill="#F1F1F1" height="48" id="CartMapper" rx="2.5" ry="2.5" style="stroke:#181818;stroke-width:0.5;" width="114.4004" x="2909" y="332"/><ellipse cx="2924" cy="348" fill="#ADD1B2" rx="11" ry="11" style="stroke:#181818;stroke-width:1.0;"/><path d="M2926.9688,353.6406 Q2926.3906,353.9375 2925.75,354.0781 Q2925.1094,354.2344 2924.4063,354.2344 Q2921.9063,354.2344 2920.5781,352.5938 Q2919.2656,350.9375 2919.2656,347.8125 Q2919.2656,344.6875 2920.5781,343.0313 Q2921.9063,341.375 2924.4063,341.375 Q2925.1094,341.375 2925.75,341.5313 Q2926.4063,341.6875 2926.9688,341.9844 L2926.9688,344.7031 Q2926.3438,344.125 2925.75,343.8594 Q2925.1563,343.5781 2924.5313,343.5781 Q2923.1875,343.5781 2922.5,344.6563 Q2921.8125,345.7188 2921.8125,347.8125 Q2921.8125,349.9063 2922.5,350.9844 Q2923.1875,352.0469 2924.5313,352.0469 Q2925.1563,352.0469 2925.75,351.7813 Q2926.3438,351.5 2926.9688,350.9219 L2926.9688,353.6406 Z " fill="#000000"/><text fill="#000000" font-family="sans-serif" font-size="14" lengthAdjust="spacing" textLength="82.4004" x="2938" y="352.8467">CartMapper</text><line style="stroke:#181818;stroke-width:0.5;" x1="2910" x2="3022.4004" y1="364" y2="364"/><line style="stroke:#181818;stroke-width:0.5;" x1="2910" x2="3022.4004" y1="372" y2="372"/></g><!--class CouponMapper--><g id="elem_CouponMapper"><rect codeLine="111" fill="#F1F1F1" height="48" id="CouponMapper" rx="2.5" ry="2.5" style="stroke:#181818;stroke-width:0.5;" width="138.3398" x="117" y="332"/><ellipse cx="132" cy="348" fill="#ADD1B2" rx="11" ry="11" style="stroke:#181818;stroke-width:1.0;"/><path d="M134.9688,353.6406 Q134.3906,353.9375 133.75,354.0781 Q133.1094,354.2344 132.4063,354.2344 Q129.9063,354.2344 128.5781,352.5938 Q127.2656,350.9375 127.2656,347.8125 Q127.2656,344.6875 128.5781,343.0313 Q129.9063,341.375 132.4063,341.375 Q133.1094,341.375 133.75,341.5313 Q134.4063,341.6875 134.9688,341.9844 L134.9688,344.7031 Q134.3438,344.125 133.75,343.8594 Q133.1563,343.5781 132.5313,343.5781 Q131.1875,343.5781 130.5,344.6563 Q129.8125,345.7188 129.8125,347.8125 Q129.8125,349.9063 130.5,350.9844 Q131.1875,352.0469 132.5313,352.0469 Q133.1563,352.0469 133.75,351.7813 Q134.3438,351.5 134.9688,350.9219 L134.9688,353.6406 Z " fill="#000000"/><text fill="#000000" font-family="sans-serif" font-size="14" lengthAdjust="spacing" textLength="106.3398" x="146" y="352.8467">CouponMapper</text><line style="stroke:#181818;stroke-width:0.5;" x1="118" x2="254.3398" y1="364" y2="364"/><line style="stroke:#181818;stroke-width:0.5;" x1="118" x2="254.3398" y1="372" y2="372"/></g><!--class UserCouponMapper--><g id="elem_UserCouponMapper"><rect codeLine="112" fill="#F1F1F1" height="48" id="UserCouponMapper" rx="2.5" ry="2.5" style="stroke:#181818;stroke-width:0.5;" width="170.25" x="290" y="332"/><ellipse cx="305" cy="348" fill="#ADD1B2" rx="11" ry="11" style="stroke:#181818;stroke-width:1.0;"/><path d="M307.9688,353.6406 Q307.3906,353.9375 306.75,354.0781 Q306.1094,354.2344 305.4063,354.2344 Q302.9063,354.2344 301.5781,352.5938 Q300.2656,350.9375 300.2656,347.8125 Q300.2656,344.6875 301.5781,343.0313 Q302.9063,341.375 305.4063,341.375 Q306.1094,341.375 306.75,341.5313 Q307.4063,341.6875 307.9688,341.9844 L307.9688,344.7031 Q307.3438,344.125 306.75,343.8594 Q306.1563,343.5781 305.5313,343.5781 Q304.1875,343.5781 303.5,344.6563 Q302.8125,345.7188 302.8125,347.8125 Q302.8125,349.9063 303.5,350.9844 Q304.1875,352.0469 305.5313,352.0469 Q306.1563,352.0469 306.75,351.7813 Q307.3438,351.5 307.9688,350.9219 L307.9688,353.6406 Z " fill="#000000"/><text fill="#000000" font-family="sans-serif" font-size="14" lengthAdjust="spacing" textLength="138.25" x="319" y="352.8467">UserCouponMapper</text><line style="stroke:#181818;stroke-width:0.5;" x1="291" x2="459.25" y1="364" y2="364"/><line style="stroke:#181818;stroke-width:0.5;" x1="291" x2="459.25" y1="372" y2="372"/></g><!--class OrderService--><g id="elem_OrderService"><rect fill="#F1F1F1" height="48" id="OrderService" rx="2.5" ry="2.5" style="stroke:#181818;stroke-width:0.5;" width="123.7725" x="5740" y="332"/><ellipse cx="5755" cy="348" fill="#ADD1B2" rx="11" ry="11" style="stroke:#181818;stroke-width:1.0;"/><path d="M5757.9688,353.6406 Q5757.3906,353.9375 5756.75,354.0781 Q5756.1094,354.2344 5755.4063,354.2344 Q5752.9063,354.2344 5751.5781,352.5938 Q5750.2656,350.9375 5750.2656,347.8125 Q5750.2656,344.6875 5751.5781,343.0313 Q5752.9063,341.375 5755.4063,341.375 Q5756.1094,341.375 5756.75,341.5313 Q5757.4063,341.6875 5757.9688,341.9844 L5757.9688,344.7031 Q5757.3438,344.125 5756.75,343.8594 Q5756.1563,343.5781 5755.5313,343.5781 Q5754.1875,343.5781 5753.5,344.6563 Q5752.8125,345.7188 5752.8125,347.8125 Q5752.8125,349.9063 5753.5,350.9844 Q5754.1875,352.0469 5755.5313,352.0469 Q5756.1563,352.0469 5756.75,351.7813 Q5757.3438,351.5 5757.9688,350.9219 L5757.9688,353.6406 Z " fill="#000000"/><text fill="#000000" font-family="sans-serif" font-size="14" lengthAdjust="spacing" textLength="91.7725" x="5769" y="352.8467">OrderService</text><line style="stroke:#181818;stroke-width:0.5;" x1="5741" x2="5862.7725" y1="364" y2="364"/><line style="stroke:#181818;stroke-width:0.5;" x1="5741" x2="5862.7725" y1="372" y2="372"/></g><!--class RegularOrderService--><g id="elem_RegularOrderService"><rect fill="#F1F1F1" height="48" id="RegularOrderService" rx="2.5" ry="2.5" style="stroke:#181818;stroke-width:0.5;" width="178.0977" x="5899" y="332"/><ellipse cx="5914" cy="348" fill="#ADD1B2" rx="11" ry="11" style="stroke:#181818;stroke-width:1.0;"/><path d="M5916.9688,353.6406 Q5916.3906,353.9375 5915.75,354.0781 Q5915.1094,354.2344 5914.4063,354.2344 Q5911.9063,354.2344 5910.5781,352.5938 Q5909.2656,350.9375 5909.2656,347.8125 Q5909.2656,344.6875 5910.5781,343.0313 Q5911.9063,341.375 5914.4063,341.375 Q5915.1094,341.375 5915.75,341.5313 Q5916.4063,341.6875 5916.9688,341.9844 L5916.9688,344.7031 Q5916.3438,344.125 5915.75,343.8594 Q5915.1563,343.5781 5914.5313,343.5781 Q5913.1875,343.5781 5912.5,344.6563 Q5911.8125,345.7188 5911.8125,347.8125 Q5911.8125,349.9063 5912.5,350.9844 Q5913.1875,352.0469 5914.5313,352.0469 Q5915.1563,352.0469 5915.75,351.7813 Q5916.3438,351.5 5916.9688,350.9219 L5916.9688,353.6406 Z " fill="#000000"/><text fill="#000000" font-family="sans-serif" font-size="14" lengthAdjust="spacing" textLength="146.0977" x="5928" y="352.8467">RegularOrderService</text><line style="stroke:#181818;stroke-width:0.5;" x1="5900" x2="6076.0977" y1="364" y2="364"/><line style="stroke:#181818;stroke-width:0.5;" x1="5900" x2="6076.0977" y1="372" y2="372"/></g><!--class CartService--><g id="elem_CartService"><rect fill="#F1F1F1" height="48" id="CartService" rx="2.5" ry="2.5" style="stroke:#181818;stroke-width:0.5;" width="113.3408" x="6112.5" y="332"/><ellipse cx="6127.5" cy="348" fill="#ADD1B2" rx="11" ry="11" style="stroke:#181818;stroke-width:1.0;"/><path d="M6130.4688,353.6406 Q6129.8906,353.9375 6129.25,354.0781 Q6128.6094,354.2344 6127.9063,354.2344 Q6125.4063,354.2344 6124.0781,352.5938 Q6122.7656,350.9375 6122.7656,347.8125 Q6122.7656,344.6875 6124.0781,343.0313 Q6125.4063,341.375 6127.9063,341.375 Q6128.6094,341.375 6129.25,341.5313 Q6129.9063,341.6875 6130.4688,341.9844 L6130.4688,344.7031 Q6129.8438,344.125 6129.25,343.8594 Q6128.6563,343.5781 6128.0313,343.5781 Q6126.6875,343.5781 6126,344.6563 Q6125.3125,345.7188 6125.3125,347.8125 Q6125.3125,349.9063 6126,350.9844 Q6126.6875,352.0469 6128.0313,352.0469 Q6128.6563,352.0469 6129.25,351.7813 Q6129.8438,351.5 6130.4688,350.9219 L6130.4688,353.6406 Z " fill="#000000"/><text fill="#000000" font-family="sans-serif" font-size="14" lengthAdjust="spacing" textLength="81.3408" x="6141.5" y="352.8467">CartService</text><line style="stroke:#181818;stroke-width:0.5;" x1="6113.5" x2="6224.8408" y1="364" y2="364"/><line style="stroke:#181818;stroke-width:0.5;" x1="6113.5" x2="6224.8408" y1="372" y2="372"/></g><!--class CouponService--><g id="elem_CouponService"><rect fill="#F1F1F1" height="48" id="CouponService" rx="2.5" ry="2.5" style="stroke:#181818;stroke-width:0.5;" width="137.2803" x="5567.5" y="332"/><ellipse cx="5582.5" cy="348" fill="#ADD1B2" rx="11" ry="11" style="stroke:#181818;stroke-width:1.0;"/><path d="M5585.4688,353.6406 Q5584.8906,353.9375 5584.25,354.0781 Q5583.6094,354.2344 5582.9063,354.2344 Q5580.4063,354.2344 5579.0781,352.5938 Q5577.7656,350.9375 5577.7656,347.8125 Q5577.7656,344.6875 5579.0781,343.0313 Q5580.4063,341.375 5582.9063,341.375 Q5583.6094,341.375 5584.25,341.5313 Q5584.9063,341.6875 5585.4688,341.9844 L5585.4688,344.7031 Q5584.8438,344.125 5584.25,343.8594 Q5583.6563,343.5781 5583.0313,343.5781 Q5581.6875,343.5781 5581,344.6563 Q5580.3125,345.7188 5580.3125,347.8125 Q5580.3125,349.9063 5581,350.9844 Q5581.6875,352.0469 5583.0313,352.0469 Q5583.6563,352.0469 5584.25,351.7813 Q5584.8438,351.5 5585.4688,350.9219 L5585.4688,353.6406 Z " fill="#000000"/><text fill="#000000" font-family="sans-serif" font-size="14" lengthAdjust="spacing" textLength="105.2803" x="5596.5" y="352.8467">CouponService</text><line style="stroke:#181818;stroke-width:0.5;" x1="5568.5" x2="5703.7803" y1="364" y2="364"/><line style="stroke:#181818;stroke-width:0.5;" x1="5568.5" x2="5703.7803" y1="372" y2="372"/></g><!--link OrderServiceImpl to OrderService--><g id="link_OrderServiceImpl_OrderService"><path codeLine="116" d="M2671.59,211.03 C2684.49,214.11 2697.35,216.8 2710,219 C3039.8,276.28 5412.38,151.79 5722,279 C5748.4,289.85 5759.9691,299.7196 5774.3891,317.8596 " fill="none" id="OrderServiceImpl-to-OrderService" style="stroke:#181818;stroke-width:1.0;stroke-dasharray:7.0,7.0;"/><polygon fill="none" points="5785.59,331.95,5779.0859,314.1259,5769.6923,321.5932,5785.59,331.95" style="stroke:#181818;stroke-width:1.0;"/></g><!--link RegularOrderServiceImpl to RegularOrderService--><g id="link_RegularOrderServiceImpl_RegularOrderService"><path codeLine="117" d="M3127.15,194.57 C3158.49,204.53 3191.43,213.38 3223,219 C3513.94,270.81 5601.7,185.4 5882,279 C5914,289.69 5931.3318,301.5822 5951.3718,319.7722 " fill="none" id="RegularOrderServiceImpl-to-RegularOrderService" style="stroke:#181818;stroke-width:1.0;stroke-dasharray:7.0,7.0;"/><polygon fill="none" points="5964.7,331.87,5955.4044,315.3294,5947.3391,324.2149,5964.7,331.87" style="stroke:#181818;stroke-width:1.0;"/></g><!--link CartServiceImpl to CartService--><g id="link_CartServiceImpl_CartService"><path codeLine="118" d="M4265.7,203.1 C4286.77,209.45 4308.18,214.98 4329,219 C4521.78,256.22 5915.44,199.6 6095,279 C6119.93,290.02 6130.1647,299.156 6143.3047,317.176 " fill="none" id="CartServiceImpl-to-CartService" style="stroke:#181818;stroke-width:1.0;stroke-dasharray:7.0,7.0;"/><polygon fill="none" points="6153.91,331.72,6148.1527,313.6409,6138.4567,320.7111,6153.91,331.72" style="stroke:#181818;stroke-width:1.0;"/></g><!--link CouponServiceImpl to CouponService--><g id="link_CouponServiceImpl_CouponService"><path codeLine="119" d="M540.13,216.03 C545.79,217.1 551.41,218.1 557,219 C830.91,263.3 5292.39,178.46 5551,279 C5578.49,289.69 5591.1099,299.9757 5606.5999,318.1657 " fill="none" id="CouponServiceImpl-to-CouponService" style="stroke:#181818;stroke-width:1.0;stroke-dasharray:7.0,7.0;"/><polygon fill="none" points="5618.27,331.87,5611.168,314.2756,5602.0318,322.0557,5618.27,331.87" style="stroke:#181818;stroke-width:1.0;"/></g><!--link OrderController to OrderService--><g id="link_OrderController_OrderService"><path codeLine="121" d="M4957.92,211.09 C4972.1,213.97 4986.18,216.63 5000,219 C5158.69,246.16 5575.08,213.16 5722,279 C5747.7,290.52 5766.4599,309.2268 5781.0199,327.0168 " fill="none" id="OrderController-to-OrderService" style="stroke:#181818;stroke-width:1.0;"/><polygon fill="#181818" points="5784.82,331.66,5782.2152,322.1618,5781.6532,327.7907,5776.0244,327.2287,5784.82,331.66" style="stroke:#181818;stroke-width:1.0;"/></g><!--link OrderController to RegularOrderService--><g id="link_OrderController_RegularOrderService"><path codeLine="122" d="M4956.5,211.07 C4971.16,213.99 4985.72,216.67 5000,219 C5193.88,250.69 5697.12,212.56 5882,279 C5913.54,290.33 5939.5606,309.9682 5959.6806,327.8982 " fill="none" id="OrderController-to-RegularOrderService" style="stroke:#181818;stroke-width:1.0;"/><polygon fill="#181818" points="5964.16,331.89,5960.1021,322.916,5960.4272,328.5635,5954.7796,328.8885,5964.16,331.89" style="stroke:#181818;stroke-width:1.0;"/></g><!--link CartController to CartService--><g id="link_CartController_CartService"><path codeLine="123" d="M5535.05,160.36 C5737.45,186.51 5999.84,228.39 6095,279 C6118.74,291.62 6135.8026,309.8213 6149.2326,327.2113 " fill="none" id="CartController-to-CartService" style="stroke:#181818;stroke-width:1.0;"/><polygon fill="#181818" points="6152.9,331.96,6150.5648,322.392,6149.8439,328.0027,6144.2331,327.2818,6152.9,331.96" style="stroke:#181818;stroke-width:1.0;"/></g><!--link CouponController to CouponService--><g id="link_CouponController_CouponService"><path codeLine="124" d="M3825.57,215.9 C3831.75,217.01 3837.9,218.04 3844,219 C4031.5,248.38 5374.92,208.19 5551,279 C5578.18,289.93 5598.4239,309.0743 5613.9739,327.1243 " fill="none" id="CouponController-to-CouponService" style="stroke:#181818;stroke-width:1.0;"/><polygon fill="#181818" points="5617.89,331.67,5615.0463,322.2406,5614.6265,327.8819,5608.9853,327.4621,5617.89,331.67" style="stroke:#181818;stroke-width:1.0;"/></g><!--link StatisticsController to OrderMapper--><g id="link_StatisticsController_OrderMapper"><path codeLine="125" d="M2008.34,178.5 C2125.75,225.64 2295.172,293.6445 2384.862,329.6545 " fill="none" id="StatisticsController-to-OrderMapper" style="stroke:#181818;stroke-width:1.0;"/><polygon fill="#181818" points="2390.43,331.89,2383.5684,324.8247,2385.79,330.0271,2380.5877,332.2487,2390.43,331.89" style="stroke:#181818;stroke-width:1.0;"/></g><!--link StatisticsController to CartMapper--><g id="link_StatisticsController_CartMapper"><path codeLine="126" d="M2038.29,178.59 C2085.52,192.76 2138.18,207.55 2187,219 C2195.91,221.09 2724.6086,313.0426 2902.9186,344.0326 " fill="none" id="StatisticsController-to-CartMapper" style="stroke:#181818;stroke-width:1.0;"/><polygon fill="#181818" points="2908.83,345.06,2900.6478,339.578,2903.9038,344.2038,2899.278,347.4598,2908.83,345.06" style="stroke:#181818;stroke-width:1.0;"/></g><!--link RegularOrderServiceImpl to OrderMapper--><g id="link_RegularOrderServiceImpl_OrderMapper"><path codeLine="128" d="M2818.95,194.59 C2712.76,240.51 2581.0073,297.4889 2506.8073,329.5689 " fill="none" id="RegularOrderServiceImpl-to-OrderMapper" style="stroke:#181818;stroke-width:1.0;"/><polygon fill="#181818" points="2501.3,331.95,2511.1484,332.05,2505.8894,329.9658,2507.9736,324.7069,2501.3,331.95" style="stroke:#181818;stroke-width:1.0;"/></g><!--link RegularOrderServiceImpl to CartMapper--><g id="link_RegularOrderServiceImpl_CartMapper"><path codeLine="129" d="M2966,194.59 C2966,240.51 2966,293.87 2966,325.95 " fill="none" id="RegularOrderServiceImpl-to-CartMapper" style="stroke:#181818;stroke-width:1.0;"/><polygon fill="#181818" points="2966,331.95,2970,322.95,2966,326.95,2962,322.95,2966,331.95" style="stroke:#181818;stroke-width:1.0;"/></g><!--link RegularOrderServiceImpl to CouponService--><g id="link_RegularOrderServiceImpl_CouponService"><path codeLine="130" d="M3127.51,194.6 C3158.75,204.52 3191.55,213.35 3223,219 C3477.67,264.77 5310.48,183.59 5551,279 C5578.42,289.88 5598.8082,309.282 5614.3282,327.412 " fill="none" id="RegularOrderServiceImpl-to-CouponService" style="stroke:#181818;stroke-width:1.0;"/><polygon fill="#181818" points="5618.23,331.97,5615.4159,322.5317,5614.9785,328.1716,5609.3385,327.7342,5618.23,331.97" style="stroke:#181818;stroke-width:1.0;"/></g><!--link OrderServiceImpl to OrderMapper--><g id="link_OrderServiceImpl_OrderMapper"><path codeLine="132" d="M2448,211.24 C2448,253.92 2448,297.31 2448,325.68 " fill="none" id="OrderServiceImpl-to-OrderMapper" style="stroke:#181818;stroke-width:1.0;"/><polygon fill="#181818" points="2448,331.68,2452,322.68,2448,326.68,2444,322.68,2448,331.68" style="stroke:#181818;stroke-width:1.0;"/></g><!--link CartServiceImpl to CartMapper--><g id="link_CartServiceImpl_CartMapper"><path codeLine="133" d="M3898.08,203.08 C3879.61,208.95 3861.04,214.38 3843,219 C3539.25,296.77 3170.2141,336.2826 3029.1741,349.4426 " fill="none" id="CartServiceImpl-to-CartMapper" style="stroke:#181818;stroke-width:1.0;"/><polygon fill="#181818" points="3023.2,350,3032.5327,353.1466,3028.1784,349.5355,3031.7895,345.1812,3023.2,350" style="stroke:#181818;stroke-width:1.0;"/></g><!--link CouponServiceImpl to CouponMapper--><g id="link_CouponServiceImpl_CouponMapper"><path codeLine="134" d="M243.59,219.21 C226.35,259.86 209.5912,299.3556 198.3012,325.9956 " fill="none" id="CouponServiceImpl-to-CouponMapper" style="stroke:#181818;stroke-width:1.0;"/><polygon fill="#181818" points="195.96,331.52,203.1547,324.7943,197.911,326.9164,195.7889,321.6726,195.96,331.52" style="stroke:#181818;stroke-width:1.0;"/></g><!--link CouponServiceImpl to UserCouponMapper--><g id="link_CouponServiceImpl_UserCouponMapper"><path codeLine="135" d="M318.02,219.21 C335.07,259.86 351.6482,299.3475 362.8282,325.9875 " fill="none" id="CouponServiceImpl-to-UserCouponMapper" style="stroke:#181818;stroke-width:1.0;"/><polygon fill="#181818" points="365.15,331.52,365.3556,321.6733,363.2151,326.9095,357.9789,324.7691,365.15,331.52" style="stroke:#181818;stroke-width:1.0;"/></g><!--SRC=[xLVDRXCn4BxlKrWz1P5KdACeKWb2YjIgfMbxTxqcMDs_sjv8uUS5a7ha11Tu0AIUaNYR0e-1r_Rk-cytILLnGDtJhZtppVYRySmiko9P0IbC0KeWOmUSKt9PSZn7UROWRp5u5aK5H5TmYS7Ud-_Vxcu-_VfoS_VnAnY1txS_xZx_t0FleWW0ad5CNqCan8vfZEa2qnL1U0z01dAsGc0oQKIcKw43nFCq8OoVCqob2XkKudKUZy5XdYs7e116nnNm433XYdnzCWRp4x4-aHeNnrE5iyHSBZnVp-D1NhtLC491YxOM3v946moP4AySyfADmKAG8H529X7C45OujiKXC8yXj5SvYPKEnGYJ5TvDYRqXHK2ZbVbGyI_31qpgvscHQ9v7KlC85WMccW_ryHY5Xus2SGjEyR9C8FKk0yrP-2uWYY77BscUpY3bJXGelXw3cPIGYAVuMfW-53HEAe6fdGO1srjdmmW9w_Nch7bNUmNDun8rsoVcfzREoqAK3cLK09YV3tXEW-WAnIGOzLORpsODNsqqQGNZkCkv0xMb75DAIgSiOk7rgn9cdF3rW3Hgrtf9vxLZt8I8SO8vbfR9vfIiZrDTDoOKc4cKVomZFmpApBpeYVn_oSZsAU7bd9dMAkloiZFl1EaaLIeEV-gs67QhCgmaQmRIjVhUgIwRC4sbJD0BmeJ5B7pfZ7qLIX7-YIg-Gr1VlfeoxLAl4wu3ybPh6fH9-QvkkpBPXZ8c35ucjJZfQtfMCAnybXjDHXjVQhziMAfbpfsLn_ZzW_Z9GZ_BCqxp9C7KhDP7wrrcabFCoeHFx3d1cKqsD7mDOGyPzhGYlCJrL19s9J2xzBc6sdQtLJVKM6rb2yn2PCC1BqGKfe5nQ0UzTY9gbKnkV2Md0uL3xjJlckUmEsQPtb3HkpMsRMqQmUeVzsnn8QXjMfqV1PHWI7lE6-9UNTim-xemR4voDwcRQj5UkBfMM5Z4Pw6lpbYw7LN7PqM5fTV-3cXsBTjq72iuMpSEhHme_3is42ie5joz6uc6zFg9arSBKVH42X74_DnYPPf2kXw42qIhkL1opU5bjJwZE8iTtcEuPiwHvTK-RXJQ4_Eyq7ygh0jb21AI4Xv2F6kqDQBRkffHeIrjxf8zKgX5RzQ81B3toxQ__tvg_TP7NJztKZAm6RdJlXGq5YD_W58YrhzRvBRfqSXnB2JGvOyZvdlZ2bY-13EjyKVJsIba1AYJJ1UiJyx0wnKBqDbdqWsROyeFMckaLyJBkxy0]--></g></svg>