<svg xmlns="http://www.w3.org/2000/svg" xmlns:xlink="http://www.w3.org/1999/xlink" contentStyleType="text/css" height="637px" preserveAspectRatio="none" style="width:4140px;height:637px;background:#FFFFFF;" version="1.1" viewBox="0 0 4140 637" width="4140px" zoomAndPan="magnify"><defs/><g><!--cluster ???? - ??--><g id="cluster_&#31186;&#26432;&#26381;&#21153; - &#31867;&#22270;"><path d="M8.5,6 L111.6836,6 A3.75,3.75 0 0 1 114.1836,8.5 L121.1836,28.2969 L3022.5,28.2969 A2.5,2.5 0 0 1 3025,30.7969 L3025,627.5 A2.5,2.5 0 0 1 3022.5,630 L8.5,630 A2.5,2.5 0 0 1 6,627.5 L6,8.5 A2.5,2.5 0 0 1 8.5,6 " fill="none" style="stroke:#000000;stroke-width:1.5;"/><line style="stroke:#000000;stroke-width:1.5;" x1="6" x2="121.1836" y1="28.2969" y2="28.2969"/><text fill="#000000" font-family="sans-serif" font-size="14" font-weight="bold" lengthAdjust="spacing" textLength="102.1836" x="10" y="20.9951">&#31186;&#26432;&#26381;&#21153; - &#31867;&#22270;</text></g><!--class fsvc--><g id="elem_fsvc"><rect codeLine="5" fill="#F1F1F1" height="72.5625" id="fsvc" rx="2.5" ry="2.5" style="stroke:#181818;stroke-width:0.5;" width="322.8232" x="22.5" y="93.5"/><ellipse cx="120.4624" cy="113.6328" fill="#B4A7E5" rx="11" ry="11" style="stroke:#181818;stroke-width:1.0;"/><path d="M116.3843,109.3984 L116.3843,107.2422 L123.7749,107.2422 L123.7749,109.3984 L121.3062,109.3984 L121.3062,117.4766 L123.7749,117.4766 L123.7749,119.6328 L116.3843,119.6328 L116.3843,117.4766 L118.853,117.4766 L118.853,109.3984 L116.3843,109.3984 Z " fill="#000000"/><text fill="#000000" font-family="sans-serif" font-size="12" font-style="italic" lengthAdjust="spacing" textLength="68.332" x="165.9956" y="109.6387">&#171;interface&#187;</text><text fill="#000000" font-family="sans-serif" font-size="14" font-style="italic" lengthAdjust="spacing" textLength="118.3984" x="140.9624" y="125.4639">FlashSaleService</text><line style="stroke:#181818;stroke-width:0.5;" x1="23.5" x2="344.3232" y1="133.7656" y2="133.7656"/><line style="stroke:#181818;stroke-width:0.5;" x1="23.5" x2="344.3232" y1="141.7656" y2="141.7656"/><text fill="#000000" font-family="sans-serif" font-size="14" lengthAdjust="spacing" textLength="310.8232" x="28.5" y="158.7607">+flash(activityId: Long, userId: Long): String</text></g><!--class FlashSaleServiceImpl--><g id="elem_FlashSaleServiceImpl"><rect codeLine="9" fill="#F1F1F1" height="129.4844" id="FlashSaleServiceImpl" rx="2.5" ry="2.5" style="stroke:#181818;stroke-width:0.5;" width="322.8232" x="830.5" y="65.5"/><ellipse cx="913.1909" cy="81.5" fill="#ADD1B2" rx="11" ry="11" style="stroke:#181818;stroke-width:1.0;"/><path d="M916.1597,87.1406 Q915.5815,87.4375 914.9409,87.5781 Q914.3003,87.7344 913.5972,87.7344 Q911.0972,87.7344 909.769,86.0938 Q908.4565,84.4375 908.4565,81.3125 Q908.4565,78.1875 909.769,76.5313 Q911.0972,74.875 913.5972,74.875 Q914.3003,74.875 914.9409,75.0313 Q915.5972,75.1875 916.1597,75.4844 L916.1597,78.2031 Q915.5347,77.625 914.9409,77.3594 Q914.3472,77.0781 913.7222,77.0781 Q912.3784,77.0781 911.6909,78.1563 Q911.0034,79.2188 911.0034,81.3125 Q911.0034,83.4063 911.6909,84.4844 Q912.3784,85.5469 913.7222,85.5469 Q914.3472,85.5469 914.9409,85.2813 Q915.5347,85 916.1597,84.4219 L916.1597,87.1406 Z " fill="#000000"/><text fill="#000000" font-family="sans-serif" font-size="14" lengthAdjust="spacing" textLength="148.9414" x="933.6909" y="86.3467">FlashSaleServiceImpl</text><line style="stroke:#181818;stroke-width:0.5;" x1="831.5" x2="1152.3232" y1="97.5" y2="97.5"/><text fill="#000000" font-family="sans-serif" font-size="14" lengthAdjust="spacing" textLength="261.3721" x="836.5" y="114.4951">-redisTemplate: StringRedisTemplate</text><text fill="#000000" font-family="sans-serif" font-size="14" lengthAdjust="spacing" textLength="233.6865" x="836.5" y="130.792">-rabbitTemplate: RabbitTemplate</text><text fill="#000000" font-family="sans-serif" font-size="14" lengthAdjust="spacing" textLength="269.001" x="836.5" y="147.0889">-activityMapper: SeckillActivityMapper</text><text fill="#000000" font-family="sans-serif" font-size="14" lengthAdjust="spacing" textLength="288.2373" x="836.5" y="163.3857">-seckillOrderMapper: SeckillOrderMapper</text><line style="stroke:#181818;stroke-width:0.5;" x1="831.5" x2="1152.3232" y1="170.6875" y2="170.6875"/><text fill="#000000" font-family="sans-serif" font-size="14" lengthAdjust="spacing" textLength="310.8232" x="836.5" y="187.6826">+flash(activityId: Long, userId: Long): String</text></g><!--class sasvc--><g id="elem_sasvc"><rect codeLine="17" fill="#F1F1F1" height="170.3438" id="sasvc" rx="2.5" ry="2.5" style="stroke:#181818;stroke-width:0.5;" width="414.5615" x="380.5" y="45"/><ellipse cx="508.8721" cy="65.1328" fill="#B4A7E5" rx="11" ry="11" style="stroke:#181818;stroke-width:1.0;"/><path d="M504.7939,60.8984 L504.7939,58.7422 L512.1846,58.7422 L512.1846,60.8984 L509.7158,60.8984 L509.7158,68.9766 L512.1846,68.9766 L512.1846,71.1328 L504.7939,71.1328 L504.7939,68.9766 L507.2627,68.9766 L507.2627,60.8984 L504.7939,60.8984 Z " fill="#000000"/><text fill="#000000" font-family="sans-serif" font-size="12" font-style="italic" lengthAdjust="spacing" textLength="68.332" x="569.8647" y="61.1387">&#171;interface&#187;</text><text fill="#000000" font-family="sans-serif" font-size="14" font-style="italic" lengthAdjust="spacing" textLength="149.3174" x="529.3721" y="76.9639">SeckillActivityService</text><line style="stroke:#181818;stroke-width:0.5;" x1="381.5" x2="794.0615" y1="85.2656" y2="85.2656"/><line style="stroke:#181818;stroke-width:0.5;" x1="381.5" x2="794.0615" y1="93.2656" y2="93.2656"/><text fill="#000000" font-family="sans-serif" font-size="14" lengthAdjust="spacing" textLength="282.6045" x="386.5" y="110.2607">+listActivities(): List&lt;SeckillActivityVO&gt;</text><text fill="#000000" font-family="sans-serif" font-size="14" lengthAdjust="spacing" textLength="319.1631" x="386.5" y="126.5576">+getActivityDetail(id: Long): ActivityDetailVO</text><text fill="#000000" font-family="sans-serif" font-size="14" lengthAdjust="spacing" textLength="337.5107" x="386.5" y="142.8545">+createActivity(req: SeckillActCreateReq): Long</text><text fill="#000000" font-family="sans-serif" font-size="14" lengthAdjust="spacing" textLength="402.5615" x="386.5" y="159.1514">+updateActivity(id: Long, req: SeckillActCreateReq): void</text><text fill="#000000" font-family="sans-serif" font-size="14" lengthAdjust="spacing" textLength="214.2246" x="386.5" y="175.4482">+deleteActivity(id: Long): void</text><text fill="#000000" font-family="sans-serif" font-size="14" lengthAdjust="spacing" textLength="314.3232" x="386.5" y="191.7451">+updateStatus(id: Long, status: String): void</text><text fill="#000000" font-family="sans-serif" font-size="14" lengthAdjust="spacing" textLength="176.0732" x="386.5" y="208.042">+warmUp(id: Long): void</text></g><!--class SeckillActivityServiceImpl--><g id="elem_SeckillActivityServiceImpl"><rect codeLine="27" fill="#F1F1F1" height="178.375" id="SeckillActivityServiceImpl" rx="2.5" ry="2.5" style="stroke:#181818;stroke-width:0.5;" width="414.5615" x="1188.5" y="41"/><ellipse cx="1301.6006" cy="57" fill="#ADD1B2" rx="11" ry="11" style="stroke:#181818;stroke-width:1.0;"/><path d="M1304.5693,62.6406 Q1303.9912,62.9375 1303.3506,63.0781 Q1302.71,63.2344 1302.0068,63.2344 Q1299.5068,63.2344 1298.1787,61.5938 Q1296.8662,59.9375 1296.8662,56.8125 Q1296.8662,53.6875 1298.1787,52.0313 Q1299.5068,50.375 1302.0068,50.375 Q1302.71,50.375 1303.3506,50.5313 Q1304.0068,50.6875 1304.5693,50.9844 L1304.5693,53.7031 Q1303.9443,53.125 1303.3506,52.8594 Q1302.7568,52.5781 1302.1318,52.5781 Q1300.7881,52.5781 1300.1006,53.6563 Q1299.4131,54.7188 1299.4131,56.8125 Q1299.4131,58.9063 1300.1006,59.9844 Q1300.7881,61.0469 1302.1318,61.0469 Q1302.7568,61.0469 1303.3506,60.7813 Q1303.9443,60.5 1304.5693,59.9219 L1304.5693,62.6406 Z " fill="#000000"/><text fill="#000000" font-family="sans-serif" font-size="14" lengthAdjust="spacing" textLength="179.8604" x="1322.1006" y="61.8467">SeckillActivityServiceImpl</text><line style="stroke:#181818;stroke-width:0.5;" x1="1189.5" x2="1602.0615" y1="73" y2="73"/><text fill="#000000" font-family="sans-serif" font-size="14" lengthAdjust="spacing" textLength="269.001" x="1194.5" y="89.9951">-activityMapper: SeckillActivityMapper</text><line style="stroke:#181818;stroke-width:0.5;" x1="1189.5" x2="1602.0615" y1="97.2969" y2="97.2969"/><text fill="#000000" font-family="sans-serif" font-size="14" lengthAdjust="spacing" textLength="282.6045" x="1194.5" y="114.292">+listActivities(): List&lt;SeckillActivityVO&gt;</text><text fill="#000000" font-family="sans-serif" font-size="14" lengthAdjust="spacing" textLength="319.1631" x="1194.5" y="130.5889">+getActivityDetail(id: Long): ActivityDetailVO</text><text fill="#000000" font-family="sans-serif" font-size="14" lengthAdjust="spacing" textLength="337.5107" x="1194.5" y="146.8857">+createActivity(req: SeckillActCreateReq): Long</text><text fill="#000000" font-family="sans-serif" font-size="14" lengthAdjust="spacing" textLength="402.5615" x="1194.5" y="163.1826">+updateActivity(id: Long, req: SeckillActCreateReq): void</text><text fill="#000000" font-family="sans-serif" font-size="14" lengthAdjust="spacing" textLength="214.2246" x="1194.5" y="179.4795">+deleteActivity(id: Long): void</text><text fill="#000000" font-family="sans-serif" font-size="14" lengthAdjust="spacing" textLength="314.3232" x="1194.5" y="195.7764">+updateStatus(id: Long, status: String): void</text><text fill="#000000" font-family="sans-serif" font-size="14" lengthAdjust="spacing" textLength="176.0732" x="1194.5" y="212.0732">+warmUp(id: Long): void</text></g><!--class SeckillController--><g id="elem_SeckillController"><rect codeLine="38" fill="#F1F1F1" height="96.8906" id="SeckillController" rx="2.5" ry="2.5" style="stroke:#181818;stroke-width:0.5;" width="390.1709" x="1638" y="81.5"/><ellipse cx="1771.7622" cy="97.5" fill="#ADD1B2" rx="11" ry="11" style="stroke:#181818;stroke-width:1.0;"/><path d="M1774.731,103.1406 Q1774.1528,103.4375 1773.5122,103.5781 Q1772.8716,103.7344 1772.1685,103.7344 Q1769.6685,103.7344 1768.3403,102.0938 Q1767.0278,100.4375 1767.0278,97.3125 Q1767.0278,94.1875 1768.3403,92.5313 Q1769.6685,90.875 1772.1685,90.875 Q1772.8716,90.875 1773.5122,91.0313 Q1774.1685,91.1875 1774.731,91.4844 L1774.731,94.2031 Q1774.106,93.625 1773.5122,93.3594 Q1772.9185,93.0781 1772.2935,93.0781 Q1770.9497,93.0781 1770.2622,94.1563 Q1769.5747,95.2188 1769.5747,97.3125 Q1769.5747,99.4063 1770.2622,100.4844 Q1770.9497,101.5469 1772.2935,101.5469 Q1772.9185,101.5469 1773.5122,101.2813 Q1774.106,101 1774.731,100.4219 L1774.731,103.1406 Z " fill="#000000"/><text fill="#000000" font-family="sans-serif" font-size="14" lengthAdjust="spacing" textLength="114.1465" x="1792.2622" y="102.3467">SeckillController</text><line style="stroke:#181818;stroke-width:0.5;" x1="1639" x2="2027.1709" y1="113.5" y2="113.5"/><line style="stroke:#181818;stroke-width:0.5;" x1="1639" x2="2027.1709" y1="121.5" y2="121.5"/><text fill="#000000" font-family="sans-serif" font-size="14" lengthAdjust="spacing" textLength="349.9521" x="1644" y="138.4951">+listActivities(): Result&lt;List&lt;SeckillActivityVO&gt;&gt;</text><text fill="#000000" font-family="sans-serif" font-size="14" lengthAdjust="spacing" textLength="345.2695" x="1644" y="154.792">+getActivity(id: Long): Result&lt;ActivityDetailVO&gt;</text><text fill="#000000" font-family="sans-serif" font-size="14" lengthAdjust="spacing" textLength="378.1709" x="1644" y="171.0889">+flash(activityId: Long, userId: Long): Result&lt;String&gt;</text></g><!--class SeckillActivityController--><g id="elem_SeckillActivityController"><rect codeLine="44" fill="#F1F1F1" height="145.7813" id="SeckillActivityController" rx="2.5" ry="2.5" style="stroke:#181818;stroke-width:0.5;" width="524.5381" x="2063.5" y="57"/><ellipse cx="2238.1445" cy="73" fill="#ADD1B2" rx="11" ry="11" style="stroke:#181818;stroke-width:1.0;"/><path d="M2241.1133,78.6406 Q2240.5352,78.9375 2239.8945,79.0781 Q2239.2539,79.2344 2238.5508,79.2344 Q2236.0508,79.2344 2234.7227,77.5938 Q2233.4102,75.9375 2233.4102,72.8125 Q2233.4102,69.6875 2234.7227,68.0313 Q2236.0508,66.375 2238.5508,66.375 Q2239.2539,66.375 2239.8945,66.5313 Q2240.5508,66.6875 2241.1133,66.9844 L2241.1133,69.7031 Q2240.4883,69.125 2239.8945,68.8594 Q2239.3008,68.5781 2238.6758,68.5781 Q2237.332,68.5781 2236.6445,69.6563 Q2235.957,70.7188 2235.957,72.8125 Q2235.957,74.9063 2236.6445,75.9844 Q2237.332,77.0469 2238.6758,77.0469 Q2239.3008,77.0469 2239.8945,76.7813 Q2240.4883,76.5 2241.1133,75.9219 L2241.1133,78.6406 Z " fill="#000000"/><text fill="#000000" font-family="sans-serif" font-size="14" lengthAdjust="spacing" textLength="166.749" x="2258.6445" y="77.8467">SeckillActivityController</text><line style="stroke:#181818;stroke-width:0.5;" x1="2064.5" x2="2587.0381" y1="89" y2="89"/><line style="stroke:#181818;stroke-width:0.5;" x1="2064.5" x2="2587.0381" y1="97" y2="97"/><text fill="#000000" font-family="sans-serif" font-size="14" lengthAdjust="spacing" textLength="512.5381" x="2069.5" y="113.9951">+list(role: String, page: int, size: int): Result&lt;IPage&lt;SeckillActivityVO&gt;&gt;</text><text fill="#000000" font-family="sans-serif" font-size="14" lengthAdjust="spacing" textLength="438.9287" x="2069.5" y="130.292">+create(role: String, req: SeckillActCreateReq): Result&lt;Long&gt;</text><text fill="#000000" font-family="sans-serif" font-size="14" lengthAdjust="spacing" textLength="505.2715" x="2069.5" y="146.5889">+update(role: String, id: Long, req: SeckillActCreateReq): Result&lt;Void&gt;</text><text fill="#000000" font-family="sans-serif" font-size="14" lengthAdjust="spacing" textLength="316.9346" x="2069.5" y="162.8857">+delete(role: String, id: Long): Result&lt;Void&gt;</text><text fill="#000000" font-family="sans-serif" font-size="14" lengthAdjust="spacing" textLength="469.6357" x="2069.5" y="179.1826">+updateStatus(role: String, id: Long, status: String): Result&lt;Void&gt;</text><text fill="#000000" font-family="sans-serif" font-size="14" lengthAdjust="spacing" textLength="331.3857" x="2069.5" y="195.4795">+warmUp(role: String, id: Long): Result&lt;Void&gt;</text></g><!--class SeckillOrderConsumer--><g id="elem_SeckillOrderConsumer"><rect codeLine="53" fill="#F1F1F1" height="96.8906" id="SeckillOrderConsumer" rx="2.5" ry="2.5" style="stroke:#181818;stroke-width:0.5;" width="384.5859" x="2623.5" y="81.5"/><ellipse cx="2733.3467" cy="97.5" fill="#ADD1B2" rx="11" ry="11" style="stroke:#181818;stroke-width:1.0;"/><path d="M2736.3154,103.1406 Q2735.7373,103.4375 2735.0967,103.5781 Q2734.4561,103.7344 2733.7529,103.7344 Q2731.2529,103.7344 2729.9248,102.0938 Q2728.6123,100.4375 2728.6123,97.3125 Q2728.6123,94.1875 2729.9248,92.5313 Q2731.2529,90.875 2733.7529,90.875 Q2734.4561,90.875 2735.0967,91.0313 Q2735.7529,91.1875 2736.3154,91.4844 L2736.3154,94.2031 Q2735.6904,93.625 2735.0967,93.3594 Q2734.5029,93.0781 2733.8779,93.0781 Q2732.5342,93.0781 2731.8467,94.1563 Q2731.1592,95.2188 2731.1592,97.3125 Q2731.1592,99.4063 2731.8467,100.4844 Q2732.5342,101.5469 2733.8779,101.5469 Q2734.5029,101.5469 2735.0967,101.2813 Q2735.6904,101 2736.3154,100.4219 L2736.3154,103.1406 Z " fill="#000000"/><text fill="#000000" font-family="sans-serif" font-size="14" lengthAdjust="spacing" textLength="156.3926" x="2753.8467" y="102.3467">SeckillOrderConsumer</text><line style="stroke:#181818;stroke-width:0.5;" x1="2624.5" x2="3007.0859" y1="113.5" y2="113.5"/><text fill="#000000" font-family="sans-serif" font-size="14" lengthAdjust="spacing" textLength="197.4287" x="2629.5" y="130.4951">-orderMapper: OrderMapper</text><text fill="#000000" font-family="sans-serif" font-size="14" lengthAdjust="spacing" textLength="227.6846" x="2629.5" y="146.792">-productMapper: ProductMapper</text><line style="stroke:#181818;stroke-width:0.5;" x1="2624.5" x2="3007.0859" y1="154.0938" y2="154.0938"/><text fill="#000000" font-family="sans-serif" font-size="14" lengthAdjust="spacing" textLength="372.5859" x="2629.5" y="171.0889">+handleSeckillOrder(message: SeckillMessage): void</text></g><!--class SeckillWebSocketHandler--><g id="elem_SeckillWebSocketHandler"><rect codeLine="59" fill="#F1F1F1" height="96.8906" id="SeckillWebSocketHandler" rx="2.5" ry="2.5" style="stroke:#181818;stroke-width:0.5;" width="579.8545" x="22" y="279"/><ellipse cx="218.2769" cy="295" fill="#ADD1B2" rx="11" ry="11" style="stroke:#181818;stroke-width:1.0;"/><path d="M221.2456,300.6406 Q220.6675,300.9375 220.0269,301.0781 Q219.3862,301.2344 218.6831,301.2344 Q216.1831,301.2344 214.855,299.5938 Q213.5425,297.9375 213.5425,294.8125 Q213.5425,291.6875 214.855,290.0313 Q216.1831,288.375 218.6831,288.375 Q219.3862,288.375 220.0269,288.5313 Q220.6831,288.6875 221.2456,288.9844 L221.2456,291.7031 Q220.6206,291.125 220.0269,290.8594 Q219.4331,290.5781 218.8081,290.5781 Q217.4644,290.5781 216.7769,291.6563 Q216.0894,292.7188 216.0894,294.8125 Q216.0894,296.9063 216.7769,297.9844 Q217.4644,299.0469 218.8081,299.0469 Q219.4331,299.0469 220.0269,298.7813 Q220.6206,298.5 221.2456,297.9219 L221.2456,300.6406 Z " fill="#000000"/><text fill="#000000" font-family="sans-serif" font-size="14" lengthAdjust="spacing" textLength="178.8008" x="238.7769" y="299.8467">SeckillWebSocketHandler</text><line style="stroke:#181818;stroke-width:0.5;" x1="23" x2="600.8545" y1="311" y2="311"/><line style="stroke:#181818;stroke-width:0.5;" x1="23" x2="600.8545" y1="319" y2="319"/><text fill="#000000" font-family="sans-serif" font-size="14" lengthAdjust="spacing" textLength="447.6787" x="28" y="335.9951">+afterConnectionEstablished(session: WebSocketSession): void</text><text fill="#000000" font-family="sans-serif" font-size="14" lengthAdjust="spacing" textLength="567.8545" x="28" y="352.292">+handleTextMessage(session: WebSocketSession, message: TextMessage): void</text><text fill="#000000" font-family="sans-serif" font-size="14" lengthAdjust="spacing" textLength="409.377" x="28" y="368.5889">+sendFlashResult(userId: Long, result: SeckillResult): void</text></g><!--class SeckillActivityMapper--><g id="elem_SeckillActivityMapper"><rect codeLine="65" fill="#F1F1F1" height="48" id="SeckillActivityMapper" rx="2.5" ry="2.5" style="stroke:#181818;stroke-width:0.5;" width="182.377" x="1103" y="303.5"/><ellipse cx="1118" cy="319.5" fill="#ADD1B2" rx="11" ry="11" style="stroke:#181818;stroke-width:1.0;"/><path d="M1120.9688,325.1406 Q1120.3906,325.4375 1119.75,325.5781 Q1119.1094,325.7344 1118.4063,325.7344 Q1115.9063,325.7344 1114.5781,324.0938 Q1113.2656,322.4375 1113.2656,319.3125 Q1113.2656,316.1875 1114.5781,314.5313 Q1115.9063,312.875 1118.4063,312.875 Q1119.1094,312.875 1119.75,313.0313 Q1120.4063,313.1875 1120.9688,313.4844 L1120.9688,316.2031 Q1120.3438,315.625 1119.75,315.3594 Q1119.1563,315.0781 1118.5313,315.0781 Q1117.1875,315.0781 1116.5,316.1563 Q1115.8125,317.2188 1115.8125,319.3125 Q1115.8125,321.4063 1116.5,322.4844 Q1117.1875,323.5469 1118.5313,323.5469 Q1119.1563,323.5469 1119.75,323.2813 Q1120.3438,323 1120.9688,322.4219 L1120.9688,325.1406 Z " fill="#000000"/><text fill="#000000" font-family="sans-serif" font-size="14" lengthAdjust="spacing" textLength="150.377" x="1132" y="324.3467">SeckillActivityMapper</text><line style="stroke:#181818;stroke-width:0.5;" x1="1104" x2="1284.377" y1="335.5" y2="335.5"/><line style="stroke:#181818;stroke-width:0.5;" x1="1104" x2="1284.377" y1="343.5" y2="343.5"/></g><!--class SeckillOrderMapper--><g id="elem_SeckillOrderMapper"><rect codeLine="66" fill="#F1F1F1" height="48" id="SeckillOrderMapper" rx="2.5" ry="2.5" style="stroke:#181818;stroke-width:0.5;" width="169.8057" x="637" y="303.5"/><ellipse cx="652" cy="319.5" fill="#ADD1B2" rx="11" ry="11" style="stroke:#181818;stroke-width:1.0;"/><path d="M654.9688,325.1406 Q654.3906,325.4375 653.75,325.5781 Q653.1094,325.7344 652.4063,325.7344 Q649.9063,325.7344 648.5781,324.0938 Q647.2656,322.4375 647.2656,319.3125 Q647.2656,316.1875 648.5781,314.5313 Q649.9063,312.875 652.4063,312.875 Q653.1094,312.875 653.75,313.0313 Q654.4063,313.1875 654.9688,313.4844 L654.9688,316.2031 Q654.3438,315.625 653.75,315.3594 Q653.1563,315.0781 652.5313,315.0781 Q651.1875,315.0781 650.5,316.1563 Q649.8125,317.2188 649.8125,319.3125 Q649.8125,321.4063 650.5,322.4844 Q651.1875,323.5469 652.5313,323.5469 Q653.1563,323.5469 653.75,323.2813 Q654.3438,323 654.9688,322.4219 L654.9688,325.1406 Z " fill="#000000"/><text fill="#000000" font-family="sans-serif" font-size="14" lengthAdjust="spacing" textLength="137.8057" x="666" y="324.3467">SeckillOrderMapper</text><line style="stroke:#181818;stroke-width:0.5;" x1="638" x2="805.8057" y1="335.5" y2="335.5"/><line style="stroke:#181818;stroke-width:0.5;" x1="638" x2="805.8057" y1="343.5" y2="343.5"/></g><!--class SeckillActivity--><g id="elem_SeckillActivity"><rect codeLine="68" fill="#F1F1F1" height="178.375" id="SeckillActivity" rx="2.5" ry="2.5" style="stroke:#181818;stroke-width:0.5;" width="198.2041" x="1095" y="436"/><ellipse cx="1141.064" cy="452" fill="#ADD1B2" rx="11" ry="11" style="stroke:#181818;stroke-width:1.0;"/><path d="M1144.0327,457.6406 Q1143.4546,457.9375 1142.814,458.0781 Q1142.1733,458.2344 1141.4702,458.2344 Q1138.9702,458.2344 1137.6421,456.5938 Q1136.3296,454.9375 1136.3296,451.8125 Q1136.3296,448.6875 1137.6421,447.0313 Q1138.9702,445.375 1141.4702,445.375 Q1142.1733,445.375 1142.814,445.5313 Q1143.4702,445.6875 1144.0327,445.9844 L1144.0327,448.7031 Q1143.4077,448.125 1142.814,447.8594 Q1142.2202,447.5781 1141.5952,447.5781 Q1140.2515,447.5781 1139.564,448.6563 Q1138.8765,449.7188 1138.8765,451.8125 Q1138.8765,453.9063 1139.564,454.9844 Q1140.2515,456.0469 1141.5952,456.0469 Q1142.2202,456.0469 1142.814,455.7813 Q1143.4077,455.5 1144.0327,454.9219 L1144.0327,457.6406 Z " fill="#000000"/><text fill="#000000" font-family="sans-serif" font-size="14" lengthAdjust="spacing" textLength="97.5762" x="1161.564" y="456.8467">SeckillActivity</text><line style="stroke:#181818;stroke-width:0.5;" x1="1096" x2="1292.2041" y1="468" y2="468"/><text fill="#000000" font-family="sans-serif" font-size="14" lengthAdjust="spacing" textLength="61.1201" x="1101" y="484.9951">-id: Long</text><text fill="#000000" font-family="sans-serif" font-size="14" lengthAdjust="spacing" textLength="115.5137" x="1101" y="501.292">-productId: Long</text><text fill="#000000" font-family="sans-serif" font-size="14" lengthAdjust="spacing" textLength="126.123" x="1101" y="517.5889">-seckillPrice: Long</text><text fill="#000000" font-family="sans-serif" font-size="14" lengthAdjust="spacing" textLength="101.7324" x="1101" y="533.8857">-stock: Integer</text><text fill="#000000" font-family="sans-serif" font-size="14" lengthAdjust="spacing" textLength="186.2041" x="1101" y="550.1826">-startTime: LocalDateTime</text><text fill="#000000" font-family="sans-serif" font-size="14" lengthAdjust="spacing" textLength="179.9697" x="1101" y="566.4795">-endTime: LocalDateTime</text><text fill="#000000" font-family="sans-serif" font-size="14" lengthAdjust="spacing" textLength="99.0186" x="1101" y="582.7764">-status: String</text><text fill="#000000" font-family="sans-serif" font-size="14" lengthAdjust="spacing" textLength="115.8555" x="1101" y="599.0732">-version: Integer</text><line style="stroke:#181818;stroke-width:0.5;" x1="1096" x2="1292.2041" y1="606.375" y2="606.375"/></g><!--class FlashSaleService--><g id="elem_FlashSaleService"><rect fill="#F1F1F1" height="48" id="FlashSaleService" rx="2.5" ry="2.5" style="stroke:#181818;stroke-width:0.5;" width="150.3984" x="3433" y="303.5"/><ellipse cx="3448" cy="319.5" fill="#ADD1B2" rx="11" ry="11" style="stroke:#181818;stroke-width:1.0;"/><path d="M3450.9688,325.1406 Q3450.3906,325.4375 3449.75,325.5781 Q3449.1094,325.7344 3448.4063,325.7344 Q3445.9063,325.7344 3444.5781,324.0938 Q3443.2656,322.4375 3443.2656,319.3125 Q3443.2656,316.1875 3444.5781,314.5313 Q3445.9063,312.875 3448.4063,312.875 Q3449.1094,312.875 3449.75,313.0313 Q3450.4063,313.1875 3450.9688,313.4844 L3450.9688,316.2031 Q3450.3438,315.625 3449.75,315.3594 Q3449.1563,315.0781 3448.5313,315.0781 Q3447.1875,315.0781 3446.5,316.1563 Q3445.8125,317.2188 3445.8125,319.3125 Q3445.8125,321.4063 3446.5,322.4844 Q3447.1875,323.5469 3448.5313,323.5469 Q3449.1563,323.5469 3449.75,323.2813 Q3450.3438,323 3450.9688,322.4219 L3450.9688,325.1406 Z " fill="#000000"/><text fill="#000000" font-family="sans-serif" font-size="14" lengthAdjust="spacing" textLength="118.3984" x="3462" y="324.3467">FlashSaleService</text><line style="stroke:#181818;stroke-width:0.5;" x1="3434" x2="3582.3984" y1="335.5" y2="335.5"/><line style="stroke:#181818;stroke-width:0.5;" x1="3434" x2="3582.3984" y1="343.5" y2="343.5"/></g><!--class SeckillActivityService--><g id="elem_SeckillActivityService"><rect fill="#F1F1F1" height="48" id="SeckillActivityService" rx="2.5" ry="2.5" style="stroke:#181818;stroke-width:0.5;" width="181.3174" x="3618.5" y="303.5"/><ellipse cx="3633.5" cy="319.5" fill="#ADD1B2" rx="11" ry="11" style="stroke:#181818;stroke-width:1.0;"/><path d="M3636.4688,325.1406 Q3635.8906,325.4375 3635.25,325.5781 Q3634.6094,325.7344 3633.9063,325.7344 Q3631.4063,325.7344 3630.0781,324.0938 Q3628.7656,322.4375 3628.7656,319.3125 Q3628.7656,316.1875 3630.0781,314.5313 Q3631.4063,312.875 3633.9063,312.875 Q3634.6094,312.875 3635.25,313.0313 Q3635.9063,313.1875 3636.4688,313.4844 L3636.4688,316.2031 Q3635.8438,315.625 3635.25,315.3594 Q3634.6563,315.0781 3634.0313,315.0781 Q3632.6875,315.0781 3632,316.1563 Q3631.3125,317.2188 3631.3125,319.3125 Q3631.3125,321.4063 3632,322.4844 Q3632.6875,323.5469 3634.0313,323.5469 Q3634.6563,323.5469 3635.25,323.2813 Q3635.8438,323 3636.4688,322.4219 L3636.4688,325.1406 Z " fill="#000000"/><text fill="#000000" font-family="sans-serif" font-size="14" lengthAdjust="spacing" textLength="149.3174" x="3647.5" y="324.3467">SeckillActivityService</text><line style="stroke:#181818;stroke-width:0.5;" x1="3619.5" x2="3798.8174" y1="335.5" y2="335.5"/><line style="stroke:#181818;stroke-width:0.5;" x1="3619.5" x2="3798.8174" y1="343.5" y2="343.5"/></g><!--class StringRedisTemplate--><g id="elem_StringRedisTemplate"><rect fill="#F1F1F1" height="48" id="StringRedisTemplate" rx="2.5" ry="2.5" style="stroke:#181818;stroke-width:0.5;" width="178.4531" x="3041" y="303.5"/><ellipse cx="3056" cy="319.5" fill="#ADD1B2" rx="11" ry="11" style="stroke:#181818;stroke-width:1.0;"/><path d="M3058.9688,325.1406 Q3058.3906,325.4375 3057.75,325.5781 Q3057.1094,325.7344 3056.4063,325.7344 Q3053.9063,325.7344 3052.5781,324.0938 Q3051.2656,322.4375 3051.2656,319.3125 Q3051.2656,316.1875 3052.5781,314.5313 Q3053.9063,312.875 3056.4063,312.875 Q3057.1094,312.875 3057.75,313.0313 Q3058.4063,313.1875 3058.9688,313.4844 L3058.9688,316.2031 Q3058.3438,315.625 3057.75,315.3594 Q3057.1563,315.0781 3056.5313,315.0781 Q3055.1875,315.0781 3054.5,316.1563 Q3053.8125,317.2188 3053.8125,319.3125 Q3053.8125,321.4063 3054.5,322.4844 Q3055.1875,323.5469 3056.5313,323.5469 Q3057.1563,323.5469 3057.75,323.2813 Q3058.3438,323 3058.9688,322.4219 L3058.9688,325.1406 Z " fill="#000000"/><text fill="#000000" font-family="sans-serif" font-size="14" lengthAdjust="spacing" textLength="146.4531" x="3070" y="324.3467">StringRedisTemplate</text><line style="stroke:#181818;stroke-width:0.5;" x1="3042" x2="3218.4531" y1="335.5" y2="335.5"/><line style="stroke:#181818;stroke-width:0.5;" x1="3042" x2="3218.4531" y1="343.5" y2="343.5"/></g><!--class RabbitTemplate--><g id="elem_RabbitTemplate"><rect fill="#F1F1F1" height="48" id="RabbitTemplate" rx="2.5" ry="2.5" style="stroke:#181818;stroke-width:0.5;" width="143.7197" x="3254" y="303.5"/><ellipse cx="3269" cy="319.5" fill="#ADD1B2" rx="11" ry="11" style="stroke:#181818;stroke-width:1.0;"/><path d="M3271.9688,325.1406 Q3271.3906,325.4375 3270.75,325.5781 Q3270.1094,325.7344 3269.4063,325.7344 Q3266.9063,325.7344 3265.5781,324.0938 Q3264.2656,322.4375 3264.2656,319.3125 Q3264.2656,316.1875 3265.5781,314.5313 Q3266.9063,312.875 3269.4063,312.875 Q3270.1094,312.875 3270.75,313.0313 Q3271.4063,313.1875 3271.9688,313.4844 L3271.9688,316.2031 Q3271.3438,315.625 3270.75,315.3594 Q3270.1563,315.0781 3269.5313,315.0781 Q3268.1875,315.0781 3267.5,316.1563 Q3266.8125,317.2188 3266.8125,319.3125 Q3266.8125,321.4063 3267.5,322.4844 Q3268.1875,323.5469 3269.5313,323.5469 Q3270.1563,323.5469 3270.75,323.2813 Q3271.3438,323 3271.9688,322.4219 L3271.9688,325.1406 Z " fill="#000000"/><text fill="#000000" font-family="sans-serif" font-size="14" lengthAdjust="spacing" textLength="111.7197" x="3283" y="324.3467">RabbitTemplate</text><line style="stroke:#181818;stroke-width:0.5;" x1="3255" x2="3396.7197" y1="335.5" y2="335.5"/><line style="stroke:#181818;stroke-width:0.5;" x1="3255" x2="3396.7197" y1="343.5" y2="343.5"/></g><!--class OrderMapper--><g id="elem_OrderMapper"><rect fill="#F1F1F1" height="48" id="OrderMapper" rx="2.5" ry="2.5" style="stroke:#181818;stroke-width:0.5;" width="124.832" x="4008.5" y="303.5"/><ellipse cx="4023.5" cy="319.5" fill="#ADD1B2" rx="11" ry="11" style="stroke:#181818;stroke-width:1.0;"/><path d="M4026.4688,325.1406 Q4025.8906,325.4375 4025.25,325.5781 Q4024.6094,325.7344 4023.9063,325.7344 Q4021.4063,325.7344 4020.0781,324.0938 Q4018.7656,322.4375 4018.7656,319.3125 Q4018.7656,316.1875 4020.0781,314.5313 Q4021.4063,312.875 4023.9063,312.875 Q4024.6094,312.875 4025.25,313.0313 Q4025.9063,313.1875 4026.4688,313.4844 L4026.4688,316.2031 Q4025.8438,315.625 4025.25,315.3594 Q4024.6563,315.0781 4024.0313,315.0781 Q4022.6875,315.0781 4022,316.1563 Q4021.3125,317.2188 4021.3125,319.3125 Q4021.3125,321.4063 4022,322.4844 Q4022.6875,323.5469 4024.0313,323.5469 Q4024.6563,323.5469 4025.25,323.2813 Q4025.8438,323 4026.4688,322.4219 L4026.4688,325.1406 Z " fill="#000000"/><text fill="#000000" font-family="sans-serif" font-size="14" lengthAdjust="spacing" textLength="92.832" x="4037.5" y="324.3467">OrderMapper</text><line style="stroke:#181818;stroke-width:0.5;" x1="4009.5" x2="4132.332" y1="335.5" y2="335.5"/><line style="stroke:#181818;stroke-width:0.5;" x1="4009.5" x2="4132.332" y1="343.5" y2="343.5"/></g><!--class ProductMapper--><g id="elem_ProductMapper"><rect fill="#F1F1F1" height="48" id="ProductMapper" rx="2.5" ry="2.5" style="stroke:#181818;stroke-width:0.5;" width="138.5107" x="3834.5" y="303.5"/><ellipse cx="3849.5" cy="319.5" fill="#ADD1B2" rx="11" ry="11" style="stroke:#181818;stroke-width:1.0;"/><path d="M3852.4688,325.1406 Q3851.8906,325.4375 3851.25,325.5781 Q3850.6094,325.7344 3849.9063,325.7344 Q3847.4063,325.7344 3846.0781,324.0938 Q3844.7656,322.4375 3844.7656,319.3125 Q3844.7656,316.1875 3846.0781,314.5313 Q3847.4063,312.875 3849.9063,312.875 Q3850.6094,312.875 3851.25,313.0313 Q3851.9063,313.1875 3852.4688,313.4844 L3852.4688,316.2031 Q3851.8438,315.625 3851.25,315.3594 Q3850.6563,315.0781 3850.0313,315.0781 Q3848.6875,315.0781 3848,316.1563 Q3847.3125,317.2188 3847.3125,319.3125 Q3847.3125,321.4063 3848,322.4844 Q3848.6875,323.5469 3850.0313,323.5469 Q3850.6563,323.5469 3851.25,323.2813 Q3851.8438,323 3852.4688,322.4219 L3852.4688,325.1406 Z " fill="#000000"/><text fill="#000000" font-family="sans-serif" font-size="14" lengthAdjust="spacing" textLength="106.5107" x="3863.5" y="324.3467">ProductMapper</text><line style="stroke:#181818;stroke-width:0.5;" x1="3835.5" x2="3972.0107" y1="335.5" y2="335.5"/><line style="stroke:#181818;stroke-width:0.5;" x1="3835.5" x2="3972.0107" y1="343.5" y2="343.5"/></g><!--link SeckillController to FlashSaleService--><g id="link_SeckillController_FlashSaleService"><path codeLine="81" d="M1927.98,178.53 C1964.04,194.34 2006.06,210.16 2046,219 C2641.08,350.68 2827.04,122.21 3416,279 C3435.63,284.23 3450.6382,291.1173 3467.1182,300.5173 " fill="none" id="SeckillController-to-FlashSaleService" style="stroke:#181818;stroke-width:1.0;"/><polygon fill="#181818" points="3472.33,303.49,3466.4941,295.5564,3467.9868,301.0127,3462.5305,302.5054,3472.33,303.49" style="stroke:#181818;stroke-width:1.0;"/></g><!--link SeckillController to SeckillActivityService--><g id="link_SeckillController_SeckillActivityService"><path codeLine="82" d="M1927.69,178.53 C1963.81,194.39 2005.93,210.24 2046,219 C2721.68,366.68 2927.03,123.71 3601,279 C3623.56,284.2 3641.8394,291.4459 3661.2594,300.8459 " fill="none" id="SeckillController-to-SeckillActivityService" style="stroke:#181818;stroke-width:1.0;"/><polygon fill="#181818" points="3666.66,303.46,3660.3018,295.9385,3662.1595,301.2816,3656.8164,303.1393,3666.66,303.46" style="stroke:#181818;stroke-width:1.0;"/></g><!--link SeckillActivityController to SeckillActivityService--><g id="link_SeckillActivityController_SeckillActivityService"><path codeLine="83" d="M2535.98,203.02 C2559.4,209.24 2583.07,214.77 2606,219 C3041.68,299.35 3170.39,174.86 3601,279 C3623.3,284.39 3641.351,291.5632 3660.681,300.8432 " fill="none" id="SeckillActivityController-to-SeckillActivityService" style="stroke:#181818;stroke-width:1.0;"/><polygon fill="#181818" points="3666.09,303.44,3659.7077,295.9389,3661.5825,301.276,3656.2454,303.1509,3666.09,303.44" style="stroke:#181818;stroke-width:1.0;"/></g><!--link FlashSaleServiceImpl to FlashSaleService--><g id="link_FlashSaleServiceImpl_FlashSaleService"><path codeLine="85" d="M1102.83,194.55 C1124.79,204.51 1148.14,213.36 1171,219 C1655.55,338.51 2932.65,154.72 3416,279 C3435.67,284.06 3440.2751,284.9734 3456.7451,294.3934 " fill="none" id="FlashSaleServiceImpl-to-FlashSaleService" style="stroke:#181818;stroke-width:1.0;stroke-dasharray:7.0,7.0;"/><polygon fill="none" points="3472.37,303.33,3459.724,289.1851,3453.7663,299.6017,3472.37,303.33" style="stroke:#181818;stroke-width:1.0;"/></g><!--link FlashSaleServiceImpl to SeckillActivityMapper--><g id="link_FlashSaleServiceImpl_SeckillActivityMapper"><path codeLine="86" d="M1057.86,194.74 C1096.32,231.96 1138.2181,272.5177 1165.7081,299.1177 " fill="none" id="FlashSaleServiceImpl-to-SeckillActivityMapper" style="stroke:#181818;stroke-width:1.0;"/><polygon fill="#181818" points="1170.02,303.29,1166.3337,294.157,1166.4268,299.8131,1160.7707,299.9062,1170.02,303.29" style="stroke:#181818;stroke-width:1.0;"/></g><!--link FlashSaleServiceImpl to StringRedisTemplate--><g id="link_FlashSaleServiceImpl_StringRedisTemplate"><path codeLine="87" d="M1103.34,194.66 C1125.16,204.54 1148.32,213.34 1171,219 C1570.94,318.84 2623.51,185.59 3025,279 C3047.02,284.12 3064.6906,291.3024 3083.5606,300.7124 " fill="none" id="FlashSaleServiceImpl-to-StringRedisTemplate" style="stroke:#181818;stroke-width:1.0;"/><polygon fill="#181818" points="3088.93,303.39,3082.661,295.794,3084.4555,301.1587,3079.0908,302.9532,3088.93,303.39" style="stroke:#181818;stroke-width:1.0;"/></g><!--link FlashSaleServiceImpl to RabbitTemplate--><g id="link_FlashSaleServiceImpl_RabbitTemplate"><path codeLine="88" d="M1102.84,194.51 C1124.8,204.47 1148.14,213.33 1171,219 C1616.81,329.51 2793.09,161.08 3237,279 C3256.13,284.08 3270.5471,290.8731 3286.4571,300.2931 " fill="none" id="FlashSaleServiceImpl-to-RabbitTemplate" style="stroke:#181818;stroke-width:1.0;"/><polygon fill="#181818" points="3291.62,303.35,3285.9135,295.3228,3287.3176,300.8026,3281.8377,302.2067,3291.62,303.35" style="stroke:#181818;stroke-width:1.0;"/></g><!--link SeckillActivityServiceImpl to SeckillActivityService--><g id="link_SeckillActivityServiceImpl_SeckillActivityService"><path codeLine="90" d="M1603.63,215.32 C1609.11,216.65 1614.58,217.89 1620,219 C2051.44,307.49 3171.41,181.89 3601,279 C3623.68,284.13 3631.2799,286.1736 3650.7499,295.6336 " fill="none" id="SeckillActivityServiceImpl-to-SeckillActivityService" style="stroke:#181818;stroke-width:1.0;stroke-dasharray:7.0,7.0;"/><polygon fill="none" points="3666.94,303.5,3653.372,290.2369,3648.1278,301.0303,3666.94,303.5" style="stroke:#181818;stroke-width:1.0;"/></g><!--link SeckillActivityServiceImpl to SeckillActivityMapper--><g id="link_SeckillActivityServiceImpl_SeckillActivityMapper"><path codeLine="91" d="M1305.05,219.03 C1273,250.04 1243.9116,278.1975 1222.2116,299.1975 " fill="none" id="SeckillActivityServiceImpl-to-SeckillActivityMapper" style="stroke:#181818;stroke-width:1.0;"/><polygon fill="#181818" points="1217.9,303.37,1227.1491,299.9856,1221.493,299.8929,1221.5857,294.2368,1217.9,303.37" style="stroke:#181818;stroke-width:1.0;"/></g><!--link SeckillOrderConsumer to OrderMapper--><g id="link_SeckillOrderConsumer_OrderMapper"><path codeLine="93" d="M3008.54,145.66 C3293.74,168.99 3813.85,218.21 3991,279 C4007.81,284.77 4019.8927,291.1058 4033.9727,300.1558 " fill="none" id="SeckillOrderConsumer-to-OrderMapper" style="stroke:#181818;stroke-width:1.0;"/><polygon fill="#181818" points="4039.02,303.4,4033.6118,295.1689,4034.8139,300.6965,4029.2863,301.8986,4039.02,303.4" style="stroke:#181818;stroke-width:1.0;"/></g><!--link SeckillOrderConsumer to ProductMapper--><g id="link_SeckillOrderConsumer_ProductMapper"><path codeLine="94" d="M3008.83,139.39 C3213.91,152.91 3545.48,188.04 3817,279 C3834.79,284.96 3848.0213,291.42 3863.3013,300.36 " fill="none" id="SeckillOrderConsumer-to-ProductMapper" style="stroke:#181818;stroke-width:1.0;"/><polygon fill="#181818" points="3868.48,303.39,3862.7319,295.3926,3864.1644,300.865,3858.6919,302.2975,3868.48,303.39" style="stroke:#181818;stroke-width:1.0;"/></g><!--link SeckillActivityMapper to SeckillActivity--><g id="link_SeckillActivityMapper_SeckillActivity"><path codeLine="96" d="M1194,351.69 C1194,372.63 1194,398.8 1194,429.7 " fill="none" id="SeckillActivityMapper-to-SeckillActivity" style="stroke:#181818;stroke-width:1.0;"/><polygon fill="#181818" points="1194,435.7,1198,426.7,1194,430.7,1190,426.7,1194,435.7" style="stroke:#181818;stroke-width:1.0;"/></g><!--SRC=[xLOzRzim4DtrAuXC2Xe7dGr3G92qg844CImtdMdfx12M9OMatAOVGES2NRgs7JfrxboW_oR9t-X9b6HI8WqNHRS67gBZkm- -UpnIh5YQKqxN94ge42TISZOl98oZB0tPQo2FFI-dqOekWHmyVFzq__Nz_PUFTn- -aG5v-F7pxlEl0_B6ymXXgGI-e172dcAawv0c40BVi0WE21La8JOH6OrQM12W7y6_HuiIxjD8iWsJj-DuICwpT7b42W6y-JeSaX0hIvVeygvCLrLBkfd6wpofmmuun4pC02rKGkC-rOqrZixdJ6w1K-DROPhYBcYU0yTW4ArOafmOPWKLQkcIny0xSCts5plNYEwKeTCjg9FlX0bPkp0GFYOuHyke4-pgCb3m9JJespEGb2K-svPchbnTAfU80rBNhFaSRdJAJglLATmSgZ3AfyXZtOUrPEpmtcGiLjun963nDZ0gGoYfB8GMNrI6XcN3uoNbw-Uv9PecGNiFT27kBvx_hVaNhJdDKicp907kFW5J44KYHmws-tJhYMlVBj_17vtnEeZQQR1JOlRz-6XgnzmHoN5W3yjPWIpY6A_-tQOPJt3PlL4baax47SrksCjKwMr3En7s4auTwmgx6UW2SiIoUXXoSjNG4rS_JYsoVJFtMrPDVEoNADPjjmQPVZLqxuH1phEuY6IpFj4_LLNND8tB6s-RmL-345N3Q-k5-jvrAbx0FCoY5SXdLRXMItGXgv9JG5bawHEaQOxwkeRO5nWLJKFI-eRAOfnCLTuCNicw2hVV4MaBr_16D05fNDtoYcjVFpQbZafZkss5sMTCjtpssrKlkJoRBZOoCBesDeprKs32yK8mx199698nNitBzjaWAPSpjgw04KtEKC3bfrf54fnhfewLRGDSCRxDWLpWhpyI1uEWzunomEnNdUSUJpkSFElJxVZuhQKQAzGIk-wS6svv0Zh1dMUWj-EUhwhUZvpzTk1PnqU9rnNg19apmxFci6NtVWC0]--></g></svg>