<svg xmlns="http://www.w3.org/2000/svg" xmlns:xlink="http://www.w3.org/1999/xlink" contentStyleType="text/css" height="585px" preserveAspectRatio="none" style="width:956px;height:585px;background:#FFFFFF;" version="1.1" viewBox="0 0 956 585" width="956px" zoomAndPan="magnify"><defs/><g><line style="stroke:#181818;stroke-width:0.5;stroke-dasharray:5.0,5.0;" x1="22" x2="22" y1="81.2969" y2="504.7578"/><line style="stroke:#181818;stroke-width:0.5;stroke-dasharray:5.0,5.0;" x1="241.1694" x2="241.1694" y1="81.2969" y2="504.7578"/><line style="stroke:#181818;stroke-width:0.5;stroke-dasharray:5.0,5.0;" x1="418.7573" x2="418.7573" y1="81.2969" y2="504.7578"/><line style="stroke:#181818;stroke-width:0.5;stroke-dasharray:5.0,5.0;" x1="550.8403" x2="550.8403" y1="81.2969" y2="504.7578"/><line style="stroke:#181818;stroke-width:0.5;stroke-dasharray:5.0,5.0;" x1="834.7153" x2="834.7153" y1="81.2969" y2="504.7578"/><line style="stroke:#181818;stroke-width:0.5;stroke-dasharray:5.0,5.0;" x1="921.4263" x2="921.4263" y1="81.2969" y2="504.7578"/><text fill="#000000" font-family="sans-serif" font-size="14" lengthAdjust="spacing" textLength="28" x="5" y="77.9951">&#29992;&#25143;</text><ellipse cx="22" cy="13.5" fill="#E2E2F0" rx="8" ry="8" style="stroke:#181818;stroke-width:0.5;"/><path d="M22,21.5 L22,48.5 M9,29.5 L35,29.5 M22,48.5 L9,63.5 M22,48.5 L35,63.5 " fill="none" style="stroke:#181818;stroke-width:0.5;"/><text fill="#000000" font-family="sans-serif" font-size="14" lengthAdjust="spacing" textLength="28" x="5" y="516.7529">&#29992;&#25143;</text><ellipse cx="22" cy="528.5547" fill="#E2E2F0" rx="8" ry="8" style="stroke:#181818;stroke-width:0.5;"/><path d="M22,536.5547 L22,563.5547 M9,544.5547 L35,544.5547 M22,563.5547 L9,578.5547 M22,563.5547 L35,578.5547 " fill="none" style="stroke:#181818;stroke-width:0.5;"/><rect fill="#E2E2F0" height="30.2969" rx="2.5" ry="2.5" style="stroke:#181818;stroke-width:0.5;" width="75.8447" x="204.1694" y="50"/><text fill="#000000" font-family="sans-serif" font-size="14" lengthAdjust="spacing" textLength="61.8447" x="211.1694" y="69.9951">Gateway</text><rect fill="#E2E2F0" height="30.2969" rx="2.5" ry="2.5" style="stroke:#181818;stroke-width:0.5;" width="75.8447" x="204.1694" y="503.7578"/><text fill="#000000" font-family="sans-serif" font-size="14" lengthAdjust="spacing" textLength="61.8447" x="211.1694" y="523.7529">Gateway</text><rect fill="#E2E2F0" height="30.2969" rx="2.5" ry="2.5" style="stroke:#181818;stroke-width:0.5;" width="115.083" x="361.7573" y="50"/><text fill="#000000" font-family="sans-serif" font-size="14" lengthAdjust="spacing" textLength="101.083" x="368.7573" y="69.9951">UserController</text><rect fill="#E2E2F0" height="30.2969" rx="2.5" ry="2.5" style="stroke:#181818;stroke-width:0.5;" width="115.083" x="361.7573" y="503.7578"/><text fill="#000000" font-family="sans-serif" font-size="14" lengthAdjust="spacing" textLength="101.083" x="368.7573" y="523.7529">UserController</text><rect fill="#E2E2F0" height="30.2969" rx="2.5" ry="2.5" style="stroke:#181818;stroke-width:0.5;" width="128.1943" x="486.8403" y="50"/><text fill="#000000" font-family="sans-serif" font-size="14" lengthAdjust="spacing" textLength="114.1943" x="493.8403" y="69.9951">UserServiceImpl</text><rect fill="#E2E2F0" height="30.2969" rx="2.5" ry="2.5" style="stroke:#181818;stroke-width:0.5;" width="128.1943" x="486.8403" y="503.7578"/><text fill="#000000" font-family="sans-serif" font-size="14" lengthAdjust="spacing" textLength="114.1943" x="493.8403" y="523.7529">UserServiceImpl</text><rect fill="#E2E2F0" height="30.2969" rx="2.5" ry="2.5" style="stroke:#181818;stroke-width:0.5;" width="98.7109" x="785.7153" y="50"/><text fill="#000000" font-family="sans-serif" font-size="14" lengthAdjust="spacing" textLength="84.7109" x="792.7153" y="69.9951">UserMapper</text><rect fill="#E2E2F0" height="30.2969" rx="2.5" ry="2.5" style="stroke:#181818;stroke-width:0.5;" width="98.7109" x="785.7153" y="503.7578"/><text fill="#000000" font-family="sans-serif" font-size="14" lengthAdjust="spacing" textLength="84.7109" x="792.7153" y="523.7529">UserMapper</text><text fill="#000000" font-family="sans-serif" font-size="14" lengthAdjust="spacing" textLength="48.0703" x="894.4263" y="77.9951">MySQL</text><path d="M903.4614,29 C903.4614,19 921.4614,19 921.4614,19 C921.4614,19 939.4614,19 939.4614,29 L939.4614,55 C939.4614,65 921.4614,65 921.4614,65 C921.4614,65 903.4614,65 903.4614,55 L903.4614,29 " fill="#E2E2F0" style="stroke:#181818;stroke-width:1.5;"/><path d="M903.4614,29 C903.4614,39 921.4614,39 921.4614,39 C921.4614,39 939.4614,39 939.4614,29 " fill="none" style="stroke:#181818;stroke-width:1.5;"/><text fill="#000000" font-family="sans-serif" font-size="14" lengthAdjust="spacing" textLength="48.0703" x="894.4263" y="516.7529">MySQL</text><path d="M903.4614,530.0547 C903.4614,520.0547 921.4614,520.0547 921.4614,520.0547 C921.4614,520.0547 939.4614,520.0547 939.4614,530.0547 L939.4614,556.0547 C939.4614,566.0547 921.4614,566.0547 921.4614,566.0547 C921.4614,566.0547 903.4614,566.0547 903.4614,556.0547 L903.4614,530.0547 " fill="#E2E2F0" style="stroke:#181818;stroke-width:1.5;"/><path d="M903.4614,530.0547 C903.4614,540.0547 921.4614,540.0547 921.4614,540.0547 C921.4614,540.0547 939.4614,540.0547 939.4614,530.0547 " fill="none" style="stroke:#181818;stroke-width:1.5;"/><polygon fill="#181818" points="230.0918,123.5625,240.0918,127.5625,230.0918,131.5625,234.0918,127.5625" style="stroke:#181818;stroke-width:1.0;"/><line style="stroke:#181818;stroke-width:1.0;" x1="22" x2="236.0918" y1="127.5625" y2="127.5625"/><text fill="#000000" font-family="sans-serif" font-size="13" lengthAdjust="spacing" textLength="162.5444" x="29" y="107.3638">1 POST /api/user/register</text><text fill="#000000" font-family="sans-serif" font-size="13" lengthAdjust="spacing" textLength="196.0918" x="29" y="122.4966">{username, password, email}</text><polygon fill="#181818" points="407.2988,152.6953,417.2988,156.6953,407.2988,160.6953,411.2988,156.6953" style="stroke:#181818;stroke-width:1.0;"/><line style="stroke:#181818;stroke-width:1.0;" x1="242.0918" x2="413.2988" y1="156.6953" y2="156.6953"/><text fill="#000000" font-family="sans-serif" font-size="13" lengthAdjust="spacing" textLength="153.207" x="249.0918" y="151.6294">2 &#30333;&#21517;&#21333;&#25918;&#34892;(&#26080;&#38656;Token)</text><polygon fill="#181818" points="538.9375,181.8281,548.9375,185.8281,538.9375,189.8281,542.9375,185.8281" style="stroke:#181818;stroke-width:1.0;"/><line style="stroke:#181818;stroke-width:1.0;" x1="419.2988" x2="544.9375" y1="185.8281" y2="185.8281"/><text fill="#000000" font-family="sans-serif" font-size="13" lengthAdjust="spacing" textLength="94.561" x="426.2988" y="180.7622">3 register(req)</text><polygon fill="#181818" points="823.0708,210.9609,833.0708,214.9609,823.0708,218.9609,827.0708,214.9609" style="stroke:#181818;stroke-width:1.0;"/><line style="stroke:#181818;stroke-width:1.0;" x1="550.9375" x2="829.0708" y1="214.9609" y2="214.9609"/><text fill="#000000" font-family="sans-serif" font-size="13" lengthAdjust="spacing" textLength="260.1333" x="557.9375" y="209.895">4 &#26657;&#39564;&#29992;&#25143;&#21517;&#21807;&#19968; selectCount(username)</text><polygon fill="#181818" points="909.4614,224.9609,919.4614,228.9609,909.4614,232.9609,913.4614,228.9609" style="stroke:#181818;stroke-width:1.0;"/><line style="stroke:#181818;stroke-width:1.0;" x1="835.0708" x2="915.4614" y1="228.9609" y2="228.9609"/><polygon fill="#181818" points="846.0708,238.9609,836.0708,242.9609,846.0708,246.9609,842.0708,242.9609" style="stroke:#181818;stroke-width:1.0;"/><line style="stroke:#181818;stroke-width:1.0;stroke-dasharray:2.0,2.0;" x1="840.0708" x2="920.4614" y1="242.9609" y2="242.9609"/><polygon fill="#181818" points="823.0708,268.0938,833.0708,272.0938,823.0708,276.0938,827.0708,272.0938" style="stroke:#181818;stroke-width:1.0;"/><line style="stroke:#181818;stroke-width:1.0;" x1="550.9375" x2="829.0708" y1="272.0938" y2="272.0938"/><text fill="#000000" font-family="sans-serif" font-size="13" lengthAdjust="spacing" textLength="217.7627" x="557.9375" y="267.0278">5 &#26657;&#39564;&#37038;&#31665;&#21807;&#19968; selectCount(email)</text><polygon fill="#181818" points="909.4614,282.0938,919.4614,286.0938,909.4614,290.0938,913.4614,286.0938" style="stroke:#181818;stroke-width:1.0;"/><line style="stroke:#181818;stroke-width:1.0;" x1="835.0708" x2="915.4614" y1="286.0938" y2="286.0938"/><polygon fill="#181818" points="846.0708,296.0938,836.0708,300.0938,846.0708,304.0938,842.0708,300.0938" style="stroke:#181818;stroke-width:1.0;"/><line style="stroke:#181818;stroke-width:1.0;stroke-dasharray:2.0,2.0;" x1="840.0708" x2="920.4614" y1="300.0938" y2="300.0938"/><line style="stroke:#181818;stroke-width:1.0;" x1="550.9375" x2="592.9375" y1="329.2266" y2="329.2266"/><line style="stroke:#181818;stroke-width:1.0;" x1="592.9375" x2="592.9375" y1="329.2266" y2="342.2266"/><line style="stroke:#181818;stroke-width:1.0;" x1="551.9375" x2="592.9375" y1="342.2266" y2="342.2266"/><polygon fill="#181818" points="561.9375,338.2266,551.9375,342.2266,561.9375,346.2266,557.9375,342.2266" style="stroke:#181818;stroke-width:1.0;"/><text fill="#000000" font-family="sans-serif" font-size="13" lengthAdjust="spacing" textLength="108.7861" x="557.9375" y="324.1606">6 BCrypt&#21152;&#23494;&#23494;&#30721;</text><polygon fill="#181818" points="823.0708,367.3594,833.0708,371.3594,823.0708,375.3594,827.0708,371.3594" style="stroke:#181818;stroke-width:1.0;"/><line style="stroke:#181818;stroke-width:1.0;" x1="550.9375" x2="829.0708" y1="371.3594" y2="371.3594"/><text fill="#000000" font-family="sans-serif" font-size="13" lengthAdjust="spacing" textLength="91.8887" x="557.9375" y="366.2935">7 INSERT user</text><polygon fill="#181818" points="909.4614,381.3594,919.4614,385.3594,909.4614,389.3594,913.4614,385.3594" style="stroke:#181818;stroke-width:1.0;"/><line style="stroke:#181818;stroke-width:1.0;" x1="835.0708" x2="915.4614" y1="385.3594" y2="385.3594"/><polygon fill="#181818" points="846.0708,395.3594,836.0708,399.3594,846.0708,403.3594,842.0708,399.3594" style="stroke:#181818;stroke-width:1.0;"/><line style="stroke:#181818;stroke-width:1.0;stroke-dasharray:2.0,2.0;" x1="840.0708" x2="920.4614" y1="399.3594" y2="399.3594"/><polygon fill="#181818" points="430.2988,424.4922,420.2988,428.4922,430.2988,432.4922,426.2988,428.4922" style="stroke:#181818;stroke-width:1.0;"/><line style="stroke:#181818;stroke-width:1.0;stroke-dasharray:2.0,2.0;" x1="424.2988" x2="549.9375" y1="428.4922" y2="428.4922"/><text fill="#000000" font-family="sans-serif" font-size="13" lengthAdjust="spacing" textLength="78.8442" x="436.2988" y="423.4263">8 &#36820;&#22238;userId</text><polygon fill="#181818" points="253.0918,453.625,243.0918,457.625,253.0918,461.625,249.0918,457.625" style="stroke:#181818;stroke-width:1.0;"/><line style="stroke:#181818;stroke-width:1.0;stroke-dasharray:2.0,2.0;" x1="247.0918" x2="418.2988" y1="457.625" y2="457.625"/><text fill="#000000" font-family="sans-serif" font-size="13" lengthAdjust="spacing" textLength="106.6279" x="259.0918" y="452.5591">9 Result&lt;Long&gt;</text><polygon fill="#181818" points="33,482.7578,23,486.7578,33,490.7578,29,486.7578" style="stroke:#181818;stroke-width:1.0;"/><line style="stroke:#181818;stroke-width:1.0;stroke-dasharray:2.0,2.0;" x1="27" x2="241.0918" y1="486.7578" y2="486.7578"/><text fill="#000000" font-family="sans-serif" font-size="13" lengthAdjust="spacing" textLength="163.5854" x="39" y="481.6919">10 {code:0, data:userId}</text><!--SRC=[ZP9DIm9H58RtyoiEhXGCxRk6S9542Dg7sgxDTUOYG_FLlLT5HB0M4Q7GOYAYY74NBPHMjQd-J3EZ_wAvCwEG1WMpcBdlUvxxddC6ISmWu5bFxkKh80erYebW8i8KIJ6Hpc0NCTn0JQvL6p-Ks97lpHew8uQgOXBZ5eaHTTvKmgIkI3YdcMhWedLftbH0fXbHjE1La1535KGn59gbmpmNv8eWy8ImaF7JYB081_kbCgIGgQJuUOhWga8P9iTwYt_hICD9C16b3OF8IS0QKjIsK6rm0CygmX9uT-_ETS_ftRZMnwZVZRktzlYXKpPEi9uGk8cR_SWYBCE47oVuD27uXrmBuugm0gxT7pztmsbofZNyUki0nIgMMDQewIm-IPKGmYfUxtSbLs1XIfhbhaRSyVd06xpy0WtQ-Wynw68DjhEaQJBdodQ65_xZsMUpLwv3Rg-qKoo7_yDVuEamDs3qQJdtZxmg9qV3YtQr2KLCQohRoXjwDHFim5UuqzzZ6bgI8MCndGI-TJ44jBy1]--></g></svg>