<svg xmlns="http://www.w3.org/2000/svg" xmlns:xlink="http://www.w3.org/1999/xlink" contentStyleType="text/css" height="528px" preserveAspectRatio="none" style="width:847px;height:528px;background:#FFFFFF;" version="1.1" viewBox="0 0 847 528" width="847px" zoomAndPan="magnify"><defs/><g><line style="stroke:#181818;stroke-width:0.5;stroke-dasharray:5.0,5.0;" x1="22" x2="22" y1="81.2969" y2="447.7578"/><line style="stroke:#181818;stroke-width:0.5;stroke-dasharray:5.0,5.0;" x1="213.3096" x2="213.3096" y1="81.2969" y2="447.7578"/><line style="stroke:#181818;stroke-width:0.5;stroke-dasharray:5.0,5.0;" x1="379.9858" x2="379.9858" y1="81.2969" y2="447.7578"/><line style="stroke:#181818;stroke-width:0.5;stroke-dasharray:5.0,5.0;" x1="531.1484" x2="531.1484" y1="81.2969" y2="447.7578"/><line style="stroke:#181818;stroke-width:0.5;stroke-dasharray:5.0,5.0;" x1="725.9507" x2="725.9507" y1="81.2969" y2="447.7578"/><line style="stroke:#181818;stroke-width:0.5;stroke-dasharray:5.0,5.0;" x1="812.6616" x2="812.6616" y1="81.2969" y2="447.7578"/><text fill="#000000" font-family="sans-serif" font-size="14" lengthAdjust="spacing" textLength="28" x="5" y="77.9951">&#29992;&#25143;</text><ellipse cx="22" cy="13.5" fill="#E2E2F0" rx="8" ry="8" style="stroke:#181818;stroke-width:0.5;"/><path d="M22,21.5 L22,48.5 M9,29.5 L35,29.5 M22,48.5 L9,63.5 M22,48.5 L35,63.5 " fill="none" style="stroke:#181818;stroke-width:0.5;"/><text fill="#000000" font-family="sans-serif" font-size="14" lengthAdjust="spacing" textLength="28" x="5" y="459.7529">&#29992;&#25143;</text><ellipse cx="22" cy="471.5547" fill="#E2E2F0" rx="8" ry="8" style="stroke:#181818;stroke-width:0.5;"/><path d="M22,479.5547 L22,506.5547 M9,487.5547 L35,487.5547 M22,506.5547 L9,521.5547 M22,506.5547 L35,521.5547 " fill="none" style="stroke:#181818;stroke-width:0.5;"/><rect fill="#E2E2F0" height="30.2969" rx="2.5" ry="2.5" style="stroke:#181818;stroke-width:0.5;" width="75.8447" x="176.3096" y="50"/><text fill="#000000" font-family="sans-serif" font-size="14" lengthAdjust="spacing" textLength="61.8447" x="183.3096" y="69.9951">Gateway</text><rect fill="#E2E2F0" height="30.2969" rx="2.5" ry="2.5" style="stroke:#181818;stroke-width:0.5;" width="75.8447" x="176.3096" y="446.7578"/><text fill="#000000" font-family="sans-serif" font-size="14" lengthAdjust="spacing" textLength="61.8447" x="183.3096" y="466.7529">Gateway</text><rect fill="#E2E2F0" height="30.2969" rx="2.5" ry="2.5" style="stroke:#181818;stroke-width:0.5;" width="115.083" x="322.9858" y="50"/><text fill="#000000" font-family="sans-serif" font-size="14" lengthAdjust="spacing" textLength="101.083" x="329.9858" y="69.9951">UserController</text><rect fill="#E2E2F0" height="30.2969" rx="2.5" ry="2.5" style="stroke:#181818;stroke-width:0.5;" width="115.083" x="322.9858" y="446.7578"/><text fill="#000000" font-family="sans-serif" font-size="14" lengthAdjust="spacing" textLength="101.083" x="329.9858" y="466.7529">UserController</text><rect fill="#E2E2F0" height="30.2969" rx="2.5" ry="2.5" style="stroke:#181818;stroke-width:0.5;" width="128.1943" x="467.1484" y="50"/><text fill="#000000" font-family="sans-serif" font-size="14" lengthAdjust="spacing" textLength="114.1943" x="474.1484" y="69.9951">UserServiceImpl</text><rect fill="#E2E2F0" height="30.2969" rx="2.5" ry="2.5" style="stroke:#181818;stroke-width:0.5;" width="128.1943" x="467.1484" y="446.7578"/><text fill="#000000" font-family="sans-serif" font-size="14" lengthAdjust="spacing" textLength="114.1943" x="474.1484" y="466.7529">UserServiceImpl</text><rect fill="#E2E2F0" height="30.2969" rx="2.5" ry="2.5" style="stroke:#181818;stroke-width:0.5;" width="98.7109" x="676.9507" y="50"/><text fill="#000000" font-family="sans-serif" font-size="14" lengthAdjust="spacing" textLength="84.7109" x="683.9507" y="69.9951">UserMapper</text><rect fill="#E2E2F0" height="30.2969" rx="2.5" ry="2.5" style="stroke:#181818;stroke-width:0.5;" width="98.7109" x="676.9507" y="446.7578"/><text fill="#000000" font-family="sans-serif" font-size="14" lengthAdjust="spacing" textLength="84.7109" x="683.9507" y="466.7529">UserMapper</text><text fill="#000000" font-family="sans-serif" font-size="14" lengthAdjust="spacing" textLength="48.0703" x="785.6616" y="77.9951">MySQL</text><path d="M794.6968,29 C794.6968,19 812.6968,19 812.6968,19 C812.6968,19 830.6968,19 830.6968,29 L830.6968,55 C830.6968,65 812.6968,65 812.6968,65 C812.6968,65 794.6968,65 794.6968,55 L794.6968,29 " fill="#E2E2F0" style="stroke:#181818;stroke-width:1.5;"/><path d="M794.6968,29 C794.6968,39 812.6968,39 812.6968,39 C812.6968,39 830.6968,39 830.6968,29 " fill="none" style="stroke:#181818;stroke-width:1.5;"/><text fill="#000000" font-family="sans-serif" font-size="14" lengthAdjust="spacing" textLength="48.0703" x="785.6616" y="459.7529">MySQL</text><path d="M794.6968,473.0547 C794.6968,463.0547 812.6968,463.0547 812.6968,463.0547 C812.6968,463.0547 830.6968,463.0547 830.6968,473.0547 L830.6968,499.0547 C830.6968,509.0547 812.6968,509.0547 812.6968,509.0547 C812.6968,509.0547 794.6968,509.0547 794.6968,499.0547 L794.6968,473.0547 " fill="#E2E2F0" style="stroke:#181818;stroke-width:1.5;"/><path d="M794.6968,473.0547 C794.6968,483.0547 812.6968,483.0547 812.6968,483.0547 C812.6968,483.0547 830.6968,483.0547 830.6968,473.0547 " fill="none" style="stroke:#181818;stroke-width:1.5;"/><polygon fill="#181818" points="202.2319,123.5625,212.2319,127.5625,202.2319,131.5625,206.2319,127.5625" style="stroke:#181818;stroke-width:1.0;"/><line style="stroke:#181818;stroke-width:1.0;" x1="22" x2="208.2319" y1="127.5625" y2="127.5625"/><text fill="#000000" font-family="sans-serif" font-size="13" lengthAdjust="spacing" textLength="143.7935" x="29" y="107.3638">1 POST /api/user/login</text><text fill="#000000" font-family="sans-serif" font-size="13" lengthAdjust="spacing" textLength="151.9756" x="29" y="122.4966">{username, password}</text><polygon fill="#181818" points="368.5273,152.6953,378.5273,156.6953,368.5273,160.6953,372.5273,156.6953" style="stroke:#181818;stroke-width:1.0;"/><line style="stroke:#181818;stroke-width:1.0;" x1="214.2319" x2="374.5273" y1="156.6953" y2="156.6953"/><text fill="#000000" font-family="sans-serif" font-size="13" lengthAdjust="spacing" textLength="77.4033" x="221.2319" y="151.6294">2 &#30333;&#21517;&#21333;&#25918;&#34892;</text><polygon fill="#181818" points="519.2456,181.8281,529.2456,185.8281,519.2456,189.8281,523.2456,185.8281" style="stroke:#181818;stroke-width:1.0;"/><line style="stroke:#181818;stroke-width:1.0;" x1="380.5273" x2="525.2456" y1="185.8281" y2="185.8281"/><text fill="#000000" font-family="sans-serif" font-size="13" lengthAdjust="spacing" textLength="75.8101" x="387.5273" y="180.7622">3 login(req)</text><polygon fill="#181818" points="714.3062,210.9609,724.3062,214.9609,714.3062,218.9609,718.3062,214.9609" style="stroke:#181818;stroke-width:1.0;"/><line style="stroke:#181818;stroke-width:1.0;" x1="531.2456" x2="720.3062" y1="214.9609" y2="214.9609"/><text fill="#000000" font-family="sans-serif" font-size="13" lengthAdjust="spacing" textLength="116.4033" x="538.2456" y="209.895">4 &#25353;&#29992;&#25143;&#21517;&#26597;&#35810;&#29992;&#25143;</text><polygon fill="#181818" points="800.6968,224.9609,810.6968,228.9609,800.6968,232.9609,804.6968,228.9609" style="stroke:#181818;stroke-width:1.0;"/><line style="stroke:#181818;stroke-width:1.0;" x1="726.3062" x2="806.6968" y1="228.9609" y2="228.9609"/><polygon fill="#181818" points="737.3062,254.0938,727.3062,258.0938,737.3062,262.0938,733.3062,258.0938" style="stroke:#181818;stroke-width:1.0;"/><line style="stroke:#181818;stroke-width:1.0;stroke-dasharray:2.0,2.0;" x1="731.3062" x2="811.6968" y1="258.0938" y2="258.0938"/><text fill="#000000" font-family="sans-serif" font-size="13" lengthAdjust="spacing" textLength="55.6309" x="743.3062" y="253.0278">User&#23454;&#20307;</text><line style="stroke:#181818;stroke-width:1.0;" x1="531.2456" x2="573.2456" y1="287.2266" y2="287.2266"/><line style="stroke:#181818;stroke-width:1.0;" x1="573.2456" x2="573.2456" y1="287.2266" y2="300.2266"/><line style="stroke:#181818;stroke-width:1.0;" x1="532.2456" x2="573.2456" y1="300.2266" y2="300.2266"/><polygon fill="#181818" points="542.2456,296.2266,532.2456,300.2266,542.2456,304.2266,538.2456,300.2266" style="stroke:#181818;stroke-width:1.0;"/><text fill="#000000" font-family="sans-serif" font-size="13" lengthAdjust="spacing" textLength="108.7861" x="538.2456" y="282.1606">5 BCrypt&#23494;&#30721;&#27604;&#23545;</text><line style="stroke:#181818;stroke-width:1.0;" x1="531.2456" x2="573.2456" y1="329.3594" y2="329.3594"/><line style="stroke:#181818;stroke-width:1.0;" x1="573.2456" x2="573.2456" y1="329.3594" y2="342.3594"/><line style="stroke:#181818;stroke-width:1.0;" x1="532.2456" x2="573.2456" y1="342.3594" y2="342.3594"/><polygon fill="#181818" points="542.2456,338.3594,532.2456,342.3594,542.2456,346.3594,538.2456,342.3594" style="stroke:#181818;stroke-width:1.0;"/><text fill="#000000" font-family="sans-serif" font-size="13" lengthAdjust="spacing" textLength="181.0605" x="538.2456" y="324.2935">6 &#29983;&#25104;JWT(&#21547;userId,role,7&#22825;)</text><polygon fill="#181818" points="391.5273,367.4922,381.5273,371.4922,391.5273,375.4922,387.5273,371.4922" style="stroke:#181818;stroke-width:1.0;"/><line style="stroke:#181818;stroke-width:1.0;stroke-dasharray:2.0,2.0;" x1="385.5273" x2="530.2456" y1="371.4922" y2="371.4922"/><text fill="#000000" font-family="sans-serif" font-size="13" lengthAdjust="spacing" textLength="126.7183" x="397.5273" y="366.4263">7 LoginResp(token)</text><polygon fill="#181818" points="225.2319,396.625,215.2319,400.625,225.2319,404.625,221.2319,400.625" style="stroke:#181818;stroke-width:1.0;"/><line style="stroke:#181818;stroke-width:1.0;stroke-dasharray:2.0,2.0;" x1="219.2319" x2="379.5273" y1="400.625" y2="400.625"/><text fill="#000000" font-family="sans-serif" font-size="13" lengthAdjust="spacing" textLength="142.2954" x="231.2319" y="395.5591">8 Result&lt;LoginResp&gt;</text><polygon fill="#181818" points="33,425.7578,23,429.7578,33,433.7578,29,429.7578" style="stroke:#181818;stroke-width:1.0;"/><line style="stroke:#181818;stroke-width:1.0;stroke-dasharray:2.0,2.0;" x1="27" x2="213.2319" y1="429.7578" y2="429.7578"/><text fill="#000000" font-family="sans-serif" font-size="13" lengthAdjust="spacing" textLength="168.2319" x="39" y="424.6919">9 {code:0, data:{token}}</text><!--SRC=[PP7DJi9058NtVOeRLv2Ku3_Q61QoC1Y8Fs3Sk1dQ2MaixJWT88ImS6CmWOH4NBWHDPfeJEpIkC2diON7S6vRYOHTvvvlpfnxIdJXS9WCNuFk9n0NwYxb2YDScBh9Y2rWZmZQ92tKgiqvPUb4iZd75jonBCgN4D45jnQX4kKDKwVv6hD2octeYr2HC1QxrC9FnI22L8XBeTWg7HLGC2gAWWaXbPLfD5Y1muDI6TA4cMcSfosdQjfdTXiFDgbH5HXntQR3ZOvIRU8rJAZ1AapknlwWx_TlW-7tzB6du1nrcKs3DGYD4fnU91KvGI4AfS4w1Bthg31f48nUfjvJT5GY164PrAX0wjyrND7_kFyPt_mPXYzjm6wEjvZmlQl9msNW3NtlQmxOb3zd57G7-wVbX3zunyNoXYehfsh6VtwBuyqMoq01anzJboM4SqxjPBnPtDWMIAbkYPqPbWsBaJ9QQx0DRTqngBQi0lQljKENJkSN]--></g></svg>