<svg xmlns="http://www.w3.org/2000/svg" xmlns:xlink="http://www.w3.org/1999/xlink" contentStyleType="text/css" height="890px" preserveAspectRatio="none" style="width:895px;height:890px;background:#FFFFFF;" version="1.1" viewBox="0 0 895 890" width="895px" zoomAndPan="magnify"><defs/><g><line style="stroke:#181818;stroke-width:0.5;stroke-dasharray:5.0,5.0;" x1="22" x2="22" y1="81.2969" y2="810.0859"/><line style="stroke:#181818;stroke-width:0.5;stroke-dasharray:5.0,5.0;" x1="263.0181" x2="263.0181" y1="81.2969" y2="810.0859"/><line style="stroke:#181818;stroke-width:0.5;stroke-dasharray:5.0,5.0;" x1="401.1362" x2="401.1362" y1="81.2969" y2="810.0859"/><line style="stroke:#181818;stroke-width:0.5;stroke-dasharray:5.0,5.0;" x1="551.1436" x2="551.1436" y1="81.2969" y2="810.0859"/><line style="stroke:#181818;stroke-width:0.5;stroke-dasharray:5.0,5.0;" x1="714.0513" x2="714.0513" y1="81.2969" y2="810.0859"/><line style="stroke:#181818;stroke-width:0.5;stroke-dasharray:5.0,5.0;" x1="800.7622" x2="800.7622" y1="81.2969" y2="810.0859"/><line style="stroke:#181818;stroke-width:0.5;stroke-dasharray:5.0,5.0;" x1="859.8325" x2="859.8325" y1="81.2969" y2="810.0859"/><text fill="#000000" font-family="sans-serif" font-size="14" lengthAdjust="spacing" textLength="28" x="5" y="77.9951">&#29992;&#25143;</text><ellipse cx="22" cy="13.5" fill="#E2E2F0" rx="8" ry="8" style="stroke:#181818;stroke-width:0.5;"/><path d="M22,21.5 L22,48.5 M9,29.5 L35,29.5 M22,48.5 L9,63.5 M22,48.5 L35,63.5 " fill="none" style="stroke:#181818;stroke-width:0.5;"/><text fill="#000000" font-family="sans-serif" font-size="14" lengthAdjust="spacing" textLength="28" x="5" y="822.0811">&#29992;&#25143;</text><ellipse cx="22" cy="833.8828" fill="#E2E2F0" rx="8" ry="8" style="stroke:#181818;stroke-width:0.5;"/><path d="M22,841.8828 L22,868.8828 M9,849.8828 L35,849.8828 M22,868.8828 L9,883.8828 M22,868.8828 L35,883.8828 " fill="none" style="stroke:#181818;stroke-width:0.5;"/><rect fill="#E2E2F0" height="30.2969" rx="2.5" ry="2.5" style="stroke:#181818;stroke-width:0.5;" width="75.8447" x="226.0181" y="50"/><text fill="#000000" font-family="sans-serif" font-size="14" lengthAdjust="spacing" textLength="61.8447" x="233.0181" y="69.9951">Gateway</text><rect fill="#E2E2F0" height="30.2969" rx="2.5" ry="2.5" style="stroke:#181818;stroke-width:0.5;" width="75.8447" x="226.0181" y="809.0859"/><text fill="#000000" font-family="sans-serif" font-size="14" lengthAdjust="spacing" textLength="61.8447" x="233.0181" y="829.0811">Gateway</text><rect fill="#E2E2F0" height="30.2969" rx="2.5" ry="2.5" style="stroke:#181818;stroke-width:0.5;" width="115.083" x="344.1362" y="50"/><text fill="#000000" font-family="sans-serif" font-size="14" lengthAdjust="spacing" textLength="101.083" x="351.1362" y="69.9951">UserController</text><rect fill="#E2E2F0" height="30.2969" rx="2.5" ry="2.5" style="stroke:#181818;stroke-width:0.5;" width="115.083" x="344.1362" y="809.0859"/><text fill="#000000" font-family="sans-serif" font-size="14" lengthAdjust="spacing" textLength="101.083" x="351.1362" y="829.0811">UserController</text><rect fill="#E2E2F0" height="30.2969" rx="2.5" ry="2.5" style="stroke:#181818;stroke-width:0.5;" width="128.1943" x="487.1436" y="50"/><text fill="#000000" font-family="sans-serif" font-size="14" lengthAdjust="spacing" textLength="114.1943" x="494.1436" y="69.9951">UserServiceImpl</text><rect fill="#E2E2F0" height="30.2969" rx="2.5" ry="2.5" style="stroke:#181818;stroke-width:0.5;" width="128.1943" x="487.1436" y="809.0859"/><text fill="#000000" font-family="sans-serif" font-size="14" lengthAdjust="spacing" textLength="114.1943" x="494.1436" y="829.0811">UserServiceImpl</text><rect fill="#E2E2F0" height="30.2969" rx="2.5" ry="2.5" style="stroke:#181818;stroke-width:0.5;" width="98.7109" x="665.0513" y="50"/><text fill="#000000" font-family="sans-serif" font-size="14" lengthAdjust="spacing" textLength="84.7109" x="672.0513" y="69.9951">UserMapper</text><rect fill="#E2E2F0" height="30.2969" rx="2.5" ry="2.5" style="stroke:#181818;stroke-width:0.5;" width="98.7109" x="665.0513" y="809.0859"/><text fill="#000000" font-family="sans-serif" font-size="14" lengthAdjust="spacing" textLength="84.7109" x="672.0513" y="829.0811">UserMapper</text><text fill="#000000" font-family="sans-serif" font-size="14" lengthAdjust="spacing" textLength="48.0703" x="773.7622" y="77.9951">MySQL</text><path d="M782.7974,29 C782.7974,19 800.7974,19 800.7974,19 C800.7974,19 818.7974,19 818.7974,29 L818.7974,55 C818.7974,65 800.7974,65 800.7974,65 C800.7974,65 782.7974,65 782.7974,55 L782.7974,29 " fill="#E2E2F0" style="stroke:#181818;stroke-width:1.5;"/><path d="M782.7974,29 C782.7974,39 800.7974,39 800.7974,39 C800.7974,39 818.7974,39 818.7974,29 " fill="none" style="stroke:#181818;stroke-width:1.5;"/><text fill="#000000" font-family="sans-serif" font-size="14" lengthAdjust="spacing" textLength="48.0703" x="773.7622" y="822.0811">MySQL</text><path d="M782.7974,835.3828 C782.7974,825.3828 800.7974,825.3828 800.7974,825.3828 C800.7974,825.3828 818.7974,825.3828 818.7974,835.3828 L818.7974,861.3828 C818.7974,871.3828 800.7974,871.3828 800.7974,871.3828 C800.7974,871.3828 782.7974,871.3828 782.7974,861.3828 L782.7974,835.3828 " fill="#E2E2F0" style="stroke:#181818;stroke-width:1.5;"/><path d="M782.7974,835.3828 C782.7974,845.3828 800.7974,845.3828 800.7974,845.3828 C800.7974,845.3828 818.7974,845.3828 818.7974,835.3828 " fill="none" style="stroke:#181818;stroke-width:1.5;"/><text fill="#000000" font-family="sans-serif" font-size="14" lengthAdjust="spacing" textLength="38.4111" x="837.8325" y="77.9951">Redis</text><path d="M842.0381,29 C842.0381,19 860.0381,19 860.0381,19 C860.0381,19 878.0381,19 878.0381,29 L878.0381,55 C878.0381,65 860.0381,65 860.0381,65 C860.0381,65 842.0381,65 842.0381,55 L842.0381,29 " fill="#E2E2F0" style="stroke:#181818;stroke-width:1.5;"/><path d="M842.0381,29 C842.0381,39 860.0381,39 860.0381,39 C860.0381,39 878.0381,39 878.0381,29 " fill="none" style="stroke:#181818;stroke-width:1.5;"/><text fill="#000000" font-family="sans-serif" font-size="14" lengthAdjust="spacing" textLength="38.4111" x="837.8325" y="822.0811">Redis</text><path d="M842.0381,835.3828 C842.0381,825.3828 860.0381,825.3828 860.0381,825.3828 C860.0381,825.3828 878.0381,825.3828 878.0381,835.3828 L878.0381,861.3828 C878.0381,871.3828 860.0381,871.3828 860.0381,871.3828 C860.0381,871.3828 842.0381,871.3828 842.0381,861.3828 L842.0381,835.3828 " fill="#E2E2F0" style="stroke:#181818;stroke-width:1.5;"/><path d="M842.0381,835.3828 C842.0381,845.3828 860.0381,845.3828 860.0381,845.3828 C860.0381,845.3828 878.0381,845.3828 878.0381,835.3828 " fill="none" style="stroke:#181818;stroke-width:1.5;"/><rect fill="#EEEEEE" height="3" style="stroke:#EEEEEE;stroke-width:1.0;" width="887.2437" x="0" y="111.8633"/><line style="stroke:#000000;stroke-width:1.0;" x1="0" x2="887.2437" y1="111.8633" y2="111.8633"/><line style="stroke:#000000;stroke-width:1.0;" x1="0" x2="887.2437" y1="114.8633" y2="114.8633"/><rect fill="#EEEEEE" height="23.1328" style="stroke:#000000;stroke-width:2.0;" width="72.1509" x="407.5464" y="101.2969"/><text fill="#000000" font-family="sans-serif" font-size="13" font-weight="bold" lengthAdjust="spacing" textLength="53.625" x="413.5464" y="117.3638">&#24536;&#35760;&#23494;&#30721;</text><polygon fill="#181818" points="251.9404,166.6953,261.9404,170.6953,251.9404,174.6953,255.9404,170.6953" style="stroke:#181818;stroke-width:1.0;"/><line style="stroke:#181818;stroke-width:1.0;" x1="22" x2="257.9404" y1="170.6953" y2="170.6953"/><text fill="#000000" font-family="sans-serif" font-size="13" lengthAdjust="spacing" textLength="217.9404" x="29" y="150.4966">1 POST /api/user/forgot-password</text><text fill="#000000" font-family="sans-serif" font-size="13" lengthAdjust="spacing" textLength="125.8804" x="29" y="165.6294">{username, email}</text><polygon fill="#181818" points="389.6777,195.8281,399.6777,199.8281,389.6777,203.8281,393.6777,199.8281" style="stroke:#181818;stroke-width:1.0;"/><line style="stroke:#181818;stroke-width:1.0;" x1="263.9404" x2="395.6777" y1="199.8281" y2="199.8281"/><text fill="#000000" font-family="sans-serif" font-size="13" lengthAdjust="spacing" textLength="77.4033" x="270.9404" y="194.7622">2 &#30333;&#21517;&#21333;&#25918;&#34892;</text><polygon fill="#181818" points="539.2407,224.9609,549.2407,228.9609,539.2407,232.9609,543.2407,228.9609" style="stroke:#181818;stroke-width:1.0;"/><line style="stroke:#181818;stroke-width:1.0;" x1="401.6777" x2="545.2407" y1="228.9609" y2="228.9609"/><text fill="#000000" font-family="sans-serif" font-size="13" lengthAdjust="spacing" textLength="123.2588" x="408.6777" y="223.895">3 forgotPassword()</text><polygon fill="#181818" points="702.4067,254.0938,712.4067,258.0938,702.4067,262.0938,706.4067,258.0938" style="stroke:#181818;stroke-width:1.0;"/><line style="stroke:#181818;stroke-width:1.0;" x1="551.2407" x2="708.4067" y1="258.0938" y2="258.0938"/><text fill="#000000" font-family="sans-serif" font-size="13" lengthAdjust="spacing" textLength="114.2959" x="558.2407" y="253.0278">4 &#26657;&#39564;&#29992;&#25143;&#21517;+&#37038;&#31665;</text><polygon fill="#181818" points="788.7974,268.0938,798.7974,272.0938,788.7974,276.0938,792.7974,272.0938" style="stroke:#181818;stroke-width:1.0;"/><line style="stroke:#181818;stroke-width:1.0;" x1="714.4067" x2="794.7974" y1="272.0938" y2="272.0938"/><polygon fill="#181818" points="725.4067,282.0938,715.4067,286.0938,725.4067,290.0938,721.4067,286.0938" style="stroke:#181818;stroke-width:1.0;"/><line style="stroke:#181818;stroke-width:1.0;stroke-dasharray:2.0,2.0;" x1="719.4067" x2="799.7974" y1="286.0938" y2="286.0938"/><polygon fill="#181818" points="848.0381,311.2266,858.0381,315.2266,848.0381,319.2266,852.0381,315.2266" style="stroke:#181818;stroke-width:1.0;"/><line style="stroke:#181818;stroke-width:1.0;" x1="551.2407" x2="854.0381" y1="315.2266" y2="315.2266"/><text fill="#000000" font-family="sans-serif" font-size="13" lengthAdjust="spacing" textLength="229.2266" x="558.2407" y="310.1606">5 &#29983;&#25104;UUID token &#23384;&#20837;Redis(30min)</text><polygon fill="#181818" points="412.6777,340.3594,402.6777,344.3594,412.6777,348.3594,408.6777,344.3594" style="stroke:#181818;stroke-width:1.0;"/><line style="stroke:#181818;stroke-width:1.0;stroke-dasharray:2.0,2.0;" x1="406.6777" x2="550.2407" y1="344.3594" y2="344.3594"/><text fill="#000000" font-family="sans-serif" font-size="13" lengthAdjust="spacing" textLength="49.2197" x="418.6777" y="339.2935">6 token</text><polygon fill="#181818" points="274.9404,369.4922,264.9404,373.4922,274.9404,377.4922,270.9404,373.4922" style="stroke:#181818;stroke-width:1.0;"/><line style="stroke:#181818;stroke-width:1.0;stroke-dasharray:2.0,2.0;" x1="268.9404" x2="400.6777" y1="373.4922" y2="373.4922"/><text fill="#000000" font-family="sans-serif" font-size="13" lengthAdjust="spacing" textLength="113.7373" x="280.9404" y="368.4263">7 Result&lt;String&gt;</text><polygon fill="#181818" points="33,398.625,23,402.625,33,406.625,29,402.625" style="stroke:#181818;stroke-width:1.0;"/><line style="stroke:#181818;stroke-width:1.0;stroke-dasharray:2.0,2.0;" x1="27" x2="262.9404" y1="402.625" y2="402.625"/><text fill="#000000" font-family="sans-serif" font-size="13" lengthAdjust="spacing" textLength="151.6899" x="39" y="397.5591">8 {code:0, data:token}</text><rect fill="#EEEEEE" height="3" style="stroke:#EEEEEE;stroke-width:1.0;" width="887.2437" x="0" y="431.1914"/><line style="stroke:#000000;stroke-width:1.0;" x1="0" x2="887.2437" y1="431.1914" y2="431.1914"/><line style="stroke:#000000;stroke-width:1.0;" x1="0" x2="887.2437" y1="434.1914" y2="434.1914"/><rect fill="#EEEEEE" height="23.1328" style="stroke:#000000;stroke-width:2.0;" width="72.1509" x="407.5464" y="420.625"/><text fill="#000000" font-family="sans-serif" font-size="13" font-weight="bold" lengthAdjust="spacing" textLength="53.625" x="413.5464" y="436.6919">&#37325;&#32622;&#23494;&#30721;</text><polygon fill="#181818" points="251.9404,486.0234,261.9404,490.0234,251.9404,494.0234,255.9404,490.0234" style="stroke:#181818;stroke-width:1.0;"/><line style="stroke:#181818;stroke-width:1.0;" x1="22" x2="257.9404" y1="490.0234" y2="490.0234"/><text fill="#000000" font-family="sans-serif" font-size="13" lengthAdjust="spacing" textLength="211.9736" x="29" y="469.8247">9 POST /api/user/reset-password</text><text fill="#000000" font-family="sans-serif" font-size="13" lengthAdjust="spacing" textLength="150.0269" x="29" y="484.9575">{token, newPassword}</text><polygon fill="#181818" points="389.6777,515.1563,399.6777,519.1563,389.6777,523.1563,393.6777,519.1563" style="stroke:#181818;stroke-width:1.0;"/><line style="stroke:#181818;stroke-width:1.0;" x1="263.9404" x2="395.6777" y1="519.1563" y2="519.1563"/><text fill="#000000" font-family="sans-serif" font-size="13" lengthAdjust="spacing" textLength="85.6743" x="270.9404" y="514.0903">10 &#30333;&#21517;&#21333;&#25918;&#34892;</text><polygon fill="#181818" points="539.2407,544.2891,549.2407,548.2891,539.2407,552.2891,543.2407,548.2891" style="stroke:#181818;stroke-width:1.0;"/><line style="stroke:#181818;stroke-width:1.0;" x1="401.6777" x2="545.2407" y1="548.2891" y2="548.2891"/><text fill="#000000" font-family="sans-serif" font-size="13" lengthAdjust="spacing" textLength="125.563" x="408.6777" y="543.2231">11 resetPassword()</text><polygon fill="#181818" points="848.0381,573.4219,858.0381,577.4219,848.0381,581.4219,852.0381,577.4219" style="stroke:#181818;stroke-width:1.0;"/><line style="stroke:#181818;stroke-width:1.0;" x1="551.2407" x2="854.0381" y1="577.4219" y2="577.4219"/><text fill="#000000" font-family="sans-serif" font-size="13" lengthAdjust="spacing" textLength="83.4907" x="558.2407" y="572.356">12 &#26657;&#39564;token</text><polygon fill="#181818" points="562.2407,587.4219,552.2407,591.4219,562.2407,595.4219,558.2407,591.4219" style="stroke:#181818;stroke-width:1.0;"/><line style="stroke:#181818;stroke-width:1.0;stroke-dasharray:2.0,2.0;" x1="556.2407" x2="859.0381" y1="591.4219" y2="591.4219"/><line style="stroke:#181818;stroke-width:1.0;" x1="551.2407" x2="593.2407" y1="620.5547" y2="620.5547"/><line style="stroke:#181818;stroke-width:1.0;" x1="593.2407" x2="593.2407" y1="620.5547" y2="633.5547"/><line style="stroke:#181818;stroke-width:1.0;" x1="552.2407" x2="593.2407" y1="633.5547" y2="633.5547"/><polygon fill="#181818" points="562.2407,629.5547,552.2407,633.5547,562.2407,637.5547,558.2407,633.5547" style="stroke:#181818;stroke-width:1.0;"/><text fill="#000000" font-family="sans-serif" font-size="13" lengthAdjust="spacing" textLength="104.0571" x="558.2407" y="615.4888">13 BCrypt&#26032;&#23494;&#30721;</text><polygon fill="#181818" points="702.4067,658.6875,712.4067,662.6875,702.4067,666.6875,706.4067,662.6875" style="stroke:#181818;stroke-width:1.0;"/><line style="stroke:#181818;stroke-width:1.0;" x1="551.2407" x2="708.4067" y1="662.6875" y2="662.6875"/><text fill="#000000" font-family="sans-serif" font-size="13" lengthAdjust="spacing" textLength="139.166" x="558.2407" y="657.6216">14 UPDATE password</text><polygon fill="#181818" points="788.7974,672.6875,798.7974,676.6875,788.7974,680.6875,792.7974,676.6875" style="stroke:#181818;stroke-width:1.0;"/><line style="stroke:#181818;stroke-width:1.0;" x1="714.4067" x2="794.7974" y1="676.6875" y2="676.6875"/><polygon fill="#181818" points="725.4067,686.6875,715.4067,690.6875,725.4067,694.6875,721.4067,690.6875" style="stroke:#181818;stroke-width:1.0;"/><line style="stroke:#181818;stroke-width:1.0;stroke-dasharray:2.0,2.0;" x1="719.4067" x2="799.7974" y1="690.6875" y2="690.6875"/><polygon fill="#181818" points="848.0381,715.8203,858.0381,719.8203,848.0381,723.8203,852.0381,719.8203" style="stroke:#181818;stroke-width:1.0;"/><line style="stroke:#181818;stroke-width:1.0;" x1="551.2407" x2="854.0381" y1="719.8203" y2="719.8203"/><text fill="#000000" font-family="sans-serif" font-size="13" lengthAdjust="spacing" textLength="83.4907" x="558.2407" y="714.7544">15 &#21024;&#38500;token</text><polygon fill="#181818" points="412.6777,744.9531,402.6777,748.9531,412.6777,752.9531,408.6777,748.9531" style="stroke:#181818;stroke-width:1.0;"/><line style="stroke:#181818;stroke-width:1.0;stroke-dasharray:2.0,2.0;" x1="406.6777" x2="550.2407" y1="748.9531" y2="748.9531"/><text fill="#000000" font-family="sans-serif" font-size="13" lengthAdjust="spacing" textLength="71.5254" x="418.6777" y="743.8872">16 success</text><polygon fill="#181818" points="274.9404,758.9531,264.9404,762.9531,274.9404,766.9531,270.9404,762.9531" style="stroke:#181818;stroke-width:1.0;"/><line style="stroke:#181818;stroke-width:1.0;stroke-dasharray:2.0,2.0;" x1="268.9404" x2="400.6777" y1="762.9531" y2="762.9531"/><polygon fill="#181818" points="33,788.0859,23,792.0859,33,796.0859,29,792.0859" style="stroke:#181818;stroke-width:1.0;"/><line style="stroke:#181818;stroke-width:1.0;stroke-dasharray:2.0,2.0;" x1="27" x2="262.9404" y1="792.0859" y2="792.0859"/><text fill="#000000" font-family="sans-serif" font-size="13" lengthAdjust="spacing" textLength="81.2183" x="39" y="787.02">17 {code:0}</text><!--SRC=[ZP9FQnD16CRlyobUUggOa4pJFxgOWhOY1OlHD3SlazqnBEu_PYPTGicXWff30prKQK-ce222KK-UgfzcTvjluRwpa-es8jw6zttccVVvlSDi5Gh8JZwce-_09FGb5oHYGhcs6x50mGEcUCm6sEl5fSvI9zTkXO4IeUTniOGIMmblKTJcOj-r-OuVULebz-r5qIwB8kFYwoDnc69T9Zdi3jgF7sB3wVukFk6EAx4ey418imd9pzFBwTVaowjiSWZD9i4mKDtC1xU0GkjHUmzgB79hMAyz2qKlLDM8IHc7mdaQ760vO3wl0FUPwmr9ByRRcCc25SZEBfBZSJ9-avxyk3m_8bZ7Vfx6WWOKVYrZjto3v7Li5s4iM8LqSZxxT5ImpfrkpbvCi-atKWXGYl6wKBswDBVG2IrOo_VqBXqTTpexsw32vpo0vFDfylA3Hh7SgFjkO9wz6dkz49fX3OkD79xiU-fEMmatw6tge7aF0LXm2mxiqE5MlG88sz86GmruzdgSNKp_3lZsTS22IrxYguqg4F1uJgcCcDR_pPXIq9wBZ0qWkc8O5vbrLGV33sUaXLC3xcs9GQJIj-QxNDyMNOLEQ_lktdsO1_Z_FT4rI4QJsTdxOepoGkWwoBvjSod_t4bv0tHZleBXBm00]--></g></svg>