<svg xmlns="http://www.w3.org/2000/svg" xmlns:xlink="http://www.w3.org/1999/xlink" contentStyleType="text/css" height="471px" preserveAspectRatio="none" style="width:1210px;height:471px;background:#FFFFFF;" version="1.1" viewBox="0 0 1210 471" width="1210px" zoomAndPan="magnify"><defs/><g><line style="stroke:#181818;stroke-width:0.5;stroke-dasharray:5.0,5.0;" x1="22" x2="22" y1="81.2969" y2="390.4922"/><line style="stroke:#181818;stroke-width:0.5;stroke-dasharray:5.0,5.0;" x1="389.5903" x2="389.5903" y1="81.2969" y2="390.4922"/><line style="stroke:#181818;stroke-width:0.5;stroke-dasharray:5.0,5.0;" x1="589.7617" x2="589.7617" y1="81.2969" y2="390.4922"/><line style="stroke:#181818;stroke-width:0.5;stroke-dasharray:5.0,5.0;" x1="834.8853" x2="834.8853" y1="81.2969" y2="390.4922"/><line style="stroke:#181818;stroke-width:0.5;stroke-dasharray:5.0,5.0;" x1="1043.6431" x2="1043.6431" y1="81.2969" y2="390.4922"/><line style="stroke:#181818;stroke-width:0.5;stroke-dasharray:5.0,5.0;" x1="1175.4116" x2="1175.4116" y1="81.2969" y2="390.4922"/><text fill="#000000" font-family="sans-serif" font-size="14" lengthAdjust="spacing" textLength="28" x="5" y="77.9951">&#29992;&#25143;</text><ellipse cx="22" cy="13.5" fill="#E2E2F0" rx="8" ry="8" style="stroke:#181818;stroke-width:0.5;"/><path d="M22,21.5 L22,48.5 M9,29.5 L35,29.5 M22,48.5 L9,63.5 M22,48.5 L35,63.5 " fill="none" style="stroke:#181818;stroke-width:0.5;"/><text fill="#000000" font-family="sans-serif" font-size="14" lengthAdjust="spacing" textLength="28" x="5" y="402.4873">&#29992;&#25143;</text><ellipse cx="22" cy="414.2891" fill="#E2E2F0" rx="8" ry="8" style="stroke:#181818;stroke-width:0.5;"/><path d="M22,422.2891 L22,449.2891 M9,430.2891 L35,430.2891 M22,449.2891 L9,464.2891 M22,449.2891 L35,464.2891 " fill="none" style="stroke:#181818;stroke-width:0.5;"/><rect fill="#E2E2F0" height="30.2969" rx="2.5" ry="2.5" style="stroke:#181818;stroke-width:0.5;" width="75.8447" x="352.5903" y="50"/><text fill="#000000" font-family="sans-serif" font-size="14" lengthAdjust="spacing" textLength="61.8447" x="359.5903" y="69.9951">Gateway</text><rect fill="#E2E2F0" height="30.2969" rx="2.5" ry="2.5" style="stroke:#181818;stroke-width:0.5;" width="75.8447" x="352.5903" y="389.4922"/><text fill="#000000" font-family="sans-serif" font-size="14" lengthAdjust="spacing" textLength="61.8447" x="359.5903" y="409.4873">Gateway</text><rect fill="#E2E2F0" height="30.2969" rx="2.5" ry="2.5" style="stroke:#181818;stroke-width:0.5;" width="136.8828" x="521.7617" y="50"/><text fill="#000000" font-family="sans-serif" font-size="14" lengthAdjust="spacing" textLength="122.8828" x="528.7617" y="69.9951">ProductController</text><rect fill="#E2E2F0" height="30.2969" rx="2.5" ry="2.5" style="stroke:#181818;stroke-width:0.5;" width="136.8828" x="521.7617" y="389.4922"/><text fill="#000000" font-family="sans-serif" font-size="14" lengthAdjust="spacing" textLength="122.8828" x="528.7617" y="409.4873">ProductController</text><rect fill="#E2E2F0" height="30.2969" rx="2.5" ry="2.5" style="stroke:#181818;stroke-width:0.5;" width="149.9941" x="760.8853" y="50"/><text fill="#000000" font-family="sans-serif" font-size="14" lengthAdjust="spacing" textLength="135.9941" x="767.8853" y="69.9951">ProductServiceImpl</text><rect fill="#E2E2F0" height="30.2969" rx="2.5" ry="2.5" style="stroke:#181818;stroke-width:0.5;" width="149.9941" x="760.8853" y="389.4922"/><text fill="#000000" font-family="sans-serif" font-size="14" lengthAdjust="spacing" textLength="135.9941" x="767.8853" y="409.4873">ProductServiceImpl</text><rect fill="#E2E2F0" height="30.2969" rx="2.5" ry="2.5" style="stroke:#181818;stroke-width:0.5;" width="120.5107" x="983.6431" y="50"/><text fill="#000000" font-family="sans-serif" font-size="14" lengthAdjust="spacing" textLength="106.5107" x="990.6431" y="69.9951">ProductMapper</text><rect fill="#E2E2F0" height="30.2969" rx="2.5" ry="2.5" style="stroke:#181818;stroke-width:0.5;" width="120.5107" x="983.6431" y="389.4922"/><text fill="#000000" font-family="sans-serif" font-size="14" lengthAdjust="spacing" textLength="106.5107" x="990.6431" y="409.4873">ProductMapper</text><text fill="#000000" font-family="sans-serif" font-size="14" lengthAdjust="spacing" textLength="48.0703" x="1148.4116" y="77.9951">MySQL</text><path d="M1157.4468,29 C1157.4468,19 1175.4468,19 1175.4468,19 C1175.4468,19 1193.4468,19 1193.4468,29 L1193.4468,55 C1193.4468,65 1175.4468,65 1175.4468,65 C1175.4468,65 1157.4468,65 1157.4468,55 L1157.4468,29 " fill="#E2E2F0" style="stroke:#181818;stroke-width:1.5;"/><path d="M1157.4468,29 C1157.4468,39 1175.4468,39 1175.4468,39 C1175.4468,39 1193.4468,39 1193.4468,29 " fill="none" style="stroke:#181818;stroke-width:1.5;"/><text fill="#000000" font-family="sans-serif" font-size="14" lengthAdjust="spacing" textLength="48.0703" x="1148.4116" y="402.4873">MySQL</text><path d="M1157.4468,415.7891 C1157.4468,405.7891 1175.4468,405.7891 1175.4468,405.7891 C1175.4468,405.7891 1193.4468,405.7891 1193.4468,415.7891 L1193.4468,441.7891 C1193.4468,451.7891 1175.4468,451.7891 1175.4468,451.7891 C1175.4468,451.7891 1157.4468,451.7891 1157.4468,441.7891 L1157.4468,415.7891 " fill="#E2E2F0" style="stroke:#181818;stroke-width:1.5;"/><path d="M1157.4468,415.7891 C1157.4468,425.7891 1175.4468,425.7891 1175.4468,425.7891 C1175.4468,425.7891 1193.4468,425.7891 1193.4468,415.7891 " fill="none" style="stroke:#181818;stroke-width:1.5;"/><polygon fill="#181818" points="378.5127,108.4297,388.5127,112.4297,378.5127,116.4297,382.5127,112.4297" style="stroke:#181818;stroke-width:1.0;"/><line style="stroke:#181818;stroke-width:1.0;" x1="22" x2="384.5127" y1="112.4297" y2="112.4297"/><text fill="#000000" font-family="sans-serif" font-size="13" lengthAdjust="spacing" textLength="344.5127" x="29" y="107.3638">1 GET /api/product?page=1&amp;size=10&amp;category=xxx</text><polygon fill="#181818" points="578.2031,137.5625,588.2031,141.5625,578.2031,145.5625,582.2031,141.5625" style="stroke:#181818;stroke-width:1.0;"/><line style="stroke:#181818;stroke-width:1.0;" x1="390.5127" x2="584.2031" y1="141.5625" y2="141.5625"/><text fill="#000000" font-family="sans-serif" font-size="13" lengthAdjust="spacing" textLength="175.6904" x="397.5127" y="136.4966">2 JWT&#25918;&#34892;(&#36879;&#20256;X-User-Role)</text><polygon fill="#181818" points="823.8823,166.6953,833.8823,170.6953,823.8823,174.6953,827.8823,170.6953" style="stroke:#181818;stroke-width:1.0;"/><line style="stroke:#181818;stroke-width:1.0;" x1="590.2031" x2="829.8823" y1="170.6953" y2="170.6953"/><text fill="#000000" font-family="sans-serif" font-size="13" lengthAdjust="spacing" textLength="221.6792" x="597.2031" y="165.6294">3 listProducts(page,size,category)</text><line style="stroke:#181818;stroke-width:1.0;" x1="835.8823" x2="877.8823" y1="199.8281" y2="199.8281"/><line style="stroke:#181818;stroke-width:1.0;" x1="877.8823" x2="877.8823" y1="199.8281" y2="212.8281"/><line style="stroke:#181818;stroke-width:1.0;" x1="836.8823" x2="877.8823" y1="212.8281" y2="212.8281"/><polygon fill="#181818" points="846.8823,208.8281,836.8823,212.8281,846.8823,216.8281,842.8823,212.8281" style="stroke:#181818;stroke-width:1.0;"/><text fill="#000000" font-family="sans-serif" font-size="13" lengthAdjust="spacing" textLength="194.0161" x="842.8823" y="194.7622">4 &#35282;&#33394;&#21028;&#23450; CUSTOMER&#21482;&#30475;&#19978;&#26550;</text><polygon fill="#181818" points="1031.8984,237.9609,1041.8984,241.9609,1031.8984,245.9609,1035.8984,241.9609" style="stroke:#181818;stroke-width:1.0;"/><line style="stroke:#181818;stroke-width:1.0;" x1="835.8823" x2="1037.8984" y1="241.9609" y2="241.9609"/><text fill="#000000" font-family="sans-serif" font-size="13" lengthAdjust="spacing" textLength="101.2959" x="842.8823" y="236.895">5 &#20998;&#39029;+&#26465;&#20214;&#26597;&#35810;</text><polygon fill="#181818" points="1163.4468,251.9609,1173.4468,255.9609,1163.4468,259.9609,1167.4468,255.9609" style="stroke:#181818;stroke-width:1.0;"/><line style="stroke:#181818;stroke-width:1.0;" x1="1043.8984" x2="1169.4468" y1="255.9609" y2="255.9609"/><polygon fill="#181818" points="1054.8984,281.0938,1044.8984,285.0938,1054.8984,289.0938,1050.8984,285.0938" style="stroke:#181818;stroke-width:1.0;"/><line style="stroke:#181818;stroke-width:1.0;stroke-dasharray:2.0,2.0;" x1="1048.8984" x2="1174.4468" y1="285.0938" y2="285.0938"/><text fill="#000000" font-family="sans-serif" font-size="13" lengthAdjust="spacing" textLength="107.5483" x="1060.8984" y="280.0278">IPage&lt;Product&gt;</text><polygon fill="#181818" points="601.2031,310.2266,591.2031,314.2266,601.2031,318.2266,597.2031,314.2266" style="stroke:#181818;stroke-width:1.0;"/><line style="stroke:#181818;stroke-width:1.0;stroke-dasharray:2.0,2.0;" x1="595.2031" x2="834.8823" y1="314.2266" y2="314.2266"/><text fill="#000000" font-family="sans-serif" font-size="13" lengthAdjust="spacing" textLength="139.0771" x="607.2031" y="309.1606">6 IPage&lt;ProductVO&gt;</text><polygon fill="#181818" points="401.5127,339.3594,391.5127,343.3594,401.5127,347.3594,397.5127,343.3594" style="stroke:#181818;stroke-width:1.0;"/><line style="stroke:#181818;stroke-width:1.0;stroke-dasharray:2.0,2.0;" x1="395.5127" x2="589.2031" y1="343.3594" y2="343.3594"/><text fill="#000000" font-family="sans-serif" font-size="13" lengthAdjust="spacing" textLength="110.8301" x="407.5127" y="338.2935">7 Result&lt;IPage&gt;</text><polygon fill="#181818" points="33,368.4922,23,372.4922,33,376.4922,29,372.4922" style="stroke:#181818;stroke-width:1.0;"/><line style="stroke:#181818;stroke-width:1.0;stroke-dasharray:2.0,2.0;" x1="27" x2="389.5127" y1="372.4922" y2="372.4922"/><text fill="#000000" font-family="sans-serif" font-size="13" lengthAdjust="spacing" textLength="258.9526" x="39" y="367.4263">8 {code:0, data:{records, total, page}}</text><!--SRC=[RP5RIm9168RlzrTyT256Asfd5hKB4IcIoaDrEyuEih0woyoOMWHTXHqW2A-Yar4KNHG4ML3qQtJLVz6CRbBGrGoyp_VE-tw3iA0Ckeq7j_u6Y4EP4wOvY0aBMmug2KWYGIgefhH2vOyojigeMSOYJak2KTicR4nHM33xNov3s9Q5oMBHiGSWtyB_SYdaE9vNSN3LJ2HG7d42gLfcRLa9PbxJL5G8n6Gi0yAGJ6GXY1mhw0nT5XnK8D6mZrlRyWZviEnHeAmMhLQhMg6Y1bLI0oPXQIFhDhvwpMD_V- -a_Ncz6SX9wq2QscHSKv22PLe3fi2skF1oShzwGbSFw3_kuvhaHlWqzEvFUmSldVfjv-aCuhbCTYMLI7TE7hldH-ttG_UozSCFcnem0vtwVh_vEk5UDDiVBVVghlTyemrLnSdYPXu2loOMLsMAY9SfDlGRbPlzAw-lnBn2tjxc84rusHQH0HORB4PAQhK6pCCEfYOnGZge7p1s6C6KcLm7GGMoTL3zTtU_0G00]--></g></svg>