<svg xmlns="http://www.w3.org/2000/svg" xmlns:xlink="http://www.w3.org/1999/xlink" contentStyleType="text/css" height="398px" preserveAspectRatio="none" style="width:1039px;height:398px;background:#FFFFFF;" version="1.1" viewBox="0 0 1039 398" width="1039px" zoomAndPan="magnify"><defs/><g><line style="stroke:#181818;stroke-width:0.5;stroke-dasharray:5.0,5.0;" x1="22" x2="22" y1="81.2969" y2="318.0938"/><line style="stroke:#181818;stroke-width:0.5;stroke-dasharray:5.0,5.0;" x1="375.5303" x2="375.5303" y1="81.2969" y2="318.0938"/><line style="stroke:#181818;stroke-width:0.5;stroke-dasharray:5.0,5.0;" x1="492.375" x2="492.375" y1="81.2969" y2="318.0938"/><line style="stroke:#181818;stroke-width:0.5;stroke-dasharray:5.0,5.0;" x1="677.9702" x2="677.9702" y1="81.2969" y2="318.0938"/><line style="stroke:#181818;stroke-width:0.5;stroke-dasharray:5.0,5.0;" x1="907.3159" x2="907.3159" y1="81.2969" y2="318.0938"/><line style="stroke:#181818;stroke-width:0.5;stroke-dasharray:5.0,5.0;" x1="1004.8267" x2="1004.8267" y1="81.2969" y2="318.0938"/><text fill="#000000" font-family="sans-serif" font-size="14" lengthAdjust="spacing" textLength="28" x="5" y="77.9951">&#29992;&#25143;</text><ellipse cx="22" cy="13.5" fill="#E2E2F0" rx="8" ry="8" style="stroke:#181818;stroke-width:0.5;"/><path d="M22,21.5 L22,48.5 M9,29.5 L35,29.5 M22,48.5 L9,63.5 M22,48.5 L35,63.5 " fill="none" style="stroke:#181818;stroke-width:0.5;"/><text fill="#000000" font-family="sans-serif" font-size="14" lengthAdjust="spacing" textLength="28" x="5" y="330.0889">&#29992;&#25143;</text><ellipse cx="22" cy="341.8906" fill="#E2E2F0" rx="8" ry="8" style="stroke:#181818;stroke-width:0.5;"/><path d="M22,349.8906 L22,376.8906 M9,357.8906 L35,357.8906 M22,376.8906 L9,391.8906 M22,376.8906 L35,391.8906 " fill="none" style="stroke:#181818;stroke-width:0.5;"/><rect fill="#E2E2F0" height="30.2969" rx="2.5" ry="2.5" style="stroke:#181818;stroke-width:0.5;" width="75.8447" x="338.5303" y="50"/><text fill="#000000" font-family="sans-serif" font-size="14" lengthAdjust="spacing" textLength="61.8447" x="345.5303" y="69.9951">Gateway</text><rect fill="#E2E2F0" height="30.2969" rx="2.5" ry="2.5" style="stroke:#181818;stroke-width:0.5;" width="75.8447" x="338.5303" y="317.0938"/><text fill="#000000" font-family="sans-serif" font-size="14" lengthAdjust="spacing" textLength="61.8447" x="345.5303" y="337.0889">Gateway</text><rect fill="#E2E2F0" height="30.2969" rx="2.5" ry="2.5" style="stroke:#181818;stroke-width:0.5;" width="136.8828" x="424.375" y="50"/><text fill="#000000" font-family="sans-serif" font-size="14" lengthAdjust="spacing" textLength="122.8828" x="431.375" y="69.9951">ProductController</text><rect fill="#E2E2F0" height="30.2969" rx="2.5" ry="2.5" style="stroke:#181818;stroke-width:0.5;" width="136.8828" x="424.375" y="317.0938"/><text fill="#000000" font-family="sans-serif" font-size="14" lengthAdjust="spacing" textLength="122.8828" x="431.375" y="337.0889">ProductController</text><rect fill="#E2E2F0" height="30.2969" rx="2.5" ry="2.5" style="stroke:#181818;stroke-width:0.5;" width="149.9941" x="603.9702" y="50"/><text fill="#000000" font-family="sans-serif" font-size="14" lengthAdjust="spacing" textLength="135.9941" x="610.9702" y="69.9951">ProductServiceImpl</text><rect fill="#E2E2F0" height="30.2969" rx="2.5" ry="2.5" style="stroke:#181818;stroke-width:0.5;" width="149.9941" x="603.9702" y="317.0938"/><text fill="#000000" font-family="sans-serif" font-size="14" lengthAdjust="spacing" textLength="135.9941" x="610.9702" y="337.0889">ProductServiceImpl</text><rect fill="#E2E2F0" height="30.2969" rx="2.5" ry="2.5" style="stroke:#181818;stroke-width:0.5;" width="120.5107" x="847.3159" y="50"/><text fill="#000000" font-family="sans-serif" font-size="14" lengthAdjust="spacing" textLength="106.5107" x="854.3159" y="69.9951">ProductMapper</text><rect fill="#E2E2F0" height="30.2969" rx="2.5" ry="2.5" style="stroke:#181818;stroke-width:0.5;" width="120.5107" x="847.3159" y="317.0938"/><text fill="#000000" font-family="sans-serif" font-size="14" lengthAdjust="spacing" textLength="106.5107" x="854.3159" y="337.0889">ProductMapper</text><text fill="#000000" font-family="sans-serif" font-size="14" lengthAdjust="spacing" textLength="48.0703" x="977.8267" y="77.9951">MySQL</text><path d="M986.8618,29 C986.8618,19 1004.8618,19 1004.8618,19 C1004.8618,19 1022.8618,19 1022.8618,29 L1022.8618,55 C1022.8618,65 1004.8618,65 1004.8618,65 C1004.8618,65 986.8618,65 986.8618,55 L986.8618,29 " fill="#E2E2F0" style="stroke:#181818;stroke-width:1.5;"/><path d="M986.8618,29 C986.8618,39 1004.8618,39 1004.8618,39 C1004.8618,39 1022.8618,39 1022.8618,29 " fill="none" style="stroke:#181818;stroke-width:1.5;"/><text fill="#000000" font-family="sans-serif" font-size="14" lengthAdjust="spacing" textLength="48.0703" x="977.8267" y="330.0889">MySQL</text><path d="M986.8618,343.3906 C986.8618,333.3906 1004.8618,333.3906 1004.8618,333.3906 C1004.8618,333.3906 1022.8618,333.3906 1022.8618,343.3906 L1022.8618,369.3906 C1022.8618,379.3906 1004.8618,379.3906 1004.8618,379.3906 C1004.8618,379.3906 986.8618,379.3906 986.8618,369.3906 L986.8618,343.3906 " fill="#E2E2F0" style="stroke:#181818;stroke-width:1.5;"/><path d="M986.8618,343.3906 C986.8618,353.3906 1004.8618,353.3906 1004.8618,353.3906 C1004.8618,353.3906 1022.8618,353.3906 1022.8618,343.3906 " fill="none" style="stroke:#181818;stroke-width:1.5;"/><polygon fill="#181818" points="364.4526,108.4297,374.4526,112.4297,364.4526,116.4297,368.4526,112.4297" style="stroke:#181818;stroke-width:1.0;"/><line style="stroke:#181818;stroke-width:1.0;" x1="22" x2="370.4526" y1="112.4297" y2="112.4297"/><text fill="#000000" font-family="sans-serif" font-size="13" lengthAdjust="spacing" textLength="330.4526" x="29" y="107.3638">1 GET /api/product/search?keyword=&#25163;&#26426;&amp;page=1</text><polygon fill="#181818" points="480.8164,137.5625,490.8164,141.5625,480.8164,145.5625,484.8164,141.5625" style="stroke:#181818;stroke-width:1.0;"/><line style="stroke:#181818;stroke-width:1.0;" x1="376.4526" x2="486.8164" y1="141.5625" y2="141.5625"/><text fill="#000000" font-family="sans-serif" font-size="13" lengthAdjust="spacing" textLength="63.0322" x="383.4526" y="136.4966">2 JWT&#25918;&#34892;</text><polygon fill="#181818" points="666.9673,166.6953,676.9673,170.6953,666.9673,174.6953,670.9673,170.6953" style="stroke:#181818;stroke-width:1.0;"/><line style="stroke:#181818;stroke-width:1.0;" x1="492.8164" x2="672.9673" y1="170.6953" y2="170.6953"/><text fill="#000000" font-family="sans-serif" font-size="13" lengthAdjust="spacing" textLength="162.1509" x="499.8164" y="165.6294">3 search(keyword, page)</text><polygon fill="#181818" points="895.5713,195.8281,905.5713,199.8281,895.5713,203.8281,899.5713,199.8281" style="stroke:#181818;stroke-width:1.0;"/><line style="stroke:#181818;stroke-width:1.0;" x1="678.9673" x2="901.5713" y1="199.8281" y2="199.8281"/><text fill="#000000" font-family="sans-serif" font-size="13" lengthAdjust="spacing" textLength="204.604" x="685.9673" y="194.7622">4 name LIKE + description LIKE</text><polygon fill="#181818" points="992.8618,209.8281,1002.8618,213.8281,992.8618,217.8281,996.8618,213.8281" style="stroke:#181818;stroke-width:1.0;"/><line style="stroke:#181818;stroke-width:1.0;" x1="907.5713" x2="998.8618" y1="213.8281" y2="213.8281"/><polygon fill="#181818" points="918.5713,223.8281,908.5713,227.8281,918.5713,231.8281,914.5713,227.8281" style="stroke:#181818;stroke-width:1.0;"/><line style="stroke:#181818;stroke-width:1.0;stroke-dasharray:2.0,2.0;" x1="912.5713" x2="1003.8618" y1="227.8281" y2="227.8281"/><polygon fill="#181818" points="503.8164,252.9609,493.8164,256.9609,503.8164,260.9609,499.8164,256.9609" style="stroke:#181818;stroke-width:1.0;"/><line style="stroke:#181818;stroke-width:1.0;stroke-dasharray:2.0,2.0;" x1="497.8164" x2="677.9673" y1="256.9609" y2="256.9609"/><text fill="#000000" font-family="sans-serif" font-size="13" lengthAdjust="spacing" textLength="139.0771" x="509.8164" y="251.895">5 IPage&lt;ProductVO&gt;</text><polygon fill="#181818" points="387.4526,266.9609,377.4526,270.9609,387.4526,274.9609,383.4526,270.9609" style="stroke:#181818;stroke-width:1.0;"/><line style="stroke:#181818;stroke-width:1.0;stroke-dasharray:2.0,2.0;" x1="381.4526" x2="491.8164" y1="270.9609" y2="270.9609"/><polygon fill="#181818" points="33,296.0938,23,300.0938,33,304.0938,29,300.0938" style="stroke:#181818;stroke-width:1.0;"/><line style="stroke:#181818;stroke-width:1.0;stroke-dasharray:2.0,2.0;" x1="27" x2="375.4526" y1="300.0938" y2="300.0938"/><text fill="#000000" font-family="sans-serif" font-size="13" lengthAdjust="spacing" textLength="180.229" x="39" y="295.0278">6 {code:0, data:{records}}</text><!--SRC=[RP2zIWD14CVxVOeXXIWcnFXLB2OM4a8qmKY2rfFT9HvURfVTJOuGqYkcJ6bZvni85ZxEwMEuStS4X7J3_3_upQ3msiBFvYDx_WHqC7FACeFMHo8oc7Zee5SfBaYRfF-Koi1gEHF-IYVUwZXMja8kuMsyqpTKTXu9rPsQE3UwkTZfwwCnPTSq7vb4ZsDq2lgBuLsF13bcZ52XrWfO71hGQO-WZYQgcwAbxXHQyNZvf1QfjhAPlRncRrzx1YUgsM2Jb9A4ok4OhXz6sURxzttDQ4DAOEDm0aN7VjbH1KeVi22Ifu3ZS0e9JXNqkZTjE0IfdB2HyP5EyXKhR1G8q78CjMsqADfod45t4FeloZVStxPAdFp673bCT3M7SrWABHK_gW8zXo-j4e7GhLP_]--></g></svg>