<svg xmlns="http://www.w3.org/2000/svg" xmlns:xlink="http://www.w3.org/1999/xlink" contentStyleType="text/css" height="532px" preserveAspectRatio="none" style="width:968px;height:532px;background:#FFFFFF;" version="1.1" viewBox="0 0 968 532" width="968px" zoomAndPan="magnify"><defs/><g><rect fill="none" height="147.3359" style="stroke:#000000;stroke-width:1.5;" width="448.4653" x="513.064" y="214.8281"/><line style="stroke:#181818;stroke-width:0.5;stroke-dasharray:5.0,5.0;" x1="22" x2="22" y1="81.2969" y2="451.4297"/><line style="stroke:#181818;stroke-width:0.5;stroke-dasharray:5.0,5.0;" x1="245.9048" x2="245.9048" y1="81.2969" y2="451.4297"/><line style="stroke:#181818;stroke-width:0.5;stroke-dasharray:5.0,5.0;" x1="439.2905" x2="439.2905" y1="81.2969" y2="451.4297"/><line style="stroke:#181818;stroke-width:0.5;stroke-dasharray:5.0,5.0;" x1="597.064" x2="597.064" y1="81.2969" y2="451.4297"/><line style="stroke:#181818;stroke-width:0.5;stroke-dasharray:5.0,5.0;" x1="772.5371" x2="772.5371" y1="81.2969" y2="451.4297"/><line style="stroke:#181818;stroke-width:0.5;stroke-dasharray:5.0,5.0;" x1="870.0479" x2="870.0479" y1="81.2969" y2="451.4297"/><line style="stroke:#181818;stroke-width:0.5;stroke-dasharray:5.0,5.0;" x1="929.1182" x2="929.1182" y1="81.2969" y2="451.4297"/><text fill="#000000" font-family="sans-serif" font-size="14" lengthAdjust="spacing" textLength="28" x="5" y="77.9951">&#29992;&#25143;</text><ellipse cx="22" cy="13.5" fill="#E2E2F0" rx="8" ry="8" style="stroke:#181818;stroke-width:0.5;"/><path d="M22,21.5 L22,48.5 M9,29.5 L35,29.5 M22,48.5 L9,63.5 M22,48.5 L35,63.5 " fill="none" style="stroke:#181818;stroke-width:0.5;"/><text fill="#000000" font-family="sans-serif" font-size="14" lengthAdjust="spacing" textLength="28" x="5" y="463.4248">&#29992;&#25143;</text><ellipse cx="22" cy="475.2266" fill="#E2E2F0" rx="8" ry="8" style="stroke:#181818;stroke-width:0.5;"/><path d="M22,483.2266 L22,510.2266 M9,491.2266 L35,491.2266 M22,510.2266 L9,525.2266 M22,510.2266 L35,525.2266 " fill="none" style="stroke:#181818;stroke-width:0.5;"/><rect fill="#E2E2F0" height="30.2969" rx="2.5" ry="2.5" style="stroke:#181818;stroke-width:0.5;" width="75.8447" x="208.9048" y="50"/><text fill="#000000" font-family="sans-serif" font-size="14" lengthAdjust="spacing" textLength="61.8447" x="215.9048" y="69.9951">Gateway</text><rect fill="#E2E2F0" height="30.2969" rx="2.5" ry="2.5" style="stroke:#181818;stroke-width:0.5;" width="75.8447" x="208.9048" y="450.4297"/><text fill="#000000" font-family="sans-serif" font-size="14" lengthAdjust="spacing" textLength="61.8447" x="215.9048" y="470.4248">Gateway</text><rect fill="#E2E2F0" height="30.2969" rx="2.5" ry="2.5" style="stroke:#181818;stroke-width:0.5;" width="136.8828" x="371.2905" y="50"/><text fill="#000000" font-family="sans-serif" font-size="14" lengthAdjust="spacing" textLength="122.8828" x="378.2905" y="69.9951">ProductController</text><rect fill="#E2E2F0" height="30.2969" rx="2.5" ry="2.5" style="stroke:#181818;stroke-width:0.5;" width="136.8828" x="371.2905" y="450.4297"/><text fill="#000000" font-family="sans-serif" font-size="14" lengthAdjust="spacing" textLength="122.8828" x="378.2905" y="470.4248">ProductController</text><rect fill="#E2E2F0" height="30.2969" rx="2.5" ry="2.5" style="stroke:#181818;stroke-width:0.5;" width="149.9941" x="523.064" y="50"/><text fill="#000000" font-family="sans-serif" font-size="14" lengthAdjust="spacing" textLength="135.9941" x="530.064" y="69.9951">ProductServiceImpl</text><rect fill="#E2E2F0" height="30.2969" rx="2.5" ry="2.5" style="stroke:#181818;stroke-width:0.5;" width="149.9941" x="523.064" y="450.4297"/><text fill="#000000" font-family="sans-serif" font-size="14" lengthAdjust="spacing" textLength="135.9941" x="530.064" y="470.4248">ProductServiceImpl</text><rect fill="#E2E2F0" height="30.2969" rx="2.5" ry="2.5" style="stroke:#181818;stroke-width:0.5;" width="120.5107" x="712.5371" y="50"/><text fill="#000000" font-family="sans-serif" font-size="14" lengthAdjust="spacing" textLength="106.5107" x="719.5371" y="69.9951">ProductMapper</text><rect fill="#E2E2F0" height="30.2969" rx="2.5" ry="2.5" style="stroke:#181818;stroke-width:0.5;" width="120.5107" x="712.5371" y="450.4297"/><text fill="#000000" font-family="sans-serif" font-size="14" lengthAdjust="spacing" textLength="106.5107" x="719.5371" y="470.4248">ProductMapper</text><text fill="#000000" font-family="sans-serif" font-size="14" lengthAdjust="spacing" textLength="48.0703" x="843.0479" y="77.9951">MySQL</text><path d="M852.083,29 C852.083,19 870.083,19 870.083,19 C870.083,19 888.083,19 888.083,29 L888.083,55 C888.083,65 870.083,65 870.083,65 C870.083,65 852.083,65 852.083,55 L852.083,29 " fill="#E2E2F0" style="stroke:#181818;stroke-width:1.5;"/><path d="M852.083,29 C852.083,39 870.083,39 870.083,39 C870.083,39 888.083,39 888.083,29 " fill="none" style="stroke:#181818;stroke-width:1.5;"/><text fill="#000000" font-family="sans-serif" font-size="14" lengthAdjust="spacing" textLength="48.0703" x="843.0479" y="463.4248">MySQL</text><path d="M852.083,476.7266 C852.083,466.7266 870.083,466.7266 870.083,466.7266 C870.083,466.7266 888.083,466.7266 888.083,476.7266 L888.083,502.7266 C888.083,512.7266 870.083,512.7266 870.083,512.7266 C870.083,512.7266 852.083,512.7266 852.083,502.7266 L852.083,476.7266 " fill="#E2E2F0" style="stroke:#181818;stroke-width:1.5;"/><path d="M852.083,476.7266 C852.083,486.7266 870.083,486.7266 870.083,486.7266 C870.083,486.7266 888.083,486.7266 888.083,476.7266 " fill="none" style="stroke:#181818;stroke-width:1.5;"/><text fill="#000000" font-family="sans-serif" font-size="14" lengthAdjust="spacing" textLength="38.4111" x="907.1182" y="77.9951">Redis</text><path d="M911.3237,29 C911.3237,19 929.3237,19 929.3237,19 C929.3237,19 947.3237,19 947.3237,29 L947.3237,55 C947.3237,65 929.3237,65 929.3237,65 C929.3237,65 911.3237,65 911.3237,55 L911.3237,29 " fill="#E2E2F0" style="stroke:#181818;stroke-width:1.5;"/><path d="M911.3237,29 C911.3237,39 929.3237,39 929.3237,39 C929.3237,39 947.3237,39 947.3237,29 " fill="none" style="stroke:#181818;stroke-width:1.5;"/><text fill="#000000" font-family="sans-serif" font-size="14" lengthAdjust="spacing" textLength="38.4111" x="907.1182" y="463.4248">Redis</text><path d="M911.3237,476.7266 C911.3237,466.7266 929.3237,466.7266 929.3237,466.7266 C929.3237,466.7266 947.3237,466.7266 947.3237,476.7266 L947.3237,502.7266 C947.3237,512.7266 929.3237,512.7266 929.3237,512.7266 C929.3237,512.7266 911.3237,512.7266 911.3237,502.7266 L911.3237,476.7266 " fill="#E2E2F0" style="stroke:#181818;stroke-width:1.5;"/><path d="M911.3237,476.7266 C911.3237,486.7266 929.3237,486.7266 929.3237,486.7266 C929.3237,486.7266 947.3237,486.7266 947.3237,476.7266 " fill="none" style="stroke:#181818;stroke-width:1.5;"/><polygon fill="#181818" points="234.8271,108.4297,244.8271,112.4297,234.8271,116.4297,238.8271,112.4297" style="stroke:#181818;stroke-width:1.0;"/><line style="stroke:#181818;stroke-width:1.0;" x1="22" x2="240.8271" y1="112.4297" y2="112.4297"/><text fill="#000000" font-family="sans-serif" font-size="13" lengthAdjust="spacing" textLength="154.4258" x="29" y="107.3638">1 GET /api/product/{id}</text><polygon fill="#181818" points="427.7319,137.5625,437.7319,141.5625,427.7319,145.5625,431.7319,141.5625" style="stroke:#181818;stroke-width:1.0;"/><line style="stroke:#181818;stroke-width:1.0;" x1="246.8271" x2="433.7319" y1="141.5625" y2="141.5625"/><text fill="#000000" font-family="sans-serif" font-size="13" lengthAdjust="spacing" textLength="168.9048" x="253.8271" y="136.4966">2 JWT&#25918;&#34892;(&#36879;&#20256;userId/role)</text><polygon fill="#181818" points="586.061,166.6953,596.061,170.6953,586.061,174.6953,590.061,170.6953" style="stroke:#181818;stroke-width:1.0;"/><line style="stroke:#181818;stroke-width:1.0;" x1="439.7319" x2="592.061" y1="170.6953" y2="170.6953"/><text fill="#000000" font-family="sans-serif" font-size="13" lengthAdjust="spacing" textLength="134.3291" x="446.7319" y="165.6294">3 getProductById(id)</text><polygon fill="#181818" points="917.3237,195.8281,927.3237,199.8281,917.3237,203.8281,921.3237,199.8281" style="stroke:#181818;stroke-width:1.0;"/><line style="stroke:#181818;stroke-width:1.0;" x1="598.061" x2="923.3237" y1="199.8281" y2="199.8281"/><text fill="#000000" font-family="sans-serif" font-size="13" lengthAdjust="spacing" textLength="138.6074" x="605.061" y="194.7622">4 &#26597;&#32531;&#23384; product:{id}</text><path d="M513.064,214.8281 L577.5068,214.8281 L577.5068,221.9609 L567.5068,231.9609 L513.064,231.9609 L513.064,214.8281 " fill="#EEEEEE" style="stroke:#000000;stroke-width:1.5;"/><rect fill="none" height="147.3359" style="stroke:#000000;stroke-width:1.5;" width="448.4653" x="513.064" y="214.8281"/><text fill="#000000" font-family="sans-serif" font-size="13" font-weight="bold" lengthAdjust="spacing" textLength="19.4429" x="528.064" y="227.895">alt</text><text fill="#000000" font-family="sans-serif" font-size="11" font-weight="bold" lengthAdjust="spacing" textLength="55.4297" x="592.5068" y="227.0386">[&#32531;&#23384;&#21629;&#20013;]</text><polygon fill="#181818" points="609.061,249.0938,599.061,253.0938,609.061,257.0938,605.061,253.0938" style="stroke:#181818;stroke-width:1.0;"/><line style="stroke:#181818;stroke-width:1.0;stroke-dasharray:2.0,2.0;" x1="603.061" x2="928.3237" y1="253.0938" y2="253.0938"/><text fill="#000000" font-family="sans-serif" font-size="13" lengthAdjust="spacing" textLength="52" x="615.061" y="248.0278">&#32531;&#23384;&#25968;&#25454;</text><line style="stroke:#000000;stroke-width:1.0;stroke-dasharray:2.0,2.0;" x1="513.064" x2="961.5293" y1="262.0938" y2="262.0938"/><text fill="#000000" font-family="sans-serif" font-size="11" font-weight="bold" lengthAdjust="spacing" textLength="66.7734" x="518.064" y="272.3042">[&#32531;&#23384;&#26410;&#21629;&#20013;]</text><polygon fill="#181818" points="760.7925,293.0313,770.7925,297.0313,760.7925,301.0313,764.7925,297.0313" style="stroke:#181818;stroke-width:1.0;"/><line style="stroke:#181818;stroke-width:1.0;" x1="598.061" x2="766.7925" y1="297.0313" y2="297.0313"/><text fill="#000000" font-family="sans-serif" font-size="13" lengthAdjust="spacing" textLength="150.7314" x="605.061" y="291.9653">5 &#26597;&#25968;&#25454;&#24211;(&#21547;SKU+&#22270;&#29255;)</text><polygon fill="#181818" points="858.083,307.0313,868.083,311.0313,858.083,315.0313,862.083,311.0313" style="stroke:#181818;stroke-width:1.0;"/><line style="stroke:#181818;stroke-width:1.0;" x1="772.7925" x2="864.083" y1="311.0313" y2="311.0313"/><polygon fill="#181818" points="783.7925,321.0313,773.7925,325.0313,783.7925,329.0313,779.7925,325.0313" style="stroke:#181818;stroke-width:1.0;"/><line style="stroke:#181818;stroke-width:1.0;stroke-dasharray:2.0,2.0;" x1="777.7925" x2="869.083" y1="325.0313" y2="325.0313"/><polygon fill="#181818" points="917.3237,350.1641,927.3237,354.1641,917.3237,358.1641,921.3237,354.1641" style="stroke:#181818;stroke-width:1.0;"/><line style="stroke:#181818;stroke-width:1.0;" x1="598.061" x2="923.3237" y1="354.1641" y2="354.1641"/><text fill="#000000" font-family="sans-serif" font-size="13" lengthAdjust="spacing" textLength="91.0571" x="605.061" y="349.0981">6 &#20889;&#20837;&#32531;&#23384;(1h)</text><polygon fill="#181818" points="450.7319,386.2969,440.7319,390.2969,450.7319,394.2969,446.7319,390.2969" style="stroke:#181818;stroke-width:1.0;"/><line style="stroke:#181818;stroke-width:1.0;stroke-dasharray:2.0,2.0;" x1="444.7319" x2="597.061" y1="390.2969" y2="390.2969"/><text fill="#000000" font-family="sans-serif" font-size="13" lengthAdjust="spacing" textLength="81.4023" x="456.7319" y="385.231">7 ProductVO</text><polygon fill="#181818" points="257.8271,400.2969,247.8271,404.2969,257.8271,408.2969,253.8271,404.2969" style="stroke:#181818;stroke-width:1.0;"/><line style="stroke:#181818;stroke-width:1.0;stroke-dasharray:2.0,2.0;" x1="251.8271" x2="438.7319" y1="404.2969" y2="404.2969"/><polygon fill="#181818" points="33,429.4297,23,433.4297,33,437.4297,29,433.4297" style="stroke:#181818;stroke-width:1.0;"/><line style="stroke:#181818;stroke-width:1.0;stroke-dasharray:2.0,2.0;" x1="27" x2="245.8271" y1="433.4297" y2="433.4297"/><text fill="#000000" font-family="sans-serif" font-size="13" lengthAdjust="spacing" textLength="200.8271" x="39" y="428.3638">8 {code:0, data:{productVO}}</text><!--SRC=[RL5TIm9157sVNt7nIIan-sOUUYX2hAGFhPx7dS4MLdUP7HKHePU-eAZGe2Ye7e8eZDwAC7-DkzQ_Q6PtD89UXiizvzvpxXbY29j3l_Ne7xu1SQ7iCeuSmeLfc0uf2KWHmQgafh12zGyIMUCsBHjYmIu9RbiMun75CWIt_kLb6Q-O1aiN7IiWkXNZNrw6E8xULGnAH8aWUU8ooDIowoiAeFdVvWQZfgkQN1K8gHCWFYVjOaX2QZ472UAO2IVSdgYRj84ALSLGLZ6Cmz9spczrl-wFez-xfxtEdTgGfWbv58iXHL9aQHV311IOq3xdQsaQDMaCIKGH0daCa-3VFlGxJQzz2LeJ1vh44X3slVFFtdiRGJW2yS7s4FKlNlsJ5yGiUPlkt3mDHxHOc0o6AQKMJdWVpQXtzfnTtXpnhhlzeuEOf8SyDI4Z0_a4QZhNuJPjVHgy_IjlJxkF9dTYY9LeUDymhXdGzs-jwco2h8D8PQMomp0BTSEc38-DWledN7S6Cut63m00]--></g></svg>