<svg xmlns="http://www.w3.org/2000/svg" xmlns:xlink="http://www.w3.org/1999/xlink" contentStyleType="text/css" height="532px" preserveAspectRatio="none" style="width:879px;height:532px;background:#FFFFFF;" version="1.1" viewBox="0 0 879 532" width="879px" zoomAndPan="magnify"><defs/><g><rect fill="none" height="90.2031" style="stroke:#000000;stroke-width:1.5;" width="309.5938" x="248.2378" y="301.2266"/><line style="stroke:#181818;stroke-width:0.5;stroke-dasharray:5.0,5.0;" x1="22" x2="22" y1="81.2969" y2="451.5625"/><line style="stroke:#181818;stroke-width:0.5;stroke-dasharray:5.0,5.0;" x1="209.3931" x2="209.3931" y1="81.2969" y2="451.5625"/><line style="stroke:#181818;stroke-width:0.5;stroke-dasharray:5.0,5.0;" x1="306.2378" x2="306.2378" y1="81.2969" y2="451.5625"/><line style="stroke:#181818;stroke-width:0.5;stroke-dasharray:5.0,5.0;" x1="492.0806" x2="492.0806" y1="81.2969" y2="451.5625"/><line style="stroke:#181818;stroke-width:0.5;stroke-dasharray:5.0,5.0;" x1="817.2617" x2="817.2617" y1="81.2969" y2="451.5625"/><text fill="#000000" font-family="sans-serif" font-size="14" lengthAdjust="spacing" textLength="28" x="5" y="77.9951">&#29992;&#25143;</text><ellipse cx="22" cy="13.5" fill="#E2E2F0" rx="8" ry="8" style="stroke:#181818;stroke-width:0.5;"/><path d="M22,21.5 L22,48.5 M9,29.5 L35,29.5 M22,48.5 L9,63.5 M22,48.5 L35,63.5 " fill="none" style="stroke:#181818;stroke-width:0.5;"/><text fill="#000000" font-family="sans-serif" font-size="14" lengthAdjust="spacing" textLength="28" x="5" y="463.5576">&#29992;&#25143;</text><ellipse cx="22" cy="475.3594" fill="#E2E2F0" rx="8" ry="8" style="stroke:#181818;stroke-width:0.5;"/><path d="M22,483.3594 L22,510.3594 M9,491.3594 L35,491.3594 M22,510.3594 L9,525.3594 M22,510.3594 L35,525.3594 " fill="none" style="stroke:#181818;stroke-width:0.5;"/><rect fill="#E2E2F0" height="30.2969" rx="2.5" ry="2.5" style="stroke:#181818;stroke-width:0.5;" width="75.8447" x="172.3931" y="50"/><text fill="#000000" font-family="sans-serif" font-size="14" lengthAdjust="spacing" textLength="61.8447" x="179.3931" y="69.9951">Gateway</text><rect fill="#E2E2F0" height="30.2969" rx="2.5" ry="2.5" style="stroke:#181818;stroke-width:0.5;" width="75.8447" x="172.3931" y="450.5625"/><text fill="#000000" font-family="sans-serif" font-size="14" lengthAdjust="spacing" textLength="61.8447" x="179.3931" y="470.5576">Gateway</text><rect fill="#E2E2F0" height="30.2969" rx="2.5" ry="2.5" style="stroke:#181818;stroke-width:0.5;" width="96.6396" x="258.2378" y="50"/><text fill="#000000" font-family="sans-serif" font-size="14" lengthAdjust="spacing" textLength="82.6396" x="265.2378" y="69.9951">AiController</text><rect fill="#E2E2F0" height="30.2969" rx="2.5" ry="2.5" style="stroke:#181818;stroke-width:0.5;" width="96.6396" x="258.2378" y="450.5625"/><text fill="#000000" font-family="sans-serif" font-size="14" lengthAdjust="spacing" textLength="82.6396" x="265.2378" y="470.5576">AiController</text><rect fill="#E2E2F0" height="30.2969" rx="2.5" ry="2.5" style="stroke:#181818;stroke-width:0.5;" width="109.751" x="438.0806" y="50"/><text fill="#000000" font-family="sans-serif" font-size="14" lengthAdjust="spacing" textLength="95.751" x="445.0806" y="69.9951">AiServiceImpl</text><rect fill="#E2E2F0" height="30.2969" rx="2.5" ry="2.5" style="stroke:#181818;stroke-width:0.5;" width="109.751" x="438.0806" y="450.5625"/><text fill="#000000" font-family="sans-serif" font-size="14" lengthAdjust="spacing" textLength="95.751" x="445.0806" y="470.5576">AiServiceImpl</text><rect fill="#E2E2F0" height="30.2969" rx="2.5" ry="2.5" style="stroke:#181818;stroke-width:0.5;" width="111.7129" x="762.2617" y="50"/><text fill="#000000" font-family="sans-serif" font-size="14" lengthAdjust="spacing" textLength="97.7129" x="769.2617" y="69.9951">DeepSeek API</text><rect fill="#E2E2F0" height="30.2969" rx="2.5" ry="2.5" style="stroke:#181818;stroke-width:0.5;" width="111.7129" x="762.2617" y="450.5625"/><text fill="#000000" font-family="sans-serif" font-size="14" lengthAdjust="spacing" textLength="97.7129" x="769.2617" y="470.5576">DeepSeek API</text><polygon fill="#181818" points="198.3154,123.5625,208.3154,127.5625,198.3154,131.5625,202.3154,127.5625" style="stroke:#181818;stroke-width:1.0;"/><line style="stroke:#181818;stroke-width:1.0;" x1="22" x2="204.3154" y1="127.5625" y2="127.5625"/><text fill="#000000" font-family="sans-serif" font-size="13" lengthAdjust="spacing" textLength="123.7983" x="29" y="107.3638">1 POST /api/ai/chat</text><text fill="#000000" font-family="sans-serif" font-size="13" lengthAdjust="spacing" textLength="127.9434" x="29" y="122.4966">{message, history}</text><polygon fill="#181818" points="294.5576,152.6953,304.5576,156.6953,294.5576,160.6953,298.5576,156.6953" style="stroke:#181818;stroke-width:1.0;"/><line style="stroke:#181818;stroke-width:1.0;" x1="210.3154" x2="300.5576" y1="156.6953" y2="156.6953"/><text fill="#000000" font-family="sans-serif" font-size="13" lengthAdjust="spacing" textLength="63.0322" x="217.3154" y="151.6294">2 JWT&#25918;&#34892;</text><polygon fill="#181818" points="480.9561,181.8281,490.9561,185.8281,480.9561,189.8281,484.9561,185.8281" style="stroke:#181818;stroke-width:1.0;"/><line style="stroke:#181818;stroke-width:1.0;" x1="306.5576" x2="486.9561" y1="185.8281" y2="185.8281"/><text fill="#000000" font-family="sans-serif" font-size="13" lengthAdjust="spacing" textLength="162.3984" x="313.5576" y="180.7622">3 chat(message, history)</text><line style="stroke:#181818;stroke-width:1.0;" x1="492.9561" x2="534.9561" y1="214.9609" y2="214.9609"/><line style="stroke:#181818;stroke-width:1.0;" x1="534.9561" x2="534.9561" y1="214.9609" y2="227.9609"/><line style="stroke:#181818;stroke-width:1.0;" x1="493.9561" x2="534.9561" y1="227.9609" y2="227.9609"/><polygon fill="#181818" points="503.9561,223.9609,493.9561,227.9609,503.9561,231.9609,499.9561,227.9609" style="stroke:#181818;stroke-width:1.0;"/><text fill="#000000" font-family="sans-serif" font-size="13" lengthAdjust="spacing" textLength="311.1621" x="499.9561" y="209.895">4 &#26500;&#36896;&#35831;&#27714;&#20307;(system prompt+history+message)</text><polygon fill="#181818" points="806.1182,253.0938,816.1182,257.0938,806.1182,261.0938,810.1182,257.0938" style="stroke:#181818;stroke-width:1.0;"/><line style="stroke:#181818;stroke-width:1.0;" x1="492.9561" x2="812.1182" y1="257.0938" y2="257.0938"/><text fill="#000000" font-family="sans-serif" font-size="13" lengthAdjust="spacing" textLength="141.5337" x="499.9561" y="252.0278">5 POST DeepSeek API</text><polygon fill="#181818" points="503.9561,282.2266,493.9561,286.2266,503.9561,290.2266,499.9561,286.2266" style="stroke:#181818;stroke-width:1.0;"/><line style="stroke:#181818;stroke-width:1.0;stroke-dasharray:2.0,2.0;" x1="497.9561" x2="817.1182" y1="286.2266" y2="286.2266"/><text fill="#000000" font-family="sans-serif" font-size="13" lengthAdjust="spacing" textLength="58.9697" x="509.9561" y="281.1606">6 API&#21709;&#24212;</text><path d="M248.2378,301.2266 L312.6807,301.2266 L312.6807,308.3594 L302.6807,318.3594 L248.2378,318.3594 L248.2378,301.2266 " fill="#EEEEEE" style="stroke:#000000;stroke-width:1.5;"/><rect fill="none" height="90.2031" style="stroke:#000000;stroke-width:1.5;" width="309.5938" x="248.2378" y="301.2266"/><text fill="#000000" font-family="sans-serif" font-size="13" font-weight="bold" lengthAdjust="spacing" textLength="19.4429" x="263.2378" y="314.2935">alt</text><text fill="#000000" font-family="sans-serif" font-size="11" font-weight="bold" lengthAdjust="spacing" textLength="32.7422" x="327.6807" y="313.437">[&#25104;&#21151;]</text><polygon fill="#181818" points="317.5576,335.4922,307.5576,339.4922,317.5576,343.4922,313.5576,339.4922" style="stroke:#181818;stroke-width:1.0;"/><line style="stroke:#181818;stroke-width:1.0;stroke-dasharray:2.0,2.0;" x1="311.5576" x2="491.9561" y1="339.4922" y2="339.4922"/><text fill="#000000" font-family="sans-serif" font-size="13" lengthAdjust="spacing" textLength="45.3032" x="323.5576" y="334.4263">7 reply</text><line style="stroke:#000000;stroke-width:1.0;stroke-dasharray:2.0,2.0;" x1="248.2378" x2="557.8315" y1="348.4922" y2="348.4922"/><text fill="#000000" font-family="sans-serif" font-size="11" font-weight="bold" lengthAdjust="spacing" textLength="32.7422" x="253.2378" y="358.7026">[&#24322;&#24120;]</text><polygon fill="#181818" points="317.5576,379.4297,307.5576,383.4297,317.5576,387.4297,313.5576,383.4297" style="stroke:#181818;stroke-width:1.0;"/><line style="stroke:#181818;stroke-width:1.0;stroke-dasharray:2.0,2.0;" x1="311.5576" x2="491.9561" y1="383.4297" y2="383.4297"/><text fill="#000000" font-family="sans-serif" font-size="13" lengthAdjust="spacing" textLength="64.4033" x="323.5576" y="378.3638">8 &#21451;&#22909;&#25552;&#31034;</text><polygon fill="#181818" points="221.3154,400.4297,211.3154,404.4297,221.3154,408.4297,217.3154,404.4297" style="stroke:#181818;stroke-width:1.0;"/><line style="stroke:#181818;stroke-width:1.0;stroke-dasharray:2.0,2.0;" x1="215.3154" x2="305.5576" y1="404.4297" y2="404.4297"/><polygon fill="#181818" points="33,429.5625,23,433.5625,33,437.5625,29,433.5625" style="stroke:#181818;stroke-width:1.0;"/><line style="stroke:#181818;stroke-width:1.0;stroke-dasharray:2.0,2.0;" x1="27" x2="209.3154" y1="433.5625" y2="433.5625"/><text fill="#000000" font-family="sans-serif" font-size="13" lengthAdjust="spacing" textLength="164.3154" x="39" y="428.4966">9 {code:0, data:{reply}}</text><!--SRC=[PL1BIq915DxFhpYqCbJi_RYBG0h2DWaARTeCruCEtSSmCoaN4K9QI0yKTDq32jf5AqMoNzEzshzevcQIjZkSxt6-xr1R-GB6lPUerGSguLoY89mAnMp6gQVWa2giqS1WvTeSifHb-xwdXEyuA9OCmLR2MQGKK5IPZJcNEp57LkrvoW4YBo2UGJQVYncKCq9C3aZlwPiMh4B-k524Z0Oob6Ni2bMdNjr5AMaPKr1XKdS86gHSCmeJme8rE3efHhsFoUCDCHk3wDCMh8FH9nRLoqIZCz86H7UNNnSFazT-zDRy77KJCf0ANU32TxbAJaN9gSjCh1DQiFaJzsyleW58_xflcLNOlGs7FK8T1L6h4rxT4u3OPLPX6mHo9o3eI8JmlHaE1lyuEn2shyFdKTJkZ9-61BtIj6tyklWZUZBFj60NwhPVGcib1IMgg5MFxHkDRm00]--></g></svg>