<svg xmlns="http://www.w3.org/2000/svg" xmlns:xlink="http://www.w3.org/1999/xlink" contentStyleType="text/css" height="384px" preserveAspectRatio="none" style="width:760px;height:384px;background:#FFFFFF;" version="1.1" viewBox="0 0 760 384" width="760px" zoomAndPan="magnify"><defs/><g><line style="stroke:#181818;stroke-width:0.5;stroke-dasharray:5.0,5.0;" x1="22" x2="22" y1="81.2969" y2="304.0938"/><line style="stroke:#181818;stroke-width:0.5;stroke-dasharray:5.0,5.0;" x1="219.7017" x2="219.7017" y1="81.2969" y2="304.0938"/><line style="stroke:#181818;stroke-width:0.5;stroke-dasharray:5.0,5.0;" x1="332.5464" x2="332.5464" y1="81.2969" y2="304.0938"/><line style="stroke:#181818;stroke-width:0.5;stroke-dasharray:5.0,5.0;" x1="488.6929" x2="488.6929" y1="81.2969" y2="304.0938"/><line style="stroke:#181818;stroke-width:0.5;stroke-dasharray:5.0,5.0;" x1="725.5688" x2="725.5688" y1="81.2969" y2="304.0938"/><text fill="#000000" font-family="sans-serif" font-size="14" lengthAdjust="spacing" textLength="28" x="5" y="77.9951">&#29992;&#25143;</text><ellipse cx="22" cy="13.5" fill="#E2E2F0" rx="8" ry="8" style="stroke:#181818;stroke-width:0.5;"/><path d="M22,21.5 L22,48.5 M9,29.5 L35,29.5 M22,48.5 L9,63.5 M22,48.5 L35,63.5 " fill="none" style="stroke:#181818;stroke-width:0.5;"/><text fill="#000000" font-family="sans-serif" font-size="14" lengthAdjust="spacing" textLength="28" x="5" y="316.0889">&#29992;&#25143;</text><ellipse cx="22" cy="327.8906" fill="#E2E2F0" rx="8" ry="8" style="stroke:#181818;stroke-width:0.5;"/><path d="M22,335.8906 L22,362.8906 M9,343.8906 L35,343.8906 M22,362.8906 L9,377.8906 M22,362.8906 L35,377.8906 " fill="none" style="stroke:#181818;stroke-width:0.5;"/><rect fill="#E2E2F0" height="30.2969" rx="2.5" ry="2.5" style="stroke:#181818;stroke-width:0.5;" width="75.8447" x="182.7017" y="50"/><text fill="#000000" font-family="sans-serif" font-size="14" lengthAdjust="spacing" textLength="61.8447" x="189.7017" y="69.9951">Gateway</text><rect fill="#E2E2F0" height="30.2969" rx="2.5" ry="2.5" style="stroke:#181818;stroke-width:0.5;" width="75.8447" x="182.7017" y="303.0938"/><text fill="#000000" font-family="sans-serif" font-size="14" lengthAdjust="spacing" textLength="61.8447" x="189.7017" y="323.0889">Gateway</text><rect fill="#E2E2F0" height="30.2969" rx="2.5" ry="2.5" style="stroke:#181818;stroke-width:0.5;" width="128.1465" x="268.5464" y="50"/><text fill="#000000" font-family="sans-serif" font-size="14" lengthAdjust="spacing" textLength="114.1465" x="275.5464" y="69.9951">SeckillController</text><rect fill="#E2E2F0" height="30.2969" rx="2.5" ry="2.5" style="stroke:#181818;stroke-width:0.5;" width="128.1465" x="268.5464" y="303.0938"/><text fill="#000000" font-family="sans-serif" font-size="14" lengthAdjust="spacing" textLength="114.1465" x="275.5464" y="323.0889">SeckillController</text><rect fill="#E2E2F0" height="30.2969" rx="2.5" ry="2.5" style="stroke:#181818;stroke-width:0.5;" width="164.0215" x="406.6929" y="50"/><text fill="#000000" font-family="sans-serif" font-size="14" lengthAdjust="spacing" textLength="150.0215" x="413.6929" y="69.9951">SeckillActServiceImpl</text><rect fill="#E2E2F0" height="30.2969" rx="2.5" ry="2.5" style="stroke:#181818;stroke-width:0.5;" width="164.0215" x="406.6929" y="303.0938"/><text fill="#000000" font-family="sans-serif" font-size="14" lengthAdjust="spacing" textLength="150.0215" x="413.6929" y="323.0889">SeckillActServiceImpl</text><text fill="#000000" font-family="sans-serif" font-size="14" lengthAdjust="spacing" textLength="48.0703" x="698.5688" y="77.9951">MySQL</text><path d="M707.604,29 C707.604,19 725.604,19 725.604,19 C725.604,19 743.604,19 743.604,29 L743.604,55 C743.604,65 725.604,65 725.604,65 C725.604,65 707.604,65 707.604,55 L707.604,29 " fill="#E2E2F0" style="stroke:#181818;stroke-width:1.5;"/><path d="M707.604,29 C707.604,39 725.604,39 725.604,39 C725.604,39 743.604,39 743.604,29 " fill="none" style="stroke:#181818;stroke-width:1.5;"/><text fill="#000000" font-family="sans-serif" font-size="14" lengthAdjust="spacing" textLength="48.0703" x="698.5688" y="316.0889">MySQL</text><path d="M707.604,329.3906 C707.604,319.3906 725.604,319.3906 725.604,319.3906 C725.604,319.3906 743.604,319.3906 743.604,329.3906 L743.604,355.3906 C743.604,365.3906 725.604,365.3906 725.604,365.3906 C725.604,365.3906 707.604,365.3906 707.604,355.3906 L707.604,329.3906 " fill="#E2E2F0" style="stroke:#181818;stroke-width:1.5;"/><path d="M707.604,329.3906 C707.604,339.3906 725.604,339.3906 725.604,339.3906 C725.604,339.3906 743.604,339.3906 743.604,329.3906 " fill="none" style="stroke:#181818;stroke-width:1.5;"/><polygon fill="#181818" points="208.624,108.4297,218.624,112.4297,208.624,116.4297,212.624,112.4297" style="stroke:#181818;stroke-width:1.0;"/><line style="stroke:#181818;stroke-width:1.0;" x1="22" x2="214.624" y1="112.4297" y2="112.4297"/><text fill="#000000" font-family="sans-serif" font-size="13" lengthAdjust="spacing" textLength="174.624" x="29" y="107.3638">1 GET /api/seckill/activities</text><polygon fill="#181818" points="320.6196,137.5625,330.6196,141.5625,320.6196,145.5625,324.6196,141.5625" style="stroke:#181818;stroke-width:1.0;"/><line style="stroke:#181818;stroke-width:1.0;" x1="220.624" x2="326.6196" y1="141.5625" y2="141.5625"/><text fill="#000000" font-family="sans-serif" font-size="13" lengthAdjust="spacing" textLength="63.0322" x="227.624" y="136.4966">2 JWT&#25918;&#34892;</text><polygon fill="#181818" points="476.7036,166.6953,486.7036,170.6953,476.7036,174.6953,480.7036,170.6953" style="stroke:#181818;stroke-width:1.0;"/><line style="stroke:#181818;stroke-width:1.0;" x1="332.6196" x2="482.7036" y1="170.6953" y2="170.6953"/><text fill="#000000" font-family="sans-serif" font-size="13" lengthAdjust="spacing" textLength="101.1753" x="339.6196" y="165.6294">3 listActivities()</text><polygon fill="#181818" points="713.604,195.8281,723.604,199.8281,713.604,203.8281,717.604,199.8281" style="stroke:#181818;stroke-width:1.0;"/><line style="stroke:#181818;stroke-width:1.0;" x1="488.7036" x2="719.604" y1="199.8281" y2="199.8281"/><text fill="#000000" font-family="sans-serif" font-size="13" lengthAdjust="spacing" textLength="212.9004" x="495.7036" y="194.7622">4 SELECT * FROM seckill_activity</text><polygon fill="#181818" points="499.7036,209.8281,489.7036,213.8281,499.7036,217.8281,495.7036,213.8281" style="stroke:#181818;stroke-width:1.0;"/><line style="stroke:#181818;stroke-width:1.0;stroke-dasharray:2.0,2.0;" x1="493.7036" x2="724.604" y1="213.8281" y2="213.8281"/><polygon fill="#181818" points="343.6196,238.9609,333.6196,242.9609,343.6196,246.9609,339.6196,242.9609" style="stroke:#181818;stroke-width:1.0;"/><line style="stroke:#181818;stroke-width:1.0;stroke-dasharray:2.0,2.0;" x1="337.6196" x2="487.7036" y1="242.9609" y2="242.9609"/><text fill="#000000" font-family="sans-serif" font-size="13" lengthAdjust="spacing" textLength="64.4033" x="349.6196" y="237.895">5 &#27963;&#21160;&#21015;&#34920;</text><polygon fill="#181818" points="231.624,252.9609,221.624,256.9609,231.624,260.9609,227.624,256.9609" style="stroke:#181818;stroke-width:1.0;"/><line style="stroke:#181818;stroke-width:1.0;stroke-dasharray:2.0,2.0;" x1="225.624" x2="331.6196" y1="256.9609" y2="256.9609"/><polygon fill="#181818" points="33,282.0938,23,286.0938,33,290.0938,29,286.0938" style="stroke:#181818;stroke-width:1.0;"/><line style="stroke:#181818;stroke-width:1.0;stroke-dasharray:2.0,2.0;" x1="27" x2="219.624" y1="286.0938" y2="286.0938"/><text fill="#000000" font-family="sans-serif" font-size="13" lengthAdjust="spacing" textLength="133.9673" x="39" y="281.0278">6 {code:0, data:list}</text><!--SRC=[RO_DIiD058NtynI7hbGiyNyn2w6KM9GMqGHSocGobC6n2JDZIX7tHLmMN7UN1n1S2BvDOn_3t3GK17UNSywztxb2-ipYPr5Myqy8XoUdBCk5zLhgN4my1iAhgPYHDvx-SJgHaW_Qc7usyJOpHjaEfQItvjzSJ_f8sK9BTVcOcoRh2ibIuKKYdC9e5jqCIKqJngW7kkSra-CGWp16878TkCsfG4Yl2-srScmyfHnHEOvmTHTNY-_ryesHGaxDu3Y6qSxtjbixkwpMoKuJZXD4uJ3inzZ3nUtr22tblgNCM9gWkpcrMTi2Jr5zVArUozNyVRqiMsPJk-bLJ_G8nncUPPOgVh0F-fTJcvTV]--></g></svg>