<svg xmlns="http://www.w3.org/2000/svg" xmlns:xlink="http://www.w3.org/1999/xlink" contentStyleType="text/css" height="384px" preserveAspectRatio="none" style="width:694px;height:384px;background:#FFFFFF;" version="1.1" viewBox="0 0 694 384" width="694px" zoomAndPan="magnify"><defs/><g><line style="stroke:#181818;stroke-width:0.5;stroke-dasharray:5.0,5.0;" x1="22" x2="22" y1="81.2969" y2="304.0938"/><line style="stroke:#181818;stroke-width:0.5;stroke-dasharray:5.0,5.0;" x1="241.7979" x2="241.7979" y1="81.2969" y2="304.0938"/><line style="stroke:#181818;stroke-width:0.5;stroke-dasharray:5.0,5.0;" x1="354.6426" x2="354.6426" y1="81.2969" y2="304.0938"/><line style="stroke:#181818;stroke-width:0.5;stroke-dasharray:5.0,5.0;" x1="521.6035" x2="521.6035" y1="81.2969" y2="304.0938"/><line style="stroke:#181818;stroke-width:0.5;stroke-dasharray:5.0,5.0;" x1="659.875" x2="659.875" y1="81.2969" y2="304.0938"/><text fill="#000000" font-family="sans-serif" font-size="14" lengthAdjust="spacing" textLength="28" x="5" y="77.9951">&#29992;&#25143;</text><ellipse cx="22" cy="13.5" fill="#E2E2F0" rx="8" ry="8" style="stroke:#181818;stroke-width:0.5;"/><path d="M22,21.5 L22,48.5 M9,29.5 L35,29.5 M22,48.5 L9,63.5 M22,48.5 L35,63.5 " fill="none" style="stroke:#181818;stroke-width:0.5;"/><text fill="#000000" font-family="sans-serif" font-size="14" lengthAdjust="spacing" textLength="28" x="5" y="316.0889">&#29992;&#25143;</text><ellipse cx="22" cy="327.8906" fill="#E2E2F0" rx="8" ry="8" style="stroke:#181818;stroke-width:0.5;"/><path d="M22,335.8906 L22,362.8906 M9,343.8906 L35,343.8906 M22,362.8906 L9,377.8906 M22,362.8906 L35,377.8906 " fill="none" style="stroke:#181818;stroke-width:0.5;"/><rect fill="#E2E2F0" height="30.2969" rx="2.5" ry="2.5" style="stroke:#181818;stroke-width:0.5;" width="75.8447" x="204.7979" y="50"/><text fill="#000000" font-family="sans-serif" font-size="14" lengthAdjust="spacing" textLength="61.8447" x="211.7979" y="69.9951">Gateway</text><rect fill="#E2E2F0" height="30.2969" rx="2.5" ry="2.5" style="stroke:#181818;stroke-width:0.5;" width="75.8447" x="204.7979" y="303.0938"/><text fill="#000000" font-family="sans-serif" font-size="14" lengthAdjust="spacing" textLength="61.8447" x="211.7979" y="323.0889">Gateway</text><rect fill="#E2E2F0" height="30.2969" rx="2.5" ry="2.5" style="stroke:#181818;stroke-width:0.5;" width="128.1465" x="290.6426" y="50"/><text fill="#000000" font-family="sans-serif" font-size="14" lengthAdjust="spacing" textLength="114.1465" x="297.6426" y="69.9951">SeckillController</text><rect fill="#E2E2F0" height="30.2969" rx="2.5" ry="2.5" style="stroke:#181818;stroke-width:0.5;" width="128.1465" x="290.6426" y="303.0938"/><text fill="#000000" font-family="sans-serif" font-size="14" lengthAdjust="spacing" textLength="114.1465" x="297.6426" y="323.0889">SeckillController</text><rect fill="#E2E2F0" height="30.2969" rx="2.5" ry="2.5" style="stroke:#181818;stroke-width:0.5;" width="164.0215" x="439.6035" y="50"/><text fill="#000000" font-family="sans-serif" font-size="14" lengthAdjust="spacing" textLength="150.0215" x="446.6035" y="69.9951">SeckillActServiceImpl</text><rect fill="#E2E2F0" height="30.2969" rx="2.5" ry="2.5" style="stroke:#181818;stroke-width:0.5;" width="164.0215" x="439.6035" y="303.0938"/><text fill="#000000" font-family="sans-serif" font-size="14" lengthAdjust="spacing" textLength="150.0215" x="446.6035" y="323.0889">SeckillActServiceImpl</text><text fill="#000000" font-family="sans-serif" font-size="14" lengthAdjust="spacing" textLength="48.0703" x="632.875" y="77.9951">MySQL</text><path d="M641.9102,29 C641.9102,19 659.9102,19 659.9102,19 C659.9102,19 677.9102,19 677.9102,29 L677.9102,55 C677.9102,65 659.9102,65 659.9102,65 C659.9102,65 641.9102,65 641.9102,55 L641.9102,29 " fill="#E2E2F0" style="stroke:#181818;stroke-width:1.5;"/><path d="M641.9102,29 C641.9102,39 659.9102,39 659.9102,39 C659.9102,39 677.9102,39 677.9102,29 " fill="none" style="stroke:#181818;stroke-width:1.5;"/><text fill="#000000" font-family="sans-serif" font-size="14" lengthAdjust="spacing" textLength="48.0703" x="632.875" y="316.0889">MySQL</text><path d="M641.9102,329.3906 C641.9102,319.3906 659.9102,319.3906 659.9102,319.3906 C659.9102,319.3906 677.9102,319.3906 677.9102,329.3906 L677.9102,355.3906 C677.9102,365.3906 659.9102,365.3906 659.9102,365.3906 C659.9102,365.3906 641.9102,365.3906 641.9102,355.3906 L641.9102,329.3906 " fill="#E2E2F0" style="stroke:#181818;stroke-width:1.5;"/><path d="M641.9102,329.3906 C641.9102,339.3906 659.9102,339.3906 659.9102,339.3906 C659.9102,339.3906 677.9102,339.3906 677.9102,329.3906 " fill="none" style="stroke:#181818;stroke-width:1.5;"/><polygon fill="#181818" points="230.7202,108.4297,240.7202,112.4297,230.7202,116.4297,234.7202,112.4297" style="stroke:#181818;stroke-width:1.0;"/><line style="stroke:#181818;stroke-width:1.0;" x1="22" x2="236.7202" y1="112.4297" y2="112.4297"/><text fill="#000000" font-family="sans-serif" font-size="13" lengthAdjust="spacing" textLength="196.7202" x="29" y="107.3638">1 GET /api/seckill/activity/{id}</text><polygon fill="#181818" points="342.7158,137.5625,352.7158,141.5625,342.7158,145.5625,346.7158,141.5625" style="stroke:#181818;stroke-width:1.0;"/><line style="stroke:#181818;stroke-width:1.0;" x1="242.7202" x2="348.7158" y1="141.5625" y2="141.5625"/><text fill="#000000" font-family="sans-serif" font-size="13" lengthAdjust="spacing" textLength="63.0322" x="249.7202" y="136.4966">2 JWT&#25918;&#34892;</text><polygon fill="#181818" points="509.6143,166.6953,519.6143,170.6953,509.6143,174.6953,513.6143,170.6953" style="stroke:#181818;stroke-width:1.0;"/><line style="stroke:#181818;stroke-width:1.0;" x1="354.7158" x2="515.6143" y1="170.6953" y2="170.6953"/><text fill="#000000" font-family="sans-serif" font-size="13" lengthAdjust="spacing" textLength="142.8984" x="361.7158" y="165.6294">3 getActivityDetail(id)</text><polygon fill="#181818" points="647.9102,195.8281,657.9102,199.8281,647.9102,203.8281,651.9102,199.8281" style="stroke:#181818;stroke-width:1.0;"/><line style="stroke:#181818;stroke-width:1.0;" x1="521.6143" x2="653.9102" y1="199.8281" y2="199.8281"/><text fill="#000000" font-family="sans-serif" font-size="13" lengthAdjust="spacing" textLength="114.2959" x="528.6143" y="194.7622">4 &#26597;&#27963;&#21160;+&#20851;&#32852;&#21830;&#21697;</text><polygon fill="#181818" points="532.6143,209.8281,522.6143,213.8281,532.6143,217.8281,528.6143,213.8281" style="stroke:#181818;stroke-width:1.0;"/><line style="stroke:#181818;stroke-width:1.0;stroke-dasharray:2.0,2.0;" x1="526.6143" x2="658.9102" y1="213.8281" y2="213.8281"/><polygon fill="#181818" points="365.7158,238.9609,355.7158,242.9609,365.7158,246.9609,361.7158,242.9609" style="stroke:#181818;stroke-width:1.0;"/><line style="stroke:#181818;stroke-width:1.0;stroke-dasharray:2.0,2.0;" x1="359.7158" x2="520.6143" y1="242.9609" y2="242.9609"/><text fill="#000000" font-family="sans-serif" font-size="13" lengthAdjust="spacing" textLength="118.6694" x="371.7158" y="237.895">5 ActivityDetailVO</text><polygon fill="#181818" points="253.7202,252.9609,243.7202,256.9609,253.7202,260.9609,249.7202,256.9609" style="stroke:#181818;stroke-width:1.0;"/><line style="stroke:#181818;stroke-width:1.0;stroke-dasharray:2.0,2.0;" x1="247.7202" x2="353.7158" y1="256.9609" y2="256.9609"/><polygon fill="#181818" points="33,282.0938,23,286.0938,33,290.0938,29,286.0938" style="stroke:#181818;stroke-width:1.0;"/><line style="stroke:#181818;stroke-width:1.0;stroke-dasharray:2.0,2.0;" x1="27" x2="241.7202" y1="286.0938" y2="286.0938"/><text fill="#000000" font-family="sans-serif" font-size="13" lengthAdjust="spacing" textLength="151.4106" x="39" y="281.0278">6 {code:0, data:detail}</text><!--SRC=[ROzFIyD04CNl-oc6dXGjyVzX3q9HAOeYagBdoUuI5jScRCQ4K7heGH7nPdeM3qBl2Xu4lqrYFuRPf0W5RyEytxpt1WL55dwAMVNm2PZ0RQ8iYz6I5Zh68K4VIMMOEotCbfIEhyIrDkOW6fADZ56suoX1rlpBzGJvogPQgEERs3HiaWecaJ30HC5Pxb-SkgqC67CzeBjVPtBOXFxH03oCjPUqLXuAqgcct1jfEMPXvb0Np64BJgu6LV4zVtrYRkEKEeR3DeIAUekxGqMepOgMgwmM7IC33ZjGlRnL7r_busojl7kVJufoUby-JvWCeDlwjFXVsYuiErwUBqARwasnUdBFSDY3aOYauXlhu7xcihaO_m80]--></g></svg>