<svg xmlns="http://www.w3.org/2000/svg" xmlns:xlink="http://www.w3.org/1999/xlink" contentStyleType="text/css" height="414px" preserveAspectRatio="none" style="width:894px;height:414px;background:#FFFFFF;" version="1.1" viewBox="0 0 894 414" width="894px" zoomAndPan="magnify"><defs/><g><line style="stroke:#181818;stroke-width:0.5;stroke-dasharray:5.0,5.0;" x1="22" x2="22" y1="81.2969" y2="333.2266"/><line style="stroke:#181818;stroke-width:0.5;stroke-dasharray:5.0,5.0;" x1="189.582" x2="189.582" y1="81.2969" y2="333.2266"/><line style="stroke:#181818;stroke-width:0.5;stroke-dasharray:5.0,5.0;" x1="373.1431" x2="373.1431" y1="81.2969" y2="333.2266"/><line style="stroke:#181818;stroke-width:0.5;stroke-dasharray:5.0,5.0;" x1="577.1753" x2="577.1753" y1="81.2969" y2="333.2266"/><line style="stroke:#181818;stroke-width:0.5;stroke-dasharray:5.0,5.0;" x1="773.2432" x2="773.2432" y1="81.2969" y2="333.2266"/><line style="stroke:#181818;stroke-width:0.5;stroke-dasharray:5.0,5.0;" x1="859.9541" x2="859.9541" y1="81.2969" y2="333.2266"/><text fill="#000000" font-family="sans-serif" font-size="14" lengthAdjust="spacing" textLength="28" x="5" y="77.9951">&#29992;&#25143;</text><ellipse cx="22" cy="13.5" fill="#E2E2F0" rx="8" ry="8" style="stroke:#181818;stroke-width:0.5;"/><path d="M22,21.5 L22,48.5 M9,29.5 L35,29.5 M22,48.5 L9,63.5 M22,48.5 L35,63.5 " fill="none" style="stroke:#181818;stroke-width:0.5;"/><text fill="#000000" font-family="sans-serif" font-size="14" lengthAdjust="spacing" textLength="28" x="5" y="345.2217">&#29992;&#25143;</text><ellipse cx="22" cy="357.0234" fill="#E2E2F0" rx="8" ry="8" style="stroke:#181818;stroke-width:0.5;"/><path d="M22,365.0234 L22,392.0234 M9,373.0234 L35,373.0234 M22,392.0234 L9,407.0234 M22,392.0234 L35,407.0234 " fill="none" style="stroke:#181818;stroke-width:0.5;"/><rect fill="#E2E2F0" height="30.2969" rx="2.5" ry="2.5" style="stroke:#181818;stroke-width:0.5;" width="75.8447" x="152.582" y="50"/><text fill="#000000" font-family="sans-serif" font-size="14" lengthAdjust="spacing" textLength="61.8447" x="159.582" y="69.9951">Gateway</text><rect fill="#E2E2F0" height="30.2969" rx="2.5" ry="2.5" style="stroke:#181818;stroke-width:0.5;" width="75.8447" x="152.582" y="332.2266"/><text fill="#000000" font-family="sans-serif" font-size="14" lengthAdjust="spacing" textLength="61.8447" x="159.582" y="352.2217">Gateway</text><rect fill="#E2E2F0" height="30.2969" rx="2.5" ry="2.5" style="stroke:#181818;stroke-width:0.5;" width="115.083" x="316.1431" y="50"/><text fill="#000000" font-family="sans-serif" font-size="14" lengthAdjust="spacing" textLength="101.083" x="323.1431" y="69.9951">UserController</text><rect fill="#E2E2F0" height="30.2969" rx="2.5" ry="2.5" style="stroke:#181818;stroke-width:0.5;" width="115.083" x="316.1431" y="332.2266"/><text fill="#000000" font-family="sans-serif" font-size="14" lengthAdjust="spacing" textLength="101.083" x="323.1431" y="352.2217">UserController</text><rect fill="#E2E2F0" height="30.2969" rx="2.5" ry="2.5" style="stroke:#181818;stroke-width:0.5;" width="128.1943" x="513.1753" y="50"/><text fill="#000000" font-family="sans-serif" font-size="14" lengthAdjust="spacing" textLength="114.1943" x="520.1753" y="69.9951">UserServiceImpl</text><rect fill="#E2E2F0" height="30.2969" rx="2.5" ry="2.5" style="stroke:#181818;stroke-width:0.5;" width="128.1943" x="513.1753" y="332.2266"/><text fill="#000000" font-family="sans-serif" font-size="14" lengthAdjust="spacing" textLength="114.1943" x="520.1753" y="352.2217">UserServiceImpl</text><rect fill="#E2E2F0" height="30.2969" rx="2.5" ry="2.5" style="stroke:#181818;stroke-width:0.5;" width="98.7109" x="724.2432" y="50"/><text fill="#000000" font-family="sans-serif" font-size="14" lengthAdjust="spacing" textLength="84.7109" x="731.2432" y="69.9951">UserMapper</text><rect fill="#E2E2F0" height="30.2969" rx="2.5" ry="2.5" style="stroke:#181818;stroke-width:0.5;" width="98.7109" x="724.2432" y="332.2266"/><text fill="#000000" font-family="sans-serif" font-size="14" lengthAdjust="spacing" textLength="84.7109" x="731.2432" y="352.2217">UserMapper</text><text fill="#000000" font-family="sans-serif" font-size="14" lengthAdjust="spacing" textLength="48.0703" x="832.9541" y="77.9951">MySQL</text><path d="M841.9893,29 C841.9893,19 859.9893,19 859.9893,19 C859.9893,19 877.9893,19 877.9893,29 L877.9893,55 C877.9893,65 859.9893,65 859.9893,65 C859.9893,65 841.9893,65 841.9893,55 L841.9893,29 " fill="#E2E2F0" style="stroke:#181818;stroke-width:1.5;"/><path d="M841.9893,29 C841.9893,39 859.9893,39 859.9893,39 C859.9893,39 877.9893,39 877.9893,29 " fill="none" style="stroke:#181818;stroke-width:1.5;"/><text fill="#000000" font-family="sans-serif" font-size="14" lengthAdjust="spacing" textLength="48.0703" x="832.9541" y="345.2217">MySQL</text><path d="M841.9893,358.5234 C841.9893,348.5234 859.9893,348.5234 859.9893,348.5234 C859.9893,348.5234 877.9893,348.5234 877.9893,358.5234 L877.9893,384.5234 C877.9893,394.5234 859.9893,394.5234 859.9893,394.5234 C859.9893,394.5234 841.9893,394.5234 841.9893,384.5234 L841.9893,358.5234 " fill="#E2E2F0" style="stroke:#181818;stroke-width:1.5;"/><path d="M841.9893,358.5234 C841.9893,368.5234 859.9893,368.5234 859.9893,368.5234 C859.9893,368.5234 877.9893,368.5234 877.9893,358.5234 " fill="none" style="stroke:#181818;stroke-width:1.5;"/><polygon fill="#181818" points="178.5044,123.5625,188.5044,127.5625,178.5044,131.5625,182.5044,127.5625" style="stroke:#181818;stroke-width:1.0;"/><line style="stroke:#181818;stroke-width:1.0;" x1="22" x2="184.5044" y1="127.5625" y2="127.5625"/><text fill="#000000" font-family="sans-serif" font-size="13" lengthAdjust="spacing" textLength="144.5044" x="29" y="107.3638">1 PUT /api/user/profile</text><text fill="#000000" font-family="sans-serif" font-size="13" lengthAdjust="spacing" textLength="124.0522" x="29" y="122.4966">{nickname, email}</text><polygon fill="#181818" points="361.6846,152.6953,371.6846,156.6953,361.6846,160.6953,365.6846,156.6953" style="stroke:#181818;stroke-width:1.0;"/><line style="stroke:#181818;stroke-width:1.0;" x1="190.5044" x2="367.6846" y1="156.6953" y2="156.6953"/><text fill="#000000" font-family="sans-serif" font-size="13" lengthAdjust="spacing" textLength="159.1802" x="197.5044" y="151.6294">2 JWT&#35748;&#35777;(&#36879;&#20256;X-User-Id)</text><polygon fill="#181818" points="565.2725,181.8281,575.2725,185.8281,565.2725,189.8281,569.2725,185.8281" style="stroke:#181818;stroke-width:1.0;"/><line style="stroke:#181818;stroke-width:1.0;" x1="373.6846" x2="571.2725" y1="185.8281" y2="185.8281"/><text fill="#000000" font-family="sans-serif" font-size="13" lengthAdjust="spacing" textLength="179.5879" x="380.6846" y="180.7622">3 updateProfile(userId, req)</text><polygon fill="#181818" points="761.5986,210.9609,771.5986,214.9609,761.5986,218.9609,765.5986,214.9609" style="stroke:#181818;stroke-width:1.0;"/><line style="stroke:#181818;stroke-width:1.0;" x1="577.2725" x2="767.5986" y1="214.9609" y2="214.9609"/><text fill="#000000" font-family="sans-serif" font-size="13" lengthAdjust="spacing" textLength="172.3262" x="584.2725" y="209.895">4 UPDATE nickname,email</text><polygon fill="#181818" points="847.9893,224.9609,857.9893,228.9609,847.9893,232.9609,851.9893,228.9609" style="stroke:#181818;stroke-width:1.0;"/><line style="stroke:#181818;stroke-width:1.0;" x1="773.5986" x2="853.9893" y1="228.9609" y2="228.9609"/><polygon fill="#181818" points="784.5986,238.9609,774.5986,242.9609,784.5986,246.9609,780.5986,242.9609" style="stroke:#181818;stroke-width:1.0;"/><line style="stroke:#181818;stroke-width:1.0;stroke-dasharray:2.0,2.0;" x1="778.5986" x2="858.9893" y1="242.9609" y2="242.9609"/><polygon fill="#181818" points="384.6846,268.0938,374.6846,272.0938,384.6846,276.0938,380.6846,272.0938" style="stroke:#181818;stroke-width:1.0;"/><line style="stroke:#181818;stroke-width:1.0;stroke-dasharray:2.0,2.0;" x1="378.6846" x2="576.2725" y1="272.0938" y2="272.0938"/><text fill="#000000" font-family="sans-serif" font-size="13" lengthAdjust="spacing" textLength="63.2544" x="390.6846" y="267.0278">5 success</text><polygon fill="#181818" points="201.5044,282.0938,191.5044,286.0938,201.5044,290.0938,197.5044,286.0938" style="stroke:#181818;stroke-width:1.0;"/><line style="stroke:#181818;stroke-width:1.0;stroke-dasharray:2.0,2.0;" x1="195.5044" x2="372.6846" y1="286.0938" y2="286.0938"/><polygon fill="#181818" points="33,311.2266,23,315.2266,33,319.2266,29,315.2266" style="stroke:#181818;stroke-width:1.0;"/><line style="stroke:#181818;stroke-width:1.0;stroke-dasharray:2.0,2.0;" x1="27" x2="189.5044" y1="315.2266" y2="315.2266"/><text fill="#000000" font-family="sans-serif" font-size="13" lengthAdjust="spacing" textLength="72.9473" x="39" y="310.1606">6 {code:0}</text><!--SRC=[POyzImD148Rx_HL3gWHodD_55OAeo8c1I1Aqi9dR6yFYVQoxcuGG0jhPsVW3B2oijBJnvuZ6V-7ENGX8kc7VP-Pz5gKh3VmylNu_V01Q65aoGgDnIYgDXOCJT3J1AMV3oR-aCV3iOLauKsOPcGOZqfbi7UgH6Ij9SQwpYh9ZkGvrKElbbRmQHOeE4xG4dMdl_8o3D1623I7OzpOHR49tq8SGjGhvETIcl5OPNHMpGicR0dDg0-MeihaOJdY9_IBOWjEB_kBjPV5-t_ozU_pwVBuCM268qvPWX54l6S4sZBJNe6vzkCajSTe6GxSjuGa6Qzi8Tc3GFJhe7yEgkweMTSwarqyJ25OxzOMLrYxOaPHaxTAX-cGbxYTkZc0FPh9CATgO_m40]--></g></svg>