<svg xmlns="http://www.w3.org/2000/svg" xmlns:xlink="http://www.w3.org/1999/xlink" contentStyleType="text/css" height="967px" preserveAspectRatio="none" style="width:848px;height:967px;background:#FFFFFF;" version="1.1" viewBox="0 0 848 967" width="848px" zoomAndPan="magnify"><defs/><g><rect fill="none" height="59.2656" style="stroke:#000000;stroke-width:1.5;" width="183.2959" x="482.0073" y="243.9609"/><rect fill="none" height="46.2656" style="stroke:#000000;stroke-width:1.5;" width="348.9961" x="482.0073" y="793.9531"/><line style="stroke:#181818;stroke-width:0.5;stroke-dasharray:5.0,5.0;" x1="22" x2="22" y1="81.2969" y2="886.3516"/><line style="stroke:#181818;stroke-width:0.5;stroke-dasharray:5.0,5.0;" x1="240.6045" x2="240.6045" y1="81.2969" y2="886.3516"/><line style="stroke:#181818;stroke-width:0.5;stroke-dasharray:5.0,5.0;" x1="379.6094" x2="379.6094" y1="81.2969" y2="886.3516"/><line style="stroke:#181818;stroke-width:0.5;stroke-dasharray:5.0,5.0;" x1="568.0073" x2="568.0073" y1="81.2969" y2="886.3516"/><line style="stroke:#181818;stroke-width:0.5;stroke-dasharray:5.0,5.0;" x1="793.9331" x2="793.9331" y1="81.2969" y2="886.3516"/><text fill="#000000" font-family="sans-serif" font-size="14" lengthAdjust="spacing" textLength="28" x="5" y="77.9951">&#29992;&#25143;</text><ellipse cx="22" cy="13.5" fill="#E2E2F0" rx="8" ry="8" style="stroke:#181818;stroke-width:0.5;"/><path d="M22,21.5 L22,48.5 M9,29.5 L35,29.5 M22,48.5 L9,63.5 M22,48.5 L35,63.5 " fill="none" style="stroke:#181818;stroke-width:0.5;"/><text fill="#000000" font-family="sans-serif" font-size="14" lengthAdjust="spacing" textLength="28" x="5" y="898.3467">&#29992;&#25143;</text><ellipse cx="22" cy="910.1484" fill="#E2E2F0" rx="8" ry="8" style="stroke:#181818;stroke-width:0.5;"/><path d="M22,918.1484 L22,945.1484 M9,926.1484 L35,926.1484 M22,945.1484 L9,960.1484 M22,945.1484 L35,960.1484 " fill="none" style="stroke:#181818;stroke-width:0.5;"/><rect fill="#E2E2F0" height="30.2969" rx="2.5" ry="2.5" style="stroke:#181818;stroke-width:0.5;" width="75.8447" x="203.6045" y="50"/><text fill="#000000" font-family="sans-serif" font-size="14" lengthAdjust="spacing" textLength="61.8447" x="210.6045" y="69.9951">Gateway</text><rect fill="#E2E2F0" height="30.2969" rx="2.5" ry="2.5" style="stroke:#181818;stroke-width:0.5;" width="75.8447" x="203.6045" y="885.3516"/><text fill="#000000" font-family="sans-serif" font-size="14" lengthAdjust="spacing" textLength="61.8447" x="210.6045" y="905.3467">Gateway</text><rect fill="#E2E2F0" height="30.2969" rx="2.5" ry="2.5" style="stroke:#181818;stroke-width:0.5;" width="139.4805" x="310.6094" y="50"/><text fill="#000000" font-family="sans-serif" font-size="14" lengthAdjust="spacing" textLength="125.4805" x="317.6094" y="69.9951">AddressController</text><rect fill="#E2E2F0" height="30.2969" rx="2.5" ry="2.5" style="stroke:#181818;stroke-width:0.5;" width="139.4805" x="310.6094" y="885.3516"/><text fill="#000000" font-family="sans-serif" font-size="14" lengthAdjust="spacing" textLength="125.4805" x="317.6094" y="905.3467">AddressController</text><rect fill="#E2E2F0" height="30.2969" rx="2.5" ry="2.5" style="stroke:#181818;stroke-width:0.5;" width="152.5918" x="492.0073" y="50"/><text fill="#000000" font-family="sans-serif" font-size="14" lengthAdjust="spacing" textLength="138.5918" x="499.0073" y="69.9951">AddressServiceImpl</text><rect fill="#E2E2F0" height="30.2969" rx="2.5" ry="2.5" style="stroke:#181818;stroke-width:0.5;" width="152.5918" x="492.0073" y="885.3516"/><text fill="#000000" font-family="sans-serif" font-size="14" lengthAdjust="spacing" textLength="138.5918" x="499.0073" y="905.3467">AddressServiceImpl</text><text fill="#000000" font-family="sans-serif" font-size="14" lengthAdjust="spacing" textLength="48.0703" x="766.9331" y="77.9951">MySQL</text><path d="M775.9683,29 C775.9683,19 793.9683,19 793.9683,19 C793.9683,19 811.9683,19 811.9683,29 L811.9683,55 C811.9683,65 793.9683,65 793.9683,65 C793.9683,65 775.9683,65 775.9683,55 L775.9683,29 " fill="#E2E2F0" style="stroke:#181818;stroke-width:1.5;"/><path d="M775.9683,29 C775.9683,39 793.9683,39 793.9683,39 C793.9683,39 811.9683,39 811.9683,29 " fill="none" style="stroke:#181818;stroke-width:1.5;"/><text fill="#000000" font-family="sans-serif" font-size="14" lengthAdjust="spacing" textLength="48.0703" x="766.9331" y="898.3467">MySQL</text><path d="M775.9683,911.6484 C775.9683,901.6484 793.9683,901.6484 793.9683,901.6484 C793.9683,901.6484 811.9683,901.6484 811.9683,911.6484 L811.9683,937.6484 C811.9683,947.6484 793.9683,947.6484 793.9683,947.6484 C793.9683,947.6484 775.9683,947.6484 775.9683,937.6484 L775.9683,911.6484 " fill="#E2E2F0" style="stroke:#181818;stroke-width:1.5;"/><path d="M775.9683,911.6484 C775.9683,921.6484 793.9683,921.6484 793.9683,921.6484 C793.9683,921.6484 811.9683,921.6484 811.9683,911.6484 " fill="none" style="stroke:#181818;stroke-width:1.5;"/><rect fill="#EEEEEE" height="3" style="stroke:#EEEEEE;stroke-width:1.0;" width="841.0034" x="0" y="111.8633"/><line style="stroke:#000000;stroke-width:1.0;" x1="0" x2="841.0034" y1="111.8633" y2="111.8633"/><line style="stroke:#000000;stroke-width:1.0;" x1="0" x2="841.0034" y1="114.8633" y2="114.8633"/><rect fill="#EEEEEE" height="23.1328" style="stroke:#000000;stroke-width:2.0;" width="72.1509" x="384.4263" y="101.2969"/><text fill="#000000" font-family="sans-serif" font-size="13" font-weight="bold" lengthAdjust="spacing" textLength="53.625" x="390.4263" y="117.3638">&#26032;&#22686;&#22320;&#22336;</text><polygon fill="#181818" points="229.5269,166.6953,239.5269,170.6953,229.5269,174.6953,233.5269,170.6953" style="stroke:#181818;stroke-width:1.0;"/><line style="stroke:#181818;stroke-width:1.0;" x1="22" x2="235.5269" y1="170.6953" y2="170.6953"/><text fill="#000000" font-family="sans-serif" font-size="13" lengthAdjust="spacing" textLength="118.3457" x="29" y="150.4966">POST /api/address</text><text fill="#000000" font-family="sans-serif" font-size="13" lengthAdjust="spacing" textLength="195.5269" x="29" y="165.6294">{receiver, phone, province...}</text><polygon fill="#181818" points="368.3496,195.8281,378.3496,199.8281,368.3496,203.8281,372.3496,199.8281" style="stroke:#181818;stroke-width:1.0;"/><line style="stroke:#181818;stroke-width:1.0;" x1="241.5269" x2="374.3496" y1="199.8281" y2="199.8281"/><text fill="#000000" font-family="sans-serif" font-size="13" lengthAdjust="spacing" textLength="50.6289" x="248.5269" y="194.7622">JWT&#35748;&#35777;</text><polygon fill="#181818" points="556.3032,224.9609,566.3032,228.9609,556.3032,232.9609,560.3032,228.9609" style="stroke:#181818;stroke-width:1.0;"/><line style="stroke:#181818;stroke-width:1.0;" x1="380.3496" x2="562.3032" y1="228.9609" y2="228.9609"/><text fill="#000000" font-family="sans-serif" font-size="13" lengthAdjust="spacing" textLength="157.1997" x="387.3496" y="223.895">addAddress(userId, req)</text><path d="M482.0073,243.9609 L546.4502,243.9609 L546.4502,251.0938 L536.4502,261.0938 L482.0073,261.0938 L482.0073,243.9609 " fill="#EEEEEE" style="stroke:#000000;stroke-width:1.5;"/><rect fill="none" height="59.2656" style="stroke:#000000;stroke-width:1.5;" width="183.2959" x="482.0073" y="243.9609"/><text fill="#000000" font-family="sans-serif" font-size="13" font-weight="bold" lengthAdjust="spacing" textLength="19.4429" x="497.0073" y="257.0278">alt</text><text fill="#000000" font-family="sans-serif" font-size="11" font-weight="bold" lengthAdjust="spacing" textLength="66.7734" x="561.4502" y="256.1714">[&#31532;&#19968;&#20010;&#22320;&#22336;]</text><line style="stroke:#181818;stroke-width:1.0;" x1="568.3032" x2="610.3032" y1="282.2266" y2="282.2266"/><line style="stroke:#181818;stroke-width:1.0;" x1="610.3032" x2="610.3032" y1="282.2266" y2="295.2266"/><line style="stroke:#181818;stroke-width:1.0;" x1="569.3032" x2="610.3032" y1="295.2266" y2="295.2266"/><polygon fill="#181818" points="579.3032,291.2266,569.3032,295.2266,579.3032,299.2266,575.3032,295.2266" style="stroke:#181818;stroke-width:1.0;"/><text fill="#000000" font-family="sans-serif" font-size="13" lengthAdjust="spacing" textLength="78" x="575.3032" y="277.1606">&#33258;&#21160;&#35774;&#20026;&#40664;&#35748;</text><polygon fill="#181818" points="781.9683,327.3594,791.9683,331.3594,781.9683,335.3594,785.9683,331.3594" style="stroke:#181818;stroke-width:1.0;"/><line style="stroke:#181818;stroke-width:1.0;" x1="568.3032" x2="787.9683" y1="331.3594" y2="331.3594"/><text fill="#000000" font-family="sans-serif" font-size="13" lengthAdjust="spacing" textLength="46.998" x="575.3032" y="326.2935">INSERT</text><polygon fill="#181818" points="579.3032,341.3594,569.3032,345.3594,579.3032,349.3594,575.3032,345.3594" style="stroke:#181818;stroke-width:1.0;"/><line style="stroke:#181818;stroke-width:1.0;stroke-dasharray:2.0,2.0;" x1="573.3032" x2="792.9683" y1="345.3594" y2="345.3594"/><polygon fill="#181818" points="252.5269,370.4922,242.5269,374.4922,252.5269,378.4922,248.5269,374.4922" style="stroke:#181818;stroke-width:1.0;"/><line style="stroke:#181818;stroke-width:1.0;stroke-dasharray:2.0,2.0;" x1="246.5269" x2="379.3496" y1="374.4922" y2="374.4922"/><text fill="#000000" font-family="sans-serif" font-size="13" lengthAdjust="spacing" textLength="114.8228" x="258.5269" y="369.4263">Result&lt;Address&gt;</text><polygon fill="#181818" points="33,384.4922,23,388.4922,33,392.4922,29,388.4922" style="stroke:#181818;stroke-width:1.0;"/><line style="stroke:#181818;stroke-width:1.0;stroke-dasharray:2.0,2.0;" x1="27" x2="240.5269" y1="388.4922" y2="388.4922"/><rect fill="#EEEEEE" height="3" style="stroke:#EEEEEE;stroke-width:1.0;" width="841.0034" x="0" y="417.0586"/><line style="stroke:#000000;stroke-width:1.0;" x1="0" x2="841.0034" y1="417.0586" y2="417.0586"/><line style="stroke:#000000;stroke-width:1.0;" x1="0" x2="841.0034" y1="420.0586" y2="420.0586"/><rect fill="#EEEEEE" height="23.1328" style="stroke:#000000;stroke-width:2.0;" width="72.1509" x="384.4263" y="406.4922"/><text fill="#000000" font-family="sans-serif" font-size="13" font-weight="bold" lengthAdjust="spacing" textLength="53.625" x="390.4263" y="422.5591">&#35774;&#20026;&#40664;&#35748;</text><polygon fill="#181818" points="229.5269,456.7578,239.5269,460.7578,229.5269,464.7578,233.5269,460.7578" style="stroke:#181818;stroke-width:1.0;"/><line style="stroke:#181818;stroke-width:1.0;" x1="22" x2="235.5269" y1="460.7578" y2="460.7578"/><text fill="#000000" font-family="sans-serif" font-size="13" lengthAdjust="spacing" textLength="192.2832" x="29" y="455.6919">PUT /api/address/{id}/default</text><polygon fill="#181818" points="368.3496,485.8906,378.3496,489.8906,368.3496,493.8906,372.3496,489.8906" style="stroke:#181818;stroke-width:1.0;"/><line style="stroke:#181818;stroke-width:1.0;" x1="241.5269" x2="374.3496" y1="489.8906" y2="489.8906"/><text fill="#000000" font-family="sans-serif" font-size="13" lengthAdjust="spacing" textLength="50.6289" x="248.5269" y="484.8247">JWT&#35748;&#35777;</text><polygon fill="#181818" points="556.3032,515.0234,566.3032,519.0234,556.3032,523.0234,560.3032,519.0234" style="stroke:#181818;stroke-width:1.0;"/><line style="stroke:#181818;stroke-width:1.0;" x1="380.3496" x2="562.3032" y1="519.0234" y2="519.0234"/><text fill="#000000" font-family="sans-serif" font-size="13" lengthAdjust="spacing" textLength="138.0806" x="387.3496" y="513.9575">setDefault(userId, id)</text><polygon fill="#181818" points="781.9683,544.1563,791.9683,548.1563,781.9683,552.1563,785.9683,548.1563" style="stroke:#181818;stroke-width:1.0;"/><line style="stroke:#181818;stroke-width:1.0;" x1="568.3032" x2="787.9683" y1="548.1563" y2="548.1563"/><text fill="#000000" font-family="sans-serif" font-size="13" lengthAdjust="spacing" textLength="134.1323" x="575.3032" y="543.0903">&#28165;&#38500;&#21407;&#40664;&#35748; &#35774;&#20026;&#26032;&#40664;&#35748;</text><polygon fill="#181818" points="579.3032,558.1563,569.3032,562.1563,579.3032,566.1563,575.3032,562.1563" style="stroke:#181818;stroke-width:1.0;"/><line style="stroke:#181818;stroke-width:1.0;stroke-dasharray:2.0,2.0;" x1="573.3032" x2="792.9683" y1="562.1563" y2="562.1563"/><polygon fill="#181818" points="252.5269,572.1563,242.5269,576.1563,252.5269,580.1563,248.5269,576.1563" style="stroke:#181818;stroke-width:1.0;"/><line style="stroke:#181818;stroke-width:1.0;stroke-dasharray:2.0,2.0;" x1="246.5269" x2="379.3496" y1="576.1563" y2="576.1563"/><polygon fill="#181818" points="33,601.2891,23,605.2891,33,609.2891,29,605.2891" style="stroke:#181818;stroke-width:1.0;"/><line style="stroke:#181818;stroke-width:1.0;stroke-dasharray:2.0,2.0;" x1="27" x2="240.5269" y1="605.2891" y2="605.2891"/><text fill="#000000" font-family="sans-serif" font-size="13" lengthAdjust="spacing" textLength="60.5439" x="39" y="600.2231">{code:0}</text><rect fill="#EEEEEE" height="3" style="stroke:#EEEEEE;stroke-width:1.0;" width="841.0034" x="0" y="633.8555"/><line style="stroke:#000000;stroke-width:1.0;" x1="0" x2="841.0034" y1="633.8555" y2="633.8555"/><line style="stroke:#000000;stroke-width:1.0;" x1="0" x2="841.0034" y1="636.8555" y2="636.8555"/><rect fill="#EEEEEE" height="23.1328" style="stroke:#000000;stroke-width:2.0;" width="72.1509" x="384.4263" y="623.2891"/><text fill="#000000" font-family="sans-serif" font-size="13" font-weight="bold" lengthAdjust="spacing" textLength="53.625" x="390.4263" y="639.356">&#21024;&#38500;&#22320;&#22336;</text><polygon fill="#181818" points="229.5269,673.5547,239.5269,677.5547,229.5269,681.5547,233.5269,677.5547" style="stroke:#181818;stroke-width:1.0;"/><line style="stroke:#181818;stroke-width:1.0;" x1="22" x2="235.5269" y1="677.5547" y2="677.5547"/><text fill="#000000" font-family="sans-serif" font-size="13" lengthAdjust="spacing" textLength="166.7021" x="29" y="672.4888">DELETE /api/address/{id}</text><polygon fill="#181818" points="368.3496,702.6875,378.3496,706.6875,368.3496,710.6875,372.3496,706.6875" style="stroke:#181818;stroke-width:1.0;"/><line style="stroke:#181818;stroke-width:1.0;" x1="241.5269" x2="374.3496" y1="706.6875" y2="706.6875"/><text fill="#000000" font-family="sans-serif" font-size="13" lengthAdjust="spacing" textLength="50.6289" x="248.5269" y="701.6216">JWT&#35748;&#35777;</text><polygon fill="#181818" points="556.3032,731.8203,566.3032,735.8203,556.3032,739.8203,560.3032,735.8203" style="stroke:#181818;stroke-width:1.0;"/><line style="stroke:#181818;stroke-width:1.0;" x1="380.3496" x2="562.3032" y1="735.8203" y2="735.8203"/><text fill="#000000" font-family="sans-serif" font-size="13" lengthAdjust="spacing" textLength="163.9536" x="387.3496" y="730.7544">deleteAddress(userId, id)</text><polygon fill="#181818" points="781.9683,760.9531,791.9683,764.9531,781.9683,768.9531,785.9683,764.9531" style="stroke:#181818;stroke-width:1.0;"/><line style="stroke:#181818;stroke-width:1.0;" x1="568.3032" x2="787.9683" y1="764.9531" y2="764.9531"/><text fill="#000000" font-family="sans-serif" font-size="13" lengthAdjust="spacing" textLength="201.665" x="575.3032" y="759.8872">DELETE WHERE id AND user_id</text><polygon fill="#181818" points="579.3032,774.9531,569.3032,778.9531,579.3032,782.9531,575.3032,778.9531" style="stroke:#181818;stroke-width:1.0;"/><line style="stroke:#181818;stroke-width:1.0;stroke-dasharray:2.0,2.0;" x1="573.3032" x2="792.9683" y1="778.9531" y2="778.9531"/><path d="M482.0073,793.9531 L546.4502,793.9531 L546.4502,801.0859 L536.4502,811.0859 L482.0073,811.0859 L482.0073,793.9531 " fill="#EEEEEE" style="stroke:#000000;stroke-width:1.5;"/><rect fill="none" height="46.2656" style="stroke:#000000;stroke-width:1.5;" width="348.9961" x="482.0073" y="793.9531"/><text fill="#000000" font-family="sans-serif" font-size="13" font-weight="bold" lengthAdjust="spacing" textLength="19.4429" x="497.0073" y="807.02">alt</text><text fill="#000000" font-family="sans-serif" font-size="11" font-weight="bold" lengthAdjust="spacing" textLength="89.4609" x="561.4502" y="806.1636">[&#21024;&#30340;&#26159;&#40664;&#35748;&#22320;&#22336;]</text><polygon fill="#181818" points="781.9683,828.2188,791.9683,832.2188,781.9683,836.2188,785.9683,832.2188" style="stroke:#181818;stroke-width:1.0;"/><line style="stroke:#181818;stroke-width:1.0;" x1="568.3032" x2="787.9683" y1="832.2188" y2="832.2188"/><text fill="#000000" font-family="sans-serif" font-size="13" lengthAdjust="spacing" textLength="104" x="575.3032" y="827.1528">&#23558;&#26368;&#36817;&#30340;&#35774;&#20026;&#40664;&#35748;</text><polygon fill="#181818" points="33,864.3516,23,868.3516,33,872.3516,29,868.3516" style="stroke:#181818;stroke-width:1.0;"/><line style="stroke:#181818;stroke-width:1.0;stroke-dasharray:2.0,2.0;" x1="27" x2="240.5269" y1="868.3516" y2="868.3516"/><text fill="#000000" font-family="sans-serif" font-size="13" lengthAdjust="spacing" textLength="60.5439" x="39" y="863.2856">{code:0}</text><!--SRC=[ZP9DI-DG58RtzrSSN8sWxQo35SI6iU9dMt4pCDpc7lL2JEBDjKLAeO9Vk1WO60OLPnHn8IBQtHG5_JDD6l-5zoP1Qjk5gv2SzxpdUSy9jQGheFlx9Zpw3zI7RHy5yQYGtE8UTIHyen9hT4VNrciVAYDJZ0dq_MdNaSArRHGZMcL9OG_LbL1KkOM5JS-EXNxL8enAMg4-mlnEQNbEVsKLGd8v2F-qWgj_mNah-Dk4N8veBXYVL0m6B2sMof2b7i_InFcxKnTe8Q-Y60DlmtLGFOHRvOw5cKocGTPhkbUJ6J2xMexkhwE7NQBVzNS5Oe2oIZc_w5a5DWO2jqO9jILqx-uwxMQdVPlm4D0jxvtHuMrmV1FTFtVQZwzF9ygSeCD8Ac4L0meB9RDO9gm2uqbJEZhDKqH_svOJwVZ9c5QLubFeNVHQ3-nYvUCgidNE6bc6QrHPVYQtZpAVgDzpSpRQIn-szrzFhuEV5ob1WgCEb8OT7gitXG5rosLeV6t4UOAZIsquzBPvSyuicuEHFXE5eOqI-w_OboOTi3fZ5arLWwc5VCpuWxFU9FhiYhDxjXUUF2H1-u-ltOBMGNZUZ5v-AU707p1q0sy0]--></g></svg>