<svg xmlns="http://www.w3.org/2000/svg" xmlns:xlink="http://www.w3.org/1999/xlink" contentStyleType="text/css" height="944px" preserveAspectRatio="none" style="width:797px;height:944px;background:#FFFFFF;" version="1.1" viewBox="0 0 797 944" width="797px" zoomAndPan="magnify"><defs/><g><rect fill="none" height="90.2031" style="stroke:#000000;stroke-width:1.5;" width="335.6421" x="444.7432" y="243.9609"/><rect fill="none" height="77.3984" style="stroke:#000000;stroke-width:1.5;" width="335.6421" x="444.7432" y="550.9609"/><line style="stroke:#181818;stroke-width:0.5;stroke-dasharray:5.0,5.0;" x1="22" x2="22" y1="81.2969" y2="863.2891"/><line style="stroke:#181818;stroke-width:0.5;stroke-dasharray:5.0,5.0;" x1="186.4526" x2="186.4526" y1="81.2969" y2="863.2891"/><line style="stroke:#181818;stroke-width:0.5;stroke-dasharray:5.0,5.0;" x1="291.2974" x2="291.2974" y1="81.2969" y2="863.2891"/><line style="stroke:#181818;stroke-width:0.5;stroke-dasharray:5.0,5.0;" x1="516.7432" x2="516.7432" y1="81.2969" y2="863.2891"/><line style="stroke:#181818;stroke-width:0.5;stroke-dasharray:5.0,5.0;" x1="743.3149" x2="743.3149" y1="81.2969" y2="863.2891"/><text fill="#000000" font-family="sans-serif" font-size="14" lengthAdjust="spacing" textLength="28" x="5" y="77.9951">&#29992;&#25143;</text><ellipse cx="22" cy="13.5" fill="#E2E2F0" rx="8" ry="8" style="stroke:#181818;stroke-width:0.5;"/><path d="M22,21.5 L22,48.5 M9,29.5 L35,29.5 M22,48.5 L9,63.5 M22,48.5 L35,63.5 " fill="none" style="stroke:#181818;stroke-width:0.5;"/><text fill="#000000" font-family="sans-serif" font-size="14" lengthAdjust="spacing" textLength="28" x="5" y="875.2842">&#29992;&#25143;</text><ellipse cx="22" cy="887.0859" fill="#E2E2F0" rx="8" ry="8" style="stroke:#181818;stroke-width:0.5;"/><path d="M22,895.0859 L22,922.0859 M9,903.0859 L35,903.0859 M22,922.0859 L9,937.0859 M22,922.0859 L35,937.0859 " fill="none" style="stroke:#181818;stroke-width:0.5;"/><rect fill="#E2E2F0" height="30.2969" rx="2.5" ry="2.5" style="stroke:#181818;stroke-width:0.5;" width="75.8447" x="149.4526" y="50"/><text fill="#000000" font-family="sans-serif" font-size="14" lengthAdjust="spacing" textLength="61.8447" x="156.4526" y="69.9951">Gateway</text><rect fill="#E2E2F0" height="30.2969" rx="2.5" ry="2.5" style="stroke:#181818;stroke-width:0.5;" width="75.8447" x="149.4526" y="862.2891"/><text fill="#000000" font-family="sans-serif" font-size="14" lengthAdjust="spacing" textLength="61.8447" x="156.4526" y="882.2842">Gateway</text><rect fill="#E2E2F0" height="30.2969" rx="2.5" ry="2.5" style="stroke:#181818;stroke-width:0.5;" width="112.7725" x="235.2974" y="50"/><text fill="#000000" font-family="sans-serif" font-size="14" lengthAdjust="spacing" textLength="98.7725" x="242.2974" y="69.9951">CartController</text><rect fill="#E2E2F0" height="30.2969" rx="2.5" ry="2.5" style="stroke:#181818;stroke-width:0.5;" width="112.7725" x="235.2974" y="862.2891"/><text fill="#000000" font-family="sans-serif" font-size="14" lengthAdjust="spacing" textLength="98.7725" x="242.2974" y="882.2842">CartController</text><rect fill="#E2E2F0" height="30.2969" rx="2.5" ry="2.5" style="stroke:#181818;stroke-width:0.5;" width="125.8838" x="454.7432" y="50"/><text fill="#000000" font-family="sans-serif" font-size="14" lengthAdjust="spacing" textLength="111.8838" x="461.7432" y="69.9951">CartServiceImpl</text><rect fill="#E2E2F0" height="30.2969" rx="2.5" ry="2.5" style="stroke:#181818;stroke-width:0.5;" width="125.8838" x="454.7432" y="862.2891"/><text fill="#000000" font-family="sans-serif" font-size="14" lengthAdjust="spacing" textLength="111.8838" x="461.7432" y="882.2842">CartServiceImpl</text><text fill="#000000" font-family="sans-serif" font-size="14" lengthAdjust="spacing" textLength="48.0703" x="716.3149" y="77.9951">MySQL</text><path d="M725.3501,29 C725.3501,19 743.3501,19 743.3501,19 C743.3501,19 761.3501,19 761.3501,29 L761.3501,55 C761.3501,65 743.3501,65 743.3501,65 C743.3501,65 725.3501,65 725.3501,55 L725.3501,29 " fill="#E2E2F0" style="stroke:#181818;stroke-width:1.5;"/><path d="M725.3501,29 C725.3501,39 743.3501,39 743.3501,39 C743.3501,39 761.3501,39 761.3501,29 " fill="none" style="stroke:#181818;stroke-width:1.5;"/><text fill="#000000" font-family="sans-serif" font-size="14" lengthAdjust="spacing" textLength="48.0703" x="716.3149" y="875.2842">MySQL</text><path d="M725.3501,888.5859 C725.3501,878.5859 743.3501,878.5859 743.3501,878.5859 C743.3501,878.5859 761.3501,878.5859 761.3501,888.5859 L761.3501,914.5859 C761.3501,924.5859 743.3501,924.5859 743.3501,924.5859 C743.3501,924.5859 725.3501,924.5859 725.3501,914.5859 L725.3501,888.5859 " fill="#E2E2F0" style="stroke:#181818;stroke-width:1.5;"/><path d="M725.3501,888.5859 C725.3501,898.5859 743.3501,898.5859 743.3501,898.5859 C743.3501,898.5859 761.3501,898.5859 761.3501,888.5859 " fill="none" style="stroke:#181818;stroke-width:1.5;"/><rect fill="#EEEEEE" height="3" style="stroke:#EEEEEE;stroke-width:1.0;" width="790.3853" x="0" y="111.8633"/><line style="stroke:#000000;stroke-width:1.0;" x1="0" x2="790.3853" y1="111.8633" y2="111.8633"/><line style="stroke:#000000;stroke-width:1.0;" x1="0" x2="790.3853" y1="114.8633" y2="114.8633"/><rect fill="#EEEEEE" height="23.1328" style="stroke:#000000;stroke-width:2.0;" width="45.3384" x="372.5234" y="101.2969"/><text fill="#000000" font-family="sans-serif" font-size="13" font-weight="bold" lengthAdjust="spacing" textLength="26.8125" x="378.5234" y="117.3638">&#28155;&#21152;</text><polygon fill="#181818" points="175.375,166.6953,185.375,170.6953,175.375,174.6953,179.375,170.6953" style="stroke:#181818;stroke-width:1.0;"/><line style="stroke:#181818;stroke-width:1.0;" x1="22" x2="181.375" y1="170.6953" y2="170.6953"/><text fill="#000000" font-family="sans-serif" font-size="13" lengthAdjust="spacing" textLength="121.3926" x="29" y="150.4966">POST /api/cart/add</text><text fill="#000000" font-family="sans-serif" font-size="13" lengthAdjust="spacing" textLength="141.375" x="29" y="165.6294">{productId, quantity}</text><polygon fill="#181818" points="279.6836,195.8281,289.6836,199.8281,279.6836,203.8281,283.6836,199.8281" style="stroke:#181818;stroke-width:1.0;"/><line style="stroke:#181818;stroke-width:1.0;" x1="187.375" x2="285.6836" y1="199.8281" y2="199.8281"/><text fill="#000000" font-family="sans-serif" font-size="13" lengthAdjust="spacing" textLength="50.6289" x="194.375" y="194.7622">JWT&#35748;&#35777;</text><polygon fill="#181818" points="505.6851,224.9609,515.6851,228.9609,505.6851,232.9609,509.6851,228.9609" style="stroke:#181818;stroke-width:1.0;"/><line style="stroke:#181818;stroke-width:1.0;" x1="291.6836" x2="511.6851" y1="228.9609" y2="228.9609"/><text fill="#000000" font-family="sans-serif" font-size="13" lengthAdjust="spacing" textLength="132.3994" x="298.6836" y="223.895">addCart(userId, req)</text><path d="M444.7432,243.9609 L509.186,243.9609 L509.186,251.0938 L499.186,261.0938 L444.7432,261.0938 L444.7432,243.9609 " fill="#EEEEEE" style="stroke:#000000;stroke-width:1.5;"/><rect fill="none" height="90.2031" style="stroke:#000000;stroke-width:1.5;" width="335.6421" x="444.7432" y="243.9609"/><text fill="#000000" font-family="sans-serif" font-size="13" font-weight="bold" lengthAdjust="spacing" textLength="19.4429" x="459.7432" y="257.0278">alt</text><text fill="#000000" font-family="sans-serif" font-size="11" font-weight="bold" lengthAdjust="spacing" textLength="44.0859" x="524.186" y="256.1714">[&#24050;&#23384;&#22312;]</text><polygon fill="#181818" points="731.3501,278.2266,741.3501,282.2266,731.3501,286.2266,735.3501,282.2266" style="stroke:#181818;stroke-width:1.0;"/><line style="stroke:#181818;stroke-width:1.0;" x1="517.6851" x2="737.3501" y1="282.2266" y2="282.2266"/><text fill="#000000" font-family="sans-serif" font-size="13" lengthAdjust="spacing" textLength="194.9619" x="524.6851" y="277.1606">UPDATE quantity=quantity+n</text><line style="stroke:#000000;stroke-width:1.0;stroke-dasharray:2.0,2.0;" x1="444.7432" x2="780.3853" y1="291.2266" y2="291.2266"/><text fill="#000000" font-family="sans-serif" font-size="11" font-weight="bold" lengthAdjust="spacing" textLength="44.0859" x="449.7432" y="301.437">[&#19981;&#23384;&#22312;]</text><polygon fill="#181818" points="731.3501,322.1641,741.3501,326.1641,731.3501,330.1641,735.3501,326.1641" style="stroke:#181818;stroke-width:1.0;"/><line style="stroke:#181818;stroke-width:1.0;" x1="517.6851" x2="737.3501" y1="326.1641" y2="326.1641"/><text fill="#000000" font-family="sans-serif" font-size="13" lengthAdjust="spacing" textLength="46.998" x="524.6851" y="321.0981">INSERT</text><polygon fill="#181818" points="528.6851,343.1641,518.6851,347.1641,528.6851,351.1641,524.6851,347.1641" style="stroke:#181818;stroke-width:1.0;"/><line style="stroke:#181818;stroke-width:1.0;stroke-dasharray:2.0,2.0;" x1="522.6851" x2="742.3501" y1="347.1641" y2="347.1641"/><polygon fill="#181818" points="198.375,357.1641,188.375,361.1641,198.375,365.1641,194.375,361.1641" style="stroke:#181818;stroke-width:1.0;"/><line style="stroke:#181818;stroke-width:1.0;stroke-dasharray:2.0,2.0;" x1="192.375" x2="290.6836" y1="361.1641" y2="361.1641"/><polygon fill="#181818" points="33,386.2969,23,390.2969,33,394.2969,29,390.2969" style="stroke:#181818;stroke-width:1.0;"/><line style="stroke:#181818;stroke-width:1.0;stroke-dasharray:2.0,2.0;" x1="27" x2="186.375" y1="390.2969" y2="390.2969"/><text fill="#000000" font-family="sans-serif" font-size="13" lengthAdjust="spacing" textLength="60.5439" x="39" y="385.231">{code:0}</text><rect fill="#EEEEEE" height="3" style="stroke:#EEEEEE;stroke-width:1.0;" width="790.3853" x="0" y="418.8633"/><line style="stroke:#000000;stroke-width:1.0;" x1="0" x2="790.3853" y1="418.8633" y2="418.8633"/><line style="stroke:#000000;stroke-width:1.0;" x1="0" x2="790.3853" y1="421.8633" y2="421.8633"/><rect fill="#EEEEEE" height="23.1328" style="stroke:#000000;stroke-width:2.0;" width="72.1509" x="359.1172" y="408.2969"/><text fill="#000000" font-family="sans-serif" font-size="13" font-weight="bold" lengthAdjust="spacing" textLength="53.625" x="365.1172" y="424.3638">&#20462;&#25913;&#25968;&#37327;</text><polygon fill="#181818" points="175.375,473.6953,185.375,477.6953,175.375,481.6953,179.375,477.6953" style="stroke:#181818;stroke-width:1.0;"/><line style="stroke:#181818;stroke-width:1.0;" x1="22" x2="181.375" y1="477.6953" y2="477.6953"/><text fill="#000000" font-family="sans-serif" font-size="13" lengthAdjust="spacing" textLength="116.3589" x="29" y="457.4966">PUT /api/cart/{id}</text><text fill="#000000" font-family="sans-serif" font-size="13" lengthAdjust="spacing" textLength="70.7383" x="29" y="472.6294">{quantity}</text><polygon fill="#181818" points="279.6836,502.8281,289.6836,506.8281,279.6836,510.8281,283.6836,506.8281" style="stroke:#181818;stroke-width:1.0;"/><line style="stroke:#181818;stroke-width:1.0;" x1="187.375" x2="285.6836" y1="506.8281" y2="506.8281"/><text fill="#000000" font-family="sans-serif" font-size="13" lengthAdjust="spacing" textLength="50.6289" x="194.375" y="501.7622">JWT&#35748;&#35777;</text><polygon fill="#181818" points="505.6851,531.9609,515.6851,535.9609,505.6851,539.9609,509.6851,535.9609" style="stroke:#181818;stroke-width:1.0;"/><line style="stroke:#181818;stroke-width:1.0;" x1="291.6836" x2="511.6851" y1="535.9609" y2="535.9609"/><text fill="#000000" font-family="sans-serif" font-size="13" lengthAdjust="spacing" textLength="202.0015" x="298.6836" y="530.895">updateQuantity(id, qty, userId)</text><path d="M444.7432,550.9609 L509.186,550.9609 L509.186,558.0938 L499.186,568.0938 L444.7432,568.0938 L444.7432,550.9609 " fill="#EEEEEE" style="stroke:#000000;stroke-width:1.5;"/><rect fill="none" height="77.3984" style="stroke:#000000;stroke-width:1.5;" width="335.6421" x="444.7432" y="550.9609"/><text fill="#000000" font-family="sans-serif" font-size="13" font-weight="bold" lengthAdjust="spacing" textLength="19.4429" x="459.7432" y="564.0278">alt</text><text fill="#000000" font-family="sans-serif" font-size="11" font-weight="bold" lengthAdjust="spacing" textLength="47.228" x="524.186" y="563.1714">[qty=0]</text><polygon fill="#181818" points="731.3501,585.2266,741.3501,589.2266,731.3501,593.2266,735.3501,589.2266" style="stroke:#181818;stroke-width:1.0;"/><line style="stroke:#181818;stroke-width:1.0;" x1="517.6851" x2="737.3501" y1="589.2266" y2="589.2266"/><text fill="#000000" font-family="sans-serif" font-size="13" lengthAdjust="spacing" textLength="49.8354" x="524.6851" y="584.1606">DELETE</text><line style="stroke:#000000;stroke-width:1.0;stroke-dasharray:2.0,2.0;" x1="444.7432" x2="780.3853" y1="598.2266" y2="598.2266"/><polygon fill="#181818" points="731.3501,616.3594,741.3501,620.3594,731.3501,624.3594,735.3501,620.3594" style="stroke:#181818;stroke-width:1.0;"/><line style="stroke:#181818;stroke-width:1.0;" x1="517.6851" x2="737.3501" y1="620.3594" y2="620.3594"/><text fill="#000000" font-family="sans-serif" font-size="13" lengthAdjust="spacing" textLength="110.7412" x="524.6851" y="615.2935">UPDATE quantity</text><polygon fill="#181818" points="33,652.4922,23,656.4922,33,660.4922,29,656.4922" style="stroke:#181818;stroke-width:1.0;"/><line style="stroke:#181818;stroke-width:1.0;stroke-dasharray:2.0,2.0;" x1="27" x2="186.375" y1="656.4922" y2="656.4922"/><text fill="#000000" font-family="sans-serif" font-size="13" lengthAdjust="spacing" textLength="60.5439" x="39" y="651.4263">{code:0}</text><rect fill="#EEEEEE" height="3" style="stroke:#EEEEEE;stroke-width:1.0;" width="790.3853" x="0" y="685.0586"/><line style="stroke:#000000;stroke-width:1.0;" x1="0" x2="790.3853" y1="685.0586" y2="685.0586"/><line style="stroke:#000000;stroke-width:1.0;" x1="0" x2="790.3853" y1="688.0586" y2="688.0586"/><rect fill="#EEEEEE" height="23.1328" style="stroke:#000000;stroke-width:2.0;" width="45.3384" x="372.5234" y="674.4922"/><text fill="#000000" font-family="sans-serif" font-size="13" font-weight="bold" lengthAdjust="spacing" textLength="26.8125" x="378.5234" y="690.5591">&#21024;&#38500;</text><polygon fill="#181818" points="175.375,724.7578,185.375,728.7578,175.375,732.7578,179.375,728.7578" style="stroke:#181818;stroke-width:1.0;"/><line style="stroke:#181818;stroke-width:1.0;" x1="22" x2="181.375" y1="728.7578" y2="728.7578"/><text fill="#000000" font-family="sans-serif" font-size="13" lengthAdjust="spacing" textLength="140.8989" x="29" y="723.6919">DELETE /api/cart/{id}</text><polygon fill="#181818" points="279.6836,753.8906,289.6836,757.8906,279.6836,761.8906,283.6836,757.8906" style="stroke:#181818;stroke-width:1.0;"/><line style="stroke:#181818;stroke-width:1.0;" x1="187.375" x2="285.6836" y1="757.8906" y2="757.8906"/><text fill="#000000" font-family="sans-serif" font-size="13" lengthAdjust="spacing" textLength="50.6289" x="194.375" y="752.8247">JWT&#35748;&#35777;</text><polygon fill="#181818" points="505.6851,783.0234,515.6851,787.0234,505.6851,791.0234,509.6851,787.0234" style="stroke:#181818;stroke-width:1.0;"/><line style="stroke:#181818;stroke-width:1.0;" x1="291.6836" x2="511.6851" y1="787.0234" y2="787.0234"/><text fill="#000000" font-family="sans-serif" font-size="13" lengthAdjust="spacing" textLength="139.1533" x="298.6836" y="781.9575">deleteCart(id, userId)</text><polygon fill="#181818" points="731.3501,812.1563,741.3501,816.1563,731.3501,820.1563,735.3501,816.1563" style="stroke:#181818;stroke-width:1.0;"/><line style="stroke:#181818;stroke-width:1.0;" x1="517.6851" x2="737.3501" y1="816.1563" y2="816.1563"/><text fill="#000000" font-family="sans-serif" font-size="13" lengthAdjust="spacing" textLength="201.665" x="524.6851" y="811.0903">DELETE WHERE id AND user_id</text><polygon fill="#181818" points="33,841.2891,23,845.2891,33,849.2891,29,845.2891" style="stroke:#181818;stroke-width:1.0;"/><line style="stroke:#181818;stroke-width:1.0;stroke-dasharray:2.0,2.0;" x1="27" x2="186.375" y1="845.2891" y2="845.2891"/><text fill="#000000" font-family="sans-serif" font-size="13" lengthAdjust="spacing" textLength="60.5439" x="39" y="840.2231">{code:0}</text><!--SRC=[bP5FIm916CRlyobUEXabUbxOG7GfmyfonKiGuyuW0zlkEZig8Xuw9K5qCIZeuC63boowM7JeoxXctwAPNOtIYhhDd_UPv_azWotXSdZj3YQT4M0VQZxboCDSC8jvs16mYGLjuAQwgpI-tAoavIRjEeAxjatvYXgn1BUNXmgKrvb5iyUU7KxvTGiHB70P-nHsceNzd3ebPOHq7IQZv-2i1xgEL1Q8RqXV3V9x1HCIs6C9IpwOm8GSEYsFkwHcYInPXsfDkZ7HRADAGsbK40ssI-Pqs9_UdI2rL-VIMWEfLh5Yoa29EQsk8cmB24OFmUrLS3D0e2QLW9GrAEOpATFuyD3dYpK7KLiYZ1_FlvDbTml6WOceGn0fGpnodoK9iSAiSgLoQD2oN4ArP3jiOVmod7IV9fVtRwSNIrqKFrVHOgGjk_XN0JLFra_tPv8OKmMAvZf4XKHTo0Cz-HKeO-GCqmYPVoqeHFwPBUZqtgxxYrJHumjWVu4XrAQ2XX-gGEOCIxcXj6KS6C08f7OpuTWH-o7cEm00]--></g></svg>