<svg xmlns="http://www.w3.org/2000/svg" xmlns:xlink="http://www.w3.org/1999/xlink" contentStyleType="text/css" height="692px" preserveAspectRatio="none" style="width:1162px;height:692px;background:#FFFFFF;" version="1.1" viewBox="0 0 1162 692" width="1162px" zoomAndPan="magnify"><defs/><g><line style="stroke:#181818;stroke-width:0.5;stroke-dasharray:5.0,5.0;" x1="22" x2="22" y1="81.2969" y2="611.2891"/><line style="stroke:#181818;stroke-width:0.5;stroke-dasharray:5.0,5.0;" x1="282.3721" x2="282.3721" y1="81.2969" y2="611.2891"/><line style="stroke:#181818;stroke-width:0.5;stroke-dasharray:5.0,5.0;" x1="392.2168" x2="392.2168" y1="81.2969" y2="611.2891"/><line style="stroke:#181818;stroke-width:0.5;stroke-dasharray:5.0,5.0;" x1="611.8223" x2="611.8223" y1="81.2969" y2="611.2891"/><line style="stroke:#181818;stroke-width:0.5;stroke-dasharray:5.0,5.0;" x1="779.4629" x2="779.4629" y1="81.2969" y2="611.2891"/><line style="stroke:#181818;stroke-width:0.5;stroke-dasharray:5.0,5.0;" x1="913.3467" x2="913.3467" y1="81.2969" y2="611.2891"/><line style="stroke:#181818;stroke-width:0.5;stroke-dasharray:5.0,5.0;" x1="1036.8574" x2="1036.8574" y1="81.2969" y2="611.2891"/><line style="stroke:#181818;stroke-width:0.5;stroke-dasharray:5.0,5.0;" x1="1127.6895" x2="1127.6895" y1="81.2969" y2="611.2891"/><text fill="#000000" font-family="sans-serif" font-size="14" lengthAdjust="spacing" textLength="28" x="5" y="77.9951">&#29992;&#25143;</text><ellipse cx="22" cy="13.5" fill="#E2E2F0" rx="8" ry="8" style="stroke:#181818;stroke-width:0.5;"/><path d="M22,21.5 L22,48.5 M9,29.5 L35,29.5 M22,48.5 L9,63.5 M22,48.5 L35,63.5 " fill="none" style="stroke:#181818;stroke-width:0.5;"/><text fill="#000000" font-family="sans-serif" font-size="14" lengthAdjust="spacing" textLength="28" x="5" y="623.2842">&#29992;&#25143;</text><ellipse cx="22" cy="635.0859" fill="#E2E2F0" rx="8" ry="8" style="stroke:#181818;stroke-width:0.5;"/><path d="M22,643.0859 L22,670.0859 M9,651.0859 L35,651.0859 M22,670.0859 L9,685.0859 M22,670.0859 L35,685.0859 " fill="none" style="stroke:#181818;stroke-width:0.5;"/><rect fill="#E2E2F0" height="30.2969" rx="2.5" ry="2.5" style="stroke:#181818;stroke-width:0.5;" width="75.8447" x="245.3721" y="50"/><text fill="#000000" font-family="sans-serif" font-size="14" lengthAdjust="spacing" textLength="61.8447" x="252.3721" y="69.9951">Gateway</text><rect fill="#E2E2F0" height="30.2969" rx="2.5" ry="2.5" style="stroke:#181818;stroke-width:0.5;" width="75.8447" x="245.3721" y="610.2891"/><text fill="#000000" font-family="sans-serif" font-size="14" lengthAdjust="spacing" textLength="61.8447" x="252.3721" y="630.2842">Gateway</text><rect fill="#E2E2F0" height="30.2969" rx="2.5" ry="2.5" style="stroke:#181818;stroke-width:0.5;" width="123.2041" x="331.2168" y="50"/><text fill="#000000" font-family="sans-serif" font-size="14" lengthAdjust="spacing" textLength="109.2041" x="338.2168" y="69.9951">OrderController</text><rect fill="#E2E2F0" height="30.2969" rx="2.5" ry="2.5" style="stroke:#181818;stroke-width:0.5;" width="123.2041" x="331.2168" y="610.2891"/><text fill="#000000" font-family="sans-serif" font-size="14" lengthAdjust="spacing" textLength="109.2041" x="338.2168" y="630.2842">OrderController</text><rect fill="#E2E2F0" height="30.2969" rx="2.5" ry="2.5" style="stroke:#181818;stroke-width:0.5;" width="190.6406" x="516.8223" y="50"/><text fill="#000000" font-family="sans-serif" font-size="14" lengthAdjust="spacing" textLength="176.6406" x="523.8223" y="69.9951">RegularOrderServiceImpl</text><rect fill="#E2E2F0" height="30.2969" rx="2.5" ry="2.5" style="stroke:#181818;stroke-width:0.5;" width="190.6406" x="516.8223" y="610.2891"/><text fill="#000000" font-family="sans-serif" font-size="14" lengthAdjust="spacing" textLength="176.6406" x="523.8223" y="630.2842">RegularOrderServiceImpl</text><rect fill="#E2E2F0" height="30.2969" rx="2.5" ry="2.5" style="stroke:#181818;stroke-width:0.5;" width="125.8838" x="717.4629" y="50"/><text fill="#000000" font-family="sans-serif" font-size="14" lengthAdjust="spacing" textLength="111.8838" x="724.4629" y="69.9951">CartServiceImpl</text><rect fill="#E2E2F0" height="30.2969" rx="2.5" ry="2.5" style="stroke:#181818;stroke-width:0.5;" width="125.8838" x="717.4629" y="610.2891"/><text fill="#000000" font-family="sans-serif" font-size="14" lengthAdjust="spacing" textLength="111.8838" x="724.4629" y="630.2842">CartServiceImpl</text><rect fill="#E2E2F0" height="30.2969" rx="2.5" ry="2.5" style="stroke:#181818;stroke-width:0.5;" width="120.5107" x="853.3467" y="50"/><text fill="#000000" font-family="sans-serif" font-size="14" lengthAdjust="spacing" textLength="106.5107" x="860.3467" y="69.9951">ProductMapper</text><rect fill="#E2E2F0" height="30.2969" rx="2.5" ry="2.5" style="stroke:#181818;stroke-width:0.5;" width="120.5107" x="853.3467" y="610.2891"/><text fill="#000000" font-family="sans-serif" font-size="14" lengthAdjust="spacing" textLength="106.5107" x="860.3467" y="630.2842">ProductMapper</text><rect fill="#E2E2F0" height="30.2969" rx="2.5" ry="2.5" style="stroke:#181818;stroke-width:0.5;" width="106.832" x="983.8574" y="50"/><text fill="#000000" font-family="sans-serif" font-size="14" lengthAdjust="spacing" textLength="92.832" x="990.8574" y="69.9951">OrderMapper</text><rect fill="#E2E2F0" height="30.2969" rx="2.5" ry="2.5" style="stroke:#181818;stroke-width:0.5;" width="106.832" x="983.8574" y="610.2891"/><text fill="#000000" font-family="sans-serif" font-size="14" lengthAdjust="spacing" textLength="92.832" x="990.8574" y="630.2842">OrderMapper</text><text fill="#000000" font-family="sans-serif" font-size="14" lengthAdjust="spacing" textLength="48.0703" x="1100.6895" y="77.9951">MySQL</text><path d="M1109.7246,29 C1109.7246,19 1127.7246,19 1127.7246,19 C1127.7246,19 1145.7246,19 1145.7246,29 L1145.7246,55 C1145.7246,65 1127.7246,65 1127.7246,65 C1127.7246,65 1109.7246,65 1109.7246,55 L1109.7246,29 " fill="#E2E2F0" style="stroke:#181818;stroke-width:1.5;"/><path d="M1109.7246,29 C1109.7246,39 1127.7246,39 1127.7246,39 C1127.7246,39 1145.7246,39 1145.7246,29 " fill="none" style="stroke:#181818;stroke-width:1.5;"/><text fill="#000000" font-family="sans-serif" font-size="14" lengthAdjust="spacing" textLength="48.0703" x="1100.6895" y="623.2842">MySQL</text><path d="M1109.7246,636.5859 C1109.7246,626.5859 1127.7246,626.5859 1127.7246,626.5859 C1127.7246,626.5859 1145.7246,626.5859 1145.7246,636.5859 L1145.7246,662.5859 C1145.7246,672.5859 1127.7246,672.5859 1127.7246,672.5859 C1127.7246,672.5859 1109.7246,672.5859 1109.7246,662.5859 L1109.7246,636.5859 " fill="#E2E2F0" style="stroke:#181818;stroke-width:1.5;"/><path d="M1109.7246,636.5859 C1109.7246,646.5859 1127.7246,646.5859 1127.7246,646.5859 C1127.7246,646.5859 1145.7246,646.5859 1145.7246,636.5859 " fill="none" style="stroke:#181818;stroke-width:1.5;"/><polygon fill="#181818" points="271.2944,123.5625,281.2944,127.5625,271.2944,131.5625,275.2944,127.5625" style="stroke:#181818;stroke-width:1.0;"/><line style="stroke:#181818;stroke-width:1.0;" x1="22" x2="277.2944" y1="127.5625" y2="127.5625"/><text fill="#000000" font-family="sans-serif" font-size="13" lengthAdjust="spacing" textLength="160.2148" x="29" y="107.3638">1 POST /api/order/create</text><text fill="#000000" font-family="sans-serif" font-size="13" lengthAdjust="spacing" textLength="237.2944" x="29" y="122.4966">{cartItemIds, addressId, couponId?}</text><polygon fill="#181818" points="380.8188,152.6953,390.8188,156.6953,380.8188,160.6953,384.8188,156.6953" style="stroke:#181818;stroke-width:1.0;"/><line style="stroke:#181818;stroke-width:1.0;" x1="283.2944" x2="386.8188" y1="156.6953" y2="156.6953"/><text fill="#000000" font-family="sans-serif" font-size="13" lengthAdjust="spacing" textLength="63.0322" x="290.2944" y="151.6294">2 JWT&#35748;&#35777;</text><polygon fill="#181818" points="600.1426,181.8281,610.1426,185.8281,600.1426,189.8281,604.1426,185.8281" style="stroke:#181818;stroke-width:1.0;"/><line style="stroke:#181818;stroke-width:1.0;" x1="392.8188" x2="606.1426" y1="185.8281" y2="185.8281"/><text fill="#000000" font-family="sans-serif" font-size="13" lengthAdjust="spacing" textLength="195.3237" x="399.8188" y="180.7622">3 createFromCart(userId, req)</text><polygon fill="#181818" points="768.4048,210.9609,778.4048,214.9609,768.4048,218.9609,772.4048,214.9609" style="stroke:#181818;stroke-width:1.0;"/><line style="stroke:#181818;stroke-width:1.0;" x1="612.1426" x2="774.4048" y1="214.9609" y2="214.9609"/><text fill="#000000" font-family="sans-serif" font-size="13" lengthAdjust="spacing" textLength="129.4033" x="619.1426" y="209.895">4 &#26597;&#35810;&#36873;&#20013;&#30340;&#36141;&#29289;&#36710;&#39033;</text><polygon fill="#181818" points="1115.7246,224.9609,1125.7246,228.9609,1115.7246,232.9609,1119.7246,228.9609" style="stroke:#181818;stroke-width:1.0;"/><line style="stroke:#181818;stroke-width:1.0;" x1="780.4048" x2="1121.7246" y1="228.9609" y2="228.9609"/><polygon fill="#181818" points="791.4048,254.0938,781.4048,258.0938,791.4048,262.0938,787.4048,258.0938" style="stroke:#181818;stroke-width:1.0;"/><line style="stroke:#181818;stroke-width:1.0;stroke-dasharray:2.0,2.0;" x1="785.4048" x2="1126.7246" y1="258.0938" y2="258.0938"/><text fill="#000000" font-family="sans-serif" font-size="13" lengthAdjust="spacing" textLength="140.1436" x="797.4048" y="253.0278">&#36141;&#29289;&#36710;&#21015;&#34920;(&#21547;&#21830;&#21697;&#20449;&#24687;)</text><line style="stroke:#181818;stroke-width:1.0;" x1="612.1426" x2="654.1426" y1="287.2266" y2="287.2266"/><line style="stroke:#181818;stroke-width:1.0;" x1="654.1426" x2="654.1426" y1="287.2266" y2="300.2266"/><line style="stroke:#181818;stroke-width:1.0;" x1="613.1426" x2="654.1426" y1="300.2266" y2="300.2266"/><polygon fill="#181818" points="623.1426,296.2266,613.1426,300.2266,623.1426,304.2266,619.1426,300.2266" style="stroke:#181818;stroke-width:1.0;"/><text fill="#000000" font-family="sans-serif" font-size="13" lengthAdjust="spacing" textLength="103.4033" x="619.1426" y="282.1606">5 &#26657;&#39564;&#24402;&#23646;&#21644;&#24211;&#23384;</text><polygon fill="#181818" points="901.6021,325.3594,911.6021,329.3594,901.6021,333.3594,905.6021,329.3594" style="stroke:#181818;stroke-width:1.0;"/><line style="stroke:#181818;stroke-width:1.0;" x1="612.1426" x2="907.6021" y1="329.3594" y2="329.3594"/><text fill="#000000" font-family="sans-serif" font-size="13" lengthAdjust="spacing" textLength="183.4028" x="619.1426" y="324.2935">6 &#25187;&#20943;&#24211;&#23384; UPDATE stock-=n</text><polygon fill="#181818" points="1115.7246,339.3594,1125.7246,343.3594,1115.7246,347.3594,1119.7246,343.3594" style="stroke:#181818;stroke-width:1.0;"/><line style="stroke:#181818;stroke-width:1.0;" x1="913.6021" x2="1121.7246" y1="343.3594" y2="343.3594"/><line style="stroke:#181818;stroke-width:1.0;" x1="612.1426" x2="654.1426" y1="372.4922" y2="372.4922"/><line style="stroke:#181818;stroke-width:1.0;" x1="654.1426" x2="654.1426" y1="372.4922" y2="385.4922"/><line style="stroke:#181818;stroke-width:1.0;" x1="613.1426" x2="654.1426" y1="385.4922" y2="385.4922"/><polygon fill="#181818" points="623.1426,381.4922,613.1426,385.4922,623.1426,389.4922,619.1426,385.4922" style="stroke:#181818;stroke-width:1.0;"/><text fill="#000000" font-family="sans-serif" font-size="13" lengthAdjust="spacing" textLength="152.5469" x="619.1426" y="367.4263">7 &#35745;&#31639;&#24635;&#37329;&#39069;(&#20248;&#24800;&#21048;&#25269;&#25187;)</text><line style="stroke:#181818;stroke-width:1.0;" x1="612.1426" x2="654.1426" y1="414.625" y2="414.625"/><line style="stroke:#181818;stroke-width:1.0;" x1="654.1426" x2="654.1426" y1="414.625" y2="427.625"/><line style="stroke:#181818;stroke-width:1.0;" x1="613.1426" x2="654.1426" y1="427.625" y2="427.625"/><polygon fill="#181818" points="623.1426,423.625,613.1426,427.625,623.1426,431.625,619.1426,427.625" style="stroke:#181818;stroke-width:1.0;"/><text fill="#000000" font-family="sans-serif" font-size="13" lengthAdjust="spacing" textLength="130.2476" x="619.1426" y="409.5591">8 &#38634;&#33457;&#31639;&#27861;&#29983;&#25104;&#35746;&#21333;ID</text><polygon fill="#181818" points="1025.2734,452.7578,1035.2734,456.7578,1025.2734,460.7578,1029.2734,456.7578" style="stroke:#181818;stroke-width:1.0;"/><line style="stroke:#181818;stroke-width:1.0;" x1="612.1426" x2="1031.2734" y1="456.7578" y2="456.7578"/><text fill="#000000" font-family="sans-serif" font-size="13" lengthAdjust="spacing" textLength="111.4014" x="619.1426" y="451.6919">9 &#25209;&#37327;INSERT&#35746;&#21333;</text><polygon fill="#181818" points="1115.7246,466.7578,1125.7246,470.7578,1115.7246,474.7578,1119.7246,470.7578" style="stroke:#181818;stroke-width:1.0;"/><line style="stroke:#181818;stroke-width:1.0;" x1="1037.2734" x2="1121.7246" y1="470.7578" y2="470.7578"/><polygon fill="#181818" points="768.4048,506.457,778.4048,510.457,768.4048,514.457,772.4048,510.457" style="stroke:#181818;stroke-width:1.0;"/><line style="stroke:#181818;stroke-width:1.0;" x1="612.1426" x2="774.4048" y1="510.457" y2="510.457"/><text fill="#000000" font-family="sans-serif" font-size="13" lengthAdjust="spacing" textLength="137.6743" x="619.1426" y="505.3911">10 &#21024;&#38500;&#24050;&#36141;&#20080;&#36141;&#29289;&#36710;&#39033;</text><path d="M785,483.7578 L785,523.7578 L906,523.7578 L906,493.7578 L896,483.7578 L785,483.7578 " fill="#FEFFDD" style="stroke:#181818;stroke-width:0.5;"/><path d="M896,483.7578 L896,493.7578 L906,493.7578 L896,483.7578 " fill="#FEFFDD" style="stroke:#181818;stroke-width:0.5;"/><text fill="#000000" font-family="sans-serif" font-size="13" lengthAdjust="spacing" textLength="100.8579" x="791" y="500.8247">@Transactional</text><text fill="#000000" font-family="sans-serif" font-size="13" lengthAdjust="spacing" textLength="65" x="791" y="515.9575">&#20445;&#35777;&#21407;&#23376;&#24615;</text><polygon fill="#181818" points="403.8188,546.1563,393.8188,550.1563,403.8188,554.1563,399.8188,550.1563" style="stroke:#181818;stroke-width:1.0;"/><line style="stroke:#181818;stroke-width:1.0;stroke-dasharray:2.0,2.0;" x1="397.8188" x2="611.1426" y1="550.1563" y2="550.1563"/><text fill="#000000" font-family="sans-serif" font-size="13" lengthAdjust="spacing" textLength="154.7559" x="409.8188" y="545.0903">11 List&lt;Long&gt; orderIds</text><polygon fill="#181818" points="294.2944,560.1563,284.2944,564.1563,294.2944,568.1563,290.2944,564.1563" style="stroke:#181818;stroke-width:1.0;"/><line style="stroke:#181818;stroke-width:1.0;stroke-dasharray:2.0,2.0;" x1="288.2944" x2="391.8188" y1="564.1563" y2="564.1563"/><polygon fill="#181818" points="33,589.2891,23,593.2891,33,597.2891,29,593.2891" style="stroke:#181818;stroke-width:1.0;"/><line style="stroke:#181818;stroke-width:1.0;stroke-dasharray:2.0,2.0;" x1="27" x2="282.2944" y1="593.2891" y2="593.2891"/><text fill="#000000" font-family="sans-serif" font-size="13" lengthAdjust="spacing" textLength="176.8965" x="39" y="588.2231">12 {code:0, data:orderIds}</text><!--SRC=[RP9RJnD15CVVzrESy8G93HJl6wy1D6kAL5hZ2o_JtKdTM7RMsIaD8IHjDBObACWbe0PB4HKnBU8bK9NmPJhRtM_XpBQKblWsC-TtplcV_noaCqAXiRBZ5Wu0EP1sC5LiH9cfcpQo6Dn536VGj8mbCrsHdZ5gO3f4B4P9AeLfZsHqHbFTr3XEfbE81d0CqobJnzgadGfePqhlXeV4vIoaoxUpO9GI8wspKMJRhSwsU6bU_wEoWoEdTyL032MGWs5qElOW8gD6Gb6a1n2w8UPL8GpHiLWS-f5jzWUP_Jh5mf89QqRgqXYUr0od3v1XKEmucj47EadRnDACcxDACYFhI4zK68HxZ-9UTTlRoodoHKR4_2gSXsR9EvHColbxPNzPYEAdvnI113MQ9gXm0TpIHszloyyMwuULnjldtizAe_Z5E_habsjA2vCPOX8Z0Q7Et3RA2sjUUQUNBtxbgo_uSgv-N7PpU-rcWQoBu6wM_TrvVhJ4zz_pfNd-UvbNra-OKxjLk0HkyGFFBpG9U1WTlXqV0OSH_KdekgMSeYrTdMqkWrSjDwfhRlQFdt_jRstqrl-kkyysUU7GdVibwdQhkWB-krrlRbzc_5Xjh9JSmg9NtU8lLxNX4x3ZXrMuAhJL_Fo2TZysCXvleae7qIsfRLLu07XXqt-ppG- -2zlgjMzTFbk4OQ1cyZ5JuLQS8ij1EZE9XL8JLlruG_mnVrNYbKKt-xbPkhq6uJ14J8TTYn0hsP8g5gYr4S7I1LiZJd8D13y8Cpeni3hG1t9TrPEKsNy0]--></g></svg>