<svg xmlns="http://www.w3.org/2000/svg" xmlns:xlink="http://www.w3.org/1999/xlink" contentStyleType="text/css" height="586px" preserveAspectRatio="none" style="width:722px;height:586px;background:#FFFFFF;" version="1.1" viewBox="0 0 722 586" width="722px" zoomAndPan="magnify"><defs/><g><line style="stroke:#181818;stroke-width:0.5;stroke-dasharray:5.0,5.0;" x1="22" x2="22" y1="81.2969" y2="505.7578"/><line style="stroke:#181818;stroke-width:0.5;stroke-dasharray:5.0,5.0;" x1="220.9268" x2="220.9268" y1="81.2969" y2="505.7578"/><line style="stroke:#181818;stroke-width:0.5;stroke-dasharray:5.0,5.0;" x1="330.7715" x2="330.7715" y1="81.2969" y2="505.7578"/><line style="stroke:#181818;stroke-width:0.5;stroke-dasharray:5.0,5.0;" x1="539.2026" x2="539.2026" y1="81.2969" y2="505.7578"/><line style="stroke:#181818;stroke-width:0.5;stroke-dasharray:5.0,5.0;" x1="683.4229" x2="683.4229" y1="81.2969" y2="505.7578"/><text fill="#000000" font-family="sans-serif" font-size="14" lengthAdjust="spacing" textLength="28" x="5" y="77.9951">&#29992;&#25143;</text><ellipse cx="22" cy="13.5" fill="#E2E2F0" rx="8" ry="8" style="stroke:#181818;stroke-width:0.5;"/><path d="M22,21.5 L22,48.5 M9,29.5 L35,29.5 M22,48.5 L9,63.5 M22,48.5 L35,63.5 " fill="none" style="stroke:#181818;stroke-width:0.5;"/><text fill="#000000" font-family="sans-serif" font-size="14" lengthAdjust="spacing" textLength="28" x="5" y="517.7529">&#29992;&#25143;</text><ellipse cx="22" cy="529.5547" fill="#E2E2F0" rx="8" ry="8" style="stroke:#181818;stroke-width:0.5;"/><path d="M22,537.5547 L22,564.5547 M9,545.5547 L35,545.5547 M22,564.5547 L9,579.5547 M22,564.5547 L35,579.5547 " fill="none" style="stroke:#181818;stroke-width:0.5;"/><rect fill="#E2E2F0" height="30.2969" rx="2.5" ry="2.5" style="stroke:#181818;stroke-width:0.5;" width="75.8447" x="183.9268" y="50"/><text fill="#000000" font-family="sans-serif" font-size="14" lengthAdjust="spacing" textLength="61.8447" x="190.9268" y="69.9951">Gateway</text><rect fill="#E2E2F0" height="30.2969" rx="2.5" ry="2.5" style="stroke:#181818;stroke-width:0.5;" width="75.8447" x="183.9268" y="504.7578"/><text fill="#000000" font-family="sans-serif" font-size="14" lengthAdjust="spacing" textLength="61.8447" x="190.9268" y="524.7529">Gateway</text><rect fill="#E2E2F0" height="30.2969" rx="2.5" ry="2.5" style="stroke:#181818;stroke-width:0.5;" width="123.2041" x="269.7715" y="50"/><text fill="#000000" font-family="sans-serif" font-size="14" lengthAdjust="spacing" textLength="109.2041" x="276.7715" y="69.9951">OrderController</text><rect fill="#E2E2F0" height="30.2969" rx="2.5" ry="2.5" style="stroke:#181818;stroke-width:0.5;" width="123.2041" x="269.7715" y="504.7578"/><text fill="#000000" font-family="sans-serif" font-size="14" lengthAdjust="spacing" textLength="109.2041" x="276.7715" y="524.7529">OrderController</text><rect fill="#E2E2F0" height="30.2969" rx="2.5" ry="2.5" style="stroke:#181818;stroke-width:0.5;" width="136.3154" x="471.2026" y="50"/><text fill="#000000" font-family="sans-serif" font-size="14" lengthAdjust="spacing" textLength="122.3154" x="478.2026" y="69.9951">OrderServiceImpl</text><rect fill="#E2E2F0" height="30.2969" rx="2.5" ry="2.5" style="stroke:#181818;stroke-width:0.5;" width="136.3154" x="471.2026" y="504.7578"/><text fill="#000000" font-family="sans-serif" font-size="14" lengthAdjust="spacing" textLength="122.3154" x="478.2026" y="524.7529">OrderServiceImpl</text><text fill="#000000" font-family="sans-serif" font-size="14" lengthAdjust="spacing" textLength="48.0703" x="656.4229" y="77.9951">MySQL</text><path d="M665.458,29 C665.458,19 683.458,19 683.458,19 C683.458,19 701.458,19 701.458,29 L701.458,55 C701.458,65 683.458,65 683.458,65 C683.458,65 665.458,65 665.458,55 L665.458,29 " fill="#E2E2F0" style="stroke:#181818;stroke-width:1.5;"/><path d="M665.458,29 C665.458,39 683.458,39 683.458,39 C683.458,39 701.458,39 701.458,29 " fill="none" style="stroke:#181818;stroke-width:1.5;"/><text fill="#000000" font-family="sans-serif" font-size="14" lengthAdjust="spacing" textLength="48.0703" x="656.4229" y="517.7529">MySQL</text><path d="M665.458,531.0547 C665.458,521.0547 683.458,521.0547 683.458,521.0547 C683.458,521.0547 701.458,521.0547 701.458,531.0547 L701.458,557.0547 C701.458,567.0547 683.458,567.0547 683.458,567.0547 C683.458,567.0547 665.458,567.0547 665.458,557.0547 L665.458,531.0547 " fill="#E2E2F0" style="stroke:#181818;stroke-width:1.5;"/><path d="M665.458,531.0547 C665.458,541.0547 683.458,541.0547 683.458,541.0547 C683.458,541.0547 701.458,541.0547 701.458,531.0547 " fill="none" style="stroke:#181818;stroke-width:1.5;"/><rect fill="#EEEEEE" height="3" style="stroke:#EEEEEE;stroke-width:1.0;" width="715.4932" x="0" y="111.8633"/><line style="stroke:#000000;stroke-width:1.0;" x1="0" x2="715.4932" y1="111.8633" y2="111.8633"/><line style="stroke:#000000;stroke-width:1.0;" x1="0" x2="715.4932" y1="114.8633" y2="114.8633"/><rect fill="#EEEEEE" height="23.1328" style="stroke:#000000;stroke-width:2.0;" width="72.1509" x="321.6711" y="101.2969"/><text fill="#000000" font-family="sans-serif" font-size="13" font-weight="bold" lengthAdjust="spacing" textLength="53.625" x="327.6711" y="117.3638">&#35746;&#21333;&#21015;&#34920;</text><polygon fill="#181818" points="209.8491,151.5625,219.8491,155.5625,209.8491,159.5625,213.8491,155.5625" style="stroke:#181818;stroke-width:1.0;"/><line style="stroke:#181818;stroke-width:1.0;" x1="22" x2="215.8491" y1="155.5625" y2="155.5625"/><text fill="#000000" font-family="sans-serif" font-size="13" lengthAdjust="spacing" textLength="175.8491" x="29" y="150.4966">GET /api/order/list?page=1</text><polygon fill="#181818" points="319.3735,180.6953,329.3735,184.6953,319.3735,188.6953,323.3735,184.6953" style="stroke:#181818;stroke-width:1.0;"/><line style="stroke:#181818;stroke-width:1.0;" x1="221.8491" x2="325.3735" y1="184.6953" y2="184.6953"/><text fill="#000000" font-family="sans-serif" font-size="13" lengthAdjust="spacing" textLength="50.6289" x="228.8491" y="179.6294">JWT&#35748;&#35777;</text><polygon fill="#181818" points="527.3604,209.8281,537.3604,213.8281,527.3604,217.8281,531.3604,213.8281" style="stroke:#181818;stroke-width:1.0;"/><line style="stroke:#181818;stroke-width:1.0;" x1="331.3735" x2="533.3604" y1="213.8281" y2="213.8281"/><text fill="#000000" font-family="sans-serif" font-size="13" lengthAdjust="spacing" textLength="183.9868" x="338.3735" y="208.7622">listUserOrders(userId, page)</text><polygon fill="#181818" points="671.458,238.9609,681.458,242.9609,671.458,246.9609,675.458,242.9609" style="stroke:#181818;stroke-width:1.0;"/><line style="stroke:#181818;stroke-width:1.0;" x1="539.3604" x2="677.458" y1="242.9609" y2="242.9609"/><text fill="#000000" font-family="sans-serif" font-size="13" lengthAdjust="spacing" textLength="52" x="546.3604" y="237.895">&#20998;&#39029;&#26597;&#35810;</text><polygon fill="#181818" points="550.3604,252.9609,540.3604,256.9609,550.3604,260.9609,546.3604,256.9609" style="stroke:#181818;stroke-width:1.0;"/><line style="stroke:#181818;stroke-width:1.0;stroke-dasharray:2.0,2.0;" x1="544.3604" x2="682.458" y1="256.9609" y2="256.9609"/><polygon fill="#181818" points="232.8491,266.9609,222.8491,270.9609,232.8491,274.9609,228.8491,270.9609" style="stroke:#181818;stroke-width:1.0;"/><line style="stroke:#181818;stroke-width:1.0;stroke-dasharray:2.0,2.0;" x1="226.8491" x2="330.3735" y1="270.9609" y2="270.9609"/><polygon fill="#181818" points="33,296.0938,23,300.0938,33,304.0938,29,300.0938" style="stroke:#181818;stroke-width:1.0;"/><line style="stroke:#181818;stroke-width:1.0;stroke-dasharray:2.0,2.0;" x1="27" x2="220.8491" y1="300.0938" y2="300.0938"/><text fill="#000000" font-family="sans-serif" font-size="13" lengthAdjust="spacing" textLength="167.8257" x="39" y="295.0278">{code:0, data:{records}}</text><rect fill="#EEEEEE" height="3" style="stroke:#EEEEEE;stroke-width:1.0;" width="715.4932" x="0" y="328.6602"/><line style="stroke:#000000;stroke-width:1.0;" x1="0" x2="715.4932" y1="328.6602" y2="328.6602"/><line style="stroke:#000000;stroke-width:1.0;" x1="0" x2="715.4932" y1="331.6602" y2="331.6602"/><rect fill="#EEEEEE" height="23.1328" style="stroke:#000000;stroke-width:2.0;" width="72.1509" x="321.6711" y="318.0938"/><text fill="#000000" font-family="sans-serif" font-size="13" font-weight="bold" lengthAdjust="spacing" textLength="53.625" x="327.6711" y="334.1606">&#35746;&#21333;&#35814;&#24773;</text><polygon fill="#181818" points="209.8491,368.3594,219.8491,372.3594,209.8491,376.3594,213.8491,372.3594" style="stroke:#181818;stroke-width:1.0;"/><line style="stroke:#181818;stroke-width:1.0;" x1="22" x2="215.8491" y1="372.3594" y2="372.3594"/><text fill="#000000" font-family="sans-serif" font-size="13" lengthAdjust="spacing" textLength="161.7446" x="29" y="367.2935">GET /api/order/{orderId}</text><polygon fill="#181818" points="527.3604,397.4922,537.3604,401.4922,527.3604,405.4922,531.3604,401.4922" style="stroke:#181818;stroke-width:1.0;"/><line style="stroke:#181818;stroke-width:1.0;" x1="331.3735" x2="533.3604" y1="401.4922" y2="401.4922"/><text fill="#000000" font-family="sans-serif" font-size="13" lengthAdjust="spacing" textLength="144.3394" x="338.3735" y="396.4263">getOrderById(orderId)</text><polygon fill="#181818" points="671.458,426.625,681.458,430.625,671.458,434.625,675.458,430.625" style="stroke:#181818;stroke-width:1.0;"/><line style="stroke:#181818;stroke-width:1.0;" x1="539.3604" x2="677.458" y1="430.625" y2="430.625"/><text fill="#000000" font-family="sans-serif" font-size="13" lengthAdjust="spacing" textLength="120.0977" x="546.3604" y="425.5591">SELECT + &#24402;&#23646;&#26657;&#39564;</text><polygon fill="#181818" points="550.3604,440.625,540.3604,444.625,550.3604,448.625,546.3604,444.625" style="stroke:#181818;stroke-width:1.0;"/><line style="stroke:#181818;stroke-width:1.0;stroke-dasharray:2.0,2.0;" x1="544.3604" x2="682.458" y1="444.625" y2="444.625"/><polygon fill="#181818" points="232.8491,454.625,222.8491,458.625,232.8491,462.625,228.8491,458.625" style="stroke:#181818;stroke-width:1.0;"/><line style="stroke:#181818;stroke-width:1.0;stroke-dasharray:2.0,2.0;" x1="226.8491" x2="330.3735" y1="458.625" y2="458.625"/><polygon fill="#181818" points="33,483.7578,23,487.7578,33,491.7578,29,487.7578" style="stroke:#181818;stroke-width:1.0;"/><line style="stroke:#181818;stroke-width:1.0;stroke-dasharray:2.0,2.0;" x1="27" x2="220.8491" y1="487.7578" y2="487.7578"/><text fill="#000000" font-family="sans-serif" font-size="13" lengthAdjust="spacing" textLength="158.7676" x="39" y="482.6919">{code:0, data:OrderVO}</text><!--SRC=[dOynIyD068Rt-nKVdIgsLDU3A5XAYLIAjEfykJj283RXShQKaa54wQ2BA6xM5fNYqE8WJlwSnFHVcE_iO44GdExkkuVtVJx6TQ3WysQQ3j-1HN0IIKL2fhJ7lP1rDDIPbZtMnp-tj_9JQ2eXLJNeQ1NulbG5PBXM_YzKIwgknwLz7Fe6YxgS2AQPmo89U_tMVWEdmY74iY2RJPAhssHubusdO5a4dQ2ybVTJgDVQK66XLmamjk9xaTuEcIkjJUBs44812hj7xMpscCrF2RvndZTIGFmWJpDEKH63RL4235WZEO6WS2Wamul5-2qTFMNp2H4EbBy3bc56nTJbDyoWCE21a7IZ1BWK7IZ9SxyeZd_iaysVqxFpF_OPcCCMyQgtAxLHtkdRehX4LeHRjKQjsePrI3wkazVxz66yUBdyXxbfEMp6Nm00]--></g></svg>