<svg xmlns="http://www.w3.org/2000/svg" xmlns:xlink="http://www.w3.org/1999/xlink" contentStyleType="text/css" height="586px" preserveAspectRatio="none" style="width:805px;height:586px;background:#FFFFFF;" version="1.1" viewBox="0 0 805 586" width="805px" zoomAndPan="magnify"><defs/><g><line style="stroke:#181818;stroke-width:0.5;stroke-dasharray:5.0,5.0;" x1="22" x2="22" y1="81.2969" y2="505.7578"/><line style="stroke:#181818;stroke-width:0.5;stroke-dasharray:5.0,5.0;" x1="231.9146" x2="231.9146" y1="81.2969" y2="505.7578"/><line style="stroke:#181818;stroke-width:0.5;stroke-dasharray:5.0,5.0;" x1="341.7593" x2="341.7593" y1="81.2969" y2="505.7578"/><line style="stroke:#181818;stroke-width:0.5;stroke-dasharray:5.0,5.0;" x1="556.9951" x2="556.9951" y1="81.2969" y2="505.7578"/><line style="stroke:#181818;stroke-width:0.5;stroke-dasharray:5.0,5.0;" x1="766.1963" x2="766.1963" y1="81.2969" y2="505.7578"/><text fill="#000000" font-family="sans-serif" font-size="14" lengthAdjust="spacing" textLength="28" x="5" y="77.9951">&#29992;&#25143;</text><ellipse cx="22" cy="13.5" fill="#E2E2F0" rx="8" ry="8" style="stroke:#181818;stroke-width:0.5;"/><path d="M22,21.5 L22,48.5 M9,29.5 L35,29.5 M22,48.5 L9,63.5 M22,48.5 L35,63.5 " fill="none" style="stroke:#181818;stroke-width:0.5;"/><text fill="#000000" font-family="sans-serif" font-size="14" lengthAdjust="spacing" textLength="28" x="5" y="517.7529">&#29992;&#25143;</text><ellipse cx="22" cy="529.5547" fill="#E2E2F0" rx="8" ry="8" style="stroke:#181818;stroke-width:0.5;"/><path d="M22,537.5547 L22,564.5547 M9,545.5547 L35,545.5547 M22,564.5547 L9,579.5547 M22,564.5547 L35,579.5547 " fill="none" style="stroke:#181818;stroke-width:0.5;"/><rect fill="#E2E2F0" height="30.2969" rx="2.5" ry="2.5" style="stroke:#181818;stroke-width:0.5;" width="75.8447" x="194.9146" y="50"/><text fill="#000000" font-family="sans-serif" font-size="14" lengthAdjust="spacing" textLength="61.8447" x="201.9146" y="69.9951">Gateway</text><rect fill="#E2E2F0" height="30.2969" rx="2.5" ry="2.5" style="stroke:#181818;stroke-width:0.5;" width="75.8447" x="194.9146" y="504.7578"/><text fill="#000000" font-family="sans-serif" font-size="14" lengthAdjust="spacing" textLength="61.8447" x="201.9146" y="524.7529">Gateway</text><rect fill="#E2E2F0" height="30.2969" rx="2.5" ry="2.5" style="stroke:#181818;stroke-width:0.5;" width="123.2041" x="280.7593" y="50"/><text fill="#000000" font-family="sans-serif" font-size="14" lengthAdjust="spacing" textLength="109.2041" x="287.7593" y="69.9951">OrderController</text><rect fill="#E2E2F0" height="30.2969" rx="2.5" ry="2.5" style="stroke:#181818;stroke-width:0.5;" width="123.2041" x="280.7593" y="504.7578"/><text fill="#000000" font-family="sans-serif" font-size="14" lengthAdjust="spacing" textLength="109.2041" x="287.7593" y="524.7529">OrderController</text><rect fill="#E2E2F0" height="30.2969" rx="2.5" ry="2.5" style="stroke:#181818;stroke-width:0.5;" width="136.3154" x="488.9951" y="50"/><text fill="#000000" font-family="sans-serif" font-size="14" lengthAdjust="spacing" textLength="122.3154" x="495.9951" y="69.9951">OrderServiceImpl</text><rect fill="#E2E2F0" height="30.2969" rx="2.5" ry="2.5" style="stroke:#181818;stroke-width:0.5;" width="136.3154" x="488.9951" y="504.7578"/><text fill="#000000" font-family="sans-serif" font-size="14" lengthAdjust="spacing" textLength="122.3154" x="495.9951" y="524.7529">OrderServiceImpl</text><text fill="#000000" font-family="sans-serif" font-size="14" lengthAdjust="spacing" textLength="48.0703" x="739.1963" y="77.9951">MySQL</text><path d="M748.2314,29 C748.2314,19 766.2314,19 766.2314,19 C766.2314,19 784.2314,19 784.2314,29 L784.2314,55 C784.2314,65 766.2314,65 766.2314,65 C766.2314,65 748.2314,65 748.2314,55 L748.2314,29 " fill="#E2E2F0" style="stroke:#181818;stroke-width:1.5;"/><path d="M748.2314,29 C748.2314,39 766.2314,39 766.2314,39 C766.2314,39 784.2314,39 784.2314,29 " fill="none" style="stroke:#181818;stroke-width:1.5;"/><text fill="#000000" font-family="sans-serif" font-size="14" lengthAdjust="spacing" textLength="48.0703" x="739.1963" y="517.7529">MySQL</text><path d="M748.2314,531.0547 C748.2314,521.0547 766.2314,521.0547 766.2314,521.0547 C766.2314,521.0547 784.2314,521.0547 784.2314,531.0547 L784.2314,557.0547 C784.2314,567.0547 766.2314,567.0547 766.2314,567.0547 C766.2314,567.0547 748.2314,567.0547 748.2314,557.0547 L748.2314,531.0547 " fill="#E2E2F0" style="stroke:#181818;stroke-width:1.5;"/><path d="M748.2314,531.0547 C748.2314,541.0547 766.2314,541.0547 766.2314,541.0547 C766.2314,541.0547 784.2314,541.0547 784.2314,531.0547 " fill="none" style="stroke:#181818;stroke-width:1.5;"/><rect fill="#EEEEEE" height="3" style="stroke:#EEEEEE;stroke-width:1.0;" width="798.2666" x="0" y="111.8633"/><line style="stroke:#000000;stroke-width:1.0;" x1="0" x2="798.2666" y1="111.8633" y2="111.8633"/><line style="stroke:#000000;stroke-width:1.0;" x1="0" x2="798.2666" y1="114.8633" y2="114.8633"/><rect fill="#EEEEEE" height="23.1328" style="stroke:#000000;stroke-width:2.0;" width="72.1509" x="363.0579" y="101.2969"/><text fill="#000000" font-family="sans-serif" font-size="13" font-weight="bold" lengthAdjust="spacing" textLength="53.625" x="369.0579" y="117.3638">&#21462;&#28040;&#35746;&#21333;</text><polygon fill="#181818" points="220.8369,151.5625,230.8369,155.5625,220.8369,159.5625,224.8369,155.5625" style="stroke:#181818;stroke-width:1.0;"/><line style="stroke:#181818;stroke-width:1.0;" x1="22" x2="226.8369" y1="155.5625" y2="155.5625"/><text fill="#000000" font-family="sans-serif" font-size="13" lengthAdjust="spacing" textLength="181.1558" x="29" y="150.4966">POST /api/order/{id}/cancel</text><polygon fill="#181818" points="330.3613,180.6953,340.3613,184.6953,330.3613,188.6953,334.3613,184.6953" style="stroke:#181818;stroke-width:1.0;"/><line style="stroke:#181818;stroke-width:1.0;" x1="232.8369" x2="336.3613" y1="184.6953" y2="184.6953"/><text fill="#000000" font-family="sans-serif" font-size="13" lengthAdjust="spacing" textLength="50.6289" x="239.8369" y="179.6294">JWT&#35748;&#35777;</text><polygon fill="#181818" points="545.1528,209.8281,555.1528,213.8281,545.1528,217.8281,549.1528,213.8281" style="stroke:#181818;stroke-width:1.0;"/><line style="stroke:#181818;stroke-width:1.0;" x1="342.3613" x2="551.1528" y1="213.8281" y2="213.8281"/><text fill="#000000" font-family="sans-serif" font-size="13" lengthAdjust="spacing" textLength="185.1104" x="349.3613" y="208.7622">cancelOrder(orderId, userId)</text><polygon fill="#181818" points="754.2314,238.9609,764.2314,242.9609,754.2314,246.9609,758.2314,242.9609" style="stroke:#181818;stroke-width:1.0;"/><line style="stroke:#181818;stroke-width:1.0;" x1="557.1528" x2="760.2314" y1="242.9609" y2="242.9609"/><text fill="#000000" font-family="sans-serif" font-size="13" lengthAdjust="spacing" textLength="185.0786" x="564.1528" y="237.895">UPDATE status=CANCELLED</text><polygon fill="#181818" points="568.1528,252.9609,558.1528,256.9609,568.1528,260.9609,564.1528,256.9609" style="stroke:#181818;stroke-width:1.0;"/><line style="stroke:#181818;stroke-width:1.0;stroke-dasharray:2.0,2.0;" x1="562.1528" x2="765.2314" y1="256.9609" y2="256.9609"/><polygon fill="#181818" points="243.8369,266.9609,233.8369,270.9609,243.8369,274.9609,239.8369,270.9609" style="stroke:#181818;stroke-width:1.0;"/><line style="stroke:#181818;stroke-width:1.0;stroke-dasharray:2.0,2.0;" x1="237.8369" x2="341.3613" y1="270.9609" y2="270.9609"/><polygon fill="#181818" points="33,296.0938,23,300.0938,33,304.0938,29,300.0938" style="stroke:#181818;stroke-width:1.0;"/><line style="stroke:#181818;stroke-width:1.0;stroke-dasharray:2.0,2.0;" x1="27" x2="231.8369" y1="300.0938" y2="300.0938"/><text fill="#000000" font-family="sans-serif" font-size="13" lengthAdjust="spacing" textLength="60.5439" x="39" y="295.0278">{code:0}</text><rect fill="#EEEEEE" height="3" style="stroke:#EEEEEE;stroke-width:1.0;" width="798.2666" x="0" y="328.6602"/><line style="stroke:#000000;stroke-width:1.0;" x1="0" x2="798.2666" y1="328.6602" y2="328.6602"/><line style="stroke:#000000;stroke-width:1.0;" x1="0" x2="798.2666" y1="331.6602" y2="331.6602"/><rect fill="#EEEEEE" height="23.1328" style="stroke:#000000;stroke-width:2.0;" width="72.1509" x="363.0579" y="318.0938"/><text fill="#000000" font-family="sans-serif" font-size="13" font-weight="bold" lengthAdjust="spacing" textLength="53.625" x="369.0579" y="334.1606">&#30830;&#35748;&#25910;&#36135;</text><polygon fill="#181818" points="220.8369,368.3594,230.8369,372.3594,220.8369,376.3594,224.8369,372.3594" style="stroke:#181818;stroke-width:1.0;"/><line style="stroke:#181818;stroke-width:1.0;" x1="22" x2="226.8369" y1="372.3594" y2="372.3594"/><text fill="#000000" font-family="sans-serif" font-size="13" lengthAdjust="spacing" textLength="186.8369" x="29" y="367.2935">POST /api/order/{id}/receive</text><polygon fill="#181818" points="545.1528,397.4922,555.1528,401.4922,545.1528,405.4922,549.1528,401.4922" style="stroke:#181818;stroke-width:1.0;"/><line style="stroke:#181818;stroke-width:1.0;" x1="342.3613" x2="551.1528" y1="401.4922" y2="401.4922"/><text fill="#000000" font-family="sans-serif" font-size="13" lengthAdjust="spacing" textLength="190.7915" x="349.3613" y="396.4263">receiveOrder(orderId, userId)</text><polygon fill="#181818" points="754.2314,426.625,764.2314,430.625,754.2314,434.625,758.2314,430.625" style="stroke:#181818;stroke-width:1.0;"/><line style="stroke:#181818;stroke-width:1.0;" x1="557.1528" x2="760.2314" y1="430.625" y2="430.625"/><text fill="#000000" font-family="sans-serif" font-size="13" lengthAdjust="spacing" textLength="172.8721" x="564.1528" y="425.5591">UPDATE status=RECEIVED</text><polygon fill="#181818" points="568.1528,440.625,558.1528,444.625,568.1528,448.625,564.1528,444.625" style="stroke:#181818;stroke-width:1.0;"/><line style="stroke:#181818;stroke-width:1.0;stroke-dasharray:2.0,2.0;" x1="562.1528" x2="765.2314" y1="444.625" y2="444.625"/><polygon fill="#181818" points="243.8369,454.625,233.8369,458.625,243.8369,462.625,239.8369,458.625" style="stroke:#181818;stroke-width:1.0;"/><line style="stroke:#181818;stroke-width:1.0;stroke-dasharray:2.0,2.0;" x1="237.8369" x2="341.3613" y1="458.625" y2="458.625"/><polygon fill="#181818" points="33,483.7578,23,487.7578,33,491.7578,29,487.7578" style="stroke:#181818;stroke-width:1.0;"/><line style="stroke:#181818;stroke-width:1.0;stroke-dasharray:2.0,2.0;" x1="27" x2="231.8369" y1="487.7578" y2="487.7578"/><text fill="#000000" font-family="sans-serif" font-size="13" lengthAdjust="spacing" textLength="60.5439" x="39" y="482.6919">{code:0}</text><!--SRC=[bOynIyD068Rt-nKVdHGiSGv4A6cGIBJLH9qlTqSvY4cukoQKqi6jYxXKTqMmKroa_gAc-HdchbqA3dQx-xw7ztjUJ5GcOBDOrlCVm1B6aWcKOw4uuJbE5PnZnKeyqRjHkRVf30HbmirI9R8aOQAZ6Q94yWSLCb5mmlo7F36OB0YYME4OImQNa_0wq5CQ8-Gui7v-hLVpfdfVFxs0uo3j1DspzhuDmq4OWOLpRcKwrvfoEhC8JWbBqAZKb3QmuU8-QggFvkiHwR-UjoTjs996wSW4-FJ4TFRfCMe93TBOXjjXlnTv81LMO-culIlN2mAlZsWCtMtMBjTecSljImVPC2KPPVRfp7JPl5MjHxrODT-V_-eY666yOFlQk-6XtZUUw_bt1sh_0W00]--></g></svg>