<svg xmlns="http://www.w3.org/2000/svg" xmlns:xlink="http://www.w3.org/1999/xlink" contentStyleType="text/css" height="443px" preserveAspectRatio="none" style="width:887px;height:443px;background:#FFFFFF;" version="1.1" viewBox="0 0 887 443" width="887px" zoomAndPan="magnify"><defs/><g><line style="stroke:#181818;stroke-width:0.5;stroke-dasharray:5.0,5.0;" x1="22" x2="22" y1="81.2969" y2="362.3594"/><line style="stroke:#181818;stroke-width:0.5;stroke-dasharray:5.0,5.0;" x1="284.0479" x2="284.0479" y1="81.2969" y2="362.3594"/><line style="stroke:#181818;stroke-width:0.5;stroke-dasharray:5.0,5.0;" x1="467.2744" x2="467.2744" y1="81.2969" y2="362.3594"/><line style="stroke:#181818;stroke-width:0.5;stroke-dasharray:5.0,5.0;" x1="673.084" x2="673.084" y1="81.2969" y2="362.3594"/><line style="stroke:#181818;stroke-width:0.5;stroke-dasharray:5.0,5.0;" x1="852.8838" x2="852.8838" y1="81.2969" y2="362.3594"/><text fill="#000000" font-family="sans-serif" font-size="14" lengthAdjust="spacing" textLength="28" x="5" y="77.9951">&#29992;&#25143;</text><ellipse cx="22" cy="13.5" fill="#E2E2F0" rx="8" ry="8" style="stroke:#181818;stroke-width:0.5;"/><path d="M22,21.5 L22,48.5 M9,29.5 L35,29.5 M22,48.5 L9,63.5 M22,48.5 L35,63.5 " fill="none" style="stroke:#181818;stroke-width:0.5;"/><text fill="#000000" font-family="sans-serif" font-size="14" lengthAdjust="spacing" textLength="28" x="5" y="374.3545">&#29992;&#25143;</text><ellipse cx="22" cy="386.1563" fill="#E2E2F0" rx="8" ry="8" style="stroke:#181818;stroke-width:0.5;"/><path d="M22,394.1563 L22,421.1563 M9,402.1563 L35,402.1563 M22,421.1563 L9,436.1563 M22,421.1563 L35,436.1563 " fill="none" style="stroke:#181818;stroke-width:0.5;"/><rect fill="#E2E2F0" height="30.2969" rx="2.5" ry="2.5" style="stroke:#181818;stroke-width:0.5;" width="75.8447" x="247.0479" y="50"/><text fill="#000000" font-family="sans-serif" font-size="14" lengthAdjust="spacing" textLength="61.8447" x="254.0479" y="69.9951">Gateway</text><rect fill="#E2E2F0" height="30.2969" rx="2.5" ry="2.5" style="stroke:#181818;stroke-width:0.5;" width="75.8447" x="247.0479" y="361.3594"/><text fill="#000000" font-family="sans-serif" font-size="14" lengthAdjust="spacing" textLength="61.8447" x="254.0479" y="381.3545">Gateway</text><rect fill="#E2E2F0" height="30.2969" rx="2.5" ry="2.5" style="stroke:#181818;stroke-width:0.5;" width="133.752" x="401.2744" y="50"/><text fill="#000000" font-family="sans-serif" font-size="14" lengthAdjust="spacing" textLength="119.752" x="408.2744" y="69.9951">ReviewController</text><rect fill="#E2E2F0" height="30.2969" rx="2.5" ry="2.5" style="stroke:#181818;stroke-width:0.5;" width="133.752" x="401.2744" y="361.3594"/><text fill="#000000" font-family="sans-serif" font-size="14" lengthAdjust="spacing" textLength="119.752" x="408.2744" y="381.3545">ReviewController</text><rect fill="#E2E2F0" height="30.2969" rx="2.5" ry="2.5" style="stroke:#181818;stroke-width:0.5;" width="146.8633" x="600.084" y="50"/><text fill="#000000" font-family="sans-serif" font-size="14" lengthAdjust="spacing" textLength="132.8633" x="607.084" y="69.9951">ReviewServiceImpl</text><rect fill="#E2E2F0" height="30.2969" rx="2.5" ry="2.5" style="stroke:#181818;stroke-width:0.5;" width="146.8633" x="600.084" y="361.3594"/><text fill="#000000" font-family="sans-serif" font-size="14" lengthAdjust="spacing" textLength="132.8633" x="607.084" y="381.3545">ReviewServiceImpl</text><text fill="#000000" font-family="sans-serif" font-size="14" lengthAdjust="spacing" textLength="48.0703" x="825.8838" y="77.9951">MySQL</text><path d="M834.9189,29 C834.9189,19 852.9189,19 852.9189,19 C852.9189,19 870.9189,19 870.9189,29 L870.9189,55 C870.9189,65 852.9189,65 852.9189,65 C852.9189,65 834.9189,65 834.9189,55 L834.9189,29 " fill="#E2E2F0" style="stroke:#181818;stroke-width:1.5;"/><path d="M834.9189,29 C834.9189,39 852.9189,39 852.9189,39 C852.9189,39 870.9189,39 870.9189,29 " fill="none" style="stroke:#181818;stroke-width:1.5;"/><text fill="#000000" font-family="sans-serif" font-size="14" lengthAdjust="spacing" textLength="48.0703" x="825.8838" y="374.3545">MySQL</text><path d="M834.9189,387.6563 C834.9189,377.6563 852.9189,377.6563 852.9189,377.6563 C852.9189,377.6563 870.9189,377.6563 870.9189,387.6563 L870.9189,413.6563 C870.9189,423.6563 852.9189,423.6563 852.9189,423.6563 C852.9189,423.6563 834.9189,423.6563 834.9189,413.6563 L834.9189,387.6563 " fill="#E2E2F0" style="stroke:#181818;stroke-width:1.5;"/><path d="M834.9189,387.6563 C834.9189,397.6563 852.9189,397.6563 852.9189,397.6563 C852.9189,397.6563 870.9189,397.6563 870.9189,387.6563 " fill="none" style="stroke:#181818;stroke-width:1.5;"/><polygon fill="#181818" points="272.9702,123.5625,282.9702,127.5625,272.9702,131.5625,276.9702,127.5625" style="stroke:#181818;stroke-width:1.0;"/><line style="stroke:#181818;stroke-width:1.0;" x1="22" x2="278.9702" y1="127.5625" y2="127.5625"/><text fill="#000000" font-family="sans-serif" font-size="13" lengthAdjust="spacing" textLength="177.3345" x="29" y="107.3638">1 POST /api/product/review</text><text fill="#000000" font-family="sans-serif" font-size="13" lengthAdjust="spacing" textLength="238.9702" x="29" y="122.4966">{productId, orderId, rating, content}</text><polygon fill="#181818" points="456.1504,152.6953,466.1504,156.6953,456.1504,160.6953,460.1504,156.6953" style="stroke:#181818;stroke-width:1.0;"/><line style="stroke:#181818;stroke-width:1.0;" x1="284.9702" x2="462.1504" y1="156.6953" y2="156.6953"/><text fill="#000000" font-family="sans-serif" font-size="13" lengthAdjust="spacing" textLength="159.1802" x="291.9702" y="151.6294">2 JWT&#35748;&#35777;(&#36879;&#20256;X-User-Id)</text><polygon fill="#181818" points="661.5156,181.8281,671.5156,185.8281,661.5156,189.8281,665.5156,185.8281" style="stroke:#181818;stroke-width:1.0;"/><line style="stroke:#181818;stroke-width:1.0;" x1="468.1504" x2="667.5156" y1="185.8281" y2="185.8281"/><text fill="#000000" font-family="sans-serif" font-size="13" lengthAdjust="spacing" textLength="181.3652" x="475.1504" y="180.7622">3 createReview(userId, req)</text><polygon fill="#181818" points="840.9189,210.9609,850.9189,214.9609,840.9189,218.9609,844.9189,214.9609" style="stroke:#181818;stroke-width:1.0;"/><line style="stroke:#181818;stroke-width:1.0;" x1="673.5156" x2="846.9189" y1="214.9609" y2="214.9609"/><text fill="#000000" font-family="sans-serif" font-size="13" lengthAdjust="spacing" textLength="155.4033" x="680.5156" y="209.895">4 &#26657;&#39564;&#35746;&#21333;&#24050;&#31614;&#25910;&#12289;&#26410;&#35780;&#20215;</text><polygon fill="#181818" points="684.5156,224.9609,674.5156,228.9609,684.5156,232.9609,680.5156,228.9609" style="stroke:#181818;stroke-width:1.0;"/><line style="stroke:#181818;stroke-width:1.0;stroke-dasharray:2.0,2.0;" x1="678.5156" x2="851.9189" y1="228.9609" y2="228.9609"/><polygon fill="#181818" points="840.9189,254.0938,850.9189,258.0938,840.9189,262.0938,844.9189,258.0938" style="stroke:#181818;stroke-width:1.0;"/><line style="stroke:#181818;stroke-width:1.0;" x1="673.5156" x2="846.9189" y1="258.0938" y2="258.0938"/><text fill="#000000" font-family="sans-serif" font-size="13" lengthAdjust="spacing" textLength="106.812" x="680.5156" y="253.0278">5 INSERT review</text><polygon fill="#181818" points="684.5156,268.0938,674.5156,272.0938,684.5156,276.0938,680.5156,272.0938" style="stroke:#181818;stroke-width:1.0;"/><line style="stroke:#181818;stroke-width:1.0;stroke-dasharray:2.0,2.0;" x1="678.5156" x2="851.9189" y1="272.0938" y2="272.0938"/><polygon fill="#181818" points="479.1504,297.2266,469.1504,301.2266,479.1504,305.2266,475.1504,301.2266" style="stroke:#181818;stroke-width:1.0;"/><line style="stroke:#181818;stroke-width:1.0;stroke-dasharray:2.0,2.0;" x1="473.1504" x2="672.5156" y1="301.2266" y2="301.2266"/><text fill="#000000" font-family="sans-serif" font-size="13" lengthAdjust="spacing" textLength="67.7676" x="485.1504" y="296.1606">6 reviewId</text><polygon fill="#181818" points="295.9702,311.2266,285.9702,315.2266,295.9702,319.2266,291.9702,315.2266" style="stroke:#181818;stroke-width:1.0;"/><line style="stroke:#181818;stroke-width:1.0;stroke-dasharray:2.0,2.0;" x1="289.9702" x2="467.1504" y1="315.2266" y2="315.2266"/><polygon fill="#181818" points="33,340.3594,23,344.3594,33,348.3594,29,344.3594" style="stroke:#181818;stroke-width:1.0;"/><line style="stroke:#181818;stroke-width:1.0;stroke-dasharray:2.0,2.0;" x1="27" x2="283.9702" y1="344.3594" y2="344.3594"/><text fill="#000000" font-family="sans-serif" font-size="13" lengthAdjust="spacing" textLength="170.2378" x="39" y="339.2935">7 {code:0, data:reviewId}</text><!--SRC=[RP2zIWD1483xVOeXLG8vuh-mXOs8dFYRYsXXixUxX8FpxjpRv0WXa825XM8JEuie5X8m0GjJABwCoUNo5kvUeYZQ3JFVp7mpX4fVmBZz65yCW8HG2Rb00H7IeKv0F0cRHFA8r7Ij7FsgP8gywl1etVUay5sNYuo6g1JkVvZ5HTMXt3mDt9GBgnGn8ebDGWuxDUjWMsUPZP1M06DDhSCm3_jxLWaA970AWV1PXSg2IEUTUFLPmcHvy0NZGWU2ICShvu4gA-x91Yf7UfQsmh00MqUbfFUGz5lPIVDw-DOvDWxLDiDaEQGHZIen38j01LUNJzspMYcTpizoI06QOpQ69OWxTvFkPTAx7rtTZ0RFuwVtkFtoqMp5jzsaVpvy7I1cWp4T-xDp6SnTQwDOWkarVwXlvvKPORAPOVgPz2mLQJ4Cgr2dFkDuBW_wfVYhe_49]--></g></svg>