<svg xmlns="http://www.w3.org/2000/svg" xmlns:xlink="http://www.w3.org/1999/xlink" contentStyleType="text/css" height="675px" preserveAspectRatio="none" style="width:962px;height:675px;background:#FFFFFF;" version="1.1" viewBox="0 0 962 675" width="962px" zoomAndPan="magnify"><defs/><g><line style="stroke:#181818;stroke-width:0.5;stroke-dasharray:5.0,5.0;" x1="22" x2="22" y1="81.2969" y2="594.2891"/><line style="stroke:#181818;stroke-width:0.5;stroke-dasharray:5.0,5.0;" x1="273.5806" x2="273.5806" y1="81.2969" y2="594.2891"/><line style="stroke:#181818;stroke-width:0.5;stroke-dasharray:5.0,5.0;" x1="392.4253" x2="392.4253" y1="81.2969" y2="594.2891"/><line style="stroke:#181818;stroke-width:0.5;stroke-dasharray:5.0,5.0;" x1="639.8848" x2="639.8848" y1="81.2969" y2="594.2891"/><line style="stroke:#181818;stroke-width:0.5;stroke-dasharray:5.0,5.0;" x1="923.0581" x2="923.0581" y1="81.2969" y2="594.2891"/><text fill="#000000" font-family="sans-serif" font-size="14" lengthAdjust="spacing" textLength="28" x="5" y="77.9951">&#29992;&#25143;</text><ellipse cx="22" cy="13.5" fill="#E2E2F0" rx="8" ry="8" style="stroke:#181818;stroke-width:0.5;"/><path d="M22,21.5 L22,48.5 M9,29.5 L35,29.5 M22,48.5 L9,63.5 M22,48.5 L35,63.5 " fill="none" style="stroke:#181818;stroke-width:0.5;"/><text fill="#000000" font-family="sans-serif" font-size="14" lengthAdjust="spacing" textLength="28" x="5" y="606.2842">&#29992;&#25143;</text><ellipse cx="22" cy="618.0859" fill="#E2E2F0" rx="8" ry="8" style="stroke:#181818;stroke-width:0.5;"/><path d="M22,626.0859 L22,653.0859 M9,634.0859 L35,634.0859 M22,653.0859 L9,668.0859 M22,653.0859 L35,668.0859 " fill="none" style="stroke:#181818;stroke-width:0.5;"/><rect fill="#E2E2F0" height="30.2969" rx="2.5" ry="2.5" style="stroke:#181818;stroke-width:0.5;" width="75.8447" x="236.5806" y="50"/><text fill="#000000" font-family="sans-serif" font-size="14" lengthAdjust="spacing" textLength="61.8447" x="243.5806" y="69.9951">Gateway</text><rect fill="#E2E2F0" height="30.2969" rx="2.5" ry="2.5" style="stroke:#181818;stroke-width:0.5;" width="75.8447" x="236.5806" y="593.2891"/><text fill="#000000" font-family="sans-serif" font-size="14" lengthAdjust="spacing" textLength="61.8447" x="243.5806" y="613.2842">Gateway</text><rect fill="#E2E2F0" height="30.2969" rx="2.5" ry="2.5" style="stroke:#181818;stroke-width:0.5;" width="140.4033" x="322.4253" y="50"/><text fill="#000000" font-family="sans-serif" font-size="14" lengthAdjust="spacing" textLength="126.4033" x="329.4253" y="69.9951">FavoriteController</text><rect fill="#E2E2F0" height="30.2969" rx="2.5" ry="2.5" style="stroke:#181818;stroke-width:0.5;" width="140.4033" x="322.4253" y="593.2891"/><text fill="#000000" font-family="sans-serif" font-size="14" lengthAdjust="spacing" textLength="126.4033" x="329.4253" y="613.2842">FavoriteController</text><rect fill="#E2E2F0" height="30.2969" rx="2.5" ry="2.5" style="stroke:#181818;stroke-width:0.5;" width="153.5146" x="563.8848" y="50"/><text fill="#000000" font-family="sans-serif" font-size="14" lengthAdjust="spacing" textLength="139.5146" x="570.8848" y="69.9951">FavoriteServiceImpl</text><rect fill="#E2E2F0" height="30.2969" rx="2.5" ry="2.5" style="stroke:#181818;stroke-width:0.5;" width="153.5146" x="563.8848" y="593.2891"/><text fill="#000000" font-family="sans-serif" font-size="14" lengthAdjust="spacing" textLength="139.5146" x="570.8848" y="613.2842">FavoriteServiceImpl</text><text fill="#000000" font-family="sans-serif" font-size="14" lengthAdjust="spacing" textLength="48.0703" x="896.0581" y="77.9951">MySQL</text><path d="M905.0933,29 C905.0933,19 923.0933,19 923.0933,19 C923.0933,19 941.0933,19 941.0933,29 L941.0933,55 C941.0933,65 923.0933,65 923.0933,65 C923.0933,65 905.0933,65 905.0933,55 L905.0933,29 " fill="#E2E2F0" style="stroke:#181818;stroke-width:1.5;"/><path d="M905.0933,29 C905.0933,39 923.0933,39 923.0933,39 C923.0933,39 941.0933,39 941.0933,29 " fill="none" style="stroke:#181818;stroke-width:1.5;"/><text fill="#000000" font-family="sans-serif" font-size="14" lengthAdjust="spacing" textLength="48.0703" x="896.0581" y="606.2842">MySQL</text><path d="M905.0933,619.5859 C905.0933,609.5859 923.0933,609.5859 923.0933,609.5859 C923.0933,609.5859 941.0933,609.5859 941.0933,619.5859 L941.0933,645.5859 C941.0933,655.5859 923.0933,655.5859 923.0933,655.5859 C923.0933,655.5859 905.0933,655.5859 905.0933,645.5859 L905.0933,619.5859 " fill="#E2E2F0" style="stroke:#181818;stroke-width:1.5;"/><path d="M905.0933,619.5859 C905.0933,629.5859 923.0933,629.5859 923.0933,629.5859 C923.0933,629.5859 941.0933,629.5859 941.0933,619.5859 " fill="none" style="stroke:#181818;stroke-width:1.5;"/><rect fill="#EEEEEE" height="3" style="stroke:#EEEEEE;stroke-width:1.0;" width="955.1284" x="0" y="111.8633"/><line style="stroke:#000000;stroke-width:1.0;" x1="0" x2="955.1284" y1="111.8633" y2="111.8633"/><line style="stroke:#000000;stroke-width:1.0;" x1="0" x2="955.1284" y1="114.8633" y2="114.8633"/><rect fill="#EEEEEE" height="23.1328" style="stroke:#000000;stroke-width:2.0;" width="45.3384" x="454.895" y="101.2969"/><text fill="#000000" font-family="sans-serif" font-size="13" font-weight="bold" lengthAdjust="spacing" textLength="26.8125" x="460.895" y="117.3638">&#25910;&#34255;</text><polygon fill="#181818" points="262.5029,166.6953,272.5029,170.6953,262.5029,174.6953,266.5029,170.6953" style="stroke:#181818;stroke-width:1.0;"/><line style="stroke:#181818;stroke-width:1.0;" x1="22" x2="268.5029" y1="170.6953" y2="170.6953"/><text fill="#000000" font-family="sans-serif" font-size="13" lengthAdjust="spacing" textLength="171.8945" x="29" y="150.4966">POST /api/product/favorite</text><text fill="#000000" font-family="sans-serif" font-size="13" lengthAdjust="spacing" textLength="78.9141" x="29" y="165.6294">{productId}</text><polygon fill="#181818" points="380.627,195.8281,390.627,199.8281,380.627,203.8281,384.627,199.8281" style="stroke:#181818;stroke-width:1.0;"/><line style="stroke:#181818;stroke-width:1.0;" x1="274.5029" x2="386.627" y1="199.8281" y2="199.8281"/><text fill="#000000" font-family="sans-serif" font-size="13" lengthAdjust="spacing" textLength="50.6289" x="281.5029" y="194.7622">JWT&#35748;&#35777;</text><polygon fill="#181818" points="628.6421,224.9609,638.6421,228.9609,628.6421,232.9609,632.6421,228.9609" style="stroke:#181818;stroke-width:1.0;"/><line style="stroke:#181818;stroke-width:1.0;" x1="392.627" x2="634.6421" y1="228.9609" y2="228.9609"/><text fill="#000000" font-family="sans-serif" font-size="13" lengthAdjust="spacing" textLength="198.834" x="399.627" y="223.895">addFavorite(userId, productId)</text><polygon fill="#181818" points="911.0933,254.0938,921.0933,258.0938,911.0933,262.0938,915.0933,258.0938" style="stroke:#181818;stroke-width:1.0;"/><line style="stroke:#181818;stroke-width:1.0;" x1="640.6421" x2="917.0933" y1="258.0938" y2="258.0938"/><text fill="#000000" font-family="sans-serif" font-size="13" lengthAdjust="spacing" textLength="168.6826" x="647.6421" y="253.0278">INSERT (uk_user_product)</text><polygon fill="#181818" points="651.6421,268.0938,641.6421,272.0938,651.6421,276.0938,647.6421,272.0938" style="stroke:#181818;stroke-width:1.0;"/><line style="stroke:#181818;stroke-width:1.0;stroke-dasharray:2.0,2.0;" x1="645.6421" x2="922.0933" y1="272.0938" y2="272.0938"/><polygon fill="#181818" points="285.5029,282.0938,275.5029,286.0938,285.5029,290.0938,281.5029,286.0938" style="stroke:#181818;stroke-width:1.0;"/><line style="stroke:#181818;stroke-width:1.0;stroke-dasharray:2.0,2.0;" x1="279.5029" x2="391.627" y1="286.0938" y2="286.0938"/><polygon fill="#181818" points="33,311.2266,23,315.2266,33,319.2266,29,315.2266" style="stroke:#181818;stroke-width:1.0;"/><line style="stroke:#181818;stroke-width:1.0;stroke-dasharray:2.0,2.0;" x1="27" x2="273.5029" y1="315.2266" y2="315.2266"/><text fill="#000000" font-family="sans-serif" font-size="13" lengthAdjust="spacing" textLength="60.5439" x="39" y="310.1606">{code:0}</text><rect fill="#EEEEEE" height="3" style="stroke:#EEEEEE;stroke-width:1.0;" width="955.1284" x="0" y="343.793"/><line style="stroke:#000000;stroke-width:1.0;" x1="0" x2="955.1284" y1="343.793" y2="343.793"/><line style="stroke:#000000;stroke-width:1.0;" x1="0" x2="955.1284" y1="346.793" y2="346.793"/><rect fill="#EEEEEE" height="23.1328" style="stroke:#000000;stroke-width:2.0;" width="72.1509" x="441.4888" y="333.2266"/><text fill="#000000" font-family="sans-serif" font-size="13" font-weight="bold" lengthAdjust="spacing" textLength="53.625" x="447.4888" y="349.2935">&#21462;&#28040;&#25910;&#34255;</text><polygon fill="#181818" points="262.5029,383.4922,272.5029,387.4922,262.5029,391.4922,266.5029,387.4922" style="stroke:#181818;stroke-width:1.0;"/><line style="stroke:#181818;stroke-width:1.0;" x1="22" x2="268.5029" y1="387.4922" y2="387.4922"/><text fill="#000000" font-family="sans-serif" font-size="13" lengthAdjust="spacing" textLength="228.5029" x="29" y="382.4263">DELETE /api/product/favorite/{pid}</text><polygon fill="#181818" points="628.6421,412.625,638.6421,416.625,628.6421,420.625,632.6421,416.625" style="stroke:#181818;stroke-width:1.0;"/><line style="stroke:#181818;stroke-width:1.0;" x1="392.627" x2="634.6421" y1="416.625" y2="416.625"/><text fill="#000000" font-family="sans-serif" font-size="13" lengthAdjust="spacing" textLength="224.0151" x="399.627" y="411.5591">removeFavorite(userId, productId)</text><polygon fill="#181818" points="911.0933,441.7578,921.0933,445.7578,911.0933,449.7578,915.0933,445.7578" style="stroke:#181818;stroke-width:1.0;"/><line style="stroke:#181818;stroke-width:1.0;" x1="640.6421" x2="917.0933" y1="445.7578" y2="445.7578"/><text fill="#000000" font-family="sans-serif" font-size="13" lengthAdjust="spacing" textLength="258.4512" x="647.6421" y="440.6919">DELETE WHERE user_id AND product_id</text><rect fill="#EEEEEE" height="3" style="stroke:#EEEEEE;stroke-width:1.0;" width="955.1284" x="0" y="474.3242"/><line style="stroke:#000000;stroke-width:1.0;" x1="0" x2="955.1284" y1="474.3242" y2="474.3242"/><line style="stroke:#000000;stroke-width:1.0;" x1="0" x2="955.1284" y1="477.3242" y2="477.3242"/><rect fill="#EEEEEE" height="23.1328" style="stroke:#000000;stroke-width:2.0;" width="72.1509" x="441.4888" y="463.7578"/><text fill="#000000" font-family="sans-serif" font-size="13" font-weight="bold" lengthAdjust="spacing" textLength="53.625" x="447.4888" y="479.8247">&#25910;&#34255;&#21015;&#34920;</text><polygon fill="#181818" points="262.5029,514.0234,272.5029,518.0234,262.5029,522.0234,266.5029,518.0234" style="stroke:#181818;stroke-width:1.0;"/><line style="stroke:#181818;stroke-width:1.0;" x1="22" x2="268.5029" y1="518.0234" y2="518.0234"/><text fill="#000000" font-family="sans-serif" font-size="13" lengthAdjust="spacing" textLength="225.2529" x="29" y="512.9575">GET /api/product/favorite/favorites</text><polygon fill="#181818" points="628.6421,543.1563,638.6421,547.1563,628.6421,551.1563,632.6421,547.1563" style="stroke:#181818;stroke-width:1.0;"/><line style="stroke:#181818;stroke-width:1.0;" x1="392.627" x2="634.6421" y1="547.1563" y2="547.1563"/><text fill="#000000" font-family="sans-serif" font-size="13" lengthAdjust="spacing" textLength="170.3267" x="399.627" y="542.0903">listFavorites(userId, page)</text><polygon fill="#181818" points="911.0933,572.2891,921.0933,576.2891,911.0933,580.2891,915.0933,576.2891" style="stroke:#181818;stroke-width:1.0;"/><line style="stroke:#181818;stroke-width:1.0;" x1="640.6421" x2="917.0933" y1="576.2891" y2="576.2891"/><text fill="#000000" font-family="sans-serif" font-size="13" lengthAdjust="spacing" textLength="127.1436" x="647.6421" y="571.2231">&#20998;&#39029;&#26597;&#35810;(&#20851;&#32852;&#21830;&#21697;&#34920;)</text><!--SRC=[ZP31Ji9048Rl-nGJJf18whb9JOnKh45K8E5YGhRTbMmijDak9OHmu23Xna6Key5emaaEHdoYOdqBkxMW64oyxSpy-y_t3xQ4m-5zF5iEtm1xqF8eHoxcWbdCnKq1UIne6tVahDxUcAGEiUzm9kY1qnJSiMtAKr9c2Mvl5vOfzvb5ZOPhnqhFjn310flOet3IAPyNP9UO26aQBCUBS382JKEI2R9xqNuLpaxB5L2monINEwHb2UKoCRzeTfEMGNgetfO_98eAnzLA-FmOplj8rh8VBLO14x82IyiL1jc1jKC6HHef9QOAHh6ibogGRbtLfB2Mg3A8c93ziakiOyfuUVIIMXMwbaEekjkBGmMZk-LYk3rQJY_e5NrxEANhiYZL1Z-d3SUd_uoGc5UFz98UWzKOWVrYRYMFoXzN3uQJS3hx3PZN_pZz-k5j4jhC4oi-xniGr-a6Mp0SV4nVb_TFuVmX7Lo_XFrnS3i8RleHG-OJ]--></g></svg>