<svg xmlns="http://www.w3.org/2000/svg" xmlns:xlink="http://www.w3.org/1999/xlink" contentStyleType="text/css" height="471px" preserveAspectRatio="none" style="width:881px;height:471px;background:#FFFFFF;" version="1.1" viewBox="0 0 881 471" width="881px" zoomAndPan="magnify"><defs/><g><line style="stroke:#181818;stroke-width:0.5;stroke-dasharray:5.0,5.0;" x1="22" x2="22" y1="81.2969" y2="390.3594"/><line style="stroke:#181818;stroke-width:0.5;stroke-dasharray:5.0,5.0;" x1="292.4268" x2="292.4268" y1="81.2969" y2="390.3594"/><line style="stroke:#181818;stroke-width:0.5;stroke-dasharray:5.0,5.0;" x1="409.2715" x2="409.2715" y1="81.2969" y2="390.3594"/><line style="stroke:#181818;stroke-width:0.5;stroke-dasharray:5.0,5.0;" x1="648.5552" x2="648.5552" y1="81.2969" y2="390.3594"/><line style="stroke:#181818;stroke-width:0.5;stroke-dasharray:5.0,5.0;" x1="846.0942" x2="846.0942" y1="81.2969" y2="390.3594"/><text fill="#000000" font-family="sans-serif" font-size="14" lengthAdjust="spacing" textLength="28" x="5" y="77.9951">&#29992;&#25143;</text><ellipse cx="22" cy="13.5" fill="#E2E2F0" rx="8" ry="8" style="stroke:#181818;stroke-width:0.5;"/><path d="M22,21.5 L22,48.5 M9,29.5 L35,29.5 M22,48.5 L9,63.5 M22,48.5 L35,63.5 " fill="none" style="stroke:#181818;stroke-width:0.5;"/><text fill="#000000" font-family="sans-serif" font-size="14" lengthAdjust="spacing" textLength="28" x="5" y="402.3545">&#29992;&#25143;</text><ellipse cx="22" cy="414.1563" fill="#E2E2F0" rx="8" ry="8" style="stroke:#181818;stroke-width:0.5;"/><path d="M22,422.1563 L22,449.1563 M9,430.1563 L35,430.1563 M22,449.1563 L9,464.1563 M22,449.1563 L35,464.1563 " fill="none" style="stroke:#181818;stroke-width:0.5;"/><rect fill="#E2E2F0" height="30.2969" rx="2.5" ry="2.5" style="stroke:#181818;stroke-width:0.5;" width="75.8447" x="255.4268" y="50"/><text fill="#000000" font-family="sans-serif" font-size="14" lengthAdjust="spacing" textLength="61.8447" x="262.4268" y="69.9951">Gateway</text><rect fill="#E2E2F0" height="30.2969" rx="2.5" ry="2.5" style="stroke:#181818;stroke-width:0.5;" width="75.8447" x="255.4268" y="389.3594"/><text fill="#000000" font-family="sans-serif" font-size="14" lengthAdjust="spacing" textLength="61.8447" x="262.4268" y="409.3545">Gateway</text><rect fill="#E2E2F0" height="30.2969" rx="2.5" ry="2.5" style="stroke:#181818;stroke-width:0.5;" width="136.7119" x="341.2715" y="50"/><text fill="#000000" font-family="sans-serif" font-size="14" lengthAdjust="spacing" textLength="122.7119" x="348.2715" y="69.9951">CouponController</text><rect fill="#E2E2F0" height="30.2969" rx="2.5" ry="2.5" style="stroke:#181818;stroke-width:0.5;" width="136.7119" x="341.2715" y="389.3594"/><text fill="#000000" font-family="sans-serif" font-size="14" lengthAdjust="spacing" textLength="122.7119" x="348.2715" y="409.3545">CouponController</text><rect fill="#E2E2F0" height="30.2969" rx="2.5" ry="2.5" style="stroke:#181818;stroke-width:0.5;" width="149.8232" x="574.5552" y="50"/><text fill="#000000" font-family="sans-serif" font-size="14" lengthAdjust="spacing" textLength="135.8232" x="581.5552" y="69.9951">CouponServiceImpl</text><rect fill="#E2E2F0" height="30.2969" rx="2.5" ry="2.5" style="stroke:#181818;stroke-width:0.5;" width="149.8232" x="574.5552" y="389.3594"/><text fill="#000000" font-family="sans-serif" font-size="14" lengthAdjust="spacing" textLength="135.8232" x="581.5552" y="409.3545">CouponServiceImpl</text><text fill="#000000" font-family="sans-serif" font-size="14" lengthAdjust="spacing" textLength="48.0703" x="819.0942" y="77.9951">MySQL</text><path d="M828.1294,29 C828.1294,19 846.1294,19 846.1294,19 C846.1294,19 864.1294,19 864.1294,29 L864.1294,55 C864.1294,65 846.1294,65 846.1294,65 C846.1294,65 828.1294,65 828.1294,55 L828.1294,29 " fill="#E2E2F0" style="stroke:#181818;stroke-width:1.5;"/><path d="M828.1294,29 C828.1294,39 846.1294,39 846.1294,39 C846.1294,39 864.1294,39 864.1294,29 " fill="none" style="stroke:#181818;stroke-width:1.5;"/><text fill="#000000" font-family="sans-serif" font-size="14" lengthAdjust="spacing" textLength="48.0703" x="819.0942" y="402.3545">MySQL</text><path d="M828.1294,415.6563 C828.1294,405.6563 846.1294,405.6563 846.1294,405.6563 C846.1294,405.6563 864.1294,405.6563 864.1294,415.6563 L864.1294,441.6563 C864.1294,451.6563 846.1294,451.6563 846.1294,451.6563 C846.1294,451.6563 828.1294,451.6563 828.1294,441.6563 L828.1294,415.6563 " fill="#E2E2F0" style="stroke:#181818;stroke-width:1.5;"/><path d="M828.1294,415.6563 C828.1294,425.6563 846.1294,425.6563 846.1294,425.6563 C846.1294,425.6563 864.1294,425.6563 864.1294,415.6563 " fill="none" style="stroke:#181818;stroke-width:1.5;"/><polygon fill="#181818" points="281.3491,108.4297,291.3491,112.4297,281.3491,116.4297,285.3491,112.4297" style="stroke:#181818;stroke-width:1.0;"/><line style="stroke:#181818;stroke-width:1.0;" x1="22" x2="287.3491" y1="112.4297" y2="112.4297"/><text fill="#000000" font-family="sans-serif" font-size="13" lengthAdjust="spacing" textLength="247.3491" x="29" y="107.3638">1 POST /api/coupon/claim/{couponId}</text><polygon fill="#181818" points="397.6274,137.5625,407.6274,141.5625,397.6274,145.5625,401.6274,141.5625" style="stroke:#181818;stroke-width:1.0;"/><line style="stroke:#181818;stroke-width:1.0;" x1="293.3491" x2="403.6274" y1="141.5625" y2="141.5625"/><text fill="#000000" font-family="sans-serif" font-size="13" lengthAdjust="spacing" textLength="63.0322" x="300.3491" y="136.4966">2 JWT&#35748;&#35777;</text><polygon fill="#181818" points="637.4668,166.6953,647.4668,170.6953,637.4668,174.6953,641.4668,170.6953" style="stroke:#181818;stroke-width:1.0;"/><line style="stroke:#181818;stroke-width:1.0;" x1="409.6274" x2="643.4668" y1="170.6953" y2="170.6953"/><text fill="#000000" font-family="sans-serif" font-size="13" lengthAdjust="spacing" textLength="215.8394" x="416.6274" y="165.6294">3 claimCoupon(userId, couponId)</text><polygon fill="#181818" points="834.1294,195.8281,844.1294,199.8281,834.1294,203.8281,838.1294,199.8281" style="stroke:#181818;stroke-width:1.0;"/><line style="stroke:#181818;stroke-width:1.0;" x1="649.4668" x2="840.1294" y1="199.8281" y2="199.8281"/><text fill="#000000" font-family="sans-serif" font-size="13" lengthAdjust="spacing" textLength="133.7832" x="656.4668" y="194.7622">4 &#26657;&#39564;&#20248;&#24800;&#21048;&#26102;&#38388;/&#24211;&#23384;</text><polygon fill="#181818" points="660.4668,209.8281,650.4668,213.8281,660.4668,217.8281,656.4668,213.8281" style="stroke:#181818;stroke-width:1.0;"/><line style="stroke:#181818;stroke-width:1.0;stroke-dasharray:2.0,2.0;" x1="654.4668" x2="845.1294" y1="213.8281" y2="213.8281"/><polygon fill="#181818" points="834.1294,238.9609,844.1294,242.9609,834.1294,246.9609,838.1294,242.9609" style="stroke:#181818;stroke-width:1.0;"/><line style="stroke:#181818;stroke-width:1.0;" x1="649.4668" x2="840.1294" y1="242.9609" y2="242.9609"/><text fill="#000000" font-family="sans-serif" font-size="13" lengthAdjust="spacing" textLength="172.6626" x="656.4668" y="237.895">5 UPDATE taken=taken+1</text><polygon fill="#181818" points="660.4668,252.9609,650.4668,256.9609,660.4668,260.9609,656.4668,256.9609" style="stroke:#181818;stroke-width:1.0;"/><line style="stroke:#181818;stroke-width:1.0;stroke-dasharray:2.0,2.0;" x1="654.4668" x2="845.1294" y1="256.9609" y2="256.9609"/><polygon fill="#181818" points="834.1294,282.0938,844.1294,286.0938,834.1294,290.0938,838.1294,286.0938" style="stroke:#181818;stroke-width:1.0;"/><line style="stroke:#181818;stroke-width:1.0;" x1="649.4668" x2="840.1294" y1="286.0938" y2="286.0938"/><text fill="#000000" font-family="sans-serif" font-size="13" lengthAdjust="spacing" textLength="146.1738" x="656.4668" y="281.0278">6 INSERT user_coupon</text><polygon fill="#181818" points="660.4668,296.0938,650.4668,300.0938,660.4668,304.0938,656.4668,300.0938" style="stroke:#181818;stroke-width:1.0;"/><line style="stroke:#181818;stroke-width:1.0;stroke-dasharray:2.0,2.0;" x1="654.4668" x2="845.1294" y1="300.0938" y2="300.0938"/><polygon fill="#181818" points="420.6274,325.2266,410.6274,329.2266,420.6274,333.2266,416.6274,329.2266" style="stroke:#181818;stroke-width:1.0;"/><line style="stroke:#181818;stroke-width:1.0;stroke-dasharray:2.0,2.0;" x1="414.6274" x2="648.4668" y1="329.2266" y2="329.2266"/><text fill="#000000" font-family="sans-serif" font-size="13" lengthAdjust="spacing" textLength="110.8745" x="426.6274" y="324.1606">7 UserCouponVO</text><polygon fill="#181818" points="304.3491,339.2266,294.3491,343.2266,304.3491,347.2266,300.3491,343.2266" style="stroke:#181818;stroke-width:1.0;"/><line style="stroke:#181818;stroke-width:1.0;stroke-dasharray:2.0,2.0;" x1="298.3491" x2="408.6274" y1="343.2266" y2="343.2266"/><polygon fill="#181818" points="33,368.3594,23,372.3594,33,376.3594,29,372.3594" style="stroke:#181818;stroke-width:1.0;"/><line style="stroke:#181818;stroke-width:1.0;stroke-dasharray:2.0,2.0;" x1="27" x2="292.3491" y1="372.3594" y2="372.3594"/><text fill="#000000" font-family="sans-serif" font-size="13" lengthAdjust="spacing" textLength="130.5205" x="39" y="367.2935">8 {code:0, data:vo}</text><!--SRC=[TP1FIyCm6CRl-HGlEobkrFcVW8BC8HLrqtPwb3G9ezYr9SqsXkmWNdRmfh0T9tWGGRs8YlXnRDs-XKsgegYNaBplB-_pl0-XCX3mTdwLz1w1HD2Ck40X4TAbRaXy2Uj4yZRfg5wz_QEJAmNDCF1BWIz5u7bSv1H4fV3-mYmkMYxbPYFqD1UrA6944eT47BOwriwcgZ878MK12Ykf78OYL2kM3GO9NOFgEGRrYDimZhANoRgetbQqqiKm0nlxzkZsSdHtZ5H5TL8b3BEW_sLU9fI4oVBmEMGIfP1YcODX3fBXnVZwzFLba9mCuzvJqdyOz- -D-FailXaWva0Xc_hzqppKgckhTXaaEUJ-iZwdYl_02s1kM-LTMwTza9duXNxjj0Yr5CkSxrK-rjBvwDNJcng3OGdIK1Z7qtbGmU9Mq7q7]--></g></svg>