<svg xmlns="http://www.w3.org/2000/svg" xmlns:xlink="http://www.w3.org/1999/xlink" contentStyleType="text/css" height="702px" preserveAspectRatio="none" style="width:1102px;height:702px;background:#FFFFFF;" version="1.1" viewBox="0 0 1102 702" width="1102px" zoomAndPan="magnify"><defs/><g><line style="stroke:#181818;stroke-width:0.5;stroke-dasharray:5.0,5.0;" x1="22" x2="22" y1="81.2969" y2="621.4219"/><line style="stroke:#181818;stroke-width:0.5;stroke-dasharray:5.0,5.0;" x1="200.2969" x2="200.2969" y1="81.2969" y2="621.4219"/><line style="stroke:#181818;stroke-width:0.5;stroke-dasharray:5.0,5.0;" x1="356.4854" x2="356.4854" y1="81.2969" y2="621.4219"/><line style="stroke:#181818;stroke-width:0.5;stroke-dasharray:5.0,5.0;" x1="534.186" x2="534.186" y1="81.2969" y2="621.4219"/><line style="stroke:#181818;stroke-width:0.5;stroke-dasharray:5.0,5.0;" x1="607.5972" x2="607.5972" y1="81.2969" y2="621.4219"/><line style="stroke:#181818;stroke-width:0.5;stroke-dasharray:5.0,5.0;" x1="744.1548" x2="744.1548" y1="81.2969" y2="621.4219"/><line style="stroke:#181818;stroke-width:0.5;stroke-dasharray:5.0,5.0;" x1="866.5474" x2="866.5474" y1="81.2969" y2="621.4219"/><line style="stroke:#181818;stroke-width:0.5;stroke-dasharray:5.0,5.0;" x1="999.6177" x2="999.6177" y1="81.2969" y2="621.4219"/><text fill="#000000" font-family="sans-serif" font-size="14" lengthAdjust="spacing" textLength="28" x="5" y="77.9951">&#29992;&#25143;</text><ellipse cx="22" cy="13.5" fill="#E2E2F0" rx="8" ry="8" style="stroke:#181818;stroke-width:0.5;"/><path d="M22,21.5 L22,48.5 M9,29.5 L35,29.5 M22,48.5 L9,63.5 M22,48.5 L35,63.5 " fill="none" style="stroke:#181818;stroke-width:0.5;"/><text fill="#000000" font-family="sans-serif" font-size="14" lengthAdjust="spacing" textLength="28" x="5" y="633.417">&#29992;&#25143;</text><ellipse cx="22" cy="645.2188" fill="#E2E2F0" rx="8" ry="8" style="stroke:#181818;stroke-width:0.5;"/><path d="M22,653.2188 L22,680.2188 M9,661.2188 L35,661.2188 M22,680.2188 L9,695.2188 M22,680.2188 L35,695.2188 " fill="none" style="stroke:#181818;stroke-width:0.5;"/><rect fill="#E2E2F0" height="30.2969" rx="2.5" ry="2.5" style="stroke:#181818;stroke-width:0.5;" width="75.8447" x="163.2969" y="50"/><text fill="#000000" font-family="sans-serif" font-size="14" lengthAdjust="spacing" textLength="61.8447" x="170.2969" y="69.9951">Gateway</text><rect fill="#E2E2F0" height="30.2969" rx="2.5" ry="2.5" style="stroke:#181818;stroke-width:0.5;" width="75.8447" x="163.2969" y="620.4219"/><text fill="#000000" font-family="sans-serif" font-size="14" lengthAdjust="spacing" textLength="61.8447" x="170.2969" y="640.417">Gateway</text><rect fill="#E2E2F0" height="30.2969" rx="2.5" ry="2.5" style="stroke:#181818;stroke-width:0.5;" width="162.9414" x="275.4854" y="50"/><text fill="#000000" font-family="sans-serif" font-size="14" lengthAdjust="spacing" textLength="148.9414" x="282.4854" y="69.9951">FlashSaleServiceImpl</text><rect fill="#E2E2F0" height="30.2969" rx="2.5" ry="2.5" style="stroke:#181818;stroke-width:0.5;" width="162.9414" x="275.4854" y="620.4219"/><text fill="#000000" font-family="sans-serif" font-size="14" lengthAdjust="spacing" textLength="148.9414" x="282.4854" y="640.417">FlashSaleServiceImpl</text><text fill="#000000" font-family="sans-serif" font-size="14" lengthAdjust="spacing" textLength="38.4111" x="512.186" y="77.9951">Redis</text><path d="M516.3916,29 C516.3916,19 534.3916,19 534.3916,19 C534.3916,19 552.3916,19 552.3916,29 L552.3916,55 C552.3916,65 534.3916,65 534.3916,65 C534.3916,65 516.3916,65 516.3916,55 L516.3916,29 " fill="#E2E2F0" style="stroke:#181818;stroke-width:1.5;"/><path d="M516.3916,29 C516.3916,39 534.3916,39 534.3916,39 C534.3916,39 552.3916,39 552.3916,29 " fill="none" style="stroke:#181818;stroke-width:1.5;"/><text fill="#000000" font-family="sans-serif" font-size="14" lengthAdjust="spacing" textLength="38.4111" x="512.186" y="633.417">Redis</text><path d="M516.3916,646.7188 C516.3916,636.7188 534.3916,636.7188 534.3916,636.7188 C534.3916,636.7188 552.3916,636.7188 552.3916,646.7188 L552.3916,672.7188 C552.3916,682.7188 534.3916,682.7188 534.3916,682.7188 C534.3916,682.7188 516.3916,682.7188 516.3916,672.7188 L516.3916,646.7188 " fill="#E2E2F0" style="stroke:#181818;stroke-width:1.5;"/><path d="M516.3916,646.7188 C516.3916,656.7188 534.3916,656.7188 534.3916,656.7188 C534.3916,656.7188 552.3916,656.7188 552.3916,646.7188 " fill="none" style="stroke:#181818;stroke-width:1.5;"/><rect fill="#E2E2F0" height="30.2969" rx="2.5" ry="2.5" style="stroke:#181818;stroke-width:0.5;" width="82.5576" x="566.5972" y="50"/><text fill="#000000" font-family="sans-serif" font-size="14" lengthAdjust="spacing" textLength="68.5576" x="573.5972" y="69.9951">RabbitMQ</text><rect fill="#E2E2F0" height="30.2969" rx="2.5" ry="2.5" style="stroke:#181818;stroke-width:0.5;" width="82.5576" x="566.5972" y="620.4219"/><text fill="#000000" font-family="sans-serif" font-size="14" lengthAdjust="spacing" textLength="68.5576" x="573.5972" y="640.417">RabbitMQ</text><rect fill="#E2E2F0" height="30.2969" rx="2.5" ry="2.5" style="stroke:#181818;stroke-width:0.5;" width="170.3926" x="659.1548" y="50"/><text fill="#000000" font-family="sans-serif" font-size="14" lengthAdjust="spacing" textLength="156.3926" x="666.1548" y="69.9951">SeckillOrderConsumer</text><rect fill="#E2E2F0" height="30.2969" rx="2.5" ry="2.5" style="stroke:#181818;stroke-width:0.5;" width="170.3926" x="659.1548" y="620.4219"/><text fill="#000000" font-family="sans-serif" font-size="14" lengthAdjust="spacing" textLength="156.3926" x="666.1548" y="640.417">SeckillOrderConsumer</text><text fill="#000000" font-family="sans-serif" font-size="14" lengthAdjust="spacing" textLength="48.0703" x="839.5474" y="77.9951">MySQL</text><path d="M848.5825,29 C848.5825,19 866.5825,19 866.5825,19 C866.5825,19 884.5825,19 884.5825,29 L884.5825,55 C884.5825,65 866.5825,65 866.5825,65 C866.5825,65 848.5825,65 848.5825,55 L848.5825,29 " fill="#E2E2F0" style="stroke:#181818;stroke-width:1.5;"/><path d="M848.5825,29 C848.5825,39 866.5825,39 866.5825,39 C866.5825,39 884.5825,39 884.5825,29 " fill="none" style="stroke:#181818;stroke-width:1.5;"/><text fill="#000000" font-family="sans-serif" font-size="14" lengthAdjust="spacing" textLength="48.0703" x="839.5474" y="633.417">MySQL</text><path d="M848.5825,646.7188 C848.5825,636.7188 866.5825,636.7188 866.5825,636.7188 C866.5825,636.7188 884.5825,636.7188 884.5825,646.7188 L884.5825,672.7188 C884.5825,682.7188 866.5825,682.7188 866.5825,682.7188 C866.5825,682.7188 848.5825,682.7188 848.5825,672.7188 L848.5825,646.7188 " fill="#E2E2F0" style="stroke:#181818;stroke-width:1.5;"/><path d="M848.5825,646.7188 C848.5825,656.7188 866.5825,656.7188 866.5825,656.7188 C866.5825,656.7188 884.5825,656.7188 884.5825,646.7188 " fill="none" style="stroke:#181818;stroke-width:1.5;"/><rect fill="#E2E2F0" height="30.2969" rx="2.5" ry="2.5" style="stroke:#181818;stroke-width:0.5;" width="192.8008" x="903.6177" y="50"/><text fill="#000000" font-family="sans-serif" font-size="14" lengthAdjust="spacing" textLength="178.8008" x="910.6177" y="69.9951">SeckillWebSocketHandler</text><rect fill="#E2E2F0" height="30.2969" rx="2.5" ry="2.5" style="stroke:#181818;stroke-width:0.5;" width="192.8008" x="903.6177" y="620.4219"/><text fill="#000000" font-family="sans-serif" font-size="14" lengthAdjust="spacing" textLength="178.8008" x="910.6177" y="640.417">SeckillWebSocketHandler</text><polygon fill="#181818" points="189.2192,123.5625,199.2192,127.5625,189.2192,131.5625,193.2192,127.5625" style="stroke:#181818;stroke-width:1.0;"/><line style="stroke:#181818;stroke-width:1.0;" x1="22" x2="195.2192" y1="127.5625" y2="127.5625"/><text fill="#000000" font-family="sans-serif" font-size="13" lengthAdjust="spacing" textLength="155.2192" x="29" y="107.3638">1 POST /api/seckill/flash</text><text fill="#000000" font-family="sans-serif" font-size="13" lengthAdjust="spacing" textLength="76.5464" x="29" y="122.4966">{activityId}</text><line style="stroke:#181818;stroke-width:1.0;" x1="201.2192" x2="243.2192" y1="156.6953" y2="156.6953"/><line style="stroke:#181818;stroke-width:1.0;" x1="243.2192" x2="243.2192" y1="156.6953" y2="169.6953"/><line style="stroke:#181818;stroke-width:1.0;" x1="202.2192" x2="243.2192" y1="169.6953" y2="169.6953"/><polygon fill="#181818" points="212.2192,165.6953,202.2192,169.6953,212.2192,173.6953,208.2192,169.6953" style="stroke:#181818;stroke-width:1.0;"/><text fill="#000000" font-family="sans-serif" font-size="13" lengthAdjust="spacing" textLength="63.0322" x="208.2192" y="151.6294">2 JWT&#35748;&#35777;</text><line style="stroke:#181818;stroke-width:1.0;" x1="201.2192" x2="243.2192" y1="198.8281" y2="198.8281"/><line style="stroke:#181818;stroke-width:1.0;" x1="243.2192" x2="243.2192" y1="198.8281" y2="211.8281"/><line style="stroke:#181818;stroke-width:1.0;" x1="202.2192" x2="243.2192" y1="211.8281" y2="211.8281"/><polygon fill="#181818" points="212.2192,207.8281,202.2192,211.8281,212.2192,215.8281,208.2192,211.8281" style="stroke:#181818;stroke-width:1.0;"/><text fill="#000000" font-family="sans-serif" font-size="13" lengthAdjust="spacing" textLength="141.7368" x="208.2192" y="193.7622">3 &#38480;&#27969;&#26816;&#26597;(500QPS/IP)</text><polygon fill="#181818" points="344.9561,236.9609,354.9561,240.9609,344.9561,244.9609,348.9561,240.9609" style="stroke:#181818;stroke-width:1.0;"/><line style="stroke:#181818;stroke-width:1.0;" x1="201.2192" x2="350.9561" y1="240.9609" y2="240.9609"/><text fill="#000000" font-family="sans-serif" font-size="13" lengthAdjust="spacing" textLength="64.4033" x="208.2192" y="235.895">4 &#36335;&#30001;&#36716;&#21457;</text><polygon fill="#181818" points="522.3916,266.0938,532.3916,270.0938,522.3916,274.0938,526.3916,270.0938" style="stroke:#181818;stroke-width:1.0;"/><line style="stroke:#181818;stroke-width:1.0;" x1="356.9561" x2="528.3916" y1="270.0938" y2="270.0938"/><text fill="#000000" font-family="sans-serif" font-size="13" lengthAdjust="spacing" textLength="126.5405" x="363.9561" y="265.0278">5 &#26657;&#39564;&#27963;&#21160;&#29366;&#24577;&amp;&#26102;&#38388;</text><polygon fill="#181818" points="367.9561,280.0938,357.9561,284.0938,367.9561,288.0938,363.9561,284.0938" style="stroke:#181818;stroke-width:1.0;"/><line style="stroke:#181818;stroke-width:1.0;stroke-dasharray:2.0,2.0;" x1="361.9561" x2="533.3916" y1="284.0938" y2="284.0938"/><polygon fill="#181818" points="522.3916,309.2266,532.3916,313.2266,522.3916,317.2266,526.3916,313.2266" style="stroke:#181818;stroke-width:1.0;"/><line style="stroke:#181818;stroke-width:1.0;" x1="356.9561" x2="528.3916" y1="313.2266" y2="313.2266"/><text fill="#000000" font-family="sans-serif" font-size="13" lengthAdjust="spacing" textLength="153.4355" x="363.9561" y="308.1606">6 SADD&#38450;&#37325;&#22797;(user_set)</text><polygon fill="#181818" points="367.9561,338.3594,357.9561,342.3594,367.9561,346.3594,363.9561,342.3594" style="stroke:#181818;stroke-width:1.0;"/><line style="stroke:#181818;stroke-width:1.0;stroke-dasharray:2.0,2.0;" x1="361.9561" x2="533.3916" y1="342.3594" y2="342.3594"/><text fill="#000000" font-family="sans-serif" font-size="13" lengthAdjust="spacing" textLength="58.1636" x="373.9561" y="337.2935">0=&#26410;&#25250;&#36807;</text><polygon fill="#181818" points="522.3916,367.4922,532.3916,371.4922,522.3916,375.4922,526.3916,371.4922" style="stroke:#181818;stroke-width:1.0;"/><line style="stroke:#181818;stroke-width:1.0;" x1="356.9561" x2="528.3916" y1="371.4922" y2="371.4922"/><text fill="#000000" font-family="sans-serif" font-size="13" lengthAdjust="spacing" textLength="87.7373" x="363.9561" y="366.4263">7 DECR&#25187;&#24211;&#23384;</text><polygon fill="#181818" points="367.9561,396.625,357.9561,400.625,367.9561,404.625,363.9561,400.625" style="stroke:#181818;stroke-width:1.0;"/><line style="stroke:#181818;stroke-width:1.0;stroke-dasharray:2.0,2.0;" x1="361.9561" x2="533.3916" y1="400.625" y2="400.625"/><text fill="#000000" font-family="sans-serif" font-size="13" lengthAdjust="spacing" textLength="82.0562" x="373.9561" y="395.5591">&#21097;&#20313;&#24211;&#23384;&gt;=0</text><polygon fill="#181818" points="595.876,425.7578,605.876,429.7578,595.876,433.7578,599.876,429.7578" style="stroke:#181818;stroke-width:1.0;"/><line style="stroke:#181818;stroke-width:1.0;" x1="356.9561" x2="601.876" y1="429.7578" y2="429.7578"/><text fill="#000000" font-family="sans-serif" font-size="13" lengthAdjust="spacing" textLength="85.8521" x="363.9561" y="424.6919">8 &#21457;&#36865;MQ&#28040;&#24687;</text><polygon fill="#181818" points="212.2192,454.8906,202.2192,458.8906,212.2192,462.8906,208.2192,458.8906" style="stroke:#181818;stroke-width:1.0;"/><line style="stroke:#181818;stroke-width:1.0;stroke-dasharray:2.0,2.0;" x1="206.2192" x2="355.9561" y1="458.8906" y2="458.8906"/><text fill="#000000" font-family="sans-serif" font-size="13" lengthAdjust="spacing" textLength="63.3623" x="218.2192" y="453.8247">9 "&#25490;&#38431;&#20013;"</text><polygon fill="#181818" points="33,468.8906,23,472.8906,33,476.8906,29,472.8906" style="stroke:#181818;stroke-width:1.0;"/><line style="stroke:#181818;stroke-width:1.0;stroke-dasharray:2.0,2.0;" x1="27" x2="200.2192" y1="472.8906" y2="472.8906"/><polygon fill="#181818" points="732.3511,498.0234,742.3511,502.0234,732.3511,506.0234,736.3511,502.0234" style="stroke:#181818;stroke-width:1.0;"/><line style="stroke:#181818;stroke-width:1.0;" x1="607.876" x2="738.3511" y1="502.0234" y2="502.0234"/><text fill="#000000" font-family="sans-serif" font-size="13" lengthAdjust="spacing" textLength="72.6743" x="614.876" y="496.9575">10 &#28040;&#36153;&#28040;&#24687;</text><polygon fill="#181818" points="854.5825,527.1563,864.5825,531.1563,854.5825,535.1563,858.5825,531.1563" style="stroke:#181818;stroke-width:1.0;"/><line style="stroke:#181818;stroke-width:1.0;" x1="744.3511" x2="860.5825" y1="531.1563" y2="531.1563"/><text fill="#000000" font-family="sans-serif" font-size="13" lengthAdjust="spacing" textLength="93.6724" x="751.3511" y="526.0903">11 INSERT&#35746;&#21333;</text><polygon fill="#181818" points="755.3511,541.1563,745.3511,545.1563,755.3511,549.1563,751.3511,545.1563" style="stroke:#181818;stroke-width:1.0;"/><line style="stroke:#181818;stroke-width:1.0;stroke-dasharray:2.0,2.0;" x1="749.3511" x2="865.5825" y1="545.1563" y2="545.1563"/><line style="stroke:#181818;stroke-width:1.0;" x1="998.0181" x2="988.0181" y1="574.2891" y2="570.2891"/><line style="stroke:#181818;stroke-width:1.0;" x1="998.0181" x2="988.0181" y1="574.2891" y2="578.2891"/><line style="stroke:#181818;stroke-width:1.0;" x1="744.3511" x2="999.0181" y1="574.2891" y2="574.2891"/><text fill="#000000" font-family="sans-serif" font-size="13" lengthAdjust="spacing" textLength="145.7549" x="751.3511" y="569.2231">12 WebSocket&#25512;&#36865;&#32467;&#26524;</text><polygon fill="#181818" points="33,599.4219,23,603.4219,33,607.4219,29,603.4219" style="stroke:#181818;stroke-width:1.0;"/><line style="stroke:#181818;stroke-width:1.0;stroke-dasharray:2.0,2.0;" x1="27" x2="999.0181" y1="603.4219" y2="603.4219"/><text fill="#000000" font-family="sans-serif" font-size="13" lengthAdjust="spacing" textLength="98.6743" x="39" y="598.356">13 &#31186;&#26432;&#32467;&#26524;&#36890;&#30693;</text><!--SRC=[RP9VJzDG6CRl-odUxCB01La1KLd24iDGPvniAmat9kQqFM93zw-dh5c8oNO5B0uKC0o3JlaJ9n4NpHmg8NuPUjf-2y_fkiaMxzhtzppFEU_x7gIOEGEStIPTFmT4O8LWGyWZmzGKBO-o9jn79hPGYRCbQu24xkc8F9UGZYLi53K5npDvFSI5fAW8AZAHZ0Y6D5Ormgi6_nX8I2DPrin4YjDCOJ1SmigofklpXegDsLoMh6ImuOShmS-_4n8bAVM88rN-RyOYbgMSiepD1oYhwa6CHGI1DmjZKTPO1COXEIyjG1ZbjJ3f-iBFU8DFigj8CRMYPfRYwWjXoUev9k3XueBxzTXjLQvL9y7RVqL_LEXHcJPEHgP4CPMKml7aQA1Xiud0JN3FMyxkD_VoYxtrMc0rZlm1HM0Aw8UFtkbBshwmgqsdsg7boWswr_7sse8lWR5kpf3l5aXtOp6l_jrRgzd7jH7UtLE2pT51LmJ46NfmIgk7xf-reOZR49kRJTED8_ltZdrM7pRQ6v-lBlUxB3eZzioPGWJk06l4ArSIATfPfvLMbmKpcOOGtTpsweshdsSXVmuC-2yjK-01lPMoBOZ0_6xxLv3I8roboeoFG_onD9TcSp-qQsy4LVQp-c_YcZxALimC4z1VFzriiXiw5plq_O5WaVujc6eId4_Rz5sv2xtoMwTnyXS0]--></g></svg>