<svg xmlns="http://www.w3.org/2000/svg" xmlns:xlink="http://www.w3.org/1999/xlink" contentStyleType="text/css" height="781px" preserveAspectRatio="none" style="width:964px;height:781px;background:#FFFFFF;" version="1.1" viewBox="0 0 964 781" width="964px" zoomAndPan="magnify"><defs/><g><line style="stroke:#181818;stroke-width:0.5;stroke-dasharray:5.0,5.0;" x1="29" x2="29" y1="81.2969" y2="700.6875"/><line style="stroke:#181818;stroke-width:0.5;stroke-dasharray:5.0,5.0;" x1="262.8325" x2="262.8325" y1="81.2969" y2="700.6875"/><line style="stroke:#181818;stroke-width:0.5;stroke-dasharray:5.0,5.0;" x1="417.7642" x2="417.7642" y1="81.2969" y2="700.6875"/><line style="stroke:#181818;stroke-width:0.5;stroke-dasharray:5.0,5.0;" x1="588.7534" x2="588.7534" y1="81.2969" y2="700.6875"/><line style="stroke:#181818;stroke-width:0.5;stroke-dasharray:5.0,5.0;" x1="820.23" x2="820.23" y1="81.2969" y2="700.6875"/><text fill="#000000" font-family="sans-serif" font-size="14" lengthAdjust="spacing" textLength="42" x="5" y="77.9951">&#31649;&#29702;&#21592;</text><ellipse cx="29" cy="13.5" fill="#E2E2F0" rx="8" ry="8" style="stroke:#181818;stroke-width:0.5;"/><path d="M29,21.5 L29,48.5 M16,29.5 L42,29.5 M29,48.5 L16,63.5 M29,48.5 L42,63.5 " fill="none" style="stroke:#181818;stroke-width:0.5;"/><text fill="#000000" font-family="sans-serif" font-size="14" lengthAdjust="spacing" textLength="42" x="5" y="712.6826">&#31649;&#29702;&#21592;</text><ellipse cx="29" cy="724.4844" fill="#E2E2F0" rx="8" ry="8" style="stroke:#181818;stroke-width:0.5;"/><path d="M29,732.4844 L29,759.4844 M16,740.4844 L42,740.4844 M29,759.4844 L16,774.4844 M29,759.4844 L42,774.4844 " fill="none" style="stroke:#181818;stroke-width:0.5;"/><rect fill="#E2E2F0" height="30.2969" rx="2.5" ry="2.5" style="stroke:#181818;stroke-width:0.5;" width="75.8447" x="225.8325" y="50"/><text fill="#000000" font-family="sans-serif" font-size="14" lengthAdjust="spacing" textLength="61.8447" x="232.8325" y="69.9951">Gateway</text><rect fill="#E2E2F0" height="30.2969" rx="2.5" ry="2.5" style="stroke:#181818;stroke-width:0.5;" width="75.8447" x="225.8325" y="699.6875"/><text fill="#000000" font-family="sans-serif" font-size="14" lengthAdjust="spacing" textLength="61.8447" x="232.8325" y="719.6826">Gateway</text><rect fill="#E2E2F0" height="30.2969" rx="2.5" ry="2.5" style="stroke:#181818;stroke-width:0.5;" width="136.8828" x="349.7642" y="50"/><text fill="#000000" font-family="sans-serif" font-size="14" lengthAdjust="spacing" textLength="122.8828" x="356.7642" y="69.9951">ProductController</text><rect fill="#E2E2F0" height="30.2969" rx="2.5" ry="2.5" style="stroke:#181818;stroke-width:0.5;" width="136.8828" x="349.7642" y="699.6875"/><text fill="#000000" font-family="sans-serif" font-size="14" lengthAdjust="spacing" textLength="122.8828" x="356.7642" y="719.6826">ProductController</text><rect fill="#E2E2F0" height="30.2969" rx="2.5" ry="2.5" style="stroke:#181818;stroke-width:0.5;" width="149.9941" x="514.7534" y="50"/><text fill="#000000" font-family="sans-serif" font-size="14" lengthAdjust="spacing" textLength="135.9941" x="521.7534" y="69.9951">ProductServiceImpl</text><rect fill="#E2E2F0" height="30.2969" rx="2.5" ry="2.5" style="stroke:#181818;stroke-width:0.5;" width="149.9941" x="514.7534" y="699.6875"/><text fill="#000000" font-family="sans-serif" font-size="14" lengthAdjust="spacing" textLength="135.9941" x="521.7534" y="719.6826">ProductServiceImpl</text><text fill="#000000" font-family="sans-serif" font-size="14" lengthAdjust="spacing" textLength="48.0703" x="793.23" y="77.9951">MySQL</text><path d="M802.2651,29 C802.2651,19 820.2651,19 820.2651,19 C820.2651,19 838.2651,19 838.2651,29 L838.2651,55 C838.2651,65 820.2651,65 820.2651,65 C820.2651,65 802.2651,65 802.2651,55 L802.2651,29 " fill="#E2E2F0" style="stroke:#181818;stroke-width:1.5;"/><path d="M802.2651,29 C802.2651,39 820.2651,39 820.2651,39 C820.2651,39 838.2651,39 838.2651,29 " fill="none" style="stroke:#181818;stroke-width:1.5;"/><text fill="#000000" font-family="sans-serif" font-size="14" lengthAdjust="spacing" textLength="48.0703" x="793.23" y="712.6826">MySQL</text><path d="M802.2651,725.9844 C802.2651,715.9844 820.2651,715.9844 820.2651,715.9844 C820.2651,715.9844 838.2651,715.9844 838.2651,725.9844 L838.2651,751.9844 C838.2651,761.9844 820.2651,761.9844 820.2651,761.9844 C820.2651,761.9844 802.2651,761.9844 802.2651,751.9844 L802.2651,725.9844 " fill="#E2E2F0" style="stroke:#181818;stroke-width:1.5;"/><path d="M802.2651,725.9844 C802.2651,735.9844 820.2651,735.9844 820.2651,735.9844 C820.2651,735.9844 838.2651,735.9844 838.2651,725.9844 " fill="none" style="stroke:#181818;stroke-width:1.5;"/><rect fill="#EEEEEE" height="3" style="stroke:#EEEEEE;stroke-width:1.0;" width="957.123" x="0" y="111.8633"/><line style="stroke:#000000;stroke-width:1.0;" x1="0" x2="957.123" y1="111.8633" y2="111.8633"/><line style="stroke:#000000;stroke-width:1.0;" x1="0" x2="957.123" y1="114.8633" y2="114.8633"/><rect fill="#EEEEEE" height="23.1328" style="stroke:#000000;stroke-width:2.0;" width="72.1509" x="442.4861" y="101.2969"/><text fill="#000000" font-family="sans-serif" font-size="13" font-weight="bold" lengthAdjust="spacing" textLength="53.625" x="448.4861" y="117.3638">&#26032;&#22686;&#21830;&#21697;</text><polygon fill="#181818" points="251.7549,166.6953,261.7549,170.6953,251.7549,174.6953,255.7549,170.6953" style="stroke:#181818;stroke-width:1.0;"/><line style="stroke:#181818;stroke-width:1.0;" x1="29" x2="257.7549" y1="170.6953" y2="170.6953"/><text fill="#000000" font-family="sans-serif" font-size="13" lengthAdjust="spacing" textLength="117.2729" x="36" y="150.4966">POST /api/product</text><text fill="#000000" font-family="sans-serif" font-size="13" lengthAdjust="spacing" textLength="210.7549" x="36" y="165.6294">{name,desc,price,SKU&#21015;&#34920;,&#22270;&#29255;}</text><polygon fill="#181818" points="406.2056,195.8281,416.2056,199.8281,406.2056,203.8281,410.2056,199.8281" style="stroke:#181818;stroke-width:1.0;"/><line style="stroke:#181818;stroke-width:1.0;" x1="263.7549" x2="412.2056" y1="199.8281" y2="199.8281"/><text fill="#000000" font-family="sans-serif" font-size="13" lengthAdjust="spacing" textLength="130.4507" x="270.7549" y="194.7622">JWT&#35748;&#35777;(ADMIN&#35282;&#33394;)</text><polygon fill="#181818" points="577.7505,224.9609,587.7505,228.9609,577.7505,232.9609,581.7505,228.9609" style="stroke:#181818;stroke-width:1.0;"/><line style="stroke:#181818;stroke-width:1.0;" x1="418.2056" x2="583.7505" y1="228.9609" y2="228.9609"/><text fill="#000000" font-family="sans-serif" font-size="13" lengthAdjust="spacing" textLength="123.1636" x="425.2056" y="223.895">createProduct(req)</text><polygon fill="#181818" points="808.2651,257.0938,818.2651,261.0938,808.2651,265.0938,812.2651,261.0938" style="stroke:#181818;stroke-width:1.0;"/><line style="stroke:#181818;stroke-width:1.0;" x1="589.7505" x2="814.2651" y1="261.0938" y2="261.0938"/><text fill="#000000" font-family="sans-serif" font-size="13" lengthAdjust="spacing" textLength="206.5146" x="596.7505" y="256.0278">INSERT product + SKU + image</text><path d="M825,241.9609 L825,266.9609 L946,266.9609 L946,251.9609 L936,241.9609 L825,241.9609 " fill="#FEFFDD" style="stroke:#181818;stroke-width:0.5;"/><path d="M936,241.9609 L936,251.9609 L946,251.9609 L936,241.9609 " fill="#FEFFDD" style="stroke:#181818;stroke-width:0.5;"/><text fill="#000000" font-family="sans-serif" font-size="13" lengthAdjust="spacing" textLength="100.8579" x="831" y="259.0278">@Transactional</text><polygon fill="#181818" points="600.7505,274.0938,590.7505,278.0938,600.7505,282.0938,596.7505,278.0938" style="stroke:#181818;stroke-width:1.0;"/><line style="stroke:#181818;stroke-width:1.0;stroke-dasharray:2.0,2.0;" x1="594.7505" x2="819.2651" y1="278.0938" y2="278.0938"/><polygon fill="#181818" points="274.7549,288.0938,264.7549,292.0938,274.7549,296.0938,270.7549,292.0938" style="stroke:#181818;stroke-width:1.0;"/><line style="stroke:#181818;stroke-width:1.0;stroke-dasharray:2.0,2.0;" x1="268.7549" x2="417.2056" y1="292.0938" y2="292.0938"/><polygon fill="#181818" points="40,317.2266,30,321.2266,40,325.2266,36,321.2266" style="stroke:#181818;stroke-width:1.0;"/><line style="stroke:#181818;stroke-width:1.0;stroke-dasharray:2.0,2.0;" x1="34" x2="262.7549" y1="321.2266" y2="321.2266"/><text fill="#000000" font-family="sans-serif" font-size="13" lengthAdjust="spacing" textLength="164.8423" x="46" y="316.1606">{code:0, data:productId}</text><rect fill="#EEEEEE" height="3" style="stroke:#EEEEEE;stroke-width:1.0;" width="957.123" x="0" y="349.793"/><line style="stroke:#000000;stroke-width:1.0;" x1="0" x2="957.123" y1="349.793" y2="349.793"/><line style="stroke:#000000;stroke-width:1.0;" x1="0" x2="957.123" y1="352.793" y2="352.793"/><rect fill="#EEEEEE" height="23.1328" style="stroke:#000000;stroke-width:2.0;" width="72.1509" x="442.4861" y="339.2266"/><text fill="#000000" font-family="sans-serif" font-size="13" font-weight="bold" lengthAdjust="spacing" textLength="53.625" x="448.4861" y="355.2935">&#32534;&#36753;&#21830;&#21697;</text><polygon fill="#181818" points="251.7549,389.4922,261.7549,393.4922,251.7549,397.4922,255.7549,393.4922" style="stroke:#181818;stroke-width:1.0;"/><line style="stroke:#181818;stroke-width:1.0;" x1="29" x2="257.7549" y1="393.4922" y2="393.4922"/><text fill="#000000" font-family="sans-serif" font-size="13" lengthAdjust="spacing" textLength="141.0894" x="36" y="388.4263">PUT /api/product/{id}</text><polygon fill="#181818" points="577.7505,418.625,587.7505,422.625,577.7505,426.625,581.7505,422.625" style="stroke:#181818;stroke-width:1.0;"/><line style="stroke:#181818;stroke-width:1.0;" x1="418.2056" x2="583.7505" y1="422.625" y2="422.625"/><text fill="#000000" font-family="sans-serif" font-size="13" lengthAdjust="spacing" textLength="147.5449" x="425.2056" y="417.5591">updateProduct(id, req)</text><polygon fill="#181818" points="808.2651,447.7578,818.2651,451.7578,808.2651,455.7578,812.2651,451.7578" style="stroke:#181818;stroke-width:1.0;"/><line style="stroke:#181818;stroke-width:1.0;" x1="589.7505" x2="814.2651" y1="451.7578" y2="451.7578"/><text fill="#000000" font-family="sans-serif" font-size="13" lengthAdjust="spacing" textLength="149.8618" x="596.7505" y="446.6919">UPDATE + SKU&#20808;&#21024;&#21518;&#25554;</text><line style="stroke:#181818;stroke-width:1.0;" x1="589.7505" x2="631.7505" y1="480.8906" y2="480.8906"/><line style="stroke:#181818;stroke-width:1.0;" x1="631.7505" x2="631.7505" y1="480.8906" y2="493.8906"/><line style="stroke:#181818;stroke-width:1.0;" x1="590.7505" x2="631.7505" y1="493.8906" y2="493.8906"/><polygon fill="#181818" points="600.7505,489.8906,590.7505,493.8906,600.7505,497.8906,596.7505,493.8906" style="stroke:#181818;stroke-width:1.0;"/><text fill="#000000" font-family="sans-serif" font-size="13" lengthAdjust="spacing" textLength="87.6675" x="596.7505" y="475.8247">&#28165;&#38500;Redis&#32531;&#23384;</text><polygon fill="#181818" points="40,519.0234,30,523.0234,40,527.0234,36,523.0234" style="stroke:#181818;stroke-width:1.0;"/><line style="stroke:#181818;stroke-width:1.0;stroke-dasharray:2.0,2.0;" x1="34" x2="262.7549" y1="523.0234" y2="523.0234"/><text fill="#000000" font-family="sans-serif" font-size="13" lengthAdjust="spacing" textLength="60.5439" x="46" y="517.9575">{code:0}</text><rect fill="#EEEEEE" height="3" style="stroke:#EEEEEE;stroke-width:1.0;" width="957.123" x="0" y="551.5898"/><line style="stroke:#000000;stroke-width:1.0;" x1="0" x2="957.123" y1="551.5898" y2="551.5898"/><line style="stroke:#000000;stroke-width:1.0;" x1="0" x2="957.123" y1="554.5898" y2="554.5898"/><rect fill="#EEEEEE" height="23.1328" style="stroke:#000000;stroke-width:2.0;" width="84.0337" x="436.5447" y="541.0234"/><text fill="#000000" font-family="sans-serif" font-size="13" font-weight="bold" lengthAdjust="spacing" textLength="65.5078" x="442.5447" y="557.0903">&#21024;&#38500;(&#19979;&#26550;)</text><polygon fill="#181818" points="251.7549,591.2891,261.7549,595.2891,251.7549,599.2891,255.7549,595.2891" style="stroke:#181818;stroke-width:1.0;"/><line style="stroke:#181818;stroke-width:1.0;" x1="29" x2="257.7549" y1="595.2891" y2="595.2891"/><text fill="#000000" font-family="sans-serif" font-size="13" lengthAdjust="spacing" textLength="165.6294" x="36" y="590.2231">DELETE /api/product/{id}</text><polygon fill="#181818" points="577.7505,620.4219,587.7505,624.4219,577.7505,628.4219,581.7505,624.4219" style="stroke:#181818;stroke-width:1.0;"/><line style="stroke:#181818;stroke-width:1.0;" x1="418.2056" x2="583.7505" y1="624.4219" y2="624.4219"/><text fill="#000000" font-family="sans-serif" font-size="13" lengthAdjust="spacing" textLength="112.8359" x="425.2056" y="619.356">deleteProduct(id)</text><polygon fill="#181818" points="808.2651,649.5547,818.2651,653.5547,808.2651,657.5547,812.2651,653.5547" style="stroke:#181818;stroke-width:1.0;"/><line style="stroke:#181818;stroke-width:1.0;" x1="589.7505" x2="814.2651" y1="653.5547" y2="653.5547"/><text fill="#000000" font-family="sans-serif" font-size="13" lengthAdjust="spacing" textLength="132.5708" x="596.7505" y="648.4888">UPDATE status=OFF</text><polygon fill="#181818" points="40,678.6875,30,682.6875,40,686.6875,36,682.6875" style="stroke:#181818;stroke-width:1.0;"/><line style="stroke:#181818;stroke-width:1.0;stroke-dasharray:2.0,2.0;" x1="34" x2="262.7549" y1="682.6875" y2="682.6875"/><text fill="#000000" font-family="sans-serif" font-size="13" lengthAdjust="spacing" textLength="60.5439" x="46" y="677.6216">{code:0}</text><!--SRC=[XP3FQnD15CVlyrSyUafmItfUMB6OLABz4RiRl7XvcHdYm6PtdPqqbD133wqf1UqFh9L2QQMW5rln83sK_ZLETlqldDb4Q3J5op2yzttl-_a-f2gMa5sUPtlRUlyOC0La7H6H1AKIL2GOANY2YlTmtJRRlOdEJ4F6h4lLupXICWv3BcUiYYePJjNvNAu9okkT92o4wHeb31MsCEMmjEu_NxHLrYB4ys1uz4r_EjNlj_NX9dWUAS1Wzg61SA6nuWTGmKHKaj7gbr4_mWvt64-faqZZulZFcdhm8J__ukYJsspdpGPfz-oynNFXwOiWlxp8hpPByzMb-dB- -I3V-Lucjcb51iq5Ahd9FeOlIVwwJ4pTjbdBXVgoNriDO0m03y0OcbTqiCr952iEKhHVAHSU1HAZ5AaISOGXOIsO7JcCtOfC1Ppv5J5TwDEOSNVE0NiVT-nHPnl5QRARe_ns_xxJD2SlK-aBCpQHgvkmExa4S-3lRCr6TJweZJBfhO4UdEczjyDt1tyqnPhXzTQlZnUhd8aqkpdKNu-dPnWncnL6NFfvlJiy_L7-XxfQMwmPm_-0Cnxok-3Jc5E5gfjwAmiBz-3y1W00]--></g></svg>