<svg xmlns="http://www.w3.org/2000/svg" xmlns:xlink="http://www.w3.org/1999/xlink" contentStyleType="text/css" height="748px" preserveAspectRatio="none" style="width:932px;height:748px;background:#FFFFFF;" version="1.1" viewBox="0 0 932 748" width="932px" zoomAndPan="magnify"><defs/><g><line style="stroke:#181818;stroke-width:0.5;stroke-dasharray:5.0,5.0;" x1="29" x2="29" y1="81.2969" y2="667.6875"/><line style="stroke:#181818;stroke-width:0.5;stroke-dasharray:5.0,5.0;" x1="347.0215" x2="347.0215" y1="81.2969" y2="667.6875"/><line style="stroke:#181818;stroke-width:0.5;stroke-dasharray:5.0,5.0;" x1="485.8662" x2="485.8662" y1="81.2969" y2="667.6875"/><line style="stroke:#181818;stroke-width:0.5;stroke-dasharray:5.0,5.0;" x1="668.6152" x2="668.6152" y1="81.2969" y2="667.6875"/><line style="stroke:#181818;stroke-width:0.5;stroke-dasharray:5.0,5.0;" x1="838.4219" x2="838.4219" y1="81.2969" y2="667.6875"/><line style="stroke:#181818;stroke-width:0.5;stroke-dasharray:5.0,5.0;" x1="897.4922" x2="897.4922" y1="81.2969" y2="667.6875"/><text fill="#000000" font-family="sans-serif" font-size="14" lengthAdjust="spacing" textLength="42" x="5" y="77.9951">&#31649;&#29702;&#21592;</text><ellipse cx="29" cy="13.5" fill="#E2E2F0" rx="8" ry="8" style="stroke:#181818;stroke-width:0.5;"/><path d="M29,21.5 L29,48.5 M16,29.5 L42,29.5 M29,48.5 L16,63.5 M29,48.5 L42,63.5 " fill="none" style="stroke:#181818;stroke-width:0.5;"/><text fill="#000000" font-family="sans-serif" font-size="14" lengthAdjust="spacing" textLength="42" x="5" y="679.6826">&#31649;&#29702;&#21592;</text><ellipse cx="29" cy="691.4844" fill="#E2E2F0" rx="8" ry="8" style="stroke:#181818;stroke-width:0.5;"/><path d="M29,699.4844 L29,726.4844 M16,707.4844 L42,707.4844 M29,726.4844 L16,741.4844 M29,726.4844 L42,741.4844 " fill="none" style="stroke:#181818;stroke-width:0.5;"/><rect fill="#E2E2F0" height="30.2969" rx="2.5" ry="2.5" style="stroke:#181818;stroke-width:0.5;" width="75.8447" x="310.0215" y="50"/><text fill="#000000" font-family="sans-serif" font-size="14" lengthAdjust="spacing" textLength="61.8447" x="317.0215" y="69.9951">Gateway</text><rect fill="#E2E2F0" height="30.2969" rx="2.5" ry="2.5" style="stroke:#181818;stroke-width:0.5;" width="75.8447" x="310.0215" y="666.6875"/><text fill="#000000" font-family="sans-serif" font-size="14" lengthAdjust="spacing" textLength="61.8447" x="317.0215" y="686.6826">Gateway</text><rect fill="#E2E2F0" height="30.2969" rx="2.5" ry="2.5" style="stroke:#181818;stroke-width:0.5;" width="180.749" x="395.8662" y="50"/><text fill="#000000" font-family="sans-serif" font-size="14" lengthAdjust="spacing" textLength="166.749" x="402.8662" y="69.9951">SeckillActivityController</text><rect fill="#E2E2F0" height="30.2969" rx="2.5" ry="2.5" style="stroke:#181818;stroke-width:0.5;" width="180.749" x="395.8662" y="666.6875"/><text fill="#000000" font-family="sans-serif" font-size="14" lengthAdjust="spacing" textLength="166.749" x="402.8662" y="686.6826">SeckillActivityController</text><rect fill="#E2E2F0" height="30.2969" rx="2.5" ry="2.5" style="stroke:#181818;stroke-width:0.5;" width="164.0215" x="586.6152" y="50"/><text fill="#000000" font-family="sans-serif" font-size="14" lengthAdjust="spacing" textLength="150.0215" x="593.6152" y="69.9951">SeckillActServiceImpl</text><rect fill="#E2E2F0" height="30.2969" rx="2.5" ry="2.5" style="stroke:#181818;stroke-width:0.5;" width="164.0215" x="586.6152" y="666.6875"/><text fill="#000000" font-family="sans-serif" font-size="14" lengthAdjust="spacing" textLength="150.0215" x="593.6152" y="686.6826">SeckillActServiceImpl</text><text fill="#000000" font-family="sans-serif" font-size="14" lengthAdjust="spacing" textLength="48.0703" x="811.4219" y="77.9951">MySQL</text><path d="M820.457,29 C820.457,19 838.457,19 838.457,19 C838.457,19 856.457,19 856.457,29 L856.457,55 C856.457,65 838.457,65 838.457,65 C838.457,65 820.457,65 820.457,55 L820.457,29 " fill="#E2E2F0" style="stroke:#181818;stroke-width:1.5;"/><path d="M820.457,29 C820.457,39 838.457,39 838.457,39 C838.457,39 856.457,39 856.457,29 " fill="none" style="stroke:#181818;stroke-width:1.5;"/><text fill="#000000" font-family="sans-serif" font-size="14" lengthAdjust="spacing" textLength="48.0703" x="811.4219" y="679.6826">MySQL</text><path d="M820.457,692.9844 C820.457,682.9844 838.457,682.9844 838.457,682.9844 C838.457,682.9844 856.457,682.9844 856.457,692.9844 L856.457,718.9844 C856.457,728.9844 838.457,728.9844 838.457,728.9844 C838.457,728.9844 820.457,728.9844 820.457,718.9844 L820.457,692.9844 " fill="#E2E2F0" style="stroke:#181818;stroke-width:1.5;"/><path d="M820.457,692.9844 C820.457,702.9844 838.457,702.9844 838.457,702.9844 C838.457,702.9844 856.457,702.9844 856.457,692.9844 " fill="none" style="stroke:#181818;stroke-width:1.5;"/><text fill="#000000" font-family="sans-serif" font-size="14" lengthAdjust="spacing" textLength="38.4111" x="875.4922" y="77.9951">Redis</text><path d="M879.6978,29 C879.6978,19 897.6978,19 897.6978,19 C897.6978,19 915.6978,19 915.6978,29 L915.6978,55 C915.6978,65 897.6978,65 897.6978,65 C897.6978,65 879.6978,65 879.6978,55 L879.6978,29 " fill="#E2E2F0" style="stroke:#181818;stroke-width:1.5;"/><path d="M879.6978,29 C879.6978,39 897.6978,39 897.6978,39 C897.6978,39 915.6978,39 915.6978,29 " fill="none" style="stroke:#181818;stroke-width:1.5;"/><text fill="#000000" font-family="sans-serif" font-size="14" lengthAdjust="spacing" textLength="38.4111" x="875.4922" y="679.6826">Redis</text><path d="M879.6978,692.9844 C879.6978,682.9844 897.6978,682.9844 897.6978,682.9844 C897.6978,682.9844 915.6978,682.9844 915.6978,692.9844 L915.6978,718.9844 C915.6978,728.9844 897.6978,728.9844 897.6978,728.9844 C897.6978,728.9844 879.6978,728.9844 879.6978,718.9844 L879.6978,692.9844 " fill="#E2E2F0" style="stroke:#181818;stroke-width:1.5;"/><path d="M879.6978,692.9844 C879.6978,702.9844 897.6978,702.9844 897.6978,702.9844 C897.6978,702.9844 915.6978,702.9844 915.6978,692.9844 " fill="none" style="stroke:#181818;stroke-width:1.5;"/><rect fill="#EEEEEE" height="3" style="stroke:#EEEEEE;stroke-width:1.0;" width="924.9033" x="0" y="111.8633"/><line style="stroke:#000000;stroke-width:1.0;" x1="0" x2="924.9033" y1="111.8633" y2="111.8633"/><line style="stroke:#000000;stroke-width:1.0;" x1="0" x2="924.9033" y1="114.8633" y2="114.8633"/><rect fill="#EEEEEE" height="23.1328" style="stroke:#000000;stroke-width:2.0;" width="113.0488" x="405.9272" y="101.2969"/><text fill="#000000" font-family="sans-serif" font-size="13" font-weight="bold" lengthAdjust="spacing" textLength="94.5229" x="411.9272" y="117.3638">CRUD&#31186;&#26432;&#27963;&#21160;</text><polygon fill="#181818" points="335.9438,166.6953,345.9438,170.6953,335.9438,174.6953,339.9438,170.6953" style="stroke:#181818;stroke-width:1.0;"/><line style="stroke:#181818;stroke-width:1.0;" x1="29" x2="341.9438" y1="170.6953" y2="170.6953"/><text fill="#000000" font-family="sans-serif" font-size="13" lengthAdjust="spacing" textLength="204.6802" x="36" y="150.4966">POST /api/seckill/admin/activity</text><text fill="#000000" font-family="sans-serif" font-size="13" lengthAdjust="spacing" textLength="194.4224" x="36" y="165.6294">{productId,price,startTime...}</text><polygon fill="#181818" points="474.2407,195.8281,484.2407,199.8281,474.2407,203.8281,478.2407,199.8281" style="stroke:#181818;stroke-width:1.0;"/><line style="stroke:#181818;stroke-width:1.0;" x1="347.9438" x2="480.2407" y1="199.8281" y2="199.8281"/><text fill="#000000" font-family="sans-serif" font-size="13" lengthAdjust="spacing" textLength="104.4507" x="354.9438" y="194.7622">JWT&#35748;&#35777;(ADMIN)</text><polygon fill="#181818" points="656.626,224.9609,666.626,228.9609,656.626,232.9609,660.626,228.9609" style="stroke:#181818;stroke-width:1.0;"/><line style="stroke:#181818;stroke-width:1.0;" x1="486.2407" x2="662.626" y1="228.9609" y2="228.9609"/><text fill="#000000" font-family="sans-serif" font-size="13" lengthAdjust="spacing" textLength="122.1353" x="493.2407" y="223.895">createActivity(req)</text><polygon fill="#181818" points="826.457,254.0938,836.457,258.0938,826.457,262.0938,830.457,258.0938" style="stroke:#181818;stroke-width:1.0;"/><line style="stroke:#181818;stroke-width:1.0;" x1="668.626" x2="832.457" y1="258.0938" y2="258.0938"/><text fill="#000000" font-family="sans-serif" font-size="13" lengthAdjust="spacing" textLength="145.8311" x="675.626" y="253.0278">INSERT seckill_activity</text><polygon fill="#181818" points="679.626,268.0938,669.626,272.0938,679.626,276.0938,675.626,272.0938" style="stroke:#181818;stroke-width:1.0;"/><line style="stroke:#181818;stroke-width:1.0;stroke-dasharray:2.0,2.0;" x1="673.626" x2="837.457" y1="272.0938" y2="272.0938"/><polygon fill="#181818" points="40,297.2266,30,301.2266,40,305.2266,36,301.2266" style="stroke:#181818;stroke-width:1.0;"/><line style="stroke:#181818;stroke-width:1.0;stroke-dasharray:2.0,2.0;" x1="34" x2="346.9438" y1="301.2266" y2="301.2266"/><text fill="#000000" font-family="sans-serif" font-size="13" lengthAdjust="spacing" textLength="60.5439" x="46" y="296.1606">{code:0}</text><rect fill="#EEEEEE" height="3" style="stroke:#EEEEEE;stroke-width:1.0;" width="924.9033" x="0" y="329.793"/><line style="stroke:#000000;stroke-width:1.0;" x1="0" x2="924.9033" y1="329.793" y2="329.793"/><line style="stroke:#000000;stroke-width:1.0;" x1="0" x2="924.9033" y1="332.793" y2="332.793"/><rect fill="#EEEEEE" height="23.1328" style="stroke:#000000;stroke-width:2.0;" width="76.8989" x="424.0022" y="319.2266"/><text fill="#000000" font-family="sans-serif" font-size="13" font-weight="bold" lengthAdjust="spacing" textLength="58.373" x="430.0022" y="335.2935">&#21551;&#29992;/&#32467;&#26463;</text><polygon fill="#181818" points="335.9438,369.4922,345.9438,373.4922,335.9438,377.4922,339.9438,373.4922" style="stroke:#181818;stroke-width:1.0;"/><line style="stroke:#181818;stroke-width:1.0;" x1="29" x2="341.9438" y1="373.4922" y2="373.4922"/><text fill="#000000" font-family="sans-serif" font-size="13" lengthAdjust="spacing" textLength="291.0527" x="36" y="368.4263">PATCH /api/seckill/admin/activity/{id}/status</text><polygon fill="#181818" points="656.626,398.625,666.626,402.625,656.626,406.625,660.626,402.625" style="stroke:#181818;stroke-width:1.0;"/><line style="stroke:#181818;stroke-width:1.0;" x1="486.2407" x2="662.626" y1="402.625" y2="402.625"/><text fill="#000000" font-family="sans-serif" font-size="13" lengthAdjust="spacing" textLength="157.4473" x="493.2407" y="397.5591">updateStatus(id, status)</text><polygon fill="#181818" points="826.457,427.7578,836.457,431.7578,826.457,435.7578,830.457,431.7578" style="stroke:#181818;stroke-width:1.0;"/><line style="stroke:#181818;stroke-width:1.0;" x1="668.626" x2="832.457" y1="431.7578" y2="431.7578"/><text fill="#000000" font-family="sans-serif" font-size="13" lengthAdjust="spacing" textLength="96.4907" x="675.626" y="426.6919">UPDATE status</text><polygon fill="#181818" points="885.6978,456.8906,895.6978,460.8906,885.6978,464.8906,889.6978,460.8906" style="stroke:#181818;stroke-width:1.0;"/><line style="stroke:#181818;stroke-width:1.0;" x1="668.626" x2="891.6978" y1="460.8906" y2="460.8906"/><text fill="#000000" font-family="sans-serif" font-size="13" lengthAdjust="spacing" textLength="82.3799" x="675.626" y="455.8247">&#32531;&#23384;&#39044;&#28909;/&#28165;&#38500;</text><polygon fill="#181818" points="40,486.0234,30,490.0234,40,494.0234,36,490.0234" style="stroke:#181818;stroke-width:1.0;"/><line style="stroke:#181818;stroke-width:1.0;stroke-dasharray:2.0,2.0;" x1="34" x2="346.9438" y1="490.0234" y2="490.0234"/><text fill="#000000" font-family="sans-serif" font-size="13" lengthAdjust="spacing" textLength="60.5439" x="46" y="484.9575">{code:0}</text><rect fill="#EEEEEE" height="3" style="stroke:#EEEEEE;stroke-width:1.0;" width="924.9033" x="0" y="518.5898"/><line style="stroke:#000000;stroke-width:1.0;" x1="0" x2="924.9033" y1="518.5898" y2="518.5898"/><line style="stroke:#000000;stroke-width:1.0;" x1="0" x2="924.9033" y1="521.5898" y2="521.5898"/><rect fill="#EEEEEE" height="23.1328" style="stroke:#000000;stroke-width:2.0;" width="45.3384" x="439.7825" y="508.0234"/><text fill="#000000" font-family="sans-serif" font-size="13" font-weight="bold" lengthAdjust="spacing" textLength="26.8125" x="445.7825" y="524.0903">&#39044;&#28909;</text><polygon fill="#181818" points="335.9438,558.2891,345.9438,562.2891,335.9438,566.2891,339.9438,562.2891" style="stroke:#181818;stroke-width:1.0;"/><line style="stroke:#181818;stroke-width:1.0;" x1="29" x2="341.9438" y1="562.2891" y2="562.2891"/><text fill="#000000" font-family="sans-serif" font-size="13" lengthAdjust="spacing" textLength="294.9438" x="36" y="557.2231">POST /api/seckill/admin/activity/{id}/warmup</text><polygon fill="#181818" points="656.626,587.4219,666.626,591.4219,656.626,595.4219,660.626,591.4219" style="stroke:#181818;stroke-width:1.0;"/><line style="stroke:#181818;stroke-width:1.0;" x1="486.2407" x2="662.626" y1="591.4219" y2="591.4219"/><text fill="#000000" font-family="sans-serif" font-size="13" lengthAdjust="spacing" textLength="76.3813" x="493.2407" y="586.356">warmUp(id)</text><polygon fill="#181818" points="885.6978,616.5547,895.6978,620.5547,885.6978,624.5547,889.6978,620.5547" style="stroke:#181818;stroke-width:1.0;"/><line style="stroke:#181818;stroke-width:1.0;" x1="668.626" x2="891.6978" y1="620.5547" y2="620.5547"/><text fill="#000000" font-family="sans-serif" font-size="13" lengthAdjust="spacing" textLength="127.8926" x="675.626" y="615.4888">&#39044;&#21152;&#36733;&#27963;&#21160;&#20449;&#24687;+&#24211;&#23384;</text><polygon fill="#181818" points="40,645.6875,30,649.6875,40,653.6875,36,649.6875" style="stroke:#181818;stroke-width:1.0;"/><line style="stroke:#181818;stroke-width:1.0;stroke-dasharray:2.0,2.0;" x1="34" x2="346.9438" y1="649.6875" y2="649.6875"/><text fill="#000000" font-family="sans-serif" font-size="13" lengthAdjust="spacing" textLength="60.5439" x="46" y="644.6216">{code:0}</text><!--SRC=[bP9FIoCn6CRl-HGldbgsTlOyKA6qefNLrSuKBmjBcWG9JZlPJDfIIa5Hz-39rJsu1_4FWbwq5m_Y7_mopapz5flCj4XT5FOMdkSXx-zv4qoKBo6-FettVeQ_3W47W6c3Dv70Kd721MugcCEATN3Nc6kT2MVAOMITUrwHADxcgblocqhwdiVab4aJ9RttyWwJRKvOfI6y91kq2Q9OuJeE62nsdPKlHgNrLx7AA0-CACq1eK81IjLQERxOZuuseflxSFSI2WMKyCFqZ6QrOVchuuA51RU2TBALs1OU0NzhzeJqQOke2iq9gO5oWTB0Bc-mV3xVHsiTSvKfOiF2gZkyFXyEDZF5yc9bAOkCR6pDRWEHJEzfl8cCP3-oI1l6ftKRAalERDM54SRtCG2YTPXEhqXcwMD2Q4EF-9JPd_j9qN1l4F- -jEBxW-Ze-D-MHRSq_r5DgyTftzBDL2kOf6u9lL_c94w6qnoaeGdqsdAvwCwEdB6HF88DySD1U7NuShOTRrrPqUtEov_pZtgamVz-ffI_WsMZ9IRvZLOJcZpx1anF2dTFXe-FwSzuVZgDDWUVmZk3-mxXNm00]--></g></svg>