<svg xmlns="http://www.w3.org/2000/svg" xmlns:xlink="http://www.w3.org/1999/xlink" contentStyleType="text/css" height="586px" preserveAspectRatio="none" style="width:898px;height:586px;background:#FFFFFF;" version="1.1" viewBox="0 0 898 586" width="898px" zoomAndPan="magnify"><defs/><g><line style="stroke:#181818;stroke-width:0.5;stroke-dasharray:5.0,5.0;" x1="29" x2="29" y1="81.2969" y2="505.7578"/><line style="stroke:#181818;stroke-width:0.5;stroke-dasharray:5.0,5.0;" x1="349.4019" x2="349.4019" y1="81.2969" y2="505.7578"/><line style="stroke:#181818;stroke-width:0.5;stroke-dasharray:5.0,5.0;" x1="478.1729" x2="478.1729" y1="81.2969" y2="505.7578"/><line style="stroke:#181818;stroke-width:0.5;stroke-dasharray:5.0,5.0;" x1="672.5947" x2="672.5947" y1="81.2969" y2="505.7578"/><line style="stroke:#181818;stroke-width:0.5;stroke-dasharray:5.0,5.0;" x1="859.8647" x2="859.8647" y1="81.2969" y2="505.7578"/><text fill="#000000" font-family="sans-serif" font-size="14" lengthAdjust="spacing" textLength="42" x="5" y="77.9951">&#31649;&#29702;&#21592;</text><ellipse cx="29" cy="13.5" fill="#E2E2F0" rx="8" ry="8" style="stroke:#181818;stroke-width:0.5;"/><path d="M29,21.5 L29,48.5 M16,29.5 L42,29.5 M29,48.5 L16,63.5 M29,48.5 L42,63.5 " fill="none" style="stroke:#181818;stroke-width:0.5;"/><text fill="#000000" font-family="sans-serif" font-size="14" lengthAdjust="spacing" textLength="42" x="5" y="517.7529">&#31649;&#29702;&#21592;</text><ellipse cx="29" cy="529.5547" fill="#E2E2F0" rx="8" ry="8" style="stroke:#181818;stroke-width:0.5;"/><path d="M29,537.5547 L29,564.5547 M16,545.5547 L42,545.5547 M29,564.5547 L16,579.5547 M29,564.5547 L42,579.5547 " fill="none" style="stroke:#181818;stroke-width:0.5;"/><rect fill="#E2E2F0" height="30.2969" rx="2.5" ry="2.5" style="stroke:#181818;stroke-width:0.5;" width="75.8447" x="312.4019" y="50"/><text fill="#000000" font-family="sans-serif" font-size="14" lengthAdjust="spacing" textLength="61.8447" x="319.4019" y="69.9951">Gateway</text><rect fill="#E2E2F0" height="30.2969" rx="2.5" ry="2.5" style="stroke:#181818;stroke-width:0.5;" width="75.8447" x="312.4019" y="504.7578"/><text fill="#000000" font-family="sans-serif" font-size="14" lengthAdjust="spacing" textLength="61.8447" x="319.4019" y="524.7529">Gateway</text><rect fill="#E2E2F0" height="30.2969" rx="2.5" ry="2.5" style="stroke:#181818;stroke-width:0.5;" width="123.2041" x="417.1729" y="50"/><text fill="#000000" font-family="sans-serif" font-size="14" lengthAdjust="spacing" textLength="109.2041" x="424.1729" y="69.9951">OrderController</text><rect fill="#E2E2F0" height="30.2969" rx="2.5" ry="2.5" style="stroke:#181818;stroke-width:0.5;" width="123.2041" x="417.1729" y="504.7578"/><text fill="#000000" font-family="sans-serif" font-size="14" lengthAdjust="spacing" textLength="109.2041" x="424.1729" y="524.7529">OrderController</text><rect fill="#E2E2F0" height="30.2969" rx="2.5" ry="2.5" style="stroke:#181818;stroke-width:0.5;" width="136.3154" x="604.5947" y="50"/><text fill="#000000" font-family="sans-serif" font-size="14" lengthAdjust="spacing" textLength="122.3154" x="611.5947" y="69.9951">OrderServiceImpl</text><rect fill="#E2E2F0" height="30.2969" rx="2.5" ry="2.5" style="stroke:#181818;stroke-width:0.5;" width="136.3154" x="604.5947" y="504.7578"/><text fill="#000000" font-family="sans-serif" font-size="14" lengthAdjust="spacing" textLength="122.3154" x="611.5947" y="524.7529">OrderServiceImpl</text><text fill="#000000" font-family="sans-serif" font-size="14" lengthAdjust="spacing" textLength="48.0703" x="832.8647" y="77.9951">MySQL</text><path d="M841.8999,29 C841.8999,19 859.8999,19 859.8999,19 C859.8999,19 877.8999,19 877.8999,29 L877.8999,55 C877.8999,65 859.8999,65 859.8999,65 C859.8999,65 841.8999,65 841.8999,55 L841.8999,29 " fill="#E2E2F0" style="stroke:#181818;stroke-width:1.5;"/><path d="M841.8999,29 C841.8999,39 859.8999,39 859.8999,39 C859.8999,39 877.8999,39 877.8999,29 " fill="none" style="stroke:#181818;stroke-width:1.5;"/><text fill="#000000" font-family="sans-serif" font-size="14" lengthAdjust="spacing" textLength="48.0703" x="832.8647" y="517.7529">MySQL</text><path d="M841.8999,531.0547 C841.8999,521.0547 859.8999,521.0547 859.8999,521.0547 C859.8999,521.0547 877.8999,521.0547 877.8999,531.0547 L877.8999,557.0547 C877.8999,567.0547 859.8999,567.0547 859.8999,567.0547 C859.8999,567.0547 841.8999,567.0547 841.8999,557.0547 L841.8999,531.0547 " fill="#E2E2F0" style="stroke:#181818;stroke-width:1.5;"/><path d="M841.8999,531.0547 C841.8999,541.0547 859.8999,541.0547 859.8999,541.0547 C859.8999,541.0547 877.8999,541.0547 877.8999,531.0547 " fill="none" style="stroke:#181818;stroke-width:1.5;"/><rect fill="#EEEEEE" height="3" style="stroke:#EEEEEE;stroke-width:1.0;" width="891.9351" x="0" y="111.8633"/><line style="stroke:#000000;stroke-width:1.0;" x1="0" x2="891.9351" y1="111.8633" y2="111.8633"/><line style="stroke:#000000;stroke-width:1.0;" x1="0" x2="891.9351" y1="114.8633" y2="114.8633"/><rect fill="#EEEEEE" height="23.1328" style="stroke:#000000;stroke-width:2.0;" width="72.1509" x="409.8921" y="101.2969"/><text fill="#000000" font-family="sans-serif" font-size="13" font-weight="bold" lengthAdjust="spacing" textLength="53.625" x="415.8921" y="117.3638">&#35746;&#21333;&#21015;&#34920;</text><polygon fill="#181818" points="338.3242,151.5625,348.3242,155.5625,338.3242,159.5625,342.3242,155.5625" style="stroke:#181818;stroke-width:1.0;"/><line style="stroke:#181818;stroke-width:1.0;" x1="29" x2="344.3242" y1="155.5625" y2="155.5625"/><text fill="#000000" font-family="sans-serif" font-size="13" lengthAdjust="spacing" textLength="297.3242" x="36" y="150.4966">GET /api/admin/order/list?page=1&amp;status=xx</text><polygon fill="#181818" points="466.7749,180.6953,476.7749,184.6953,466.7749,188.6953,470.7749,184.6953" style="stroke:#181818;stroke-width:1.0;"/><line style="stroke:#181818;stroke-width:1.0;" x1="350.3242" x2="472.7749" y1="184.6953" y2="184.6953"/><text fill="#000000" font-family="sans-serif" font-size="13" lengthAdjust="spacing" textLength="104.4507" x="357.3242" y="179.6294">JWT&#35748;&#35777;(ADMIN)</text><polygon fill="#181818" points="660.7524,209.8281,670.7524,213.8281,660.7524,217.8281,664.7524,213.8281" style="stroke:#181818;stroke-width:1.0;"/><line style="stroke:#181818;stroke-width:1.0;" x1="478.7749" x2="666.7524" y1="213.8281" y2="213.8281"/><text fill="#000000" font-family="sans-serif" font-size="13" lengthAdjust="spacing" textLength="169.9775" x="485.7749" y="208.7622">listAllOrders(page, status)</text><polygon fill="#181818" points="847.8999,238.9609,857.8999,242.9609,847.8999,246.9609,851.8999,242.9609" style="stroke:#181818;stroke-width:1.0;"/><line style="stroke:#181818;stroke-width:1.0;" x1="672.7524" x2="853.8999" y1="242.9609" y2="242.9609"/><text fill="#000000" font-family="sans-serif" font-size="13" lengthAdjust="spacing" textLength="114.1436" x="679.7524" y="237.895">&#20998;&#39029;&#26597;&#35810;(&#20840;&#37096;&#29992;&#25143;)</text><polygon fill="#181818" points="683.7524,252.9609,673.7524,256.9609,683.7524,260.9609,679.7524,256.9609" style="stroke:#181818;stroke-width:1.0;"/><line style="stroke:#181818;stroke-width:1.0;stroke-dasharray:2.0,2.0;" x1="677.7524" x2="858.8999" y1="256.9609" y2="256.9609"/><polygon fill="#181818" points="361.3242,266.9609,351.3242,270.9609,361.3242,274.9609,357.3242,270.9609" style="stroke:#181818;stroke-width:1.0;"/><line style="stroke:#181818;stroke-width:1.0;stroke-dasharray:2.0,2.0;" x1="355.3242" x2="477.7749" y1="270.9609" y2="270.9609"/><polygon fill="#181818" points="40,296.0938,30,300.0938,40,304.0938,36,300.0938" style="stroke:#181818;stroke-width:1.0;"/><line style="stroke:#181818;stroke-width:1.0;stroke-dasharray:2.0,2.0;" x1="34" x2="349.3242" y1="300.0938" y2="300.0938"/><text fill="#000000" font-family="sans-serif" font-size="13" lengthAdjust="spacing" textLength="167.8257" x="46" y="295.0278">{code:0, data:{records}}</text><rect fill="#EEEEEE" height="3" style="stroke:#EEEEEE;stroke-width:1.0;" width="891.9351" x="0" y="328.6602"/><line style="stroke:#000000;stroke-width:1.0;" x1="0" x2="891.9351" y1="328.6602" y2="328.6602"/><line style="stroke:#000000;stroke-width:1.0;" x1="0" x2="891.9351" y1="331.6602" y2="331.6602"/><rect fill="#EEEEEE" height="23.1328" style="stroke:#000000;stroke-width:2.0;" width="110.8462" x="390.5444" y="318.0938"/><text fill="#000000" font-family="sans-serif" font-size="13" font-weight="bold" lengthAdjust="spacing" textLength="92.3203" x="396.5444" y="334.1606">&#20462;&#25913;&#29366;&#24577;(&#21457;&#36135;)</text><polygon fill="#181818" points="338.3242,368.3594,348.3242,372.3594,338.3242,376.3594,342.3242,372.3594" style="stroke:#181818;stroke-width:1.0;"/><line style="stroke:#181818;stroke-width:1.0;" x1="29" x2="344.3242" y1="372.3594" y2="372.3594"/><text fill="#000000" font-family="sans-serif" font-size="13" lengthAdjust="spacing" textLength="211.0342" x="36" y="367.2935">POST /api/admin/order/{id}/ship</text><polygon fill="#181818" points="660.7524,397.4922,670.7524,401.4922,660.7524,405.4922,664.7524,401.4922" style="stroke:#181818;stroke-width:1.0;"/><line style="stroke:#181818;stroke-width:1.0;" x1="478.7749" x2="666.7524" y1="401.4922" y2="401.4922"/><text fill="#000000" font-family="sans-serif" font-size="13" lengthAdjust="spacing" textLength="86.0552" x="485.7749" y="396.4263">shipOrder(id)</text><polygon fill="#181818" points="847.8999,426.625,857.8999,430.625,847.8999,434.625,851.8999,430.625" style="stroke:#181818;stroke-width:1.0;"/><line style="stroke:#181818;stroke-width:1.0;" x1="672.7524" x2="853.8999" y1="430.625" y2="430.625"/><text fill="#000000" font-family="sans-serif" font-size="13" lengthAdjust="spacing" textLength="163.1475" x="679.7524" y="425.5591">UPDATE status=SHIPPED</text><polygon fill="#181818" points="683.7524,440.625,673.7524,444.625,683.7524,448.625,679.7524,444.625" style="stroke:#181818;stroke-width:1.0;"/><line style="stroke:#181818;stroke-width:1.0;stroke-dasharray:2.0,2.0;" x1="677.7524" x2="858.8999" y1="444.625" y2="444.625"/><polygon fill="#181818" points="361.3242,454.625,351.3242,458.625,361.3242,462.625,357.3242,458.625" style="stroke:#181818;stroke-width:1.0;"/><line style="stroke:#181818;stroke-width:1.0;stroke-dasharray:2.0,2.0;" x1="355.3242" x2="477.7749" y1="458.625" y2="458.625"/><polygon fill="#181818" points="40,483.7578,30,487.7578,40,491.7578,36,487.7578" style="stroke:#181818;stroke-width:1.0;"/><line style="stroke:#181818;stroke-width:1.0;stroke-dasharray:2.0,2.0;" x1="34" x2="349.3242" y1="487.7578" y2="487.7578"/><text fill="#000000" font-family="sans-serif" font-size="13" lengthAdjust="spacing" textLength="60.5439" x="46" y="482.6919">{code:0}</text><!--SRC=[bOzDIm917CRlyod-T8WLagthmXQIOaOlXaRdSMUmWTLTPYPV4269Ge8emQXR64MUjailTEhBjExwBTePkqXTkWtF_vc7tmyxqkCG1QFewYmSt08MW4cDrP6FkMGEyt5TGXvBsiHjTQmsvouBkvnGlkxL9VTSb_85rN4aT_zebIXlC8SMQhwhQwBX888bhc11ORjTsjjIAQaWPDiG1_VXnNNOlub7Ox1jfA4WlPe0M93FbS74FZDrQdfgtNIPa6i-hb9xPL58B8-4tMgXQbDzKaGMR1wKu-0XVkuPcUnsOIU5LApE2Oa5wd_6TJMgCDJG4insKYWfg1wfM13spwQZrydTO_nyRuIdu-d9E1gE9_tt528LIC_MVfOrhaP8NfhLWexZ4MejBu5IjpgSEWc-w7QrzTTdC1b-HETla-EU4LuEufUdr2_xucxf3_qE8rrJ739_taebMibWPCvZlvZDb7C_XdPfer0ivhB_KkX-0m00]--></g></svg>