<svg xmlns="http://www.w3.org/2000/svg" xmlns:xlink="http://www.w3.org/1999/xlink" contentStyleType="text/css" height="732px" preserveAspectRatio="none" style="width:831px;height:732px;background:#FFFFFF;" version="1.1" viewBox="0 0 831 732" width="831px" zoomAndPan="magnify"><defs/><g><line style="stroke:#181818;stroke-width:0.5;stroke-dasharray:5.0,5.0;" x1="29" x2="29" y1="81.2969" y2="651.4219"/><line style="stroke:#181818;stroke-width:0.5;stroke-dasharray:5.0,5.0;" x1="266.5015" x2="266.5015" y1="81.2969" y2="651.4219"/><line style="stroke:#181818;stroke-width:0.5;stroke-dasharray:5.0,5.0;" x1="394.9009" x2="394.9009" y1="81.2969" y2="651.4219"/><line style="stroke:#181818;stroke-width:0.5;stroke-dasharray:5.0,5.0;" x1="595.7217" x2="595.7217" y1="81.2969" y2="651.4219"/><line style="stroke:#181818;stroke-width:0.5;stroke-dasharray:5.0,5.0;" x1="792.5415" x2="792.5415" y1="81.2969" y2="651.4219"/><text fill="#000000" font-family="sans-serif" font-size="14" lengthAdjust="spacing" textLength="42" x="5" y="77.9951">&#31649;&#29702;&#21592;</text><ellipse cx="29" cy="13.5" fill="#E2E2F0" rx="8" ry="8" style="stroke:#181818;stroke-width:0.5;"/><path d="M29,21.5 L29,48.5 M16,29.5 L42,29.5 M29,48.5 L16,63.5 M29,48.5 L42,63.5 " fill="none" style="stroke:#181818;stroke-width:0.5;"/><text fill="#000000" font-family="sans-serif" font-size="14" lengthAdjust="spacing" textLength="42" x="5" y="663.417">&#31649;&#29702;&#21592;</text><ellipse cx="29" cy="675.2188" fill="#E2E2F0" rx="8" ry="8" style="stroke:#181818;stroke-width:0.5;"/><path d="M29,683.2188 L29,710.2188 M16,691.2188 L42,691.2188 M29,710.2188 L16,725.2188 M29,710.2188 L42,725.2188 " fill="none" style="stroke:#181818;stroke-width:0.5;"/><rect fill="#E2E2F0" height="30.2969" rx="2.5" ry="2.5" style="stroke:#181818;stroke-width:0.5;" width="75.8447" x="229.5015" y="50"/><text fill="#000000" font-family="sans-serif" font-size="14" lengthAdjust="spacing" textLength="61.8447" x="236.5015" y="69.9951">Gateway</text><rect fill="#E2E2F0" height="30.2969" rx="2.5" ry="2.5" style="stroke:#181818;stroke-width:0.5;" width="75.8447" x="229.5015" y="650.4219"/><text fill="#000000" font-family="sans-serif" font-size="14" lengthAdjust="spacing" textLength="61.8447" x="236.5015" y="670.417">Gateway</text><rect fill="#E2E2F0" height="30.2969" rx="2.5" ry="2.5" style="stroke:#181818;stroke-width:0.5;" width="159.9473" x="315.9009" y="50"/><text fill="#000000" font-family="sans-serif" font-size="14" lengthAdjust="spacing" textLength="145.9473" x="322.9009" y="69.9951">AdminUserController</text><rect fill="#E2E2F0" height="30.2969" rx="2.5" ry="2.5" style="stroke:#181818;stroke-width:0.5;" width="159.9473" x="315.9009" y="650.4219"/><text fill="#000000" font-family="sans-serif" font-size="14" lengthAdjust="spacing" textLength="145.9473" x="322.9009" y="670.417">AdminUserController</text><rect fill="#E2E2F0" height="30.2969" rx="2.5" ry="2.5" style="stroke:#181818;stroke-width:0.5;" width="128.1943" x="531.7217" y="50"/><text fill="#000000" font-family="sans-serif" font-size="14" lengthAdjust="spacing" textLength="114.1943" x="538.7217" y="69.9951">UserServiceImpl</text><rect fill="#E2E2F0" height="30.2969" rx="2.5" ry="2.5" style="stroke:#181818;stroke-width:0.5;" width="128.1943" x="531.7217" y="650.4219"/><text fill="#000000" font-family="sans-serif" font-size="14" lengthAdjust="spacing" textLength="114.1943" x="538.7217" y="670.417">UserServiceImpl</text><text fill="#000000" font-family="sans-serif" font-size="14" lengthAdjust="spacing" textLength="48.0703" x="765.5415" y="77.9951">MySQL</text><path d="M774.5767,29 C774.5767,19 792.5767,19 792.5767,19 C792.5767,19 810.5767,19 810.5767,29 L810.5767,55 C810.5767,65 792.5767,65 792.5767,65 C792.5767,65 774.5767,65 774.5767,55 L774.5767,29 " fill="#E2E2F0" style="stroke:#181818;stroke-width:1.5;"/><path d="M774.5767,29 C774.5767,39 792.5767,39 792.5767,39 C792.5767,39 810.5767,39 810.5767,29 " fill="none" style="stroke:#181818;stroke-width:1.5;"/><text fill="#000000" font-family="sans-serif" font-size="14" lengthAdjust="spacing" textLength="48.0703" x="765.5415" y="663.417">MySQL</text><path d="M774.5767,676.7188 C774.5767,666.7188 792.5767,666.7188 792.5767,666.7188 C792.5767,666.7188 810.5767,666.7188 810.5767,676.7188 L810.5767,702.7188 C810.5767,712.7188 792.5767,712.7188 792.5767,712.7188 C792.5767,712.7188 774.5767,712.7188 774.5767,702.7188 L774.5767,676.7188 " fill="#E2E2F0" style="stroke:#181818;stroke-width:1.5;"/><path d="M774.5767,676.7188 C774.5767,686.7188 792.5767,686.7188 792.5767,686.7188 C792.5767,686.7188 810.5767,686.7188 810.5767,676.7188 " fill="none" style="stroke:#181818;stroke-width:1.5;"/><rect fill="#EEEEEE" height="3" style="stroke:#EEEEEE;stroke-width:1.0;" width="824.6118" x="0" y="111.8633"/><line style="stroke:#000000;stroke-width:1.0;" x1="0" x2="824.6118" y1="111.8633" y2="111.8633"/><line style="stroke:#000000;stroke-width:1.0;" x1="0" x2="824.6118" y1="114.8633" y2="114.8633"/><rect fill="#EEEEEE" height="23.1328" style="stroke:#000000;stroke-width:2.0;" width="72.1509" x="376.2305" y="101.2969"/><text fill="#000000" font-family="sans-serif" font-size="13" font-weight="bold" lengthAdjust="spacing" textLength="53.625" x="382.2305" y="117.3638">&#29992;&#25143;&#21015;&#34920;</text><polygon fill="#181818" points="255.4238,151.5625,265.4238,155.5625,255.4238,159.5625,259.4238,155.5625" style="stroke:#181818;stroke-width:1.0;"/><line style="stroke:#181818;stroke-width:1.0;" x1="29" x2="261.4238" y1="155.5625" y2="155.5625"/><text fill="#000000" font-family="sans-serif" font-size="13" lengthAdjust="spacing" textLength="214.4238" x="36" y="150.4966">GET /api/admin/user/list?page=1</text><polygon fill="#181818" points="383.8745,180.6953,393.8745,184.6953,383.8745,188.6953,387.8745,184.6953" style="stroke:#181818;stroke-width:1.0;"/><line style="stroke:#181818;stroke-width:1.0;" x1="267.4238" x2="389.8745" y1="184.6953" y2="184.6953"/><text fill="#000000" font-family="sans-serif" font-size="13" lengthAdjust="spacing" textLength="104.4507" x="274.4238" y="179.6294">JWT&#35748;&#35777;(ADMIN)</text><polygon fill="#181818" points="583.8188,209.8281,593.8188,213.8281,583.8188,217.8281,587.8188,213.8281" style="stroke:#181818;stroke-width:1.0;"/><line style="stroke:#181818;stroke-width:1.0;" x1="395.8745" x2="589.8188" y1="213.8281" y2="213.8281"/><text fill="#000000" font-family="sans-serif" font-size="13" lengthAdjust="spacing" textLength="175.9443" x="402.8745" y="208.7622">adminListUsers(page, size)</text><polygon fill="#181818" points="780.5767,238.9609,790.5767,242.9609,780.5767,246.9609,784.5767,242.9609" style="stroke:#181818;stroke-width:1.0;"/><line style="stroke:#181818;stroke-width:1.0;" x1="595.8188" x2="786.5767" y1="242.9609" y2="242.9609"/><text fill="#000000" font-family="sans-serif" font-size="13" lengthAdjust="spacing" textLength="104" x="602.8188" y="237.895">&#20998;&#39029;&#26597;&#35810;&#20840;&#37096;&#29992;&#25143;</text><polygon fill="#181818" points="606.8188,252.9609,596.8188,256.9609,606.8188,260.9609,602.8188,256.9609" style="stroke:#181818;stroke-width:1.0;"/><line style="stroke:#181818;stroke-width:1.0;stroke-dasharray:2.0,2.0;" x1="600.8188" x2="791.5767" y1="256.9609" y2="256.9609"/><polygon fill="#181818" points="278.4238,266.9609,268.4238,270.9609,278.4238,274.9609,274.4238,270.9609" style="stroke:#181818;stroke-width:1.0;"/><line style="stroke:#181818;stroke-width:1.0;stroke-dasharray:2.0,2.0;" x1="272.4238" x2="394.8745" y1="270.9609" y2="270.9609"/><polygon fill="#181818" points="40,296.0938,30,300.0938,40,304.0938,36,300.0938" style="stroke:#181818;stroke-width:1.0;"/><line style="stroke:#181818;stroke-width:1.0;stroke-dasharray:2.0,2.0;" x1="34" x2="266.4238" y1="300.0938" y2="300.0938"/><text fill="#000000" font-family="sans-serif" font-size="13" lengthAdjust="spacing" textLength="167.8257" x="46" y="295.0278">{code:0, data:{records}}</text><rect fill="#EEEEEE" height="3" style="stroke:#EEEEEE;stroke-width:1.0;" width="824.6118" x="0" y="328.6602"/><line style="stroke:#000000;stroke-width:1.0;" x1="0" x2="824.6118" y1="328.6602" y2="328.6602"/><line style="stroke:#000000;stroke-width:1.0;" x1="0" x2="824.6118" y1="331.6602" y2="331.6602"/><rect fill="#EEEEEE" height="23.1328" style="stroke:#000000;stroke-width:2.0;" width="72.1509" x="376.2305" y="318.0938"/><text fill="#000000" font-family="sans-serif" font-size="13" font-weight="bold" lengthAdjust="spacing" textLength="53.625" x="382.2305" y="334.1606">&#31105;&#29992;&#29992;&#25143;</text><polygon fill="#181818" points="255.4238,368.3594,265.4238,372.3594,255.4238,376.3594,259.4238,372.3594" style="stroke:#181818;stroke-width:1.0;"/><line style="stroke:#181818;stroke-width:1.0;" x1="29" x2="261.4238" y1="372.3594" y2="372.3594"/><text fill="#000000" font-family="sans-serif" font-size="13" lengthAdjust="spacing" textLength="188.811" x="36" y="367.2935">DELETE /api/admin/user/{id}</text><polygon fill="#181818" points="583.8188,397.4922,593.8188,401.4922,583.8188,405.4922,587.8188,401.4922" style="stroke:#181818;stroke-width:1.0;"/><line style="stroke:#181818;stroke-width:1.0;" x1="395.8745" x2="589.8188" y1="401.4922" y2="401.4922"/><text fill="#000000" font-family="sans-serif" font-size="13" lengthAdjust="spacing" textLength="140.5942" x="402.8745" y="396.4263">adminDisableUser(id)</text><polygon fill="#181818" points="780.5767,426.625,790.5767,430.625,780.5767,434.625,784.5767,430.625" style="stroke:#181818;stroke-width:1.0;"/><line style="stroke:#181818;stroke-width:1.0;" x1="595.8188" x2="786.5767" y1="430.625" y2="430.625"/><text fill="#000000" font-family="sans-serif" font-size="13" lengthAdjust="spacing" textLength="172.7578" x="602.8188" y="425.5591">UPDATE status=DISABLED</text><polygon fill="#181818" points="606.8188,440.625,596.8188,444.625,606.8188,448.625,602.8188,444.625" style="stroke:#181818;stroke-width:1.0;"/><line style="stroke:#181818;stroke-width:1.0;stroke-dasharray:2.0,2.0;" x1="600.8188" x2="791.5767" y1="444.625" y2="444.625"/><polygon fill="#181818" points="40,469.7578,30,473.7578,40,477.7578,36,473.7578" style="stroke:#181818;stroke-width:1.0;"/><line style="stroke:#181818;stroke-width:1.0;stroke-dasharray:2.0,2.0;" x1="34" x2="266.4238" y1="473.7578" y2="473.7578"/><text fill="#000000" font-family="sans-serif" font-size="13" lengthAdjust="spacing" textLength="60.5439" x="46" y="468.6919">{code:0}</text><rect fill="#EEEEEE" height="3" style="stroke:#EEEEEE;stroke-width:1.0;" width="824.6118" x="0" y="502.3242"/><line style="stroke:#000000;stroke-width:1.0;" x1="0" x2="824.6118" y1="502.3242" y2="502.3242"/><line style="stroke:#000000;stroke-width:1.0;" x1="0" x2="824.6118" y1="505.3242" y2="505.3242"/><rect fill="#EEEEEE" height="23.1328" style="stroke:#000000;stroke-width:2.0;" width="72.1509" x="376.2305" y="491.7578"/><text fill="#000000" font-family="sans-serif" font-size="13" font-weight="bold" lengthAdjust="spacing" textLength="53.625" x="382.2305" y="507.8247">&#20462;&#25913;&#29992;&#25143;</text><polygon fill="#181818" points="255.4238,542.0234,265.4238,546.0234,255.4238,550.0234,259.4238,546.0234" style="stroke:#181818;stroke-width:1.0;"/><line style="stroke:#181818;stroke-width:1.0;" x1="29" x2="261.4238" y1="546.0234" y2="546.0234"/><text fill="#000000" font-family="sans-serif" font-size="13" lengthAdjust="spacing" textLength="164.271" x="36" y="540.9575">PUT /api/admin/user/{id}</text><polygon fill="#181818" points="583.8188,571.1563,593.8188,575.1563,583.8188,579.1563,587.8188,575.1563" style="stroke:#181818;stroke-width:1.0;"/><line style="stroke:#181818;stroke-width:1.0;" x1="395.8745" x2="589.8188" y1="575.1563" y2="575.1563"/><text fill="#000000" font-family="sans-serif" font-size="13" lengthAdjust="spacing" textLength="169.311" x="402.8745" y="570.0903">adminUpdateUser(id, req)</text><polygon fill="#181818" points="780.5767,600.2891,790.5767,604.2891,780.5767,608.2891,784.5767,604.2891" style="stroke:#181818;stroke-width:1.0;"/><line style="stroke:#181818;stroke-width:1.0;" x1="595.8188" x2="786.5767" y1="604.2891" y2="604.2891"/><text fill="#000000" font-family="sans-serif" font-size="13" lengthAdjust="spacing" textLength="84.8999" x="602.8188" y="599.2231">UPDATE user</text><polygon fill="#181818" points="40,629.4219,30,633.4219,40,637.4219,36,633.4219" style="stroke:#181818;stroke-width:1.0;"/><line style="stroke:#181818;stroke-width:1.0;stroke-dasharray:2.0,2.0;" x1="34" x2="266.4238" y1="633.4219" y2="633.4219"/><text fill="#000000" font-family="sans-serif" font-size="13" lengthAdjust="spacing" textLength="60.5439" x="46" y="628.356">{code:0}</text><!--SRC=[ZP11Im9168Rlyoi-F2aerdLX2siNCJGCbSwpEuCChEusCoac7YGIZmL2tSAeyAIdY4xzcTJrNpIpMv2eq6tutlTxl-STx4gVmt8wNjuEvdSFW0LWqc1D560kcSi2t9IGnvAsSKUBzVQQaiXfSqrGVkmt9VSzZ_A4zhcIU-jERQfGtc8kBJG2BtA9bei8bjZ1WaAfKpahwYbn439DM8ucY-7xV7WVZYTWcYZYWio1OZ0WRrSXYmEMZQRPInMUzPYGXm6kKtCVrTlQgIaCE3clXjFdSDPFvgnIuJI5z5ZBwhmHrosgLGqeade_3O9TqHHIkhOHnu3vSB0QloqUNyBPq_ncihgUn7Y8E929etvY8y3eldf5uGPqNPzGOoyDkgpHvTJrEH6zNjppjQ-ouhYDdfPTjAlsHjKk8xqjDImciEDHtIJ9o5g1MjdAgI0XiRmKfbMev8wAjlKNVojoZFZrELsCFdOWbclL__BL0lK1ltXfuFHY6wDEs47p3G00]--></g></svg>