<svg xmlns="http://www.w3.org/2000/svg" xmlns:xlink="http://www.w3.org/1999/xlink" contentStyleType="text/css" height="747px" preserveAspectRatio="none" style="width:805px;height:747px;background:#FFFFFF;" version="1.1" viewBox="0 0 805 747" width="805px" zoomAndPan="magnify"><defs/><g><line style="stroke:#181818;stroke-width:0.5;stroke-dasharray:5.0,5.0;" x1="29" x2="29" y1="81.2969" y2="666.5547"/><line style="stroke:#181818;stroke-width:0.5;stroke-dasharray:5.0,5.0;" x1="286.6235" x2="286.6235" y1="81.2969" y2="666.5547"/><line style="stroke:#181818;stroke-width:0.5;stroke-dasharray:5.0,5.0;" x1="415.6406" x2="415.6406" y1="81.2969" y2="666.5547"/><line style="stroke:#181818;stroke-width:0.5;stroke-dasharray:5.0,5.0;" x1="568.3525" x2="568.3525" y1="81.2969" y2="666.5547"/><line style="stroke:#181818;stroke-width:0.5;stroke-dasharray:5.0,5.0;" x1="765.9868" x2="765.9868" y1="81.2969" y2="666.5547"/><text fill="#000000" font-family="sans-serif" font-size="14" lengthAdjust="spacing" textLength="42" x="5" y="77.9951">&#31649;&#29702;&#21592;</text><ellipse cx="29" cy="13.5" fill="#E2E2F0" rx="8" ry="8" style="stroke:#181818;stroke-width:0.5;"/><path d="M29,21.5 L29,48.5 M16,29.5 L42,29.5 M29,48.5 L16,63.5 M29,48.5 L42,63.5 " fill="none" style="stroke:#181818;stroke-width:0.5;"/><text fill="#000000" font-family="sans-serif" font-size="14" lengthAdjust="spacing" textLength="42" x="5" y="678.5498">&#31649;&#29702;&#21592;</text><ellipse cx="29" cy="690.3516" fill="#E2E2F0" rx="8" ry="8" style="stroke:#181818;stroke-width:0.5;"/><path d="M29,698.3516 L29,725.3516 M16,706.3516 L42,706.3516 M29,725.3516 L16,740.3516 M29,725.3516 L42,740.3516 " fill="none" style="stroke:#181818;stroke-width:0.5;"/><rect fill="#E2E2F0" height="30.2969" rx="2.5" ry="2.5" style="stroke:#181818;stroke-width:0.5;" width="75.8447" x="249.6235" y="50"/><text fill="#000000" font-family="sans-serif" font-size="14" lengthAdjust="spacing" textLength="61.8447" x="256.6235" y="69.9951">Gateway</text><rect fill="#E2E2F0" height="30.2969" rx="2.5" ry="2.5" style="stroke:#181818;stroke-width:0.5;" width="75.8447" x="249.6235" y="665.5547"/><text fill="#000000" font-family="sans-serif" font-size="14" lengthAdjust="spacing" textLength="61.8447" x="256.6235" y="685.5498">Gateway</text><rect fill="#E2E2F0" height="30.2969" rx="2.5" ry="2.5" style="stroke:#181818;stroke-width:0.5;" width="136.7119" x="347.6406" y="50"/><text fill="#000000" font-family="sans-serif" font-size="14" lengthAdjust="spacing" textLength="122.7119" x="354.6406" y="69.9951">CouponController</text><rect fill="#E2E2F0" height="30.2969" rx="2.5" ry="2.5" style="stroke:#181818;stroke-width:0.5;" width="136.7119" x="347.6406" y="665.5547"/><text fill="#000000" font-family="sans-serif" font-size="14" lengthAdjust="spacing" textLength="122.7119" x="354.6406" y="685.5498">CouponController</text><rect fill="#E2E2F0" height="30.2969" rx="2.5" ry="2.5" style="stroke:#181818;stroke-width:0.5;" width="149.8232" x="494.3525" y="50"/><text fill="#000000" font-family="sans-serif" font-size="14" lengthAdjust="spacing" textLength="135.8232" x="501.3525" y="69.9951">CouponServiceImpl</text><rect fill="#E2E2F0" height="30.2969" rx="2.5" ry="2.5" style="stroke:#181818;stroke-width:0.5;" width="149.8232" x="494.3525" y="665.5547"/><text fill="#000000" font-family="sans-serif" font-size="14" lengthAdjust="spacing" textLength="135.8232" x="501.3525" y="685.5498">CouponServiceImpl</text><text fill="#000000" font-family="sans-serif" font-size="14" lengthAdjust="spacing" textLength="48.0703" x="738.9868" y="77.9951">MySQL</text><path d="M748.022,29 C748.022,19 766.022,19 766.022,19 C766.022,19 784.022,19 784.022,29 L784.022,55 C784.022,65 766.022,65 766.022,65 C766.022,65 748.022,65 748.022,55 L748.022,29 " fill="#E2E2F0" style="stroke:#181818;stroke-width:1.5;"/><path d="M748.022,29 C748.022,39 766.022,39 766.022,39 C766.022,39 784.022,39 784.022,29 " fill="none" style="stroke:#181818;stroke-width:1.5;"/><text fill="#000000" font-family="sans-serif" font-size="14" lengthAdjust="spacing" textLength="48.0703" x="738.9868" y="678.5498">MySQL</text><path d="M748.022,691.8516 C748.022,681.8516 766.022,681.8516 766.022,681.8516 C766.022,681.8516 784.022,681.8516 784.022,691.8516 L784.022,717.8516 C784.022,727.8516 766.022,727.8516 766.022,727.8516 C766.022,727.8516 748.022,727.8516 748.022,717.8516 L748.022,691.8516 " fill="#E2E2F0" style="stroke:#181818;stroke-width:1.5;"/><path d="M748.022,691.8516 C748.022,701.8516 766.022,701.8516 766.022,701.8516 C766.022,701.8516 784.022,701.8516 784.022,691.8516 " fill="none" style="stroke:#181818;stroke-width:1.5;"/><rect fill="#EEEEEE" height="3" style="stroke:#EEEEEE;stroke-width:1.0;" width="798.0571" x="0" y="111.8633"/><line style="stroke:#000000;stroke-width:1.0;" x1="0" x2="798.0571" y1="111.8633" y2="111.8633"/><line style="stroke:#000000;stroke-width:1.0;" x1="0" x2="798.0571" y1="114.8633" y2="114.8633"/><rect fill="#EEEEEE" height="23.1328" style="stroke:#000000;stroke-width:2.0;" width="85.5571" x="356.25" y="101.2969"/><text fill="#000000" font-family="sans-serif" font-size="13" font-weight="bold" lengthAdjust="spacing" textLength="67.0313" x="362.25" y="117.3638">&#26032;&#24314;&#20248;&#24800;&#21048;</text><polygon fill="#181818" points="275.5459,166.6953,285.5459,170.6953,275.5459,174.6953,279.5459,170.6953" style="stroke:#181818;stroke-width:1.0;"/><line style="stroke:#181818;stroke-width:1.0;" x1="29" x2="281.5459" y1="170.6953" y2="170.6953"/><text fill="#000000" font-family="sans-serif" font-size="13" lengthAdjust="spacing" textLength="159.8848" x="36" y="150.4966">POST /api/admin/coupon</text><text fill="#000000" font-family="sans-serif" font-size="13" lengthAdjust="spacing" textLength="197.0566" x="36" y="165.6294">{name,type,discount,stock...}</text><polygon fill="#181818" points="403.9966,195.8281,413.9966,199.8281,403.9966,203.8281,407.9966,199.8281" style="stroke:#181818;stroke-width:1.0;"/><line style="stroke:#181818;stroke-width:1.0;" x1="287.5459" x2="409.9966" y1="199.8281" y2="199.8281"/><text fill="#000000" font-family="sans-serif" font-size="13" lengthAdjust="spacing" textLength="104.4507" x="294.5459" y="194.7622">JWT&#35748;&#35777;(ADMIN)</text><polygon fill="#181818" points="557.2642,224.9609,567.2642,228.9609,557.2642,232.9609,561.2642,228.9609" style="stroke:#181818;stroke-width:1.0;"/><line style="stroke:#181818;stroke-width:1.0;" x1="415.9966" x2="563.2642" y1="228.9609" y2="228.9609"/><text fill="#000000" font-family="sans-serif" font-size="13" lengthAdjust="spacing" textLength="123.0049" x="422.9966" y="223.895">createCoupon(req)</text><polygon fill="#181818" points="754.022,254.0938,764.022,258.0938,754.022,262.0938,758.022,258.0938" style="stroke:#181818;stroke-width:1.0;"/><line style="stroke:#181818;stroke-width:1.0;" x1="569.2642" x2="760.022" y1="258.0938" y2="258.0938"/><text fill="#000000" font-family="sans-serif" font-size="13" lengthAdjust="spacing" textLength="98.9155" x="576.2642" y="253.0278">INSERT coupon</text><polygon fill="#181818" points="580.2642,268.0938,570.2642,272.0938,580.2642,276.0938,576.2642,272.0938" style="stroke:#181818;stroke-width:1.0;"/><line style="stroke:#181818;stroke-width:1.0;stroke-dasharray:2.0,2.0;" x1="574.2642" x2="765.022" y1="272.0938" y2="272.0938"/><polygon fill="#181818" points="298.5459,282.0938,288.5459,286.0938,298.5459,290.0938,294.5459,286.0938" style="stroke:#181818;stroke-width:1.0;"/><line style="stroke:#181818;stroke-width:1.0;stroke-dasharray:2.0,2.0;" x1="292.5459" x2="414.9966" y1="286.0938" y2="286.0938"/><polygon fill="#181818" points="40,311.2266,30,315.2266,40,319.2266,36,315.2266" style="stroke:#181818;stroke-width:1.0;"/><line style="stroke:#181818;stroke-width:1.0;stroke-dasharray:2.0,2.0;" x1="34" x2="286.5459" y1="315.2266" y2="315.2266"/><text fill="#000000" font-family="sans-serif" font-size="13" lengthAdjust="spacing" textLength="60.5439" x="46" y="310.1606">{code:0}</text><rect fill="#EEEEEE" height="3" style="stroke:#EEEEEE;stroke-width:1.0;" width="798.0571" x="0" y="343.793"/><line style="stroke:#000000;stroke-width:1.0;" x1="0" x2="798.0571" y1="343.793" y2="343.793"/><line style="stroke:#000000;stroke-width:1.0;" x1="0" x2="798.0571" y1="346.793" y2="346.793"/><rect fill="#EEEEEE" height="23.1328" style="stroke:#000000;stroke-width:2.0;" width="85.5571" x="356.25" y="333.2266"/><text fill="#000000" font-family="sans-serif" font-size="13" font-weight="bold" lengthAdjust="spacing" textLength="67.0313" x="362.25" y="349.2935">&#19979;&#26550;&#20248;&#24800;&#21048;</text><polygon fill="#181818" points="275.5459,383.4922,285.5459,387.4922,275.5459,391.4922,279.5459,387.4922" style="stroke:#181818;stroke-width:1.0;"/><line style="stroke:#181818;stroke-width:1.0;" x1="29" x2="281.5459" y1="387.4922" y2="387.4922"/><text fill="#000000" font-family="sans-serif" font-size="13" lengthAdjust="spacing" textLength="234.5459" x="36" y="382.4263">PUT /api/admin/coupon/{id}/disable</text><polygon fill="#181818" points="557.2642,412.625,567.2642,416.625,557.2642,420.625,561.2642,416.625" style="stroke:#181818;stroke-width:1.0;"/><line style="stroke:#181818;stroke-width:1.0;" x1="415.9966" x2="563.2642" y1="416.625" y2="416.625"/><text fill="#000000" font-family="sans-serif" font-size="13" lengthAdjust="spacing" textLength="118.187" x="422.9966" y="411.5591">disableCoupon(id)</text><polygon fill="#181818" points="754.022,441.7578,764.022,445.7578,754.022,449.7578,758.022,445.7578" style="stroke:#181818;stroke-width:1.0;"/><line style="stroke:#181818;stroke-width:1.0;" x1="569.2642" x2="760.022" y1="445.7578" y2="445.7578"/><text fill="#000000" font-family="sans-serif" font-size="13" lengthAdjust="spacing" textLength="172.7578" x="576.2642" y="440.6919">UPDATE status=DISABLED</text><polygon fill="#181818" points="580.2642,455.7578,570.2642,459.7578,580.2642,463.7578,576.2642,459.7578" style="stroke:#181818;stroke-width:1.0;"/><line style="stroke:#181818;stroke-width:1.0;stroke-dasharray:2.0,2.0;" x1="574.2642" x2="765.022" y1="459.7578" y2="459.7578"/><polygon fill="#181818" points="40,484.8906,30,488.8906,40,492.8906,36,488.8906" style="stroke:#181818;stroke-width:1.0;"/><line style="stroke:#181818;stroke-width:1.0;stroke-dasharray:2.0,2.0;" x1="34" x2="286.5459" y1="488.8906" y2="488.8906"/><text fill="#000000" font-family="sans-serif" font-size="13" lengthAdjust="spacing" textLength="60.5439" x="46" y="483.8247">{code:0}</text><rect fill="#EEEEEE" height="3" style="stroke:#EEEEEE;stroke-width:1.0;" width="798.0571" x="0" y="517.457"/><line style="stroke:#000000;stroke-width:1.0;" x1="0" x2="798.0571" y1="517.457" y2="517.457"/><line style="stroke:#000000;stroke-width:1.0;" x1="0" x2="798.0571" y1="520.457" y2="520.457"/><rect fill="#EEEEEE" height="23.1328" style="stroke:#000000;stroke-width:2.0;" width="45.3384" x="376.3594" y="506.8906"/><text fill="#000000" font-family="sans-serif" font-size="13" font-weight="bold" lengthAdjust="spacing" textLength="26.8125" x="382.3594" y="522.9575">&#26597;&#35810;</text><polygon fill="#181818" points="275.5459,557.1563,285.5459,561.1563,275.5459,565.1563,279.5459,561.1563" style="stroke:#181818;stroke-width:1.0;"/><line style="stroke:#181818;stroke-width:1.0;" x1="29" x2="281.5459" y1="561.1563" y2="561.1563"/><text fill="#000000" font-family="sans-serif" font-size="13" lengthAdjust="spacing" textLength="175.3223" x="36" y="556.0903">GET /api/admin/coupon/list</text><polygon fill="#181818" points="557.2642,586.2891,567.2642,590.2891,557.2642,594.2891,561.2642,590.2891" style="stroke:#181818;stroke-width:1.0;"/><line style="stroke:#181818;stroke-width:1.0;" x1="415.9966" x2="563.2642" y1="590.2891" y2="590.2891"/><text fill="#000000" font-family="sans-serif" font-size="13" lengthAdjust="spacing" textLength="118.1934" x="422.9966" y="585.2231">listCoupons(page)</text><polygon fill="#181818" points="754.022,615.4219,764.022,619.4219,754.022,623.4219,758.022,619.4219" style="stroke:#181818;stroke-width:1.0;"/><line style="stroke:#181818;stroke-width:1.0;" x1="569.2642" x2="760.022" y1="619.4219" y2="619.4219"/><text fill="#000000" font-family="sans-serif" font-size="13" lengthAdjust="spacing" textLength="52" x="576.2642" y="614.356">&#20998;&#39029;&#26597;&#35810;</text><polygon fill="#181818" points="40,644.5547,30,648.5547,40,652.5547,36,648.5547" style="stroke:#181818;stroke-width:1.0;"/><line style="stroke:#181818;stroke-width:1.0;stroke-dasharray:2.0,2.0;" x1="34" x2="286.5459" y1="648.5547" y2="648.5547"/><text fill="#000000" font-family="sans-serif" font-size="13" lengthAdjust="spacing" textLength="167.8257" x="46" y="643.4888">{code:0, data:{records}}</text><!--SRC=[VTBFIm9150Vm-_mLZqu6wdPUsC1KnD1-hTAbo-pC84FhxZOp9Y9xY222BdK9JvLHL-rIIFNdfDb_qSwkXvR4s_1zR-Pz7WmcoXVmFHf-NrzCRmQ09M3QvXuAi52Sy01x2YfOiIxkwMAhcwgi5VrEu7j5trF2TrqcrdGJKS9TrcOpSSe9gxO3D-wJfmHHhB239ODwpzwlwPGw25aMp6vVfX_lNv-3sVd3z782beLY6UGs8uK9Uxjs0mmSS2EE3HAFEFBw7cwphEe5B4kvZ59FPQNooN4-dmzHgwllQw09suUD-UXfFZxB54hrwiuwqh4kHouJY63HsWay8zZ9EefYNQME2TKTktpGW6GceWxaackB9s9YF2iwnJmJ-iIdpDm8u-M-9bUpkxSLopMNx6RqEGsDQ2dik2oDNOGBBQSfR7ElL6YKGIgiEj8gLUt2LgrS-gjU8PtTFy_7Z_-0bV8oeCkbIiDqagXa9i0jbe9DBoz-Xg_9XEM6BEZ_OVO58xwWCWn_0G00]--></g></svg>