<svg xmlns="http://www.w3.org/2000/svg" xmlns:xlink="http://www.w3.org/1999/xlink" contentStyleType="text/css" height="774px" preserveAspectRatio="none" style="width:982px;height:774px;background:#FFFFFF;" version="1.1" viewBox="0 0 982 774" width="982px" zoomAndPan="magnify"><defs/><g><line style="stroke:#181818;stroke-width:0.5;stroke-dasharray:5.0,5.0;" x1="29" x2="29" y1="81.2969" y2="693.4219"/><line style="stroke:#181818;stroke-width:0.5;stroke-dasharray:5.0,5.0;" x1="301.5215" x2="301.5215" y1="81.2969" y2="693.4219"/><line style="stroke:#181818;stroke-width:0.5;stroke-dasharray:5.0,5.0;" x1="467.2334" x2="467.2334" y1="81.2969" y2="693.4219"/><line style="stroke:#181818;stroke-width:0.5;stroke-dasharray:5.0,5.0;" x1="852.6987" x2="852.6987" y1="81.2969" y2="693.4219"/><line style="stroke:#181818;stroke-width:0.5;stroke-dasharray:5.0,5.0;" x1="943.5308" x2="943.5308" y1="81.2969" y2="693.4219"/><text fill="#000000" font-family="sans-serif" font-size="14" lengthAdjust="spacing" textLength="42" x="5" y="77.9951">&#31649;&#29702;&#21592;</text><ellipse cx="29" cy="13.5" fill="#E2E2F0" rx="8" ry="8" style="stroke:#181818;stroke-width:0.5;"/><path d="M29,21.5 L29,48.5 M16,29.5 L42,29.5 M29,48.5 L16,63.5 M29,48.5 L42,63.5 " fill="none" style="stroke:#181818;stroke-width:0.5;"/><text fill="#000000" font-family="sans-serif" font-size="14" lengthAdjust="spacing" textLength="42" x="5" y="705.417">&#31649;&#29702;&#21592;</text><ellipse cx="29" cy="717.2188" fill="#E2E2F0" rx="8" ry="8" style="stroke:#181818;stroke-width:0.5;"/><path d="M29,725.2188 L29,752.2188 M16,733.2188 L42,733.2188 M29,752.2188 L16,767.2188 M29,752.2188 L42,767.2188 " fill="none" style="stroke:#181818;stroke-width:0.5;"/><rect fill="#E2E2F0" height="30.2969" rx="2.5" ry="2.5" style="stroke:#181818;stroke-width:0.5;" width="75.8447" x="264.5215" y="50"/><text fill="#000000" font-family="sans-serif" font-size="14" lengthAdjust="spacing" textLength="61.8447" x="271.5215" y="69.9951">Gateway</text><rect fill="#E2E2F0" height="30.2969" rx="2.5" ry="2.5" style="stroke:#181818;stroke-width:0.5;" width="75.8447" x="264.5215" y="692.4219"/><text fill="#000000" font-family="sans-serif" font-size="14" lengthAdjust="spacing" textLength="61.8447" x="271.5215" y="712.417">Gateway</text><rect fill="#E2E2F0" height="30.2969" rx="2.5" ry="2.5" style="stroke:#181818;stroke-width:0.5;" width="147.1709" x="394.2334" y="50"/><text fill="#000000" font-family="sans-serif" font-size="14" lengthAdjust="spacing" textLength="133.1709" x="401.2334" y="69.9951">StatisticsController</text><rect fill="#E2E2F0" height="30.2969" rx="2.5" ry="2.5" style="stroke:#181818;stroke-width:0.5;" width="147.1709" x="394.2334" y="692.4219"/><text fill="#000000" font-family="sans-serif" font-size="14" lengthAdjust="spacing" textLength="133.1709" x="401.2334" y="712.417">StatisticsController</text><rect fill="#E2E2F0" height="30.2969" rx="2.5" ry="2.5" style="stroke:#181818;stroke-width:0.5;" width="106.832" x="799.6987" y="50"/><text fill="#000000" font-family="sans-serif" font-size="14" lengthAdjust="spacing" textLength="92.832" x="806.6987" y="69.9951">OrderMapper</text><rect fill="#E2E2F0" height="30.2969" rx="2.5" ry="2.5" style="stroke:#181818;stroke-width:0.5;" width="106.832" x="799.6987" y="692.4219"/><text fill="#000000" font-family="sans-serif" font-size="14" lengthAdjust="spacing" textLength="92.832" x="806.6987" y="712.417">OrderMapper</text><text fill="#000000" font-family="sans-serif" font-size="14" lengthAdjust="spacing" textLength="48.0703" x="916.5308" y="77.9951">MySQL</text><path d="M925.5659,29 C925.5659,19 943.5659,19 943.5659,19 C943.5659,19 961.5659,19 961.5659,29 L961.5659,55 C961.5659,65 943.5659,65 943.5659,65 C943.5659,65 925.5659,65 925.5659,55 L925.5659,29 " fill="#E2E2F0" style="stroke:#181818;stroke-width:1.5;"/><path d="M925.5659,29 C925.5659,39 943.5659,39 943.5659,39 C943.5659,39 961.5659,39 961.5659,29 " fill="none" style="stroke:#181818;stroke-width:1.5;"/><text fill="#000000" font-family="sans-serif" font-size="14" lengthAdjust="spacing" textLength="48.0703" x="916.5308" y="705.417">MySQL</text><path d="M925.5659,718.7188 C925.5659,708.7188 943.5659,708.7188 943.5659,708.7188 C943.5659,708.7188 961.5659,708.7188 961.5659,718.7188 L961.5659,744.7188 C961.5659,754.7188 943.5659,754.7188 943.5659,754.7188 C943.5659,754.7188 925.5659,754.7188 925.5659,744.7188 L925.5659,718.7188 " fill="#E2E2F0" style="stroke:#181818;stroke-width:1.5;"/><path d="M925.5659,718.7188 C925.5659,728.7188 943.5659,728.7188 943.5659,728.7188 C943.5659,728.7188 961.5659,728.7188 961.5659,718.7188 " fill="none" style="stroke:#181818;stroke-width:1.5;"/><rect fill="#EEEEEE" height="3" style="stroke:#EEEEEE;stroke-width:1.0;" width="975.6011" x="0" y="111.8633"/><line style="stroke:#000000;stroke-width:1.0;" x1="0" x2="975.6011" y1="111.8633" y2="111.8633"/><line style="stroke:#000000;stroke-width:1.0;" x1="0" x2="975.6011" y1="114.8633" y2="114.8633"/><rect fill="#EEEEEE" height="23.1328" style="stroke:#000000;stroke-width:2.0;" width="72.1509" x="451.7251" y="101.2969"/><text fill="#000000" font-family="sans-serif" font-size="13" font-weight="bold" lengthAdjust="spacing" textLength="53.625" x="457.7251" y="117.3638">&#25968;&#25454;&#27010;&#35272;</text><polygon fill="#181818" points="290.4438,151.5625,300.4438,155.5625,290.4438,159.5625,294.4438,155.5625" style="stroke:#181818;stroke-width:1.0;"/><line style="stroke:#181818;stroke-width:1.0;" x1="29" x2="296.4438" y1="155.5625" y2="155.5625"/><text fill="#000000" font-family="sans-serif" font-size="13" lengthAdjust="spacing" textLength="227.7349" x="36" y="150.4966">GET /api/admin/statistics/summary</text><polygon fill="#181818" points="455.8188,180.6953,465.8188,184.6953,455.8188,188.6953,459.8188,184.6953" style="stroke:#181818;stroke-width:1.0;"/><line style="stroke:#181818;stroke-width:1.0;" x1="302.4438" x2="461.8188" y1="184.6953" y2="184.6953"/><text fill="#000000" font-family="sans-serif" font-size="13" lengthAdjust="spacing" textLength="105.1997" x="309.4438" y="179.6294">JWT+ADMIN&#35282;&#33394;</text><polygon fill="#181818" points="841.1147,209.8281,851.1147,213.8281,841.1147,217.8281,845.1147,213.8281" style="stroke:#181818;stroke-width:1.0;"/><line style="stroke:#181818;stroke-width:1.0;" x1="467.8188" x2="847.1147" y1="213.8281" y2="213.8281"/><text fill="#000000" font-family="sans-serif" font-size="13" lengthAdjust="spacing" textLength="210.2661" x="474.8188" y="208.7622">1 &#32479;&#35745;&#24635;&#29992;&#25143;&#25968; selectCount(user)</text><polygon fill="#181818" points="931.5659,223.8281,941.5659,227.8281,931.5659,231.8281,935.5659,227.8281" style="stroke:#181818;stroke-width:1.0;"/><line style="stroke:#181818;stroke-width:1.0;" x1="853.1147" x2="937.5659" y1="227.8281" y2="227.8281"/><polygon fill="#181818" points="864.1147,237.8281,854.1147,241.8281,864.1147,245.8281,860.1147,241.8281" style="stroke:#181818;stroke-width:1.0;"/><line style="stroke:#181818;stroke-width:1.0;stroke-dasharray:2.0,2.0;" x1="858.1147" x2="942.5659" y1="241.8281" y2="241.8281"/><polygon fill="#181818" points="841.1147,266.9609,851.1147,270.9609,841.1147,274.9609,845.1147,270.9609" style="stroke:#181818;stroke-width:1.0;"/><line style="stroke:#181818;stroke-width:1.0;" x1="467.8188" x2="847.1147" y1="270.9609" y2="270.9609"/><text fill="#000000" font-family="sans-serif" font-size="13" lengthAdjust="spacing" textLength="90.4033" x="474.8188" y="265.895">2 &#32479;&#35745;&#24635;&#35746;&#21333;&#25968;</text><polygon fill="#181818" points="931.5659,280.9609,941.5659,284.9609,931.5659,288.9609,935.5659,284.9609" style="stroke:#181818;stroke-width:1.0;"/><line style="stroke:#181818;stroke-width:1.0;" x1="853.1147" x2="937.5659" y1="284.9609" y2="284.9609"/><polygon fill="#181818" points="864.1147,294.9609,854.1147,298.9609,864.1147,302.9609,860.1147,298.9609" style="stroke:#181818;stroke-width:1.0;"/><line style="stroke:#181818;stroke-width:1.0;stroke-dasharray:2.0,2.0;" x1="858.1147" x2="942.5659" y1="298.9609" y2="298.9609"/><polygon fill="#181818" points="841.1147,324.0938,851.1147,328.0938,841.1147,332.0938,845.1147,328.0938" style="stroke:#181818;stroke-width:1.0;"/><line style="stroke:#181818;stroke-width:1.0;" x1="467.8188" x2="847.1147" y1="328.0938" y2="328.0938"/><text fill="#000000" font-family="sans-serif" font-size="13" lengthAdjust="spacing" textLength="220.0479" x="474.8188" y="323.0278">3 &#32479;&#35745;&#24635;&#38144;&#21806;&#39069; SUM(total_amount)</text><polygon fill="#181818" points="931.5659,338.0938,941.5659,342.0938,931.5659,346.0938,935.5659,342.0938" style="stroke:#181818;stroke-width:1.0;"/><line style="stroke:#181818;stroke-width:1.0;" x1="853.1147" x2="937.5659" y1="342.0938" y2="342.0938"/><polygon fill="#181818" points="864.1147,352.0938,854.1147,356.0938,864.1147,360.0938,860.1147,356.0938" style="stroke:#181818;stroke-width:1.0;"/><line style="stroke:#181818;stroke-width:1.0;stroke-dasharray:2.0,2.0;" x1="858.1147" x2="942.5659" y1="356.0938" y2="356.0938"/><polygon fill="#181818" points="313.4438,381.2266,303.4438,385.2266,313.4438,389.2266,309.4438,385.2266" style="stroke:#181818;stroke-width:1.0;"/><line style="stroke:#181818;stroke-width:1.0;stroke-dasharray:2.0,2.0;" x1="307.4438" x2="466.8188" y1="385.2266" y2="385.2266"/><text fill="#000000" font-family="sans-serif" font-size="13" lengthAdjust="spacing" textLength="141.375" x="319.4438" y="380.1606">StatisticsSummaryVO</text><polygon fill="#181818" points="40,410.3594,30,414.3594,40,418.3594,36,414.3594" style="stroke:#181818;stroke-width:1.0;"/><line style="stroke:#181818;stroke-width:1.0;stroke-dasharray:2.0,2.0;" x1="34" x2="301.4438" y1="414.3594" y2="414.3594"/><text fill="#000000" font-family="sans-serif" font-size="13" lengthAdjust="spacing" textLength="180.356" x="46" y="409.2935">{code:0, data:{summary}}</text><rect fill="#EEEEEE" height="3" style="stroke:#EEEEEE;stroke-width:1.0;" width="975.6011" x="0" y="442.9258"/><line style="stroke:#000000;stroke-width:1.0;" x1="0" x2="975.6011" y1="442.9258" y2="442.9258"/><line style="stroke:#000000;stroke-width:1.0;" x1="0" x2="975.6011" y1="445.9258" y2="445.9258"/><rect fill="#EEEEEE" height="23.1328" style="stroke:#000000;stroke-width:2.0;" width="72.1509" x="451.7251" y="432.3594"/><text fill="#000000" font-family="sans-serif" font-size="13" font-weight="bold" lengthAdjust="spacing" textLength="53.625" x="457.7251" y="448.4263">&#35746;&#21333;&#36235;&#21183;</text><polygon fill="#181818" points="290.4438,482.625,300.4438,486.625,290.4438,490.625,294.4438,486.625" style="stroke:#181818;stroke-width:1.0;"/><line style="stroke:#181818;stroke-width:1.0;" x1="29" x2="296.4438" y1="486.625" y2="486.625"/><text fill="#000000" font-family="sans-serif" font-size="13" lengthAdjust="spacing" textLength="240.9063" x="36" y="481.5591">GET /api/admin/statistics/order-trend</text><polygon fill="#181818" points="841.1147,511.7578,851.1147,515.7578,841.1147,519.7578,845.1147,515.7578" style="stroke:#181818;stroke-width:1.0;"/><line style="stroke:#181818;stroke-width:1.0;" x1="467.8188" x2="847.1147" y1="515.7578" y2="515.7578"/><text fill="#000000" font-family="sans-serif" font-size="13" lengthAdjust="spacing" textLength="186.3862" x="474.8188" y="510.6919">GROUP BY DATE(created_at)</text><polygon fill="#181818" points="40,540.8906,30,544.8906,40,548.8906,36,544.8906" style="stroke:#181818;stroke-width:1.0;"/><line style="stroke:#181818;stroke-width:1.0;stroke-dasharray:2.0,2.0;" x1="34" x2="301.4438" y1="544.8906" y2="544.8906"/><text fill="#000000" font-family="sans-serif" font-size="13" lengthAdjust="spacing" textLength="65" x="46" y="539.8247">&#27599;&#26085;&#35746;&#21333;&#37327;</text><rect fill="#EEEEEE" height="3" style="stroke:#EEEEEE;stroke-width:1.0;" width="975.6011" x="0" y="573.457"/><line style="stroke:#000000;stroke-width:1.0;" x1="0" x2="975.6011" y1="573.457" y2="573.457"/><line style="stroke:#000000;stroke-width:1.0;" x1="0" x2="975.6011" y1="576.457" y2="576.457"/><rect fill="#EEEEEE" height="23.1328" style="stroke:#000000;stroke-width:2.0;" width="72.1509" x="451.7251" y="562.8906"/><text fill="#000000" font-family="sans-serif" font-size="13" font-weight="bold" lengthAdjust="spacing" textLength="53.625" x="457.7251" y="578.9575">&#28909;&#38144;&#21830;&#21697;</text><polygon fill="#181818" points="290.4438,613.1563,300.4438,617.1563,290.4438,621.1563,294.4438,617.1563" style="stroke:#181818;stroke-width:1.0;"/><line style="stroke:#181818;stroke-width:1.0;" x1="29" x2="296.4438" y1="617.1563" y2="617.1563"/><text fill="#000000" font-family="sans-serif" font-size="13" lengthAdjust="spacing" textLength="249.4438" x="36" y="612.0903">GET /api/admin/statistics/top-products</text><polygon fill="#181818" points="841.1147,642.2891,851.1147,646.2891,841.1147,650.2891,845.1147,646.2891" style="stroke:#181818;stroke-width:1.0;"/><line style="stroke:#181818;stroke-width:1.0;" x1="467.8188" x2="847.1147" y1="646.2891" y2="646.2891"/><text fill="#000000" font-family="sans-serif" font-size="13" lengthAdjust="spacing" textLength="361.2959" x="474.8188" y="641.2231">GROUP BY product_id ORDER BY COUNT DESC LIMIT 10</text><polygon fill="#181818" points="40,671.4219,30,675.4219,40,679.4219,36,675.4219" style="stroke:#181818;stroke-width:1.0;"/><line style="stroke:#181818;stroke-width:1.0;stroke-dasharray:2.0,2.0;" x1="34" x2="301.4438" y1="675.4219" y2="675.4219"/><text fill="#000000" font-family="sans-serif" font-size="13" lengthAdjust="spacing" textLength="66.6885" x="46" y="670.356">Top10&#21830;&#21697;</text><!--SRC=[bPBDQjj058NtUefBLYwjiTtk10uajZ4EKTHQSafNPgmPWa3IY9anneH0saAQ9eGahKswAI61_6ogbYxQHHPz6ltuBQAHJ8mR2lLEkkVSg- -UAsG9oY0EBkAJlV3q2o0E2Bksf_Y82TkoVUG9Q2911cWenQt1dB9a22Hidhxp6lK4euv3s98qMe8vyrQTOS8qvFjJXvizAXW9r4ESW3OqNgrB0VSKfLg5QFmZEWgYwtV9pJvKgqh61SNbb465PiE44lBjKbOjyGUC4k-xBc93PMiWlH93XRNNvjELkjRQI6u-9Hz_Ah8grHn1XGh4T-T9S17jtiMZssZ_T_fjuCGXbgZHlYSAVKxO4oMtoyOK4VUW-33YqSJdiub9S1aUZTE9Y_I_cFLFHhlXA9XSVWMZenK45SZf8bTY_GVHDAxPcOmydaqz2oYLim1LsBOe9chv6SXxgDlJ57TsibFaAoI_3iE3FmkSWigB5mKZ7dwqOBEjTrx2wXkehvYDWiL8-e_XBaftckUAlXz7PrSvmEJ3SOOJl_ycGndlXP_VBe0Zg5_q6SLzI_1_yqmTNHk3tgutsh9MqpiR9jGRHWtMMrhBX4hvBqoJ-fLoJdGF]--></g></svg>