<svg xmlns="http://www.w3.org/2000/svg" xmlns:xlink="http://www.w3.org/1999/xlink" contentStyleType="text/css" height="407px" preserveAspectRatio="none" style="width:903px;height:407px;background:#FFFFFF;" version="1.1" viewBox="0 0 903 407" width="903px" zoomAndPan="magnify"><defs/><g><line style="stroke:#181818;stroke-width:0.5;stroke-dasharray:5.0,5.0;" x1="29" x2="29" y1="81.2969" y2="326.3594"/><line style="stroke:#181818;stroke-width:0.5;stroke-dasharray:5.0,5.0;" x1="360.853" x2="360.853" y1="81.2969" y2="326.3594"/><line style="stroke:#181818;stroke-width:0.5;stroke-dasharray:5.0,5.0;" x1="513.3926" x2="513.3926" y1="81.2969" y2="326.3594"/><line style="stroke:#181818;stroke-width:0.5;stroke-dasharray:5.0,5.0;" x1="728.5576" x2="728.5576" y1="81.2969" y2="326.3594"/><line style="stroke:#181818;stroke-width:0.5;stroke-dasharray:5.0,5.0;" x1="868.123" x2="868.123" y1="81.2969" y2="326.3594"/><text fill="#000000" font-family="sans-serif" font-size="14" lengthAdjust="spacing" textLength="42" x="5" y="77.9951">&#31649;&#29702;&#21592;</text><ellipse cx="29" cy="13.5" fill="#E2E2F0" rx="8" ry="8" style="stroke:#181818;stroke-width:0.5;"/><path d="M29,21.5 L29,48.5 M16,29.5 L42,29.5 M29,48.5 L16,63.5 M29,48.5 L42,63.5 " fill="none" style="stroke:#181818;stroke-width:0.5;"/><text fill="#000000" font-family="sans-serif" font-size="14" lengthAdjust="spacing" textLength="42" x="5" y="338.3545">&#31649;&#29702;&#21592;</text><ellipse cx="29" cy="350.1563" fill="#E2E2F0" rx="8" ry="8" style="stroke:#181818;stroke-width:0.5;"/><path d="M29,358.1563 L29,385.1563 M16,366.1563 L42,366.1563 M29,385.1563 L16,400.1563 M29,385.1563 L42,400.1563 " fill="none" style="stroke:#181818;stroke-width:0.5;"/><rect fill="#E2E2F0" height="30.2969" rx="2.5" ry="2.5" style="stroke:#181818;stroke-width:0.5;" width="75.8447" x="323.853" y="50"/><text fill="#000000" font-family="sans-serif" font-size="14" lengthAdjust="spacing" textLength="61.8447" x="330.853" y="69.9951">Gateway</text><rect fill="#E2E2F0" height="30.2969" rx="2.5" ry="2.5" style="stroke:#181818;stroke-width:0.5;" width="75.8447" x="323.853" y="325.3594"/><text fill="#000000" font-family="sans-serif" font-size="14" lengthAdjust="spacing" textLength="61.8447" x="330.853" y="345.3545">Gateway</text><rect fill="#E2E2F0" height="30.2969" rx="2.5" ry="2.5" style="stroke:#181818;stroke-width:0.5;" width="190.0049" x="418.3926" y="50"/><text fill="#000000" font-family="sans-serif" font-size="14" lengthAdjust="spacing" textLength="176.0049" x="425.3926" y="69.9951">AdminAuditLogController</text><rect fill="#E2E2F0" height="30.2969" rx="2.5" ry="2.5" style="stroke:#181818;stroke-width:0.5;" width="190.0049" x="418.3926" y="325.3594"/><text fill="#000000" font-family="sans-serif" font-size="14" lengthAdjust="spacing" textLength="176.0049" x="425.3926" y="345.3545">AdminAuditLogController</text><rect fill="#E2E2F0" height="30.2969" rx="2.5" ry="2.5" style="stroke:#181818;stroke-width:0.5;" width="128.7686" x="664.5576" y="50"/><text fill="#000000" font-family="sans-serif" font-size="14" lengthAdjust="spacing" textLength="114.7686" x="671.5576" y="69.9951">AuditLogMapper</text><rect fill="#E2E2F0" height="30.2969" rx="2.5" ry="2.5" style="stroke:#181818;stroke-width:0.5;" width="128.7686" x="664.5576" y="325.3594"/><text fill="#000000" font-family="sans-serif" font-size="14" lengthAdjust="spacing" textLength="114.7686" x="671.5576" y="345.3545">AuditLogMapper</text><text fill="#000000" font-family="sans-serif" font-size="14" lengthAdjust="spacing" textLength="48.0703" x="841.123" y="77.9951">MySQL</text><path d="M850.1582,29 C850.1582,19 868.1582,19 868.1582,19 C868.1582,19 886.1582,19 886.1582,29 L886.1582,55 C886.1582,65 868.1582,65 868.1582,65 C868.1582,65 850.1582,65 850.1582,55 L850.1582,29 " fill="#E2E2F0" style="stroke:#181818;stroke-width:1.5;"/><path d="M850.1582,29 C850.1582,39 868.1582,39 868.1582,39 C868.1582,39 886.1582,39 886.1582,29 " fill="none" style="stroke:#181818;stroke-width:1.5;"/><text fill="#000000" font-family="sans-serif" font-size="14" lengthAdjust="spacing" textLength="48.0703" x="841.123" y="338.3545">MySQL</text><path d="M850.1582,351.6563 C850.1582,341.6563 868.1582,341.6563 868.1582,341.6563 C868.1582,341.6563 886.1582,341.6563 886.1582,351.6563 L886.1582,377.6563 C886.1582,387.6563 868.1582,387.6563 868.1582,387.6563 C868.1582,387.6563 850.1582,387.6563 850.1582,377.6563 L850.1582,351.6563 " fill="#E2E2F0" style="stroke:#181818;stroke-width:1.5;"/><path d="M850.1582,351.6563 C850.1582,361.6563 868.1582,361.6563 868.1582,361.6563 C868.1582,361.6563 886.1582,361.6563 886.1582,351.6563 " fill="none" style="stroke:#181818;stroke-width:1.5;"/><polygon fill="#181818" points="349.7754,108.4297,359.7754,112.4297,349.7754,116.4297,353.7754,112.4297" style="stroke:#181818;stroke-width:1.0;"/><line style="stroke:#181818;stroke-width:1.0;" x1="29" x2="355.7754" y1="112.4297" y2="112.4297"/><text fill="#000000" font-family="sans-serif" font-size="13" lengthAdjust="spacing" textLength="308.7754" x="36" y="107.3638">GET /api/admin/audit-log?page=1\&amp;action=xxx</text><polygon fill="#181818" points="501.395,137.5625,511.395,141.5625,501.395,145.5625,505.395,141.5625" style="stroke:#181818;stroke-width:1.0;"/><line style="stroke:#181818;stroke-width:1.0;" x1="361.7754" x2="507.395" y1="141.5625" y2="141.5625"/><text fill="#000000" font-family="sans-serif" font-size="13" lengthAdjust="spacing" textLength="104.4507" x="368.7754" y="136.4966">JWT&#35748;&#35777;(ADMIN)</text><polygon fill="#181818" points="716.9419,166.6953,726.9419,170.6953,716.9419,174.6953,720.9419,170.6953" style="stroke:#181818;stroke-width:1.0;"/><line style="stroke:#181818;stroke-width:1.0;" x1="513.395" x2="722.9419" y1="170.6953" y2="170.6953"/><text fill="#000000" font-family="sans-serif" font-size="13" lengthAdjust="spacing" textLength="191.5469" x="520.395" y="165.6294">1 &#20998;&#39029;&#26597;&#35810;&#23457;&#35745;&#26085;&#24535;(&#25353;&#26102;&#38388;&#20498;&#24207;)</text><polygon fill="#181818" points="856.1582,180.6953,866.1582,184.6953,856.1582,188.6953,860.1582,184.6953" style="stroke:#181818;stroke-width:1.0;"/><line style="stroke:#181818;stroke-width:1.0;" x1="728.9419" x2="862.1582" y1="184.6953" y2="184.6953"/><polygon fill="#181818" points="739.9419,209.8281,729.9419,213.8281,739.9419,217.8281,735.9419,213.8281" style="stroke:#181818;stroke-width:1.0;"/><line style="stroke:#181818;stroke-width:1.0;stroke-dasharray:2.0,2.0;" x1="733.9419" x2="867.1582" y1="213.8281" y2="213.8281"/><text fill="#000000" font-family="sans-serif" font-size="13" lengthAdjust="spacing" textLength="115.2163" x="745.9419" y="208.7622">IPage&lt;AuditLog&gt;</text><polygon fill="#181818" points="372.7754,238.9609,362.7754,242.9609,372.7754,246.9609,368.7754,242.9609" style="stroke:#181818;stroke-width:1.0;"/><line style="stroke:#181818;stroke-width:1.0;stroke-dasharray:2.0,2.0;" x1="366.7754" x2="512.395" y1="242.9609" y2="242.9609"/><text fill="#000000" font-family="sans-serif" font-size="13" lengthAdjust="spacing" textLength="127.6196" x="378.7754" y="237.895">2 IPage&lt;AuditLog&gt;</text><polygon fill="#181818" points="40,286.2266,30,290.2266,40,294.2266,36,290.2266" style="stroke:#181818;stroke-width:1.0;"/><line style="stroke:#181818;stroke-width:1.0;stroke-dasharray:2.0,2.0;" x1="34" x2="360.7754" y1="290.2266" y2="290.2266"/><text fill="#000000" font-family="sans-serif" font-size="13" lengthAdjust="spacing" textLength="180.229" x="46" y="285.1606">3 {code:0, data:{records}}</text><path d="M366,255.9609 L366,310.9609 L491,310.9609 L491,265.9609 L481,255.9609 L366,255.9609 " fill="#FEFFDD" style="stroke:#181818;stroke-width:0.5;"/><path d="M481,255.9609 L481,265.9609 L491,265.9609 L481,255.9609 " fill="#FEFFDD" style="stroke:#181818;stroke-width:0.5;"/><text fill="#000000" font-family="sans-serif" font-size="13" lengthAdjust="spacing" textLength="104.9648" x="372" y="273.0278">&#23457;&#35745;&#26085;&#24535;&#36890;&#36807;AOP</text><text fill="#000000" font-family="sans-serif" font-size="13" lengthAdjust="spacing" textLength="96.5415" x="372" y="288.1606">@AuditLog&#27880;&#35299;</text><text fill="#000000" font-family="sans-serif" font-size="13" lengthAdjust="spacing" textLength="52" x="372" y="303.2935">&#33258;&#21160;&#35760;&#24405;</text><!--SRC=[PP1DIm916CVlyoaUF8H2OjPjIMkf44FBIEZYPTnTjeLrPradL4ImYrO4lK0ONM8hIJgiGI-78FmqiwxVefrr1QlRyFnVdjypMAB4Wh5ZZoyxxEeMS1MmND4CP6ABQf9cOeD21bEbXXjSL6k_b8Z8pUAHhD4SKJU8GIsYwueLuLw9MleVTsZCOzCCJPNWYMHCSHbN5SWtzlToN93B20Ke44_xQmN8R1KXWKqj4KmJc7V5TQAkcLXLKidI0fQeHenKlLv7QesdE800smT5ptdoXiTHSJEVtOaXFkRoTBK0IM0ddOdzuTxtlU43SspFiTrUdurwKVVyrErzJdhlh7tDlYvYQ9hXQPzFBaDyhYTRy45MPpUcmpqX_V8_cJFwOd2D02lGb8Yi24kBmFz2Q5gAH2ovsceXWr05B4qzf0BCqqtQTzweA-uMIiRwhDPz6tZFZoN3wxwmiu7dlBBlcny0]--></g></svg>