<svg xmlns="http://www.w3.org/2000/svg" xmlns:xlink="http://www.w3.org/1999/xlink" contentStyleType="text/css" height="406px" preserveAspectRatio="none" style="width:838px;height:406px;background:#FFFFFF;" version="1.1" viewBox="0 0 838 406" width="838px" zoomAndPan="magnify"><defs/><g><line style="stroke:#181818;stroke-width:0.5;stroke-dasharray:5.0,5.0;" x1="29" x2="29" y1="81.2969" y2="325.3594"/><line style="stroke:#181818;stroke-width:0.5;stroke-dasharray:5.0,5.0;" x1="273.833" x2="273.833" y1="81.2969" y2="325.3594"/><line style="stroke:#181818;stroke-width:0.5;stroke-dasharray:5.0,5.0;" x1="513.1226" x2="513.1226" y1="81.2969" y2="325.3594"/><line style="stroke:#181818;stroke-width:0.5;stroke-dasharray:5.0,5.0;" x1="797.3862" x2="797.3862" y1="81.2969" y2="325.3594"/><text fill="#000000" font-family="sans-serif" font-size="14" lengthAdjust="spacing" textLength="42" x="5" y="77.9951">&#31649;&#29702;&#21592;</text><ellipse cx="29" cy="13.5" fill="#E2E2F0" rx="8" ry="8" style="stroke:#181818;stroke-width:0.5;"/><path d="M29,21.5 L29,48.5 M16,29.5 L42,29.5 M29,48.5 L16,63.5 M29,48.5 L42,63.5 " fill="none" style="stroke:#181818;stroke-width:0.5;"/><text fill="#000000" font-family="sans-serif" font-size="14" lengthAdjust="spacing" textLength="42" x="5" y="337.3545">&#31649;&#29702;&#21592;</text><ellipse cx="29" cy="349.1563" fill="#E2E2F0" rx="8" ry="8" style="stroke:#181818;stroke-width:0.5;"/><path d="M29,357.1563 L29,384.1563 M16,365.1563 L42,365.1563 M29,384.1563 L16,399.1563 M29,384.1563 L42,399.1563 " fill="none" style="stroke:#181818;stroke-width:0.5;"/><rect fill="#E2E2F0" height="30.2969" rx="2.5" ry="2.5" style="stroke:#181818;stroke-width:0.5;" width="75.8447" x="236.833" y="50"/><text fill="#000000" font-family="sans-serif" font-size="14" lengthAdjust="spacing" textLength="61.8447" x="243.833" y="69.9951">Gateway</text><rect fill="#E2E2F0" height="30.2969" rx="2.5" ry="2.5" style="stroke:#181818;stroke-width:0.5;" width="75.8447" x="236.833" y="324.3594"/><text fill="#000000" font-family="sans-serif" font-size="14" lengthAdjust="spacing" textLength="61.8447" x="243.833" y="344.3545">Gateway</text><rect fill="#E2E2F0" height="30.2969" rx="2.5" ry="2.5" style="stroke:#181818;stroke-width:0.5;" width="132.2275" x="447.1226" y="50"/><text fill="#000000" font-family="sans-serif" font-size="14" lengthAdjust="spacing" textLength="118.2275" x="454.1226" y="69.9951">UploadController</text><rect fill="#E2E2F0" height="30.2969" rx="2.5" ry="2.5" style="stroke:#181818;stroke-width:0.5;" width="132.2275" x="447.1226" y="324.3594"/><text fill="#000000" font-family="sans-serif" font-size="14" lengthAdjust="spacing" textLength="118.2275" x="454.1226" y="344.3545">UploadController</text><rect fill="#E2E2F0" height="30.2969" rx="2.5" ry="2.5" style="stroke:#181818;stroke-width:0.5;" width="70" x="762.3862" y="50"/><text fill="#000000" font-family="sans-serif" font-size="14" lengthAdjust="spacing" textLength="56" x="769.3862" y="69.9951">&#25991;&#20214;&#31995;&#32479;</text><rect fill="#E2E2F0" height="30.2969" rx="2.5" ry="2.5" style="stroke:#181818;stroke-width:0.5;" width="70" x="762.3862" y="324.3594"/><text fill="#000000" font-family="sans-serif" font-size="14" lengthAdjust="spacing" textLength="56" x="769.3862" y="344.3545">&#25991;&#20214;&#31995;&#32479;</text><polygon fill="#181818" points="262.7554,108.4297,272.7554,112.4297,262.7554,116.4297,266.7554,112.4297" style="stroke:#181818;stroke-width:1.0;"/><line style="stroke:#181818;stroke-width:1.0;" x1="29" x2="268.7554" y1="112.4297" y2="112.4297"/><text fill="#000000" font-family="sans-serif" font-size="13" lengthAdjust="spacing" textLength="221.7554" x="36" y="107.3638">1 POST /api/upload (multipart file)</text><polygon fill="#181818" points="501.2363,137.5625,511.2363,141.5625,501.2363,145.5625,505.2363,141.5625" style="stroke:#181818;stroke-width:1.0;"/><line style="stroke:#181818;stroke-width:1.0;" x1="274.7554" x2="507.2363" y1="141.5625" y2="141.5625"/><text fill="#000000" font-family="sans-serif" font-size="13" lengthAdjust="spacing" textLength="142.854" x="281.7554" y="136.4966">2 JWT&#35748;&#35777;(ADMIN&#35282;&#33394;)</text><line style="stroke:#181818;stroke-width:1.0;" x1="513.2363" x2="555.2363" y1="170.6953" y2="170.6953"/><line style="stroke:#181818;stroke-width:1.0;" x1="555.2363" x2="555.2363" y1="170.6953" y2="183.6953"/><line style="stroke:#181818;stroke-width:1.0;" x1="514.2363" x2="555.2363" y1="183.6953" y2="183.6953"/><polygon fill="#181818" points="524.2363,179.6953,514.2363,183.6953,524.2363,187.6953,520.2363,183.6953" style="stroke:#181818;stroke-width:1.0;"/><text fill="#000000" font-family="sans-serif" font-size="13" lengthAdjust="spacing" textLength="270.1499" x="520.2363" y="165.6294">3 &#26657;&#39564;&#25991;&#20214;&#26684;&#24335; jpg/jpeg/png/gif/webp/bmp</text><polygon fill="#181818" points="785.3862,208.8281,795.3862,212.8281,785.3862,216.8281,789.3862,212.8281" style="stroke:#181818;stroke-width:1.0;"/><line style="stroke:#181818;stroke-width:1.0;" x1="513.2363" x2="791.3862" y1="212.8281" y2="212.8281"/><text fill="#000000" font-family="sans-serif" font-size="13" lengthAdjust="spacing" textLength="205.8228" x="520.2363" y="207.7622">4 &#20445;&#23384;&#21040; ./uploads/{uuid}.{ext}</text><polygon fill="#181818" points="285.7554,237.9609,275.7554,241.9609,285.7554,245.9609,281.7554,241.9609" style="stroke:#181818;stroke-width:1.0;"/><line style="stroke:#181818;stroke-width:1.0;stroke-dasharray:2.0,2.0;" x1="279.7554" x2="512.2363" y1="241.9609" y2="241.9609"/><text fill="#000000" font-family="sans-serif" font-size="13" lengthAdjust="spacing" textLength="214.481" x="291.7554" y="236.895">5 URL&#36335;&#24452; /uploads/{uuid}.{ext}</text><polygon fill="#181818" points="40,285.2266,30,289.2266,40,293.2266,36,289.2266" style="stroke:#181818;stroke-width:1.0;"/><line style="stroke:#181818;stroke-width:1.0;stroke-dasharray:2.0,2.0;" x1="34" x2="273.7554" y1="289.2266" y2="289.2266"/><text fill="#000000" font-family="sans-serif" font-size="13" lengthAdjust="spacing" textLength="132.0693" x="46" y="284.1606">6 {code:0, data:url}</text><path d="M279,254.9609 L279,309.9609 L439,309.9609 L439,264.9609 L429,254.9609 L279,254.9609 " fill="#FEFFDD" style="stroke:#181818;stroke-width:0.5;"/><path d="M429,254.9609 L429,264.9609 L439,264.9609 L429,254.9609 " fill="#FEFFDD" style="stroke:#181818;stroke-width:0.5;"/><text fill="#000000" font-family="sans-serif" font-size="13" lengthAdjust="spacing" textLength="109.4272" x="285" y="272.0278">&#25991;&#20214;&#36890;&#36807;Gateway</text><text fill="#000000" font-family="sans-serif" font-size="13" lengthAdjust="spacing" textLength="139.3691" x="285" y="287.1606">StaticResourceConfig</text><text fill="#000000" font-family="sans-serif" font-size="13" lengthAdjust="spacing" textLength="78" x="285" y="302.2935">&#25552;&#20379;&#38745;&#24577;&#35775;&#38382;</text><!--SRC=[RP5DIm9H58RtyoiEhXJAwNinYo0AekWBKzgukSxScQwCCvUPErY8e11P46WjoWf98GY2D0fgeUYVSJxy5pdZK0Yjt-UyvptlGIBJ3N3RBRTsRb_N0Pc0f1pHE8eCHaH2aSPW4p6SHwU-gEIdb4YAgZgIrdMD6RggOYFYGo8pr6dCkQqCkr_kPzVjFWM8R79Si0XcLyUc0ip3mVvX4dX42My5fX3DMIeZlW_8HCKnJidxjEykm09i7oMzzhFNAKVNDdQtzhoN6-_o8yRvyX-s24wpDNgzcWHmcZsxLuKiLVWinGfFDOLNYCpdSORocHpz7PPD0PPWE6ZORtNxuXtYOIQJBrWMaOhn0ZvXnH0FBrY6L6B7- -xO_JFu7_VpZ-7WRW5Me23g4XRcPa1230cMeHOvJMSO3A8SCm4ccKUb1szG2L-GrWuP6jUQmAPk6I8U5oyJ9QqvrTgm_pXgt3kbijSUZExQFm00]--></g></svg>