<svg xmlns="http://www.w3.org/2000/svg" xmlns:xlink="http://www.w3.org/1999/xlink" contentStyleType="text/css" height="899px" preserveAspectRatio="none" style="width:4603px;height:899px;background:#FFFFFF;" version="1.1" viewBox="0 0 4603 899" width="4603px" zoomAndPan="magnify"><defs/><g><!--cluster ???? - ??--><g id="cluster_&#29992;&#25143;&#26381;&#21153; - &#31867;&#22270;"><path d="M8.5,6 L111.6836,6 A3.75,3.75 0 0 1 114.1836,8.5 L121.1836,28.2969 L3835.5,28.2969 A2.5,2.5 0 0 1 3838,30.7969 L3838,889.5 A2.5,2.5 0 0 1 3835.5,892 L8.5,892 A2.5,2.5 0 0 1 6,889.5 L6,8.5 A2.5,2.5 0 0 1 8.5,6 " fill="none" style="stroke:#000000;stroke-width:1.5;"/><line style="stroke:#000000;stroke-width:1.5;" x1="6" x2="121.1836" y1="28.2969" y2="28.2969"/><text fill="#000000" font-family="sans-serif" font-size="14" font-weight="bold" lengthAdjust="spacing" textLength="102.1836" x="10" y="20.9951">&#29992;&#25143;&#26381;&#21153; - &#31867;&#22270;</text></g><!--class usvc--><g id="elem_usvc"><rect codeLine="5" fill="#F1F1F1" height="235.5313" id="usvc" rx="2.5" ry="2.5" style="stroke:#181818;stroke-width:0.5;" width="461.4082" x="941.5" y="77.5"/><ellipse cx="1126.1284" cy="97.6328" fill="#B4A7E5" rx="11" ry="11" style="stroke:#181818;stroke-width:1.0;"/><path d="M1122.0503,93.3984 L1122.0503,91.2422 L1129.4409,91.2422 L1129.4409,93.3984 L1126.9722,93.3984 L1126.9722,101.4766 L1129.4409,101.4766 L1129.4409,103.6328 L1122.0503,103.6328 L1122.0503,101.4766 L1124.519,101.4766 L1124.519,93.3984 L1122.0503,93.3984 Z " fill="#000000"/><text fill="#000000" font-family="sans-serif" font-size="12" font-style="italic" lengthAdjust="spacing" textLength="68.332" x="1154.2881" y="93.6387">&#171;interface&#187;</text><text fill="#000000" font-family="sans-serif" font-size="14" font-style="italic" lengthAdjust="spacing" textLength="83.6514" x="1146.6284" y="109.4639">UserService</text><line style="stroke:#181818;stroke-width:0.5;" x1="942.5" x2="1401.9082" y1="117.7656" y2="117.7656"/><line style="stroke:#181818;stroke-width:0.5;" x1="942.5" x2="1401.9082" y1="125.7656" y2="125.7656"/><text fill="#000000" font-family="sans-serif" font-size="14" lengthAdjust="spacing" textLength="238.1641" x="947.5" y="142.7607">+register(req: RegisterReq): Long</text><text fill="#000000" font-family="sans-serif" font-size="14" lengthAdjust="spacing" textLength="236.127" x="947.5" y="159.0576">+login(req: LoginReq): LoginResp</text><text fill="#000000" font-family="sans-serif" font-size="14" lengthAdjust="spacing" textLength="256.9766" x="947.5" y="175.3545">+getUserById(userId: Long): UserVO</text><text fill="#000000" font-family="sans-serif" font-size="14" lengthAdjust="spacing" textLength="405.043" x="947.5" y="191.6514">+updateProfile(userId: Long, req: ProfileUpdateReq): void</text><text fill="#000000" font-family="sans-serif" font-size="14" lengthAdjust="spacing" textLength="449.4082" x="947.5" y="207.9482">+updatePassword(userId: Long, req: PasswordUpdateReq): void</text><text fill="#000000" font-family="sans-serif" font-size="14" lengthAdjust="spacing" textLength="401.707" x="947.5" y="224.2451">+forgotPassword(username: String, email: String): String</text><text fill="#000000" font-family="sans-serif" font-size="14" lengthAdjust="spacing" textLength="409.1309" x="947.5" y="240.542">+resetPassword(token: String, newPassword: String): void</text><text fill="#000000" font-family="sans-serif" font-size="14" lengthAdjust="spacing" textLength="424.6963" x="947.5" y="256.8389">+adminListUsers(page: int, size: int): IPage&lt;AdminUserVO&gt;</text><text fill="#000000" font-family="sans-serif" font-size="14" lengthAdjust="spacing" textLength="316.8936" x="947.5" y="273.1357">+adminGetUserById(id: Long): AdminUserVO</text><text fill="#000000" font-family="sans-serif" font-size="14" lengthAdjust="spacing" textLength="440.0225" x="947.5" y="289.4326">+adminUpdateUser(id: Long, req: AdminUpdateUserReq): void</text><text fill="#000000" font-family="sans-serif" font-size="14" lengthAdjust="spacing" textLength="245.2256" x="947.5" y="305.7295">+adminDisableUser(id: Long): void</text></g><!--class UserServiceImpl--><g id="elem_UserServiceImpl"><rect codeLine="19" fill="#F1F1F1" height="308.75" id="UserServiceImpl" rx="2.5" ry="2.5" style="stroke:#181818;stroke-width:0.5;" width="461.4082" x="2775.5" y="41"/><ellipse cx="2944.8569" cy="57" fill="#ADD1B2" rx="11" ry="11" style="stroke:#181818;stroke-width:1.0;"/><path d="M2947.8257,62.6406 Q2947.2476,62.9375 2946.6069,63.0781 Q2945.9663,63.2344 2945.2632,63.2344 Q2942.7632,63.2344 2941.4351,61.5938 Q2940.1226,59.9375 2940.1226,56.8125 Q2940.1226,53.6875 2941.4351,52.0313 Q2942.7632,50.375 2945.2632,50.375 Q2945.9663,50.375 2946.6069,50.5313 Q2947.2632,50.6875 2947.8257,50.9844 L2947.8257,53.7031 Q2947.2007,53.125 2946.6069,52.8594 Q2946.0132,52.5781 2945.3882,52.5781 Q2944.0444,52.5781 2943.3569,53.6563 Q2942.6694,54.7188 2942.6694,56.8125 Q2942.6694,58.9063 2943.3569,59.9844 Q2944.0444,61.0469 2945.3882,61.0469 Q2946.0132,61.0469 2946.6069,60.7813 Q2947.2007,60.5 2947.8257,59.9219 L2947.8257,62.6406 Z " fill="#000000"/><text fill="#000000" font-family="sans-serif" font-size="14" lengthAdjust="spacing" textLength="114.1943" x="2965.3569" y="61.8467">UserServiceImpl</text><line style="stroke:#181818;stroke-width:0.5;" x1="2776.5" x2="3235.9082" y1="73" y2="73"/><text fill="#000000" font-family="sans-serif" font-size="14" lengthAdjust="spacing" textLength="182.2666" x="2781.5" y="89.9951">-userMapper: UserMapper</text><text fill="#000000" font-family="sans-serif" font-size="14" lengthAdjust="spacing" textLength="309.4697" x="2781.5" y="106.292">-passwordEncoder: BCryptPasswordEncoder</text><text fill="#000000" font-family="sans-serif" font-size="14" lengthAdjust="spacing" textLength="261.3721" x="2781.5" y="122.5889">-redisTemplate: StringRedisTemplate</text><text fill="#000000" font-family="sans-serif" font-size="14" lengthAdjust="spacing" textLength="121.8848" x="2781.5" y="138.8857">-jwtSecret: String</text><text fill="#000000" font-family="sans-serif" font-size="14" lengthAdjust="spacing" textLength="136.3223" x="2781.5" y="155.1826">-jwtExpiration: long</text><line style="stroke:#181818;stroke-width:0.5;" x1="2776.5" x2="3235.9082" y1="162.4844" y2="162.4844"/><text fill="#000000" font-family="sans-serif" font-size="14" lengthAdjust="spacing" textLength="238.1641" x="2781.5" y="179.4795">+register(req: RegisterReq): Long</text><text fill="#000000" font-family="sans-serif" font-size="14" lengthAdjust="spacing" textLength="236.127" x="2781.5" y="195.7764">+login(req: LoginReq): LoginResp</text><text fill="#000000" font-family="sans-serif" font-size="14" lengthAdjust="spacing" textLength="256.9766" x="2781.5" y="212.0732">+getUserById(userId: Long): UserVO</text><text fill="#000000" font-family="sans-serif" font-size="14" lengthAdjust="spacing" textLength="405.043" x="2781.5" y="228.3701">+updateProfile(userId: Long, req: ProfileUpdateReq): void</text><text fill="#000000" font-family="sans-serif" font-size="14" lengthAdjust="spacing" textLength="449.4082" x="2781.5" y="244.667">+updatePassword(userId: Long, req: PasswordUpdateReq): void</text><text fill="#000000" font-family="sans-serif" font-size="14" lengthAdjust="spacing" textLength="401.707" x="2781.5" y="260.9639">+forgotPassword(username: String, email: String): String</text><text fill="#000000" font-family="sans-serif" font-size="14" lengthAdjust="spacing" textLength="409.1309" x="2781.5" y="277.2607">+resetPassword(token: String, newPassword: String): void</text><text fill="#000000" font-family="sans-serif" font-size="14" lengthAdjust="spacing" textLength="424.6963" x="2781.5" y="293.5576">+adminListUsers(page: int, size: int): IPage&lt;AdminUserVO&gt;</text><text fill="#000000" font-family="sans-serif" font-size="14" lengthAdjust="spacing" textLength="316.8936" x="2781.5" y="309.8545">+adminGetUserById(id: Long): AdminUserVO</text><text fill="#000000" font-family="sans-serif" font-size="14" lengthAdjust="spacing" textLength="440.0225" x="2781.5" y="326.1514">+adminUpdateUser(id: Long, req: AdminUpdateUserReq): void</text><text fill="#000000" font-family="sans-serif" font-size="14" lengthAdjust="spacing" textLength="245.2256" x="2781.5" y="342.4482">+adminDisableUser(id: Long): void</text></g><!--class UserController--><g id="elem_UserController"><rect codeLine="38" fill="#F1F1F1" height="178.375" id="UserController" rx="2.5" ry="2.5" style="stroke:#181818;stroke-width:0.5;" width="530.0479" x="2210" y="106.5"/><ellipse cx="2420.2324" cy="122.5" fill="#ADD1B2" rx="11" ry="11" style="stroke:#181818;stroke-width:1.0;"/><path d="M2423.2012,128.1406 Q2422.623,128.4375 2421.9824,128.5781 Q2421.3418,128.7344 2420.6387,128.7344 Q2418.1387,128.7344 2416.8105,127.0938 Q2415.498,125.4375 2415.498,122.3125 Q2415.498,119.1875 2416.8105,117.5313 Q2418.1387,115.875 2420.6387,115.875 Q2421.3418,115.875 2421.9824,116.0313 Q2422.6387,116.1875 2423.2012,116.4844 L2423.2012,119.2031 Q2422.5762,118.625 2421.9824,118.3594 Q2421.3887,118.0781 2420.7637,118.0781 Q2419.4199,118.0781 2418.7324,119.1563 Q2418.0449,120.2188 2418.0449,122.3125 Q2418.0449,124.4063 2418.7324,125.4844 Q2419.4199,126.5469 2420.7637,126.5469 Q2421.3887,126.5469 2421.9824,126.2813 Q2422.5762,126 2423.2012,125.4219 L2423.2012,128.1406 Z " fill="#000000"/><text fill="#000000" font-family="sans-serif" font-size="14" lengthAdjust="spacing" textLength="101.083" x="2440.7324" y="127.3467">UserController</text><line style="stroke:#181818;stroke-width:0.5;" x1="2211" x2="2739.0479" y1="138.5" y2="138.5"/><text fill="#000000" font-family="sans-serif" font-size="14" lengthAdjust="spacing" textLength="180.1475" x="2216" y="155.4951">-userService: UserService</text><line style="stroke:#181818;stroke-width:0.5;" x1="2211" x2="2739.0479" y1="162.7969" y2="162.7969"/><text fill="#000000" font-family="sans-serif" font-size="14" lengthAdjust="spacing" textLength="305.5117" x="2216" y="179.792">+register(req: RegisterReq): Result&lt;Long&gt;</text><text fill="#000000" font-family="sans-serif" font-size="14" lengthAdjust="spacing" textLength="303.4746" x="2216" y="196.0889">+login(req: LoginReq): Result&lt;LoginResp&gt;</text><text fill="#000000" font-family="sans-serif" font-size="14" lengthAdjust="spacing" textLength="260.7705" x="2216" y="212.3857">+me(userId: Long): Result&lt;UserVO&gt;</text><text fill="#000000" font-family="sans-serif" font-size="14" lengthAdjust="spacing" textLength="473.6826" x="2216" y="228.6826">+updateProfile(userId: Long, req: ProfileUpdateReq): Result&lt;Void&gt;</text><text fill="#000000" font-family="sans-serif" font-size="14" lengthAdjust="spacing" textLength="518.0479" x="2216" y="244.9795">+updatePassword(userId: Long, req: PasswordUpdateReq): Result&lt;Void&gt;</text><text fill="#000000" font-family="sans-serif" font-size="14" lengthAdjust="spacing" textLength="420.6426" x="2216" y="261.2764">+forgotPassword(req: ForgotPasswordReq): Result&lt;String&gt;</text><text fill="#000000" font-family="sans-serif" font-size="14" lengthAdjust="spacing" textLength="397.7764" x="2216" y="277.5732">+resetPassword(req: ResetPasswordReq): Result&lt;Void&gt;</text></g><!--class AddressController--><g id="elem_AddressController"><rect codeLine="49" fill="#F1F1F1" height="129.4844" id="AddressController" rx="2.5" ry="2.5" style="stroke:#181818;stroke-width:0.5;" width="549.7832" x="3272" y="131"/><ellipse cx="3479.9014" cy="147" fill="#ADD1B2" rx="11" ry="11" style="stroke:#181818;stroke-width:1.0;"/><path d="M3482.8701,152.6406 Q3482.292,152.9375 3481.6514,153.0781 Q3481.0107,153.2344 3480.3076,153.2344 Q3477.8076,153.2344 3476.4795,151.5938 Q3475.167,149.9375 3475.167,146.8125 Q3475.167,143.6875 3476.4795,142.0313 Q3477.8076,140.375 3480.3076,140.375 Q3481.0107,140.375 3481.6514,140.5313 Q3482.3076,140.6875 3482.8701,140.9844 L3482.8701,143.7031 Q3482.2451,143.125 3481.6514,142.8594 Q3481.0576,142.5781 3480.4326,142.5781 Q3479.0889,142.5781 3478.4014,143.6563 Q3477.7139,144.7188 3477.7139,146.8125 Q3477.7139,148.9063 3478.4014,149.9844 Q3479.0889,151.0469 3480.4326,151.0469 Q3481.0576,151.0469 3481.6514,150.7813 Q3482.2451,150.5 3482.8701,149.9219 L3482.8701,152.6406 Z " fill="#000000"/><text fill="#000000" font-family="sans-serif" font-size="14" lengthAdjust="spacing" textLength="125.4805" x="3500.4014" y="151.8467">AddressController</text><line style="stroke:#181818;stroke-width:0.5;" x1="3273" x2="3820.7832" y1="163" y2="163"/><line style="stroke:#181818;stroke-width:0.5;" x1="3273" x2="3820.7832" y1="171" y2="171"/><text fill="#000000" font-family="sans-serif" font-size="14" lengthAdjust="spacing" textLength="383.0313" x="3278" y="187.9951">+listAddresses(userId: Long): Result&lt;List&lt;Address&gt;&gt;</text><text fill="#000000" font-family="sans-serif" font-size="14" lengthAdjust="spacing" textLength="449.8389" x="3278" y="204.292">+addAddress(userId: Long, req: AddressReq): Result&lt;Address&gt;</text><text fill="#000000" font-family="sans-serif" font-size="14" lengthAdjust="spacing" textLength="537.7832" x="3278" y="220.5889">+updateAddress(userId: Long, id: Long, req: AddressReq): Result&lt;Address&gt;</text><text fill="#000000" font-family="sans-serif" font-size="14" lengthAdjust="spacing" textLength="382.3135" x="3278" y="236.8857">+deleteAddress(userId: Long, id: Long): Result&lt;Void&gt;</text><text fill="#000000" font-family="sans-serif" font-size="14" lengthAdjust="spacing" textLength="354.4502" x="3278" y="253.1826">+setDefault(userId: Long, id: Long): Result&lt;Void&gt;</text></g><!--class AdminUserController--><g id="elem_AdminUserController"><rect codeLine="57" fill="#F1F1F1" height="113.1875" id="AdminUserController" rx="2.5" ry="2.5" style="stroke:#181818;stroke-width:0.5;" width="562.0947" x="1613" y="139"/><ellipse cx="1816.8237" cy="155" fill="#ADD1B2" rx="11" ry="11" style="stroke:#181818;stroke-width:1.0;"/><path d="M1819.7925,160.6406 Q1819.2144,160.9375 1818.5737,161.0781 Q1817.9331,161.2344 1817.23,161.2344 Q1814.73,161.2344 1813.4019,159.5938 Q1812.0894,157.9375 1812.0894,154.8125 Q1812.0894,151.6875 1813.4019,150.0313 Q1814.73,148.375 1817.23,148.375 Q1817.9331,148.375 1818.5737,148.5313 Q1819.23,148.6875 1819.7925,148.9844 L1819.7925,151.7031 Q1819.1675,151.125 1818.5737,150.8594 Q1817.98,150.5781 1817.355,150.5781 Q1816.0112,150.5781 1815.3237,151.6563 Q1814.6362,152.7188 1814.6362,154.8125 Q1814.6362,156.9063 1815.3237,157.9844 Q1816.0112,159.0469 1817.355,159.0469 Q1817.98,159.0469 1818.5737,158.7813 Q1819.1675,158.5 1819.7925,157.9219 L1819.7925,160.6406 Z " fill="#000000"/><text fill="#000000" font-family="sans-serif" font-size="14" lengthAdjust="spacing" textLength="145.9473" x="1837.3237" y="159.8467">AdminUserController</text><line style="stroke:#181818;stroke-width:0.5;" x1="1614" x2="2174.0947" y1="171" y2="171"/><line style="stroke:#181818;stroke-width:0.5;" x1="1614" x2="2174.0947" y1="179" y2="179"/><text fill="#000000" font-family="sans-serif" font-size="14" lengthAdjust="spacing" textLength="530.9404" x="1619" y="195.9951">+listUsers(role: String, page: int, size: int): Result&lt;IPage&lt;AdminUserVO&gt;&gt;</text><text fill="#000000" font-family="sans-serif" font-size="14" lengthAdjust="spacing" textLength="425.0859" x="1619" y="212.292">+getUserById(role: String, id: Long): Result&lt;AdminUserVO&gt;</text><text fill="#000000" font-family="sans-serif" font-size="14" lengthAdjust="spacing" textLength="550.0947" x="1619" y="228.5889">+updateUser(role: String, id: Long, req: AdminUpdateUserReq): Result&lt;Void&gt;</text><text fill="#000000" font-family="sans-serif" font-size="14" lengthAdjust="spacing" textLength="354.7783" x="1619" y="244.8857">+disableUser(role: String, id: Long): Result&lt;Void&gt;</text></g><!--class AdminAuditLogController--><g id="elem_AdminAuditLogController"><rect codeLine="64" fill="#F1F1F1" height="64.2969" id="AdminAuditLogController" rx="2.5" ry="2.5" style="stroke:#181818;stroke-width:0.5;" width="708.2744" x="198" y="163.5"/><ellipse cx="459.8848" cy="179.5" fill="#ADD1B2" rx="11" ry="11" style="stroke:#181818;stroke-width:1.0;"/><path d="M462.8535,185.1406 Q462.2754,185.4375 461.6348,185.5781 Q460.9941,185.7344 460.291,185.7344 Q457.791,185.7344 456.4629,184.0938 Q455.1504,182.4375 455.1504,179.3125 Q455.1504,176.1875 456.4629,174.5313 Q457.791,172.875 460.291,172.875 Q460.9941,172.875 461.6348,173.0313 Q462.291,173.1875 462.8535,173.4844 L462.8535,176.2031 Q462.2285,175.625 461.6348,175.3594 Q461.041,175.0781 460.416,175.0781 Q459.0723,175.0781 458.3848,176.1563 Q457.6973,177.2188 457.6973,179.3125 Q457.6973,181.4063 458.3848,182.4844 Q459.0723,183.5469 460.416,183.5469 Q461.041,183.5469 461.6348,183.2813 Q462.2285,183 462.8535,182.4219 L462.8535,185.1406 Z " fill="#000000"/><text fill="#000000" font-family="sans-serif" font-size="14" lengthAdjust="spacing" textLength="176.0049" x="480.3848" y="184.3467">AdminAuditLogController</text><line style="stroke:#181818;stroke-width:0.5;" x1="199" x2="905.2744" y1="195.5" y2="195.5"/><line style="stroke:#181818;stroke-width:0.5;" x1="199" x2="905.2744" y1="203.5" y2="203.5"/><text fill="#000000" font-family="sans-serif" font-size="14" lengthAdjust="spacing" textLength="696.2744" x="204" y="220.4951">+list(role: String, page: int, size: int, action: String, targetType: String): Result&lt;IPage&lt;AuditLog&gt;&gt;</text></g><!--class addrsvc--><g id="elem_addrsvc"><rect codeLine="68" fill="#F1F1F1" height="56.2656" id="addrsvc" rx="2.5" ry="2.5" style="stroke:#181818;stroke-width:0.5;" width="140.0488" x="1438" y="167.5"/><ellipse cx="1453" cy="187.6328" fill="#B4A7E5" rx="11" ry="11" style="stroke:#181818;stroke-width:1.0;"/><path d="M1448.9219,183.3984 L1448.9219,181.2422 L1456.3125,181.2422 L1456.3125,183.3984 L1453.8438,183.3984 L1453.8438,191.4766 L1456.3125,191.4766 L1456.3125,193.6328 L1448.9219,193.6328 L1448.9219,191.4766 L1451.3906,191.4766 L1451.3906,183.3984 L1448.9219,183.3984 Z " fill="#000000"/><text fill="#000000" font-family="sans-serif" font-size="12" font-style="italic" lengthAdjust="spacing" textLength="68.332" x="1486.8584" y="183.6387">&#171;interface&#187;</text><text fill="#000000" font-family="sans-serif" font-size="14" font-style="italic" lengthAdjust="spacing" textLength="108.0488" x="1467" y="199.4639">AddressService</text><line style="stroke:#181818;stroke-width:0.5;" x1="1439" x2="1577.0488" y1="207.7656" y2="207.7656"/><line style="stroke:#181818;stroke-width:0.5;" x1="1439" x2="1577.0488" y1="215.7656" y2="215.7656"/></g><!--class UserMapper--><g id="elem_UserMapper"><rect codeLine="71" fill="#F1F1F1" height="48" id="UserMapper" rx="2.5" ry="2.5" style="stroke:#181818;stroke-width:0.5;" width="116.7109" x="2947.5" y="483.5"/><ellipse cx="2962.5" cy="499.5" fill="#ADD1B2" rx="11" ry="11" style="stroke:#181818;stroke-width:1.0;"/><path d="M2965.4688,505.1406 Q2964.8906,505.4375 2964.25,505.5781 Q2963.6094,505.7344 2962.9063,505.7344 Q2960.4063,505.7344 2959.0781,504.0938 Q2957.7656,502.4375 2957.7656,499.3125 Q2957.7656,496.1875 2959.0781,494.5313 Q2960.4063,492.875 2962.9063,492.875 Q2963.6094,492.875 2964.25,493.0313 Q2964.9063,493.1875 2965.4688,493.4844 L2965.4688,496.2031 Q2964.8438,495.625 2964.25,495.3594 Q2963.6563,495.0781 2963.0313,495.0781 Q2961.6875,495.0781 2961,496.1563 Q2960.3125,497.2188 2960.3125,499.3125 Q2960.3125,501.4063 2961,502.4844 Q2961.6875,503.5469 2963.0313,503.5469 Q2963.6563,503.5469 2964.25,503.2813 Q2964.8438,503 2965.4688,502.4219 L2965.4688,505.1406 Z " fill="#000000"/><text fill="#000000" font-family="sans-serif" font-size="14" lengthAdjust="spacing" textLength="84.7109" x="2976.5" y="504.3467">UserMapper</text><line style="stroke:#181818;stroke-width:0.5;" x1="2948.5" x2="3063.2109" y1="515.5" y2="515.5"/><line style="stroke:#181818;stroke-width:0.5;" x1="2948.5" x2="3063.2109" y1="523.5" y2="523.5"/></g><!--class AddressMapper--><g id="elem_AddressMapper"><rect codeLine="72" fill="#F1F1F1" height="48" id="AddressMapper" rx="2.5" ry="2.5" style="stroke:#181818;stroke-width:0.5;" width="141.1084" x="22.5" y="171.5"/><ellipse cx="37.5" cy="187.5" fill="#ADD1B2" rx="11" ry="11" style="stroke:#181818;stroke-width:1.0;"/><path d="M40.4688,193.1406 Q39.8906,193.4375 39.25,193.5781 Q38.6094,193.7344 37.9063,193.7344 Q35.4063,193.7344 34.0781,192.0938 Q32.7656,190.4375 32.7656,187.3125 Q32.7656,184.1875 34.0781,182.5313 Q35.4063,180.875 37.9063,180.875 Q38.6094,180.875 39.25,181.0313 Q39.9063,181.1875 40.4688,181.4844 L40.4688,184.2031 Q39.8438,183.625 39.25,183.3594 Q38.6563,183.0781 38.0313,183.0781 Q36.6875,183.0781 36,184.1563 Q35.3125,185.2188 35.3125,187.3125 Q35.3125,189.4063 36,190.4844 Q36.6875,191.5469 38.0313,191.5469 Q38.6563,191.5469 39.25,191.2813 Q39.8438,191 40.4688,190.4219 L40.4688,193.1406 Z " fill="#000000"/><text fill="#000000" font-family="sans-serif" font-size="14" lengthAdjust="spacing" textLength="109.1084" x="51.5" y="192.3467">AddressMapper</text><line style="stroke:#181818;stroke-width:0.5;" x1="23.5" x2="162.6084" y1="203.5" y2="203.5"/><line style="stroke:#181818;stroke-width:0.5;" x1="23.5" x2="162.6084" y1="211.5" y2="211.5"/></g><!--class AuditLogMapper--><g id="elem_AuditLogMapper"><rect codeLine="73" fill="#F1F1F1" height="48" id="AuditLogMapper" rx="2.5" ry="2.5" style="stroke:#181818;stroke-width:0.5;" width="146.7686" x="478.5" y="483.5"/><ellipse cx="493.5" cy="499.5" fill="#ADD1B2" rx="11" ry="11" style="stroke:#181818;stroke-width:1.0;"/><path d="M496.4688,505.1406 Q495.8906,505.4375 495.25,505.5781 Q494.6094,505.7344 493.9063,505.7344 Q491.4063,505.7344 490.0781,504.0938 Q488.7656,502.4375 488.7656,499.3125 Q488.7656,496.1875 490.0781,494.5313 Q491.4063,492.875 493.9063,492.875 Q494.6094,492.875 495.25,493.0313 Q495.9063,493.1875 496.4688,493.4844 L496.4688,496.2031 Q495.8438,495.625 495.25,495.3594 Q494.6563,495.0781 494.0313,495.0781 Q492.6875,495.0781 492,496.1563 Q491.3125,497.2188 491.3125,499.3125 Q491.3125,501.4063 492,502.4844 Q492.6875,503.5469 494.0313,503.5469 Q494.6563,503.5469 495.25,503.2813 Q495.8438,503 496.4688,502.4219 L496.4688,505.1406 Z " fill="#000000"/><text fill="#000000" font-family="sans-serif" font-size="14" lengthAdjust="spacing" textLength="114.7686" x="507.5" y="504.3467">AuditLogMapper</text><line style="stroke:#181818;stroke-width:0.5;" x1="479.5" x2="624.2686" y1="515.5" y2="515.5"/><line style="stroke:#181818;stroke-width:0.5;" x1="479.5" x2="624.2686" y1="523.5" y2="523.5"/></g><!--class User--><g id="elem_User"><rect codeLine="75" fill="#F1F1F1" height="210.9688" id="User" rx="2.5" ry="2.5" style="stroke:#181818;stroke-width:0.5;" width="204.1855" x="2904" y="665"/><ellipse cx="2985.8877" cy="681" fill="#ADD1B2" rx="11" ry="11" style="stroke:#181818;stroke-width:1.0;"/><path d="M2988.8564,686.6406 Q2988.2783,686.9375 2987.6377,687.0781 Q2986.9971,687.2344 2986.2939,687.2344 Q2983.7939,687.2344 2982.4658,685.5938 Q2981.1533,683.9375 2981.1533,680.8125 Q2981.1533,677.6875 2982.4658,676.0313 Q2983.7939,674.375 2986.2939,674.375 Q2986.9971,674.375 2987.6377,674.5313 Q2988.2939,674.6875 2988.8564,674.9844 L2988.8564,677.7031 Q2988.2314,677.125 2987.6377,676.8594 Q2987.0439,676.5781 2986.4189,676.5781 Q2985.0752,676.5781 2984.3877,677.6563 Q2983.7002,678.7188 2983.7002,680.8125 Q2983.7002,682.9063 2984.3877,683.9844 Q2985.0752,685.0469 2986.4189,685.0469 Q2987.0439,685.0469 2987.6377,684.7813 Q2988.2314,684.5 2988.8564,683.9219 L2988.8564,686.6406 Z " fill="#000000"/><text fill="#000000" font-family="sans-serif" font-size="14" lengthAdjust="spacing" textLength="31.9102" x="3006.3877" y="685.8467">User</text><line style="stroke:#181818;stroke-width:0.5;" x1="2905" x2="3107.1855" y1="697" y2="697"/><text fill="#000000" font-family="sans-serif" font-size="14" lengthAdjust="spacing" textLength="61.1201" x="2910" y="713.9951">-id: Long</text><text fill="#000000" font-family="sans-serif" font-size="14" lengthAdjust="spacing" textLength="126.2393" x="2910" y="730.292">-username: String</text><text fill="#000000" font-family="sans-serif" font-size="14" lengthAdjust="spacing" textLength="124.2705" x="2910" y="746.5889">-nickname: String</text><text fill="#000000" font-family="sans-serif" font-size="14" lengthAdjust="spacing" textLength="122.7119" x="2910" y="762.8857">-password: String</text><text fill="#000000" font-family="sans-serif" font-size="14" lengthAdjust="spacing" textLength="94.6094" x="2910" y="779.1826">-email: String</text><text fill="#000000" font-family="sans-serif" font-size="14" lengthAdjust="spacing" textLength="82.8242" x="2910" y="795.4795">-role: String</text><text fill="#000000" font-family="sans-serif" font-size="14" lengthAdjust="spacing" textLength="99.8115" x="2910" y="811.7764">-phone: String</text><text fill="#000000" font-family="sans-serif" font-size="14" lengthAdjust="spacing" textLength="99.0186" x="2910" y="828.0732">-status: String</text><text fill="#000000" font-family="sans-serif" font-size="14" lengthAdjust="spacing" textLength="187.6055" x="2910" y="844.3701">-createdAt: LocalDateTime</text><text fill="#000000" font-family="sans-serif" font-size="14" lengthAdjust="spacing" textLength="192.1855" x="2910" y="860.667">-updatedAt: LocalDateTime</text><line style="stroke:#181818;stroke-width:0.5;" x1="2905" x2="3107.1855" y1="867.9688" y2="867.9688"/></g><!--class Address--><g id="elem_Address"><rect codeLine="88" fill="#F1F1F1" height="194.6719" id="Address" rx="2.5" ry="2.5" style="stroke:#181818;stroke-width:0.5;" width="168.5908" x="21.5" y="410"/><ellipse cx="73.3916" cy="426" fill="#ADD1B2" rx="11" ry="11" style="stroke:#181818;stroke-width:1.0;"/><path d="M76.3604,431.6406 Q75.7822,431.9375 75.1416,432.0781 Q74.501,432.2344 73.7979,432.2344 Q71.2979,432.2344 69.9697,430.5938 Q68.6572,428.9375 68.6572,425.8125 Q68.6572,422.6875 69.9697,421.0313 Q71.2979,419.375 73.7979,419.375 Q74.501,419.375 75.1416,419.5313 Q75.7979,419.6875 76.3604,419.9844 L76.3604,422.7031 Q75.7354,422.125 75.1416,421.8594 Q74.5479,421.5781 73.9229,421.5781 Q72.5791,421.5781 71.8916,422.6563 Q71.2041,423.7188 71.2041,425.8125 Q71.2041,427.9063 71.8916,428.9844 Q72.5791,430.0469 73.9229,430.0469 Q74.5479,430.0469 75.1416,429.7813 Q75.7354,429.5 76.3604,428.9219 L76.3604,431.6406 Z " fill="#000000"/><text fill="#000000" font-family="sans-serif" font-size="14" lengthAdjust="spacing" textLength="56.3076" x="93.8916" y="430.8467">Address</text><line style="stroke:#181818;stroke-width:0.5;" x1="22.5" x2="189.0908" y1="442" y2="442"/><text fill="#000000" font-family="sans-serif" font-size="14" lengthAdjust="spacing" textLength="61.1201" x="27.5" y="458.9951">-id: Long</text><text fill="#000000" font-family="sans-serif" font-size="14" lengthAdjust="spacing" textLength="91.8955" x="27.5" y="475.292">-userId: Long</text><text fill="#000000" font-family="sans-serif" font-size="14" lengthAdjust="spacing" textLength="154.5264" x="27.5" y="491.5889">-receiverName: String</text><text fill="#000000" font-family="sans-serif" font-size="14" lengthAdjust="spacing" textLength="156.5908" x="27.5" y="507.8857">-receiverPhone: String</text><text fill="#000000" font-family="sans-serif" font-size="14" lengthAdjust="spacing" textLength="116.5664" x="27.5" y="524.1826">-province: String</text><text fill="#000000" font-family="sans-serif" font-size="14" lengthAdjust="spacing" textLength="81.3613" x="27.5" y="540.4795">-city: String</text><text fill="#000000" font-family="sans-serif" font-size="14" lengthAdjust="spacing" textLength="104.3916" x="27.5" y="556.7764">-district: String</text><text fill="#000000" font-family="sans-serif" font-size="14" lengthAdjust="spacing" textLength="95.3477" x="27.5" y="573.0732">-detail: String</text><text fill="#000000" font-family="sans-serif" font-size="14" lengthAdjust="spacing" textLength="133.2461" x="27.5" y="589.3701">-isDefault: Boolean</text><line style="stroke:#181818;stroke-width:0.5;" x1="22.5" x2="189.0908" y1="596.6719" y2="596.6719"/></g><!--class AuditLog--><g id="elem_AuditLog"><rect codeLine="100" fill="#F1F1F1" height="194.6719" id="AuditLog" rx="2.5" ry="2.5" style="stroke:#181818;stroke-width:0.5;" width="199.6055" x="1072" y="410"/><ellipse cx="1136.5688" cy="426" fill="#ADD1B2" rx="11" ry="11" style="stroke:#181818;stroke-width:1.0;"/><path d="M1139.5376,431.6406 Q1138.9595,431.9375 1138.3188,432.0781 Q1137.6782,432.2344 1136.9751,432.2344 Q1134.4751,432.2344 1133.147,430.5938 Q1131.8345,428.9375 1131.8345,425.8125 Q1131.8345,422.6875 1133.147,421.0313 Q1134.4751,419.375 1136.9751,419.375 Q1137.6782,419.375 1138.3188,419.5313 Q1138.9751,419.6875 1139.5376,419.9844 L1139.5376,422.7031 Q1138.9126,422.125 1138.3188,421.8594 Q1137.7251,421.5781 1137.1001,421.5781 Q1135.7563,421.5781 1135.0688,422.6563 Q1134.3813,423.7188 1134.3813,425.8125 Q1134.3813,427.9063 1135.0688,428.9844 Q1135.7563,430.0469 1137.1001,430.0469 Q1137.7251,430.0469 1138.3188,429.7813 Q1138.9126,429.5 1139.5376,428.9219 L1139.5376,431.6406 Z " fill="#000000"/><text fill="#000000" font-family="sans-serif" font-size="14" lengthAdjust="spacing" textLength="61.9678" x="1157.0688" y="430.8467">AuditLog</text><line style="stroke:#181818;stroke-width:0.5;" x1="1073" x2="1270.6055" y1="442" y2="442"/><text fill="#000000" font-family="sans-serif" font-size="14" lengthAdjust="spacing" textLength="61.1201" x="1078" y="458.9951">-id: Long</text><text fill="#000000" font-family="sans-serif" font-size="14" lengthAdjust="spacing" textLength="105.2256" x="1078" y="475.292">-adminId: Long</text><text fill="#000000" font-family="sans-serif" font-size="14" lengthAdjust="spacing" textLength="126.2393" x="1078" y="491.5889">-username: String</text><text fill="#000000" font-family="sans-serif" font-size="14" lengthAdjust="spacing" textLength="99.0938" x="1078" y="507.8857">-action: String</text><text fill="#000000" font-family="sans-serif" font-size="14" lengthAdjust="spacing" textLength="133.1504" x="1078" y="524.1826">-targetType: String</text><text fill="#000000" font-family="sans-serif" font-size="14" lengthAdjust="spacing" textLength="104.1729" x="1078" y="540.4795">-targetId: Long</text><text fill="#000000" font-family="sans-serif" font-size="14" lengthAdjust="spacing" textLength="95.3477" x="1078" y="556.7764">-detail: String</text><text fill="#000000" font-family="sans-serif" font-size="14" lengthAdjust="spacing" textLength="68.7764" x="1078" y="573.0732">-ip: String</text><text fill="#000000" font-family="sans-serif" font-size="14" lengthAdjust="spacing" textLength="187.6055" x="1078" y="589.3701">-createdAt: LocalDateTime</text><line style="stroke:#181818;stroke-width:0.5;" x1="1073" x2="1270.6055" y1="596.6719" y2="596.6719"/></g><!--class UserService--><g id="elem_UserService"><rect fill="#F1F1F1" height="48" id="UserService" rx="2.5" ry="2.5" style="stroke:#181818;stroke-width:0.5;" width="115.6514" x="3854" y="483.5"/><ellipse cx="3869" cy="499.5" fill="#ADD1B2" rx="11" ry="11" style="stroke:#181818;stroke-width:1.0;"/><path d="M3871.9688,505.1406 Q3871.3906,505.4375 3870.75,505.5781 Q3870.1094,505.7344 3869.4063,505.7344 Q3866.9063,505.7344 3865.5781,504.0938 Q3864.2656,502.4375 3864.2656,499.3125 Q3864.2656,496.1875 3865.5781,494.5313 Q3866.9063,492.875 3869.4063,492.875 Q3870.1094,492.875 3870.75,493.0313 Q3871.4063,493.1875 3871.9688,493.4844 L3871.9688,496.2031 Q3871.3438,495.625 3870.75,495.3594 Q3870.1563,495.0781 3869.5313,495.0781 Q3868.1875,495.0781 3867.5,496.1563 Q3866.8125,497.2188 3866.8125,499.3125 Q3866.8125,501.4063 3867.5,502.4844 Q3868.1875,503.5469 3869.5313,503.5469 Q3870.1563,503.5469 3870.75,503.2813 Q3871.3438,503 3871.9688,502.4219 L3871.9688,505.1406 Z " fill="#000000"/><text fill="#000000" font-family="sans-serif" font-size="14" lengthAdjust="spacing" textLength="83.6514" x="3883" y="504.3467">UserService</text><line style="stroke:#181818;stroke-width:0.5;" x1="3855" x2="3968.6514" y1="515.5" y2="515.5"/><line style="stroke:#181818;stroke-width:0.5;" x1="3855" x2="3968.6514" y1="523.5" y2="523.5"/></g><!--class StringRedisTemplate--><g id="elem_StringRedisTemplate"><rect fill="#F1F1F1" height="48" id="StringRedisTemplate" rx="2.5" ry="2.5" style="stroke:#181818;stroke-width:0.5;" width="178.4531" x="4005" y="483.5"/><ellipse cx="4020" cy="499.5" fill="#ADD1B2" rx="11" ry="11" style="stroke:#181818;stroke-width:1.0;"/><path d="M4022.9688,505.1406 Q4022.3906,505.4375 4021.75,505.5781 Q4021.1094,505.7344 4020.4063,505.7344 Q4017.9063,505.7344 4016.5781,504.0938 Q4015.2656,502.4375 4015.2656,499.3125 Q4015.2656,496.1875 4016.5781,494.5313 Q4017.9063,492.875 4020.4063,492.875 Q4021.1094,492.875 4021.75,493.0313 Q4022.4063,493.1875 4022.9688,493.4844 L4022.9688,496.2031 Q4022.3438,495.625 4021.75,495.3594 Q4021.1563,495.0781 4020.5313,495.0781 Q4019.1875,495.0781 4018.5,496.1563 Q4017.8125,497.2188 4017.8125,499.3125 Q4017.8125,501.4063 4018.5,502.4844 Q4019.1875,503.5469 4020.5313,503.5469 Q4021.1563,503.5469 4021.75,503.2813 Q4022.3438,503 4022.9688,502.4219 L4022.9688,505.1406 Z " fill="#000000"/><text fill="#000000" font-family="sans-serif" font-size="14" lengthAdjust="spacing" textLength="146.4531" x="4034" y="504.3467">StringRedisTemplate</text><line style="stroke:#181818;stroke-width:0.5;" x1="4006" x2="4182.4531" y1="515.5" y2="515.5"/><line style="stroke:#181818;stroke-width:0.5;" x1="4006" x2="4182.4531" y1="523.5" y2="523.5"/></g><!--class BCryptPasswordEncoder--><g id="elem_BCryptPasswordEncoder"><rect fill="#F1F1F1" height="48" id="BCryptPasswordEncoder" rx="2.5" ry="2.5" style="stroke:#181818;stroke-width:0.5;" width="203.3018" x="4217.5" y="483.5"/><ellipse cx="4232.5" cy="499.5" fill="#ADD1B2" rx="11" ry="11" style="stroke:#181818;stroke-width:1.0;"/><path d="M4235.4688,505.1406 Q4234.8906,505.4375 4234.25,505.5781 Q4233.6094,505.7344 4232.9063,505.7344 Q4230.4063,505.7344 4229.0781,504.0938 Q4227.7656,502.4375 4227.7656,499.3125 Q4227.7656,496.1875 4229.0781,494.5313 Q4230.4063,492.875 4232.9063,492.875 Q4233.6094,492.875 4234.25,493.0313 Q4234.9063,493.1875 4235.4688,493.4844 L4235.4688,496.2031 Q4234.8438,495.625 4234.25,495.3594 Q4233.6563,495.0781 4233.0313,495.0781 Q4231.6875,495.0781 4231,496.1563 Q4230.3125,497.2188 4230.3125,499.3125 Q4230.3125,501.4063 4231,502.4844 Q4231.6875,503.5469 4233.0313,503.5469 Q4233.6563,503.5469 4234.25,503.2813 Q4234.8438,503 4235.4688,502.4219 L4235.4688,505.1406 Z " fill="#000000"/><text fill="#000000" font-family="sans-serif" font-size="14" lengthAdjust="spacing" textLength="171.3018" x="4246.5" y="504.3467">BCryptPasswordEncoder</text><line style="stroke:#181818;stroke-width:0.5;" x1="4218.5" x2="4419.8018" y1="515.5" y2="515.5"/><line style="stroke:#181818;stroke-width:0.5;" x1="4218.5" x2="4419.8018" y1="523.5" y2="523.5"/></g><!--class AddressService--><g id="elem_AddressService"><rect fill="#F1F1F1" height="48" id="AddressService" rx="2.5" ry="2.5" style="stroke:#181818;stroke-width:0.5;" width="140.0488" x="4456" y="483.5"/><ellipse cx="4471" cy="499.5" fill="#ADD1B2" rx="11" ry="11" style="stroke:#181818;stroke-width:1.0;"/><path d="M4473.9688,505.1406 Q4473.3906,505.4375 4472.75,505.5781 Q4472.1094,505.7344 4471.4063,505.7344 Q4468.9063,505.7344 4467.5781,504.0938 Q4466.2656,502.4375 4466.2656,499.3125 Q4466.2656,496.1875 4467.5781,494.5313 Q4468.9063,492.875 4471.4063,492.875 Q4472.1094,492.875 4472.75,493.0313 Q4473.4063,493.1875 4473.9688,493.4844 L4473.9688,496.2031 Q4473.3438,495.625 4472.75,495.3594 Q4472.1563,495.0781 4471.5313,495.0781 Q4470.1875,495.0781 4469.5,496.1563 Q4468.8125,497.2188 4468.8125,499.3125 Q4468.8125,501.4063 4469.5,502.4844 Q4470.1875,503.5469 4471.5313,503.5469 Q4472.1563,503.5469 4472.75,503.2813 Q4473.3438,503 4473.9688,502.4219 L4473.9688,505.1406 Z " fill="#000000"/><text fill="#000000" font-family="sans-serif" font-size="14" lengthAdjust="spacing" textLength="108.0488" x="4485" y="504.3467">AddressService</text><line style="stroke:#181818;stroke-width:0.5;" x1="4457" x2="4595.0488" y1="515.5" y2="515.5"/><line style="stroke:#181818;stroke-width:0.5;" x1="4457" x2="4595.0488" y1="523.5" y2="523.5"/></g><!--link UserController to UserService--><g id="link_UserController_UserService"><path codeLine="114" d="M2608.68,284.68 C2654.22,310.38 2706.65,335.44 2758,350 C2989.26,415.56 3625.47,297.71 3838,410 C3868.24,425.98 3887.1124,455.0358 3898.9024,478.1358 " fill="none" id="UserController-to-UserService" style="stroke:#181818;stroke-width:1.0;"/><polygon fill="#181818" points="3901.63,483.48,3901.1014,473.6453,3899.357,479.0265,3893.9758,477.2822,3901.63,483.48" style="stroke:#181818;stroke-width:1.0;"/></g><!--link UserServiceImpl to UserService--><g id="link_UserServiceImpl_UserService"><path codeLine="115" d="M3236.6,343.25 C3242.73,345.66 3248.87,347.92 3255,350 C3501.64,433.79 3610.61,282.94 3838,410 C3867.67,426.58 3880.9514,444.5179 3892.9114,467.3979 " fill="none" id="UserServiceImpl-to-UserService" style="stroke:#181818;stroke-width:1.0;stroke-dasharray:7.0,7.0;"/><polygon fill="none" points="3901.25,483.35,3898.2288,464.6184,3887.5941,470.1775,3901.25,483.35" style="stroke:#181818;stroke-width:1.0;"/></g><!--link UserServiceImpl to UserMapper--><g id="link_UserServiceImpl_UserMapper"><path codeLine="116" d="M3006,350.14 C3006,402.21 3006,448.48 3006,477.45 " fill="none" id="UserServiceImpl-to-UserMapper" style="stroke:#181818;stroke-width:1.0;"/><polygon fill="#181818" points="3006,483.45,3010,474.45,3006,478.45,3002,474.45,3006,483.45" style="stroke:#181818;stroke-width:1.0;"/></g><!--link UserServiceImpl to StringRedisTemplate--><g id="link_UserServiceImpl_StringRedisTemplate"><path codeLine="117" d="M3236.54,343.43 C3242.69,345.78 3248.85,347.98 3255,350 C3565.58,451.91 3688.24,279.68 3988,410 C4024.75,425.97 4053.3842,455.3897 4072.4042,478.4697 " fill="none" id="UserServiceImpl-to-StringRedisTemplate" style="stroke:#181818;stroke-width:1.0;"/><polygon fill="#181818" points="4076.22,483.1,4073.5832,473.6107,4073.0402,479.2414,4067.4094,478.6984,4076.22,483.1" style="stroke:#181818;stroke-width:1.0;"/></g><!--link UserServiceImpl to BCryptPasswordEncoder--><g id="link_UserServiceImpl_BCryptPasswordEncoder"><path codeLine="118" d="M3236.86,343.72 C3242.9,345.97 3248.95,348.08 3255,350 C3656.48,477.67 3808.9,255.92 4201,410 C4240.9,425.68 4273.4786,455.762 4295.0086,478.962 " fill="none" id="UserServiceImpl-to-BCryptPasswordEncoder" style="stroke:#181818;stroke-width:1.0;"/><polygon fill="#181818" points="4299.09,483.36,4295.8999,474.0421,4295.6888,479.695,4290.0359,479.484,4299.09,483.36" style="stroke:#181818;stroke-width:1.0;"/></g><!--link AddressController to AddressService--><g id="link_AddressController_AddressService"><path codeLine="119" d="M3822.18,219.95 C4006.82,245.52 4249.74,298.86 4438,410 C4469.04,428.33 4492.0269,456.1963 4507.5969,478.4163 " fill="none" id="AddressController-to-AddressService" style="stroke:#181818;stroke-width:1.0;"/><polygon fill="#181818" points="4511.04,483.33,4509.1511,473.664,4508.1707,479.2352,4502.5995,478.2548,4511.04,483.33" style="stroke:#181818;stroke-width:1.0;"/></g><!--link AdminUserController to UserService--><g id="link_AdminUserController_UserService"><path codeLine="120" d="M1977.62,252.08 C2035.46,287.27 2115.65,329.81 2193,350 C2369.97,396.2 3675.48,326.1 3838,410 C3868.39,425.69 3887.2418,454.806 3898.9818,478.016 " fill="none" id="AdminUserController-to-UserService" style="stroke:#181818;stroke-width:1.0;"/><polygon fill="#181818" points="3901.69,483.37,3901.1971,473.5335,3899.4332,478.9083,3894.0584,477.1444,3901.69,483.37" style="stroke:#181818;stroke-width:1.0;"/></g><!--link AdminAuditLogController to AuditLogMapper--><g id="link_AdminAuditLogController_AuditLogMapper"><path codeLine="121" d="M552,227.64 C552,289.83 552,422.12 552,477.2 " fill="none" id="AdminAuditLogController-to-AuditLogMapper" style="stroke:#181818;stroke-width:1.0;"/><polygon fill="#181818" points="552,483.2,556,474.2,552,478.2,548,474.2,552,483.2" style="stroke:#181818;stroke-width:1.0;"/></g><!--link UserMapper to User--><g id="link_UserMapper_User"><path codeLine="122" d="M3006,531.66 C3006,561.6 3006,609.73 3006,658.8 " fill="none" id="UserMapper-to-User" style="stroke:#181818;stroke-width:1.0;"/><polygon fill="#181818" points="3006,664.8,3010,655.8,3006,659.8,3002,655.8,3006,664.8" style="stroke:#181818;stroke-width:1.0;"/></g><!--link AddressMapper to Address--><g id="link_AddressMapper_Address"><path codeLine="123" d="M93.97,219.55 C95.63,259.33 98.8878,337.0353 101.6978,403.8253 " fill="none" id="AddressMapper-to-Address" style="stroke:#181818;stroke-width:1.0;"/><polygon fill="#181818" points="101.95,409.82,105.5681,400.6598,101.7398,404.8244,97.5752,400.9961,101.95,409.82" style="stroke:#181818;stroke-width:1.0;"/></g><!--SRC=[xLOzRzim4DtzAuXC2H87dGr3WFFHma3Q1d6IdH7FBcjPL4ZQgVkn5mMwTMkNRbqxTIZGVvFaR_GaKX8fqOdRh0aoo8_lZkIxnoFLbASPbNH6ueGgDT1QyekvXc4iqX5_2-H9fvFHU4edG3Pkl_ou-VZhvjldwq_VIPVS_lnz_VNF1ddNwH32KmroJ6EadIcG8v0B7iC6eOhCrI8c_Nx5Y28C8VYtBM725QAR4YvxvCJ-Ee7BhHuv4kd4i18nuQcX7EMVvNZngJ93ce3EvzrR3jdc73-6pAH0PewVlpIqUSQeXcCfnZm1ZxX3YXdiq5d1CpCj16TUD0fr9IGBXjknSFnOo8dGNdnAPz0Z8vGzpm4pofFovrRvKOgbe8xLOWff7PZ2LJdaXDSpKpRZwH7AcukXDZEiPo-lsGvHMENY4_d3OyJxWvnhH8kSw6UEmhnMrs4xPBF_7AwuLg61FzoKg8W-u8fU97vupVgG-wsmAt6iDfnbYVLLDnVsESqoaARwvjkCPLQcmpGMB2VixSjbLWbhOSELmBWw1SoCgorrFN51mtjzfKSGIz1UnNBuy4t69TLSOAqIKPVoqVUFld-Wx_T5ggL84f2kxUrfwBb7utxJeP_cYUxdyqLtcQ_YMGzQyWoQthD4Jyt_yQ3DSuuAH0_nOZjFmvD5v5CFyoADjwAG9QsU3XISqodVW35CeLeLt4wm9dOGr0fDSpVtBIcgZCei4XB43dchAXEueePJy7zDnY21-v85Iu8A7i2O8hfsb2UgFP1XMKq3GDnfEolQWPsZtHMYTi_r4xONscugyxf5X8FlQXXjqPZJC-vRp2hL1dF6DHxgi79hYBP3Q6mkkPAbgKIPJfSPE7tP5zPE6bKhSjwGrZtkCn8zBiCloKPZh6vxxx0rKJkxXRq4PJyj1Qoxgtjh6JJbyRIDPeqxoQ3UBMTV68wqDlILI1kGqbJFbO_XQmEDmGOwNs9CamFyTSfdza5YF1OSRRUXrTiTUeY46FW2v8lMTikHu_RQCoaMF8qRQCprqaVGnlWhRhoW6EYMP5pP9e5FDu7oqRInArlPyBQAUtQuHc5zGnkiRMeNzxC6bvwjNKJS4Futsbct6tdtUlFvkxlx_cv2cS2wFZGSUkI6UE5dS_jcoxd-QUw4EdLpQwlwKf7EFxlrXgei7U_Gksle_0K0]--></g></svg>